<svg width="874" height="536" viewBox="0 0 874 536" fill="none" xmlns="http://www.w3.org/2000/svg">
<path d="M863.832 29.9453C863.833 28.5713 864.127 27.2258 864.691 25.9414L865.492 24.125L866.312 22.2891C866.373 22.1501 866.355 22.0706 866.352 22.0352C866.345 21.9847 866.329 21.8567 866.195 21.6445L865.023 19.8086L863.871 17.9922C862.954 16.547 862.53 14.8954 862.875 13.168L863.617 9.49609L863.676 9.14453L863.168 8.53906L862.484 7.69922C862.538 7.76246 862.539 7.72666 862.387 7.64062C862.234 7.55441 861.983 7.4485 861.605 7.32812L857.934 6.15625C857.199 5.92367 856.48 5.83829 855.785 5.86328L853.969 5.92188L852.133 5.98047C851.08 6.01827 850.022 6.03382 848.969 6L847.152 5.94141L845.316 5.88281C845.022 5.87337 844.569 5.95227 843.91 6.44922L842.074 7.83594L840.258 9.22266C839.495 9.79899 838.589 10.2276 837.562 10.3555C836.514 10.4844 835.503 10.2621 834.613 9.80859L832.797 8.89062L830.961 7.95312C830.588 7.76305 830.354 7.77647 830.062 7.89453L828.227 8.63672L826.391 9.39844C824.806 10.047 823.143 10.0628 821.547 9.4375L817.875 7.99219C817.161 7.71208 816.489 7.59076 815.844 7.60156L814.008 7.64062L812.191 7.66016C810.929 7.6813 809.672 7.4977 808.441 7.13281L806.605 6.60547L804.789 6.05859C804.446 5.95703 804.092 5.95743 803.617 6.19531L801.801 7.11328L799.965 8.03125C798.77 8.62981 797.538 9.04957 796.273 9.26172L794.438 9.57422L792.602 9.86719C791.29 10.0855 789.977 10.0548 788.676 9.76953L786.84 9.35938L785.004 8.96875C784.333 8.8217 783.676 8.80944 783.012 8.92969L779.34 9.59375C777.875 9.86046 776.421 9.71017 775.023 9.18359L773.188 8.5L771.371 7.81641C770.663 7.5495 769.984 7.44132 769.34 7.46484L767.523 7.52344L765.688 7.58203C764.711 7.61771 763.735 7.68092 762.758 7.73828L760.922 7.83594L759.086 7.95312C757.925 8.02086 756.766 7.95967 755.609 7.79688L753.773 7.54297L751.957 7.28906C750.892 7.13893 749.816 6.9415 748.754 6.70312L746.918 6.29297L745.102 5.88281C745.06 5.87351 745.023 5.87685 744.945 5.90234C744.843 5.93637 744.631 6.03541 744.32 6.3125L742.484 7.93359L740.668 9.57422C739.307 10.7857 737.583 11.5723 735.629 11.2734L733.793 10.9805L731.957 10.707C730.954 10.5524 729.952 10.3838 728.949 10.2188L727.113 9.92578L725.297 9.63281C724.354 9.47764 723.406 9.33579 722.465 9.24219L718.793 8.89062C717.682 8.78012 716.575 8.5899 715.473 8.32422L713.637 7.875L711.801 7.44531C710.997 7.25201 710.205 7.15147 709.418 7.15234H705.746C704.64 7.15436 703.529 7.08034 702.426 6.9375L700.609 6.70312L698.773 6.46875C698.595 6.44608 698.25 6.46497 697.641 6.9375L695.805 8.36328L693.988 9.76953C693.175 10.4003 692.154 10.8701 690.98 10.8828C689.806 10.8935 688.777 10.4494 687.953 9.82812L684.281 7.05469C683.654 6.57909 683.265 6.52657 683.031 6.54688L681.195 6.70312L679.379 6.87891C678.776 6.93319 678.102 7.13382 677.367 7.54297L675.551 8.55859L673.715 9.57422C672.313 10.3552 670.766 10.7062 669.164 10.4922L667.348 10.2578L665.512 10.0039C664.607 9.88317 663.7 9.8284 662.797 9.80859L660.961 9.76953L659.145 9.73047C658.009 9.70556 656.874 9.57314 655.746 9.35938L653.91 9.00781L652.074 8.67578C650.918 8.45594 649.769 8.10384 648.637 7.66016L646.82 6.95703L644.984 6.23438C644.22 5.93511 643.487 5.78447 642.777 5.74609L639.105 5.55078C638.365 5.51228 637.62 5.57919 636.859 5.76562L633.188 6.66406C632.011 6.95306 630.826 7.10066 629.633 7.11328L627.797 7.13281L625.98 7.15234C624.916 7.16339 623.841 7.12908 622.777 7.05469L620.941 6.9375L619.125 6.80078C618.738 6.77369 618.252 6.87825 617.621 7.26953L615.785 8.40234L613.969 9.53516C613.148 10.0438 612.192 10.3697 611.156 10.375C610.122 10.3789 609.168 10.0571 608.344 9.55469L606.527 8.44141L604.691 7.32812C604.613 7.28031 604.562 7.25903 604.535 7.25H604.496C604.467 7.26041 604.402 7.27712 604.32 7.32812L602.504 8.48047L600.668 9.61328C599.332 10.448 597.861 10.9399 596.293 10.9023L594.457 10.8438L592.641 10.8047C591.135 10.7686 589.71 10.2932 588.402 9.49609L586.566 8.38281L584.75 7.26953C584.078 6.85937 583.518 6.70648 583.051 6.70312H579.379C578.665 6.70093 577.926 6.80801 577.172 7.05469L575.355 7.66016L573.52 8.24609C571.908 8.7724 570.272 8.65725 568.734 7.97266L566.898 7.17188L565.082 6.35156C564.945 6.29074 564.874 6.29026 564.848 6.29297C564.805 6.29824 564.674 6.32791 564.457 6.46875L562.641 7.66016L560.805 8.85156C559.408 9.75786 557.823 10.2182 556.137 10.0039L554.301 9.78906L552.484 9.55469C551.477 9.42662 550.465 9.2893 549.457 9.14453L547.621 8.87109L545.785 8.61719C544.718 8.46369 543.646 8.25796 542.582 8.01172L540.766 7.58203L538.93 7.17188C538.263 7.01776 537.614 6.99191 536.957 7.11328L535.121 7.44531L533.305 7.79688C532.472 7.95088 531.623 8.18686 530.766 8.51953L528.93 9.24219L527.094 9.94531C525.159 10.694 523.278 10.2385 521.723 9.08594L519.887 7.73828L518.09 6.39062V6.41016L516.273 7.83594L514.438 9.26172C513.677 9.85736 512.766 10.3159 511.723 10.4531C510.658 10.5926 509.651 10.3722 508.754 9.90625L506.918 8.94922L505.102 8.01172C504.316 7.60298 503.56 7.36227 502.855 7.25L501.039 6.95703L499.203 6.66406C498.642 6.57461 498.067 6.61695 497.445 6.83984L495.609 7.50391L493.793 8.14844C492.291 8.68699 490.728 8.74129 489.203 8.26562L487.387 7.67969L485.551 7.11328C484.655 6.83399 483.76 6.6209 482.875 6.46875L481.059 6.15625L479.223 5.84375C478.398 5.70205 477.579 5.63551 476.762 5.66797L473.09 5.82422C472.081 5.86491 471.071 5.89784 470.062 5.92188L468.227 5.96094L466.41 6C465.613 6.01899 464.804 6.14072 463.988 6.35156L462.152 6.82031L460.316 7.30859C459.185 7.60126 458.042 7.78393 456.898 7.875L455.082 8.03125L453.246 8.16797C452.096 8.25955 450.938 8.24852 449.789 8.12891L447.973 7.93359L446.137 7.75781C445.353 7.67618 444.562 7.67641 443.773 7.79688L441.957 8.08984L440.121 8.36328C439.327 8.48492 438.509 8.71317 437.68 9.04688L435.863 9.78906L434.027 10.5117C432.042 11.31 430.111 10.8063 428.559 9.59375L426.742 8.16797L424.906 6.74219C424.786 6.64805 424.694 6.59596 424.633 6.56641L424.535 6.52734C424.524 6.53055 424.502 6.53576 424.477 6.54688L422.641 7.36719L420.824 8.1875C419.168 8.92912 417.413 8.9229 415.766 8.16797L412.094 6.48828C411.871 6.38649 411.723 6.35699 411.391 6.54688L409.555 7.60156L407.738 8.63672C406.472 9.35906 405.124 9.80812 403.715 9.92578L401.879 10.082L400.062 10.2383C398.417 10.3747 396.863 9.89501 395.492 9.00781L393.676 7.81641L391.84 6.625C391.801 6.59999 391.764 6.59649 391.742 6.58594C391.715 6.6007 391.671 6.63197 391.625 6.66406L389.809 7.93359L387.973 9.20312C386.515 10.2196 384.807 10.7158 382.992 10.2969L381.156 9.86719L379.34 9.4375C378.592 9.2644 377.844 9.21787 377.113 9.28125L375.297 9.4375L373.461 9.59375C372.537 9.67393 371.614 9.80441 370.688 9.96484L367.016 10.5898C365.589 10.8361 364.172 10.7103 362.797 10.2383L359.125 8.98828C358.471 8.76429 357.85 8.69957 357.25 8.77344L355.434 8.98828L353.598 9.22266C352.366 9.37387 351.134 9.34267 349.906 9.14453L348.07 8.85156L346.254 8.55859C345.569 8.44808 344.878 8.4655 344.184 8.61719L342.367 9.02734L340.531 9.41797C339.154 9.71881 337.76 9.70328 336.391 9.35938L334.574 8.89062L332.738 8.44141C331.769 8.19787 330.797 7.96944 329.828 7.75781L327.992 7.34766L326.156 6.95703C325.599 6.8362 325.047 6.84827 324.457 7.03516L322.621 7.62109L320.805 8.20703C319.509 8.61777 318.179 8.77298 316.84 8.65625L315.004 8.48047L313.188 8.32422C311.921 8.21317 310.669 7.90297 309.457 7.40625L307.621 6.66406L305.805 5.90234C305.229 5.66639 304.712 5.6317 304.223 5.72656L302.406 6.07812L300.57 6.42969C299.378 6.66065 298.179 6.74774 296.977 6.68359L293.305 6.48828C292.55 6.44835 291.79 6.50836 291.02 6.68359L289.184 7.11328L287.348 7.52344C285.962 7.83926 284.566 7.81587 283.188 7.46484L281.352 7.01562L279.535 6.54688C278.88 6.37999 278.24 6.35592 277.602 6.46875L275.766 6.80078L273.93 7.11328C272.744 7.32442 271.549 7.39661 270.355 7.32812L268.539 7.23047L266.703 7.13281C265.979 7.09125 265.245 7.15055 264.496 7.34766L262.66 7.83594L260.844 8.32422C259.793 8.60137 258.732 8.84276 257.68 9.04688L255.844 9.39844L254.027 9.75C252.524 10.0416 251.031 9.86154 249.613 9.28125L247.777 8.53906L245.941 7.77734C245.489 7.59356 245.102 7.60048 244.691 7.73828L242.875 8.34375L241.039 8.96875C239.971 9.32731 238.891 9.63561 237.816 9.88672L236 10.2969L234.164 10.7266C232.412 11.136 230.732 10.7403 229.262 9.80859L227.445 8.65625L225.609 7.48438C224.865 7.01313 224.202 6.78368 223.617 6.70312L221.781 6.44922L219.965 6.19531C219.345 6.11038 218.71 6.16767 218.051 6.37109L214.379 7.50391C213.535 7.76587 212.674 8.12501 211.801 8.57812L209.984 9.53516L208.148 10.4727C206.723 11.2118 205.172 11.5079 203.578 11.2344L201.762 10.9219L199.926 10.6094C198.863 10.427 197.801 10.1964 196.742 9.92578L193.07 8.98828C192.493 8.84199 191.933 8.85217 191.352 9.00781L189.516 9.49609L187.699 9.98438C185.921 10.4606 184.193 10.0798 182.699 9.125L180.883 7.95312L179.047 6.78125C179.007 6.75611 178.971 6.75239 178.949 6.74219C178.92 6.75719 178.883 6.78527 178.832 6.82031L176.996 8.08984L175.18 9.35938C174.359 9.92888 173.371 10.3094 172.27 10.3164C171.164 10.3216 170.167 9.94526 169.34 9.37891L167.504 8.12891L165.688 6.87891C165.032 6.43012 164.536 6.30593 164.164 6.3125L160.492 6.39062C159.406 6.41372 158.315 6.38765 157.23 6.29297L155.414 6.13672L153.578 5.96094C152.829 5.89567 152.075 5.93872 151.312 6.09766L149.477 6.48828L147.66 6.85938C146.407 7.1207 145.136 7.19678 143.871 7.05469L142.055 6.83984L140.219 6.64453C139.536 6.56779 138.837 6.6151 138.129 6.80078L136.312 7.26953L134.477 7.75781C132.978 8.14996 131.461 8.06595 130.004 7.54297L128.188 6.89844L126.352 6.23438C126.065 6.13153 125.797 6.12739 125.375 6.35156L123.539 7.32812L121.723 8.28516C120.181 9.10473 118.475 9.31634 116.781 8.77344L114.965 8.1875L113.129 7.60156C112.783 7.49201 112.447 7.50208 111.996 7.71875L110.16 8.59766L108.324 9.49609C106.864 10.1986 105.289 10.4258 103.695 10.0625L101.879 9.63281L100.043 9.22266C99.5586 9.11224 99.0717 9.14462 98.5195 9.35938L96.6836 10.0625L94.8477 10.7852C93.4803 11.3179 92.0546 11.5128 90.6094 11.3125L88.7734 11.0586L86.957 10.8047C85.7566 10.6383 84.5681 10.3216 83.4023 9.86719L81.5664 9.14453L79.7305 8.44141C79.1864 8.2299 78.7052 8.1908 78.2266 8.30469L76.4102 8.75391L74.5742 9.18359C73.0555 9.54475 71.5321 9.40408 70.082 8.83203L68.2656 8.12891L66.4297 7.40625C65.8484 7.17695 65.3327 7.13403 64.8281 7.23047L62.9922 7.58203L61.1758 7.93359C60.1914 8.12251 59.1916 8.31425 58.207 8.51953L56.3906 8.89062L54.5547 9.28125C53.451 9.51129 52.3442 9.6699 51.2344 9.75L49.3984 9.88672L47.582 10.0039C45.9521 10.1215 44.416 9.64825 43.0508 8.77344L41.2344 7.60156L39.3984 6.42969C38.7298 6.00124 38.1884 5.86106 37.7578 5.86328L35.9414 5.88281H34.1055C33.3269 5.88714 32.5416 6.00478 31.7422 6.21484L29.9062 6.68359L28.0898 7.17188C27.2311 7.39765 26.3526 7.69982 25.4727 8.08984L23.6367 8.91016L21.8008 9.71094C20.367 10.346 18.8499 10.55 17.3086 10.2383L15.4727 9.86719L13.6562 9.49609C12.7287 9.30852 11.7879 9.17104 10.8633 9.06641L9.63281 8.91016L9.59375 10.4336C9.54383 11.7598 9.09418 13.0592 8.44141 14.2812L7.46484 16.0977L6.48828 17.9336C6.24102 18.3988 6.23959 18.722 6.33203 19.0273L6.89844 20.8438L7.44531 22.6797C7.78947 23.8166 8.02188 24.9632 8.14844 26.1172L8.36328 27.9531L8.55859 29.7891C8.68871 30.9858 8.6606 32.1879 8.5 33.3828L8.26562 35.1992L8.01172 37.0352C7.90526 37.8273 7.90058 38.6273 7.99219 39.418L8.20703 41.2344L8.42188 43.0703C8.53991 44.0895 8.64521 45.1174 8.73438 46.1367L8.89062 47.9531L9.04688 49.7891C9.14809 50.9483 9.13371 52.1074 9.00781 53.2656L8.8125 55.1016L8.61719 56.918C8.52174 57.796 8.48914 58.6785 8.51953 59.5547L8.57812 61.3906L8.63672 63.207C8.66691 64.0719 8.78035 64.9525 8.94922 65.8242L9.30078 67.6406L9.65234 69.4766C9.92991 70.9094 9.81986 72.3447 9.35938 73.7344L8.75391 75.5703L8.14844 77.3867C7.99477 77.8505 8.00131 78.279 8.16797 78.7539L8.8125 80.5898L9.47656 82.4258C9.95379 83.7771 10.0999 85.1757 9.90625 86.5859L9.65234 88.4219L9.41797 90.2383C9.29947 91.1012 9.23773 91.9767 9.26172 92.8359L9.32031 94.6523L9.37891 96.4883C9.41369 97.7513 9.24573 99.0054 8.89062 100.238L8.36328 102.074L7.83594 103.891C7.73137 104.253 7.74153 104.62 7.97266 105.102L9.73047 108.773C10.1638 109.672 10.3683 110.666 10.2188 111.703C10.0697 112.722 9.61202 113.624 9.02734 114.379L7.60156 116.215L6.19531 118.031C5.7296 118.632 5.72193 118.966 5.74609 119.125L6.03906 120.941L6.3125 122.777C6.45205 123.693 6.6299 124.612 6.85938 125.531L7.32812 127.367L7.77734 129.203C8.12986 130.617 8.12255 132.054 7.73828 133.461L7.23047 135.277L6.72266 137.113C6.54166 137.777 6.52477 138.427 6.625 139.066L6.89844 140.883L7.19141 142.719C7.31108 143.48 7.55158 144.271 7.91406 145.082L8.71484 146.898L9.53516 148.734C10.1745 150.165 10.3851 151.685 10.082 153.227L9.73047 155.062L9.35938 156.879C9.19878 157.694 9.13805 158.515 9.16406 159.32L9.22266 161.137L9.28125 162.973C9.31386 163.982 9.34383 164.991 9.35938 166L9.37891 167.836L9.41797 169.672C9.43476 170.786 9.36756 171.9 9.22266 173.012L8.96875 174.848L8.73438 176.684C8.63542 177.444 8.63644 178.206 8.75391 178.969L9.04688 180.785L9.32031 182.621C9.46641 183.57 9.64508 184.522 9.84766 185.473L10.2383 187.309L10.6289 189.125C10.9782 190.763 10.6847 192.375 9.90625 193.832L8.92969 195.648L7.95312 197.484C7.88472 197.613 7.87552 197.679 7.875 197.699C7.87517 197.704 7.87554 197.799 7.99219 197.992L9.10547 199.828L10.2188 201.645C10.7576 202.529 11.0753 203.584 10.9609 204.711C10.8473 205.811 10.3555 206.754 9.73047 207.523L8.24609 209.359L6.76172 211.176C6.52891 211.462 6.44899 211.648 6.42969 211.723C6.41621 211.776 6.42975 211.813 6.44922 211.879L6.99609 213.715L7.52344 215.531C7.88201 216.736 8.08721 217.97 8.10938 219.203L8.14844 221.039L8.16797 222.855C8.18604 223.861 8.19879 224.877 8.20703 225.883L8.22656 227.699L8.24609 229.535C8.25694 230.892 7.97296 232.22 7.44531 233.5L6.70312 235.336L5.94141 237.152C5.71656 237.698 5.68156 238.173 5.78516 238.637L6.21484 240.473L6.625 242.309C6.84883 243.296 7.07517 244.29 7.30859 245.277L7.73828 247.094L8.16797 248.93C8.49323 250.305 8.495 251.695 8.16797 253.07L7.73828 254.906L7.28906 256.742C7.0597 257.705 6.85384 258.671 6.66406 259.633L6.3125 261.449L5.94141 263.285C5.92723 263.357 5.87183 263.618 6.35156 264.203L9.35938 267.875C9.98319 268.634 10.4881 269.552 10.6289 270.629C10.7725 271.733 10.5096 272.775 10.0039 273.676L8.98828 275.492L7.95312 277.328C7.61371 277.933 7.53649 278.408 7.58203 278.812L7.79688 280.648L8.01172 282.465C8.09559 283.203 8.29835 283.977 8.63672 284.77L9.41797 286.586L10.1992 288.422C10.7278 289.661 11.0433 290.942 11.1172 292.25L11.3125 295.922C11.4037 297.588 10.8496 299.123 9.90625 300.473L7.32812 304.145C7.31277 304.167 7.29931 304.186 7.28906 304.203C7.30035 304.223 7.30802 304.252 7.32812 304.281L8.57812 306.117L9.82812 307.934C10.3676 308.72 10.7676 309.645 10.8438 310.668C10.9195 311.697 10.6585 312.661 10.1992 313.52L8.24609 317.191C7.96128 317.722 7.93437 318.112 8.01172 318.461L8.40234 320.277L8.8125 322.113C9.01232 323.013 9.27813 323.919 9.59375 324.828L10.2188 326.664L10.8633 328.48C11.5757 330.533 10.9026 332.449 9.63281 333.93L8.07031 335.746L6.48828 337.582C6.43925 337.639 6.39612 337.682 6.37109 337.719L7.46484 339.477L8.55859 341.312C9.44529 342.783 9.79707 344.438 9.39844 346.156L8.98828 347.992L8.55859 349.828C8.46271 350.246 8.49241 350.685 8.73438 351.215L9.57422 353.031L10.3945 354.867C11.2074 356.647 11.0648 358.505 10.1016 360.16L9.02734 361.977L7.97266 363.812C7.59938 364.454 7.48302 364.974 7.50391 365.414L7.69922 369.086C7.76018 370.31 7.65798 371.53 7.38672 372.738L6.95703 374.574L6.54688 376.41C6.49605 376.643 6.50227 376.961 6.83984 377.484L8.03125 379.32L9.22266 381.137C9.76345 381.972 10.1033 382.961 10.082 384.047C10.0598 385.13 9.66609 386.104 9.10547 386.918L7.85547 388.734L6.58594 390.57C6.12335 391.243 6.00286 391.774 6 392.172L5.98047 393.988L5.96094 395.824C5.9567 396.464 6.09772 397.14 6.39062 397.855L7.13281 399.672L7.875 401.508C8.31072 402.572 8.6963 403.64 9.02734 404.711L9.59375 406.527L10.1602 408.363C10.5277 409.552 10.7453 410.76 10.8047 411.977L10.9023 413.812L10.9805 415.629C11.0424 416.896 10.9072 418.158 10.5703 419.398L10.0625 421.234L9.57422 423.051C9.29345 424.084 8.98887 425.125 8.65625 426.156L8.07031 427.992L7.46484 429.828C7.33208 430.245 7.33883 430.636 7.52344 431.098L9.00781 434.77C9.51544 436.023 9.81406 437.317 9.84766 438.637L9.88672 440.453L9.92578 442.289C9.95079 443.272 10.0008 444.255 10.043 445.238L10.1211 447.074L10.1992 448.891C10.2398 449.837 10.2954 450.795 10.3945 451.742L10.5898 453.559L10.7852 455.395C10.9635 457.101 10.4285 458.681 9.47656 460.062L8.22656 461.898L6.95703 463.715L6.9375 463.734C6.94993 463.754 6.95634 463.785 6.97656 463.812L8.32422 465.648L9.67188 467.465C10.2773 468.288 10.7092 469.303 10.707 470.453C10.704 471.604 10.2604 472.62 9.65234 473.441L8.30469 475.258L6.95703 477.094C6.91762 477.147 6.87657 477.18 6.85938 477.211C6.86661 477.224 6.8874 477.233 6.89844 477.25L8.07031 479.086L9.22266 480.902C10.0329 482.176 10.5593 483.561 10.6875 485.023L11 488.695C11.1324 490.238 10.7792 491.724 10.043 493.09L9.04688 494.906L8.07031 496.742C7.82413 497.2 7.82305 497.501 7.91406 497.797L9.04688 501.469C9.45407 502.778 9.60438 504.122 9.45703 505.473L9.26172 507.289L9.04688 509.125C8.92748 510.219 8.74769 511.317 8.5 512.406L8.08984 514.223L7.67969 516.059C7.516 516.778 7.47491 517.483 7.5625 518.188L7.79688 520.023L8.01172 521.84C8.13492 522.83 8.2407 523.62 8.32422 524.203L8.48047 525.316L8.57812 526.117C8.66728 526.212 8.84902 526.382 9.18359 526.605L11.0195 527.816L12.8359 529.047C13.0615 529.197 13.1865 529.201 13.207 529.203C13.2229 529.205 13.2828 529.22 13.4023 529.164L15.2188 528.305L17.0547 527.465C18.5121 526.789 20.0675 526.582 21.6445 526.938L23.4805 527.348L25.2969 527.758C26.0189 527.921 26.7382 527.962 27.4453 527.875L29.2617 527.641L31.0977 527.426C32.0742 527.306 33.0506 527.158 34.0273 527.016L35.8633 526.762L37.6992 526.488C38.9839 526.302 40.2711 526.343 41.5469 526.605L43.3828 526.977L45.1992 527.367C45.8264 527.496 46.4562 527.487 47.0938 527.328L48.9297 526.859L50.7461 526.41C52.2019 526.048 53.6718 526.109 55.1016 526.566L58.7734 527.738C59.3608 527.925 59.9186 527.937 60.4727 527.816L62.2891 527.426L64.125 527.035C65.1852 526.805 66.2457 526.614 67.3086 526.469L69.1445 526.215L70.9609 525.961C72.2943 525.779 73.6367 525.867 74.9453 526.215L76.7617 526.703L78.5977 527.191C79.5561 527.446 80.5116 527.687 81.4688 527.895L85.1406 528.676C86.111 528.886 87.0808 529.082 88.0508 529.262L89.8867 529.613L91.7031 529.945C92.5705 530.106 93.4399 530.197 94.3008 530.219L96.1367 530.258L97.9727 530.316C98.3811 530.325 98.9014 530.189 99.5547 529.77L101.371 528.598L103.207 527.426C104.738 526.444 106.5 526.103 108.305 526.684L111.977 527.855C112.334 527.97 112.677 527.969 113.129 527.758L114.965 526.898L116.781 526.039C118.279 525.334 119.896 525.148 121.508 525.59L123.344 526.098L125.16 526.586C125.72 526.74 126.26 526.74 126.82 526.586L130.492 525.57C132.234 525.09 133.932 525.427 135.434 526.332L137.27 527.426L139.086 528.539C139.761 528.946 140.332 529.085 140.805 529.086H144.457C144.912 529.087 145.465 528.955 146.137 528.539L147.953 527.406L149.789 526.273C151.462 525.239 153.361 525.081 155.18 525.961L158.852 527.719C159.631 528.096 160.372 528.329 161.078 528.422L162.895 528.656L164.73 528.91C165.19 528.971 165.692 528.89 166.293 528.598L168.129 527.699L169.965 526.82C171.387 526.127 172.911 525.863 174.477 526.137L176.312 526.449L178.129 526.762C179.007 526.915 179.893 527.013 180.766 527.035L182.582 527.074L184.418 527.133C185.547 527.162 186.674 527.279 187.797 527.484L189.633 527.816L191.449 528.148C191.961 528.242 192.5 528.205 193.09 527.973L194.906 527.25L196.742 526.527C197.979 526.041 199.256 525.761 200.551 525.707L202.367 525.629L204.203 525.551C205.567 525.495 206.913 525.733 208.207 526.234L210.023 526.938L211.859 527.66C212.836 528.038 213.813 528.4 214.789 528.754L218.461 530.082C218.896 530.239 219.289 530.247 219.73 530.082L221.547 529.398L223.383 528.715C224.465 528.311 225.553 527.972 226.645 527.699L228.461 527.23L230.297 526.781C231.326 526.524 232.353 526.274 233.383 526.059L235.219 525.688L237.035 525.297C238.356 525.021 239.695 525.021 241.02 525.277L242.855 525.629L244.672 525.98C245.955 526.229 247.203 526.706 248.402 527.367L250.238 528.363L252.055 529.379C252.139 529.426 252.201 529.449 252.23 529.457H252.328C252.368 529.444 252.444 529.4 252.543 529.34L254.379 528.227L256.195 527.113C257.604 526.253 259.183 525.843 260.844 526.078L262.68 526.332L264.496 526.586C265.76 526.766 267.006 527.157 268.207 527.719L270.043 528.578L271.859 529.418C272.322 529.635 272.685 529.651 273.051 529.535L274.867 528.949L276.703 528.383C277.928 527.996 279.173 527.8 280.434 527.797L282.27 527.777H284.105C285.441 527.775 286.745 528.055 288.012 528.559L291.684 530.004C292.172 530.197 292.593 530.214 293.031 530.082L294.848 529.535L296.684 528.969C297.814 528.628 298.955 528.399 300.102 528.266L303.773 527.836C304.962 527.699 306.159 527.694 307.348 527.836L309.164 528.07L311 528.285C311.46 528.34 311.972 528.258 312.582 527.953L314.398 527.035L316.234 526.137C317.777 525.366 319.455 525.185 321.117 525.727L324.789 526.938C325.51 527.173 326.202 527.26 326.879 527.23L330.551 527.074C331.671 527.025 332.792 527.051 333.91 527.172L335.746 527.387L337.582 527.582C338.743 527.709 339.897 527.948 341.039 528.305L342.875 528.871L344.691 529.457C344.767 529.481 344.957 529.556 345.453 529.184L347.27 527.816L349.105 526.43C349.91 525.827 350.891 525.392 352.016 525.355C353.153 525.321 354.182 525.712 355.023 526.293L356.84 527.543L358.676 528.812C359.271 529.222 359.66 529.256 359.926 529.223L361.762 528.988L363.578 528.754C364.234 528.67 364.948 528.458 365.707 528.051L367.543 527.055L369.379 526.078C370.737 525.349 372.204 524.968 373.734 525.082L375.551 525.219L377.387 525.355C378.783 525.459 380.125 525.894 381.391 526.586L383.227 527.602L385.062 528.598C385.84 529.022 386.565 529.284 387.25 529.398L389.086 529.691L390.922 530.004C391.739 530.139 392.553 530.183 393.363 530.141L395.199 530.043L397.016 529.945C397.729 529.908 398.475 529.755 399.242 529.457L401.078 528.734L402.895 528.031C404.078 527.571 405.285 527.254 406.508 527.113L408.344 526.918L410.16 526.703C411.141 526.59 412.129 526.464 413.109 526.332L414.945 526.078L416.762 525.844C417.825 525.701 418.9 525.603 419.965 525.551L421.801 525.453L423.637 525.375C424.861 525.316 426.08 525.419 427.289 525.688L429.125 526.098L430.941 526.508C431.747 526.687 432.553 526.761 433.344 526.742L435.16 526.703L436.996 526.645C437.78 526.626 438.573 526.516 439.379 526.293L441.215 525.785L443.031 525.277C444.276 524.933 445.547 524.802 446.82 524.867L448.656 524.965L450.492 525.043C452.097 525.128 453.554 525.786 454.848 526.762L456.684 528.129L458.5 529.516C458.762 529.713 458.924 529.761 458.969 529.77C458.995 529.774 459.037 529.763 459.125 529.73L460.941 529.047L462.777 528.363C464.238 527.817 465.758 527.736 467.27 528.129L470.941 529.066C471.837 529.3 472.729 529.48 473.617 529.594L475.453 529.828L477.27 530.062C477.636 530.11 478.085 530.056 478.676 529.711L482.348 527.562C483.78 526.723 485.372 526.344 487.035 526.645L490.707 527.309C491.26 527.408 491.82 527.383 492.426 527.172L494.242 526.527L496.078 525.883C497.808 525.28 499.553 525.501 501.117 526.371L502.934 527.387L504.77 528.402C505.533 528.827 506.245 529.073 506.898 529.164L508.715 529.418L510.551 529.672C511.425 529.794 512.297 529.854 513.168 529.848L516.84 529.809C517.265 529.804 517.791 529.664 518.461 529.223L520.297 528.031L522.133 526.82C523.459 525.947 524.928 525.425 526.508 525.434H528.344L530.16 525.453C531.499 525.461 532.819 525.736 534.086 526.254L535.922 527.016L537.758 527.758C538.429 528.032 539.045 528.126 539.633 528.09L543.305 527.855C544.504 527.78 545.707 527.854 546.898 528.07L548.715 528.402L550.551 528.734C551.334 528.877 552.119 528.917 552.895 528.852L554.711 528.695L556.547 528.539C557.575 528.452 558.604 528.388 559.633 528.344L563.305 528.188C564.261 528.146 565.219 528.094 566.176 528.012L569.848 527.699C570.844 527.613 571.839 527.51 572.836 527.426L574.672 527.289L576.488 527.133C577.31 527.064 578.147 526.893 578.988 526.645L580.824 526.117L582.641 525.57C584.357 525.063 586.061 525.336 587.582 526.195L589.398 527.23L591.234 528.266C591.891 528.636 592.44 528.749 592.914 528.734L594.75 528.676L596.566 528.617C597.819 528.578 599.07 528.736 600.297 529.066L602.133 529.555L603.949 530.043C604.318 530.142 604.701 530.13 605.199 529.887L607.035 529.008L608.852 528.109C610.376 527.365 612.033 527.181 613.676 527.68L615.492 528.246L617.328 528.793C617.503 528.846 617.73 528.874 618.207 528.559L621.879 526.137C622.71 525.589 623.699 525.224 624.789 525.238C625.877 525.254 626.844 525.653 627.66 526.215L629.496 527.465L631.312 528.734C631.55 528.898 631.689 528.925 631.723 528.93C631.743 528.932 631.797 528.942 631.918 528.891L633.734 528.109L635.57 527.328C636.788 526.808 638.041 526.466 639.32 526.352L641.156 526.195L642.973 526.02C644.572 525.877 646.091 526.318 647.465 527.133L649.301 528.207L651.137 529.301H651.156C651.193 529.282 651.255 529.261 651.332 529.203L653.168 527.836L655.004 526.449C656.504 525.318 658.334 524.804 660.258 525.414L662.074 525.98L663.91 526.566C664.425 526.729 664.904 526.723 665.414 526.566L667.25 526.02L669.066 525.453C671.072 524.838 672.934 525.483 674.398 526.703L676.234 528.227L678.051 529.77C678.325 529.998 678.5 530.047 678.559 530.062L678.598 530.082C678.602 530.082 678.623 530.073 678.656 530.062L682.328 528.852C683.41 528.496 684.5 528.219 685.59 527.992L687.426 527.602L689.242 527.23C690.544 526.96 691.86 526.926 693.168 527.152L695.004 527.484L696.84 527.797C697.861 527.975 698.886 528.172 699.906 528.383L701.723 528.754L703.559 529.145C703.747 529.184 704.06 529.183 704.613 528.793L706.43 527.504L708.266 526.215C709.612 525.268 711.153 524.714 712.816 524.789L714.633 524.867L716.469 524.945C717.847 525.008 719.182 525.374 720.453 526L722.289 526.898L724.105 527.797C724.778 528.128 725.379 528.263 725.922 528.246L727.738 528.188L729.574 528.129C730.544 528.099 731.515 528.053 732.484 527.992L736.156 527.758C737.42 527.679 738.685 527.811 739.926 528.129L741.742 528.598L743.578 529.066C744.185 529.222 744.774 529.227 745.375 529.086L747.211 528.656L749.027 528.227C750.073 527.981 751.124 527.762 752.172 527.582L754.008 527.27L755.824 526.957C757.16 526.727 758.506 526.776 759.828 527.094L761.664 527.543L763.48 527.973C764.287 528.167 765.093 528.268 765.883 528.266L767.719 528.246H772.562L774.398 528.266L776.215 528.285C777.268 528.292 778.327 528.323 779.379 528.402L783.051 528.676C783.486 528.707 783.988 528.616 784.613 528.266L786.449 527.25L788.285 526.215C789.886 525.317 791.674 525.136 793.422 525.824L795.238 526.527L797.074 527.25C797.469 527.405 797.802 527.415 798.207 527.25L800.023 526.508L801.859 525.746C803.225 525.189 804.663 524.976 806.117 525.16L807.934 525.395L809.77 525.629C811.255 525.817 812.63 526.432 813.891 527.328L815.727 528.617L817.543 529.926C818.199 530.392 818.689 530.483 819.027 530.473L820.844 530.434L822.68 530.375C823.399 530.353 824.141 530.2 824.906 529.926L826.723 529.281L828.559 528.617C829.593 528.246 830.627 527.896 831.664 527.582L835.336 526.488C836.904 526.015 838.495 526.102 840.004 526.723L841.82 527.484L843.656 528.227C844.011 528.373 844.293 528.374 844.672 528.207L846.508 527.387L848.344 526.586C850.215 525.754 852.11 526.043 853.734 527.133L857.406 529.594C857.514 529.665 857.587 529.681 857.621 529.691C857.634 529.688 857.685 529.693 857.758 529.652L861.43 527.582C861.894 527.32 862.222 527.119 862.426 526.977C862.451 526.959 862.466 526.932 862.484 526.918L862.719 526.605L863.051 526.137C863.195 525.932 863.563 525.36 864.203 524.359L865.375 522.523L866.547 520.707C866.935 520.1 866.994 519.652 866.957 519.32L866.762 517.504L866.566 515.668C866.477 514.858 866.279 514.041 866 513.207L864.789 509.535C864.293 508.053 864.26 506.521 864.711 505.023L865.258 503.207L865.805 501.371C866.101 500.389 866.387 499.404 866.664 498.422L867.191 496.605L867.699 494.77C867.8 494.412 867.784 494.046 867.543 493.559L866.645 491.723L865.746 489.906C865.183 488.765 864.737 487.59 864.438 486.41L863.988 484.594L863.52 482.758C863.132 481.232 863.257 479.708 863.832 478.246L864.535 476.41L865.258 474.574C865.61 473.68 865.903 472.798 866.117 471.918L866.566 470.082L866.996 468.266C867.174 467.534 867.24 466.809 867.172 466.098L866.996 464.262L866.801 462.445C866.722 461.628 866.556 460.784 866.293 459.945L865.727 458.129L865.16 456.293C864.658 454.692 864.763 453.072 865.434 451.547L866.234 449.711L867.055 447.895C867.244 447.464 867.248 447.119 867.113 446.742L866.449 444.926L865.805 443.09C865.395 441.946 865.099 440.781 864.926 439.613L864.652 437.797L864.379 435.961C864.158 434.473 864.373 433.013 864.965 431.625L865.746 429.789L866.527 427.973C866.717 427.528 866.722 427.155 866.586 426.762L865.961 424.945L865.336 423.109C864.889 421.811 864.69 420.477 864.789 419.125L865.062 415.453C865.155 414.212 865.44 412.981 865.883 411.781L866.547 409.965L867.23 408.129C867.443 407.551 867.473 407.026 867.367 406.508L866.996 404.672L866.625 402.855C866.379 401.654 866.284 400.436 866.352 399.223L866.547 395.551C866.603 394.556 866.668 393.557 866.723 392.562L866.82 390.746L866.918 388.91C866.959 388.151 866.9 387.381 866.723 386.605L866.293 384.789L865.883 382.953C865.547 381.485 865.645 380.003 866.137 378.578L866.762 376.762L867.387 374.926C867.417 374.839 867.488 374.684 867.152 374.223L865.824 372.387L864.496 370.57C863.351 368.997 862.938 367.087 863.715 365.16L864.457 363.344L865.199 361.508C865.405 360.994 865.417 360.55 865.297 360.102L864.809 358.266L864.32 356.449C863.977 355.171 863.862 353.868 863.988 352.562L864.164 350.727L864.34 348.91C864.458 347.697 864.738 346.496 865.16 345.316L865.805 343.48L866.469 341.645C866.692 341.017 866.748 340.435 866.664 339.867L866.391 338.031L866.117 336.215C865.934 334.967 865.937 333.711 866.137 332.465L866.43 330.629L866.742 328.793C866.844 328.152 866.801 327.504 866.625 326.84L866.137 325.023L865.648 323.188C865.337 322.013 865.158 320.826 865.121 319.633L865.082 317.797L865.023 315.98C864.983 314.687 865.171 313.405 865.57 312.152L866.156 310.316L866.723 308.48C866.904 307.91 866.929 307.382 866.801 306.84L866.371 305.004L865.922 303.168C865.691 302.198 865.44 301.229 865.18 300.258L864.203 296.586C863.828 295.182 863.828 293.757 864.184 292.348L864.633 290.512L865.102 288.676C865.325 287.792 865.476 286.914 865.57 286.039L865.785 284.203L865.98 282.387C866.109 281.19 866.373 280 866.781 278.832L867.426 276.996L868.051 275.18C868.089 275.071 868.157 274.893 867.836 274.438L866.547 272.621L865.258 270.785C864.22 269.313 863.734 267.565 864.203 265.727L864.672 263.91L865.141 262.074C865.251 261.639 865.225 261.207 865.004 260.688L864.223 258.852L863.461 257.035C862.799 255.481 862.724 253.832 863.285 252.23L864.574 248.559C864.777 247.975 864.801 247.432 864.691 246.898L864.32 245.082L863.949 243.246C863.652 241.794 863.758 240.334 864.242 238.93L864.867 237.113L865.492 235.277C865.67 234.761 865.694 234.286 865.551 233.793L865.004 231.977L864.477 230.141C864.005 228.514 864.183 226.887 864.906 225.375L865.785 223.539L866.664 221.723C866.971 221.081 867.054 220.517 867.016 220.004L866.742 216.332C866.653 215.166 866.672 213.999 866.82 212.836L867.055 211L867.289 209.184C867.373 208.526 867.324 207.858 867.133 207.172L866.625 205.336L866.117 203.52C865.85 202.558 865.57 201.591 865.258 200.629L864.652 198.793L864.066 196.977C863.691 195.82 863.444 194.641 863.324 193.461L863.129 191.625L862.953 189.789C862.786 188.112 863.286 186.54 864.203 185.16L865.414 183.344L866.625 181.508C867.133 180.744 867.412 180.065 867.523 179.457L867.855 177.621L868.188 175.805C868.255 175.436 868.218 174.997 867.914 174.438L866.918 172.621L865.922 170.785C865.05 169.174 864.908 167.397 865.609 165.668L867.094 161.996C867.407 161.225 867.589 160.484 867.641 159.77L867.758 157.953L867.895 156.117C867.935 155.56 867.852 154.96 867.562 154.301L866.742 152.484L865.941 150.648C865.455 149.539 865.064 148.419 864.77 147.289L864.301 145.453L863.812 143.617C863.518 142.485 863.334 141.344 863.246 140.199L863.109 138.363L862.953 136.547C862.858 135.317 862.944 134.074 863.188 132.855L863.559 131.039L863.91 129.203C864.119 128.16 864.362 127.119 864.633 126.078L865.121 124.242L865.59 122.426C865.875 121.329 866.236 120.23 866.664 119.145L868.109 115.473C868.345 114.873 868.392 114.333 868.305 113.812L868.012 111.996L867.699 110.16C867.542 109.224 867.342 108.287 867.113 107.348L866.664 105.512L866.215 103.695C865.864 102.256 865.92 100.797 866.352 99.3789L866.898 97.543L867.465 95.7266C867.525 95.5291 867.549 95.2786 867.25 94.8086L864.906 91.1367C864.109 89.8875 863.572 88.5475 863.383 87.1328L863.148 85.2969L862.895 83.4805C862.716 82.1458 862.815 80.8047 863.168 79.4961L863.656 77.6797L864.145 75.8438C864.322 75.1847 864.348 74.5462 864.242 73.9102L863.949 72.0938L863.637 70.2578C863.41 68.8967 863.487 67.5326 863.852 66.1953L864.359 64.3594L864.848 62.543C865.032 61.8664 865.078 61.2012 864.984 60.5508L864.711 58.7344L864.457 56.8984C864.273 55.6141 864.313 54.3262 864.574 53.0508L864.945 51.2148L865.316 49.3984C865.484 48.5798 865.568 47.7644 865.551 46.957L865.512 45.1211L865.453 43.3047C865.435 42.493 865.34 41.6705 865.141 40.8438L864.691 39.0078L864.262 37.1914C863.975 36.0063 863.811 34.7997 863.812 33.5977L863.832 31.7812V29.9453ZM868.832 31.7812L868.812 33.5977C868.812 34.3876 868.911 35.1934 869.105 36L870.004 39.6719C870.285 40.8353 870.427 42.0091 870.453 43.1875L870.492 45.0234L870.531 46.8398C870.557 48.0265 870.459 49.2191 870.219 50.3945L869.848 52.2305L869.477 54.0469C869.33 54.7654 869.296 55.4856 869.398 56.1953L869.672 58.0117L869.926 59.8477C870.119 61.192 870.031 62.5334 869.672 63.8516L869.184 65.6875L868.676 67.5039C868.497 68.1616 868.473 68.8036 868.578 69.4375L868.871 71.2734L869.184 73.0898C869.41 74.4487 869.329 75.8165 868.969 77.1523L868.48 78.9688L867.992 80.8047C867.807 81.4911 867.767 82.1561 867.855 82.8164L868.09 84.6523L868.344 86.4688C868.421 87.045 868.652 87.7 869.125 88.4414L871.469 92.1133C872.437 93.6316 872.795 95.379 872.25 97.1719L871.684 99.0078L871.137 100.824C870.962 101.4 870.943 101.949 871.078 102.504L871.527 104.34L871.977 106.156C872.234 107.212 872.443 108.282 872.621 109.34L872.934 111.156L873.246 112.992C873.493 114.463 873.307 115.917 872.758 117.309L871.312 120.98C870.956 121.884 870.666 122.783 870.434 123.676L869.945 125.512L869.477 127.328C869.229 128.278 869.002 129.231 868.812 130.18L868.461 132.016L868.09 133.852C867.936 134.626 867.894 135.393 867.953 136.156L868.09 137.992L868.227 139.809C868.292 140.654 868.433 141.509 868.656 142.367L869.145 144.203L869.613 146.02C869.838 146.881 870.144 147.755 870.531 148.637L872.133 152.309C872.715 153.64 872.996 155.036 872.895 156.469L872.621 160.141C872.528 161.417 872.219 162.671 871.723 163.891L870.98 165.727L870.238 167.543C870.132 167.804 870.113 168.025 870.316 168.402L871.312 170.238L872.309 172.055C873.088 173.49 873.407 175.077 873.109 176.703L872.777 178.52L872.445 180.355C872.192 181.741 871.603 183.052 870.785 184.281L869.574 186.117L868.363 187.934C867.955 188.547 867.882 188.986 867.914 189.301L868.109 191.117L868.285 192.953C868.367 193.765 868.541 194.598 868.812 195.434L869.418 197.25L870.004 199.086C870.338 200.115 870.655 201.142 870.941 202.172L871.449 204.008L871.957 205.824C872.321 207.132 872.42 208.472 872.25 209.809L872.016 211.645L871.781 213.461C871.675 214.29 871.659 215.134 871.723 215.961L871.859 217.777L871.996 219.613C872.11 221.09 871.82 222.523 871.176 223.871L869.418 227.543C869.19 228.022 869.175 228.389 869.281 228.754L869.809 230.57L870.336 232.406C870.773 233.908 870.728 235.44 870.219 236.918L869.594 238.734L868.969 240.57C868.766 241.16 868.74 241.708 868.852 242.25L869.223 244.066L869.594 245.902C869.892 247.359 869.774 248.813 869.281 250.219L867.992 253.891C867.859 254.278 867.867 254.629 868.051 255.062L868.832 256.898L869.613 258.715C870.241 260.189 870.382 261.766 869.984 263.324L869.516 265.141L869.047 266.977C869.008 267.132 868.976 267.398 869.34 267.914L870.629 269.73L871.938 271.566C873.02 273.104 873.435 274.937 872.777 276.82L872.133 278.656L871.508 280.473C871.219 281.299 871.027 282.117 870.941 282.914L870.746 284.75L870.551 286.566C870.431 287.683 870.226 288.798 869.945 289.906L869.477 291.742L869.027 293.559C868.88 294.139 868.871 294.712 869.027 295.297L869.535 297.133L870.023 298.949C870.297 299.968 870.542 300.996 870.785 302.016L871.234 303.852L871.664 305.668C872.01 307.118 871.942 308.583 871.488 310.004L870.902 311.84L870.336 313.656C870.1 314.397 870.002 315.124 870.023 315.824L870.062 317.641L870.121 319.477C870.146 320.275 870.275 321.081 870.492 321.898L871.469 325.57C871.819 326.896 871.881 328.246 871.664 329.594L871.371 331.43L871.078 333.246C870.959 333.989 870.951 334.732 871.059 335.473L871.605 339.145C871.814 340.567 871.663 341.982 871.176 343.344L870.512 345.16L869.867 346.996C869.577 347.808 869.397 348.601 869.32 349.379L868.969 353.051C868.903 353.737 868.954 354.428 869.145 355.141L870.121 358.812C870.534 360.355 870.424 361.906 869.828 363.383L869.086 365.219L868.363 367.035C868.339 367.095 868.326 367.136 868.324 367.152V367.191C868.33 367.227 868.359 367.373 868.539 367.621L869.867 369.457L871.195 371.273C872.309 372.803 872.772 374.658 872.113 376.566L871.488 378.383L870.863 380.219C870.666 380.789 870.626 381.313 870.746 381.84L871.176 383.676L871.586 385.492C871.864 386.711 871.985 387.948 871.918 389.184L871.801 391.02L871.703 392.836C871.649 393.835 871.603 394.845 871.547 395.844L871.449 397.66L871.332 399.496C871.289 400.272 871.347 401.052 871.508 401.84L871.898 403.676L872.27 405.512C872.569 406.983 872.438 408.456 871.918 409.867L871.234 411.684L870.57 413.52C870.279 414.31 870.099 415.075 870.043 415.824L869.906 417.66L869.789 419.496C869.743 420.135 869.824 420.796 870.062 421.488L870.688 423.305L871.312 425.141C871.864 426.742 871.779 428.376 871.117 429.926L870.336 431.762L869.555 433.578C869.296 434.184 869.245 434.733 869.32 435.238L869.594 437.055L869.867 438.891C869.99 439.717 870.208 440.561 870.512 441.41L871.156 443.227L871.82 445.062C872.398 446.68 872.313 448.343 871.625 449.906L870.824 451.723L870.023 453.559C869.818 454.025 869.805 454.398 869.926 454.789L870.492 456.625L871.078 458.461C871.439 459.614 871.668 460.782 871.781 461.957L871.957 463.793L872.133 465.609C872.256 466.891 872.166 468.175 871.859 469.438L871.41 471.273L870.98 473.09C870.711 474.201 870.358 475.313 869.926 476.41L869.203 478.246L868.48 480.062C868.271 480.593 868.245 481.061 868.363 481.527L868.832 483.363L869.281 485.18C869.488 485.995 869.798 486.846 870.219 487.699L871.137 489.516L872.035 491.352C872.776 492.856 872.964 494.482 872.504 496.117L871.488 499.789C871.203 500.799 870.894 501.806 870.59 502.816L870.043 504.652L869.496 506.469C869.346 506.965 869.344 507.441 869.516 507.953L870.141 509.789L870.746 511.605C871.134 512.763 871.397 513.939 871.527 515.121L871.723 516.957L871.938 518.773C872.121 520.437 871.653 522.014 870.766 523.402L869.594 525.219L868.422 527.055C867.797 528.032 867.355 528.713 867.133 529.027L866.469 529.965C866.104 530.481 865.583 530.865 865.277 531.078C864.893 531.345 864.421 531.638 863.891 531.938L860.219 534.008C859.37 534.485 858.404 534.747 857.367 534.691C856.335 534.636 855.41 534.269 854.613 533.734L852.777 532.504L850.961 531.273C850.734 531.121 850.602 531.102 850.57 531.098C850.553 531.096 850.503 531.1 850.375 531.156L848.539 531.957L846.723 532.777C845.112 533.494 843.398 533.526 841.762 532.855L839.926 532.094L838.09 531.352C837.607 531.154 837.205 531.145 836.781 531.273L834.945 531.82L833.129 532.367C832.175 532.656 831.213 532.982 830.258 533.324L828.422 533.988L826.586 534.633C825.359 535.073 824.109 535.335 822.836 535.375L821 535.434L819.164 535.473C817.511 535.521 815.989 534.958 814.652 534.008L812.836 532.699L811 531.391C810.27 530.872 809.652 530.655 809.145 530.59L805.473 530.121C804.938 530.055 804.376 530.122 803.754 530.375L801.918 531.137L800.082 531.879C798.496 532.524 796.834 532.546 795.238 531.918L793.402 531.195L791.586 530.473C791.34 530.376 791.119 530.35 790.727 530.57L788.891 531.605L787.074 532.621C785.711 533.387 784.217 533.793 782.66 533.676L780.844 533.539L779.008 533.402C778.07 533.331 777.133 533.292 776.195 533.285L772.523 533.246H767.738L765.902 533.266C764.703 533.27 763.511 533.12 762.328 532.836L760.492 532.406L758.656 531.957C757.989 531.797 757.337 531.768 756.684 531.879L754.848 532.191L753.012 532.523C752.069 532.686 751.124 532.868 750.18 533.09L746.508 533.949C745.118 534.274 743.711 534.265 742.328 533.91L740.512 533.441L738.676 532.973C737.927 532.781 737.194 532.713 736.469 532.758L734.633 532.875L732.797 532.973C731.775 533.037 730.753 533.097 729.73 533.129L727.895 533.188L726.078 533.246C724.626 533.291 723.221 532.94 721.898 532.289L720.062 531.391L718.246 530.492C717.523 530.136 716.85 529.973 716.234 529.945L714.418 529.867L712.582 529.77C712.252 529.755 711.783 529.861 711.137 530.316L709.32 531.605L707.484 532.875C706.043 533.89 704.349 534.401 702.543 534.027L700.727 533.656L698.891 533.285C697.921 533.084 696.95 532.887 695.98 532.719L692.309 532.094C691.626 531.976 690.946 531.97 690.258 532.113L688.441 532.504L686.605 532.875C685.704 533.062 684.8 533.318 683.891 533.617L682.055 534.203L680.219 534.809C678.204 535.468 676.325 534.829 674.848 533.598L673.031 532.074L671.195 530.551C670.911 530.314 670.736 530.237 670.668 530.219C670.625 530.207 670.59 530.22 670.531 530.238L668.715 530.785L666.879 531.352C665.397 531.806 663.884 531.799 662.406 531.332L660.57 530.746L658.734 530.18C658.663 530.156 658.494 530.071 658.012 530.434L656.176 531.82L654.359 533.207C653.576 533.799 652.624 534.234 651.547 534.32C650.456 534.407 649.447 534.113 648.578 533.598L646.742 532.504L644.926 531.43C644.305 531.062 643.817 530.965 643.422 531L641.605 531.176L639.77 531.332C639.057 531.395 638.317 531.588 637.543 531.918L633.871 533.48C631.984 534.284 630.085 533.96 628.48 532.855L626.664 531.586L624.828 530.336C624.776 530.3 624.738 530.271 624.711 530.258C624.69 530.269 624.666 530.294 624.633 530.316L622.797 531.527L620.98 532.738C619.466 533.741 617.701 534.129 615.883 533.578L614.047 533.031L612.211 532.465C611.864 532.362 611.521 532.377 611.059 532.602L609.223 533.5L607.387 534.379C605.893 535.107 604.283 535.322 602.66 534.887L600.824 534.379L598.988 533.891C598.222 533.685 597.463 533.594 596.723 533.617L594.906 533.676L593.07 533.734C591.553 533.781 590.107 533.374 588.773 532.621L586.938 531.586L585.121 530.551C584.648 530.283 584.345 530.293 584.066 530.375L582.23 530.902L580.414 531.449C579.262 531.79 578.09 532.014 576.918 532.113L573.246 532.426C572.256 532.509 571.267 532.594 570.277 532.68L566.605 532.992C565.577 533.081 564.548 533.143 563.52 533.188L559.848 533.344C558.886 533.385 557.919 533.439 556.957 533.52L555.141 533.676L553.305 533.832C552.085 533.935 550.863 533.876 549.652 533.656L547.836 533.324L546 532.992C545.201 532.847 544.408 532.806 543.617 532.855L539.945 533.09C538.547 533.177 537.178 532.924 535.863 532.387L534.027 531.645L532.191 530.883C531.469 530.588 530.79 530.457 530.141 530.453L528.305 530.434H526.488C526.076 530.431 525.554 530.561 524.887 531L523.051 532.191L521.215 533.402C519.898 534.269 518.443 534.795 516.879 534.809L513.207 534.848C512.092 534.856 510.979 534.768 509.867 534.613L506.195 534.105C504.859 533.918 503.575 533.459 502.348 532.777L498.676 530.746C498.247 530.508 497.983 530.517 497.719 530.609L495.902 531.254L494.066 531.879C492.68 532.362 491.249 532.492 489.809 532.23L487.973 531.898L486.156 531.566C485.83 531.507 485.426 531.551 484.867 531.879L483.031 532.953L481.215 534.008C479.817 534.827 478.268 535.23 476.645 535.023L472.973 534.555C471.869 534.413 470.768 534.196 469.672 533.91L467.836 533.441L466.02 532.953C465.539 532.828 465.066 532.853 464.535 533.051L462.699 533.734L460.883 534.418C458.935 535.148 457.035 534.664 455.492 533.5L453.676 532.133L451.84 530.746C451.141 530.219 450.605 530.063 450.219 530.043L448.402 529.945L446.566 529.848C445.85 529.811 445.124 529.897 444.379 530.102L440.707 531.117C439.521 531.444 438.321 531.616 437.113 531.645L435.277 531.703L433.461 531.742C432.258 531.77 431.056 531.635 429.867 531.371L428.031 530.98L426.195 530.57C425.413 530.397 424.638 530.318 423.871 530.355L422.055 530.453L420.219 530.551C419.295 530.596 418.371 530.681 417.445 530.805L415.609 531.039L413.773 531.293C412.765 531.428 411.755 531.548 410.746 531.664L407.074 532.094C406.305 532.183 405.519 532.385 404.711 532.699L402.875 533.402L401.059 534.105C399.832 534.583 398.569 534.878 397.289 534.945L395.453 535.043L393.617 535.121C392.442 535.182 391.27 535.119 390.102 534.926L388.266 534.633L386.43 534.32C385.126 534.103 383.871 533.635 382.66 532.973L378.988 530.98C378.263 530.584 377.61 530.4 377.016 530.355L375.199 530.219L373.363 530.082C372.903 530.048 372.375 530.134 371.742 530.473L369.906 531.469L368.09 532.445C366.857 533.108 365.559 533.544 364.223 533.715L362.387 533.949L360.57 534.184C358.842 534.404 357.219 533.896 355.824 532.934L354.008 531.664L352.172 530.395H352.152C352.139 530.404 352.129 530.422 352.113 530.434L350.277 531.801L348.441 533.188C346.944 534.309 345.123 534.821 343.207 534.223L341.371 533.656L339.555 533.09C338.706 532.825 337.865 532.633 337.035 532.543L335.199 532.348L333.383 532.152C332.511 532.058 331.635 532.036 330.766 532.074L328.93 532.152L327.113 532.23C325.8 532.289 324.495 532.099 323.227 531.684L321.391 531.078L319.574 530.492C319.244 530.384 318.91 530.385 318.461 530.609L316.645 531.508L314.809 532.426C313.426 533.116 311.946 533.427 310.414 533.246L306.742 532.816C305.941 532.722 305.141 532.704 304.34 532.797L302.504 533.012L300.688 533.227C299.843 533.324 298.99 533.514 298.129 533.773L296.293 534.32L294.477 534.867C292.921 535.336 291.333 535.251 289.828 534.652L287.992 533.93L286.176 533.188C285.451 532.899 284.761 532.776 284.105 532.777H282.289L280.453 532.797C279.722 532.798 278.974 532.906 278.207 533.148L276.371 533.734L274.555 534.301C272.927 534.815 271.281 534.665 269.75 533.949L267.914 533.09L266.078 532.25C265.286 531.879 264.522 531.651 263.793 531.547L261.977 531.273L260.141 531.02C259.81 530.973 259.392 531.019 258.812 531.371L256.977 532.504L255.141 533.617C253.405 534.674 251.457 534.748 249.652 533.754L247.816 532.758L245.98 531.742C245.188 531.305 244.443 531.02 243.734 530.883L240.062 530.18C239.397 530.052 238.739 530.06 238.07 530.199L236.234 530.59L234.398 530.961C233.436 531.162 232.471 531.384 231.508 531.625L229.672 532.094L227.855 532.543C226.952 532.769 226.034 533.042 225.121 533.383L223.305 534.066L221.469 534.75C219.917 535.329 218.3 535.354 216.742 534.789L214.926 534.125L213.09 533.461C212.076 533.093 211.057 532.701 210.043 532.309L208.227 531.605L206.391 530.902C205.691 530.631 205.028 530.525 204.398 530.551L202.582 530.629L200.746 530.707C200.051 530.736 199.331 530.88 198.578 531.176L194.906 532.621C193.503 533.173 192.031 533.341 190.551 533.07L188.734 532.738L186.898 532.406C186.026 532.247 185.147 532.155 184.281 532.133L182.465 532.074L180.629 532.035C179.508 532.006 178.385 531.898 177.27 531.703L175.453 531.371L173.617 531.059C173.189 530.984 172.724 531.034 172.152 531.312L170.316 532.191L168.5 533.09C167.111 533.768 165.617 534.052 164.086 533.852L160.414 533.383C159.129 533.213 157.876 532.817 156.664 532.23L154.828 531.332L153.012 530.453C152.86 530.38 152.778 530.374 152.758 530.375C152.721 530.379 152.618 530.413 152.426 530.531L148.754 532.797C147.435 533.611 145.991 534.087 144.457 534.086H140.785C139.265 534.082 137.826 533.611 136.508 532.816L134.691 531.723L132.855 530.609C132.366 530.315 132.069 530.326 131.82 530.395L129.984 530.902L128.168 531.41C126.739 531.806 125.282 531.801 123.852 531.41L122.016 530.922L120.18 530.414C119.798 530.31 119.405 530.318 118.91 530.551L117.094 531.41L115.258 532.27C113.719 532.993 112.068 533.149 110.434 532.621L108.598 532.016L106.781 531.43C106.595 531.369 106.363 531.348 105.902 531.645L104.086 532.816L102.25 533.988C100.913 534.847 99.4211 535.335 97.8359 535.297L96.0195 535.258L94.1836 535.219C93.0544 535.191 91.9273 535.075 90.8047 534.867L88.9688 534.516L87.1328 534.184C86.113 533.995 85.0857 533.799 84.0664 533.578L82.25 533.168L80.4141 532.777C79.379 532.553 78.3424 532.31 77.3086 532.035L75.4922 531.547L73.6562 531.059C72.971 530.876 72.3052 530.832 71.6445 530.922L69.8086 531.176L67.9922 531.41C67.0607 531.537 66.1139 531.715 65.1797 531.918L63.3633 532.309L61.5273 532.719C60.0916 533.031 58.652 532.933 57.25 532.484L53.5781 531.312C53.0174 531.134 52.492 531.121 51.957 531.254L50.1211 531.723L48.3047 532.172C46.9482 532.51 45.57 532.531 44.2031 532.25L42.3672 531.879L40.5508 531.508C39.838 531.361 39.1257 531.328 38.4219 531.43L34.75 531.977C33.7364 532.124 32.7169 532.262 31.7031 532.387L29.8867 532.602L28.0508 532.836C26.7634 532.994 25.4756 532.928 24.2031 532.641L22.3672 532.23L20.5508 531.801C20.1351 531.707 19.6981 531.75 19.1641 531.996L17.3281 532.836L15.4922 533.695C13.6239 534.56 11.7042 534.302 10.0625 533.207L8.24609 531.977L6.41016 530.766C5.32864 530.044 3.94615 528.875 3.69531 527.133L3.38281 524.906C3.29323 524.281 3.17531 523.466 3.05078 522.465L2.83594 520.629L2.60156 518.812C2.44101 517.522 2.50672 516.221 2.79688 514.945L3.20703 513.129L3.63672 511.293C3.84276 510.387 3.98775 509.478 4.08594 508.578L4.28125 506.762L4.47656 504.926C4.5464 504.286 4.49277 503.635 4.28125 502.953L3.14844 499.281C2.62197 497.586 2.85002 495.892 3.67578 494.359L4.65234 492.543L5.62891 490.707C5.96545 490.083 6.05761 489.574 6.01953 489.125L5.70703 485.453C5.65948 484.925 5.45893 484.313 5.00391 483.598L3.85156 481.762L2.67969 479.945C2.13702 479.092 1.8033 478.082 1.85938 476.977C1.91634 475.883 2.34562 474.921 2.93359 474.125L4.28125 472.289L5.64844 470.453L5.66797 470.434H5.64844L4.30078 468.598L2.95312 466.781C2.35638 465.97 1.92435 464.975 1.89844 463.852C1.87397 462.726 2.26068 461.718 2.83594 460.883L4.10547 459.047L5.35547 457.23C5.77454 456.622 5.83313 456.209 5.80469 455.922L5.62891 454.086L5.43359 452.25C5.32422 451.204 5.24414 450.152 5.19922 449.105L5.12109 447.289L5.04297 445.453C4.99966 444.444 4.95151 443.435 4.92578 442.426L4.84766 438.754C4.82983 438.082 4.67797 437.383 4.37891 436.645L3.63672 434.809L2.89453 432.992C2.27641 431.467 2.21142 429.857 2.71875 428.285L3.30469 426.449L3.89062 424.633C4.20073 423.672 4.48916 422.702 4.75 421.742L5.23828 419.926L5.74609 418.09C5.94995 417.34 6.03453 416.606 6 415.883L5.80469 412.211C5.76623 411.437 5.64175 410.649 5.39453 409.848L4.26172 406.176C3.97625 405.253 3.62659 404.331 3.24609 403.402L2.50391 401.566L1.76172 399.75C1.2379 398.471 0.951212 397.14 0.960938 395.785L0.980469 393.949L1 392.133C1.01146 390.537 1.57565 389.058 2.48438 387.738L3.73438 385.902L4.98438 384.086C5.02263 384.03 5.04851 383.978 5.0625 383.949C5.05248 383.93 5.04295 383.902 5.02344 383.871L2.64062 380.199C1.69711 378.738 1.28778 377.054 1.68359 375.297L2.09375 373.48L2.50391 371.645C2.67937 370.864 2.73777 370.085 2.69922 369.32L2.60156 367.504L2.52344 365.668C2.44603 364.116 2.87171 362.641 3.65625 361.293L4.71094 359.477L5.78516 357.641C5.98151 357.302 5.9416 357.152 5.84375 356.938L5.02344 355.121L4.18359 353.285C3.51686 351.825 3.33068 350.268 3.69531 348.695L4.10547 346.859L4.53516 345.023C4.59789 344.749 4.59462 344.41 4.28125 343.891L3.16797 342.074L2.07422 340.238C1.53098 339.337 1.22541 338.276 1.37109 337.133C1.51282 336.021 2.04956 335.078 2.69922 334.32L4.26172 332.504L5.84375 330.668C6.08496 330.386 6.12704 330.218 6.13672 330.18V330.121L5.49219 328.285L4.86719 326.469C4.49035 325.383 4.17268 324.282 3.92969 323.188L3.51953 321.371L3.12891 319.535C2.76432 317.891 3.04843 316.29 3.83203 314.828L5.78516 311.156C5.82001 311.091 5.83941 311.056 5.84375 311.039C5.84554 311.054 5.84522 310.967 5.70703 310.766L4.45703 308.93L3.20703 307.113C2.63888 306.285 2.24223 305.293 2.25 304.184C2.25838 303.076 2.67124 302.094 3.24609 301.273L4.51562 299.438L5.80469 297.621C6.25364 296.98 6.33018 296.518 6.3125 296.195L6.21484 294.359L6.11719 292.543C6.07909 291.862 5.90952 291.145 5.58984 290.395L4.02734 286.723C3.51506 285.522 3.17389 284.286 3.03125 283.031L2.83594 281.215L2.62109 279.379C2.44057 277.79 2.81935 276.275 3.59766 274.887L4.61328 273.051L5.64844 271.215C5.62281 271.172 5.57474 271.116 5.51172 271.039L4.00781 269.223L2.50391 267.387C1.34894 265.983 0.663086 264.248 1.03906 262.328L1.39062 260.492L1.76172 258.656C1.9646 257.628 2.18094 256.597 2.42578 255.57L2.875 253.754L3.30469 251.918C3.45184 251.301 3.45012 250.699 3.30469 250.082L2.875 248.246L2.44531 246.43C2.2077 245.425 1.97003 244.407 1.74219 243.402L1.33203 241.586L0.921875 239.75C0.575936 238.224 0.719021 236.702 1.3125 235.258L2.83594 231.586C3.12756 230.875 3.25129 230.209 3.24609 229.574L3.22656 227.738L3.20703 225.922C3.19894 224.934 3.18571 223.941 3.16797 222.953L3.14844 221.117L3.10938 219.301C3.09569 218.539 2.97332 217.747 2.73828 216.957L2.19141 215.141L1.64453 213.305C1.05926 211.33 1.68555 209.497 2.875 208.031L4.35938 206.195L5.84375 204.379C5.8912 204.32 5.91897 204.258 5.94141 204.223L4.84766 202.426L3.73438 200.59C2.68634 198.868 2.5733 196.929 3.53906 195.121L4.51562 193.305L5.49219 191.469C5.77786 190.934 5.82064 190.535 5.74609 190.18L4.96484 186.508C4.74308 185.467 4.5394 184.425 4.37891 183.383L4.10547 181.547L3.8125 179.73C3.62364 178.504 3.61364 177.268 3.77344 176.039L4.02734 174.203L4.26172 172.367C4.37577 171.493 4.43095 170.621 4.41797 169.75L4.37891 167.914L4.35938 166.078C4.34427 165.097 4.31296 164.11 4.28125 163.129L4.22266 161.312L4.16406 159.477C4.12565 158.287 4.22489 157.101 4.45703 155.922L4.80859 154.086L5.17969 152.27C5.26881 151.817 5.21648 151.329 4.96484 150.766L4.16406 148.949L3.34375 147.113C2.81681 145.934 2.44366 144.729 2.25 143.5L1.95703 141.664L1.68359 139.828C1.47251 138.478 1.53826 137.129 1.89844 135.805L2.91406 132.133C3.07215 131.55 3.07643 130.989 2.93359 130.414L2.46484 128.578L2.01562 126.762C1.74861 125.693 1.53493 124.612 1.37109 123.539L1.07812 121.703L0.804688 119.867C0.527139 118.033 1.15073 116.358 2.23047 114.965L3.65625 113.148L5.0625 111.312C5.23462 111.09 5.25813 110.98 5.25781 110.98L5.23828 110.941L4.35938 109.105L3.46094 107.289C2.73114 105.778 2.56124 104.135 3.03125 102.504L3.55859 100.688L4.08594 98.8516C4.30402 98.0935 4.39906 97.353 4.37891 96.625L4.32031 94.7891L4.26172 92.9727C4.23001 91.8369 4.30158 90.6867 4.45703 89.5547L4.71094 87.7383L4.96484 85.9023C5.04378 85.3222 4.97646 84.7251 4.75 84.0859L4.10547 82.2695L3.46094 80.4336C2.92437 78.9191 2.89837 77.3506 3.40234 75.8242L4.61328 72.1523C4.81176 71.5508 4.85734 70.9924 4.75 70.4336L4.39844 68.5977L4.02734 66.7812C3.80975 65.658 3.69571 64.513 3.65625 63.3828L3.57812 61.5664L3.51953 59.7305C3.48079 58.6167 3.51623 57.5025 3.63672 56.3906L3.85156 54.5547L4.04688 52.7188C4.13694 51.8856 4.1392 51.0509 4.06641 50.2188L3.91016 48.4023L3.75391 46.5664C3.6687 45.5923 3.57382 44.611 3.46094 43.6367L3.24609 41.8203L3.03125 39.9844C2.89172 38.7801 2.90865 37.574 3.07031 36.3711L3.30469 34.5352L3.55859 32.7188C3.6658 31.9211 3.66504 31.1123 3.57812 30.3164L3.38281 28.5L3.1875 26.6641C3.09587 25.8269 2.91879 24.9793 2.66016 24.125L2.11328 22.3086L1.54688 20.4727C1.0357 18.7841 1.27813 17.0972 2.09375 15.5703L3.07031 13.7539L4.04688 11.918C4.45856 11.1465 4.58045 10.5916 4.59375 10.2383L4.65234 8.71484L4.69141 7.91406C4.5757 7.82013 4.41218 7.72693 4.28125 7.5625C4.01379 7.22647 3.60862 6.51446 3.77344 5.57031C3.92865 4.6883 4.48237 4.18602 4.75 3.98828C5.03044 3.78225 5.30012 3.67678 5.41406 3.63672C5.64832 3.55499 5.84347 3.52762 5.90234 3.51953C5.98605 3.50805 6.05757 3.5025 6.09766 3.5H6.97656C7.33173 3.50041 7.63865 3.58777 7.91406 3.69531L9.61328 3.89062L11.4297 4.10547C12.4978 4.22635 13.5677 4.39808 14.6328 4.61328L16.4688 4.98438L18.3047 5.33594C18.7556 5.42642 19.2307 5.38836 19.7891 5.14062L21.6055 4.33984L23.4414 3.51953C24.553 3.02657 25.6874 2.62599 26.8203 2.32812L28.6367 1.85938L30.4727 1.37109C31.6649 1.05807 32.8729 0.889071 34.0859 0.882812H35.9023L37.7383 0.863281C39.301 0.855219 40.7685 1.36267 42.0938 2.21094L43.9297 3.38281L45.7461 4.55469C46.3728 4.95627 46.8466 5.04857 47.2109 5.02344L49.0469 4.88672L50.8828 4.76953C51.7645 4.70554 52.6513 4.56402 53.5391 4.37891L55.3555 4.00781L57.1914 3.61719C58.2002 3.40685 59.2099 3.20536 60.2188 3.01172L63.8906 2.30859C65.3768 2.02515 66.856 2.18249 68.2656 2.73828L70.1016 3.46094L71.918 4.18359C72.4626 4.39842 72.9459 4.43357 73.4219 4.32031L75.2383 3.89062L77.0742 3.44141C78.5859 3.08184 80.1008 3.21098 81.5469 3.77344L83.3828 4.49609L85.2188 5.19922C86.0446 5.5213 86.8496 5.73413 87.6406 5.84375L89.4766 6.09766L91.293 6.35156C91.838 6.42709 92.4088 6.37848 93.0312 6.13672L96.7031 4.69141C98.1409 4.13207 99.6505 3.99659 101.156 4.33984L102.973 4.76953L104.809 5.17969C105.206 5.27025 105.625 5.24052 106.156 4.98438L107.992 4.10547L109.809 3.22656C111.346 2.48434 113.008 2.32955 114.652 2.85547L118.324 4.02734C118.622 4.121 118.93 4.10992 119.379 3.87109L121.195 2.91406L123.031 1.9375C124.602 1.10226 126.326 0.917862 128.031 1.52734L129.867 2.19141L131.703 2.83594C132.237 3.02707 132.714 3.04273 133.207 2.91406L135.043 2.44531L136.879 1.95703C138.159 1.62242 139.461 1.51874 140.766 1.66406L142.602 1.87891L144.438 2.07422C145.166 2.15567 145.904 2.13103 146.645 1.97656L148.461 1.58594L150.297 1.21484C151.526 0.958701 152.766 0.87267 154.008 0.980469L155.844 1.13672L157.68 1.3125C158.584 1.39113 159.491 1.41008 160.395 1.39062L162.23 1.35156L164.047 1.3125C165.665 1.27766 167.167 1.82771 168.5 2.73828L170.336 3.98828L172.172 5.25781C172.195 5.27308 172.214 5.28705 172.23 5.29688C172.253 5.2841 172.292 5.26344 172.328 5.23828L174.145 3.96875L175.98 2.69922C176.79 2.13815 177.753 1.75218 178.832 1.72266C179.916 1.69306 180.903 2.02706 181.742 2.5625L183.578 3.73438L185.395 4.90625C185.889 5.22222 186.175 5.21624 186.391 5.16016L190.062 4.18359C191.472 3.8067 192.907 3.78323 194.32 4.14453L196.137 4.61328L197.973 5.08203C198.905 5.32051 199.836 5.52794 200.766 5.6875L202.602 6L204.418 6.3125C204.818 6.38122 205.275 6.33367 205.844 6.03906L207.68 5.08203L209.496 4.14453C210.615 3.56399 211.765 3.09462 212.914 2.73828L214.73 2.17188L216.566 1.60547C217.898 1.19285 219.258 1.06693 220.629 1.25391L222.465 1.50781L224.301 1.74219C225.707 1.93595 227.039 2.47598 228.285 3.26562L230.121 4.4375L231.938 5.58984C232.462 5.92253 232.788 5.9201 233.031 5.86328L234.848 5.43359L236.684 5.00391C237.602 4.78914 238.532 4.53326 239.457 4.22266L241.273 3.59766L243.109 2.99219C244.689 2.46197 246.3 2.53925 247.836 3.16797L251.508 4.65234C252.082 4.8873 252.582 4.94213 253.07 4.84766L254.906 4.49609L256.723 4.125C257.664 3.94246 258.611 3.72951 259.555 3.48047L261.391 3.01172L263.207 2.52344C264.451 2.19523 265.727 2.06 266.996 2.13281L268.812 2.23047L270.648 2.34766C271.446 2.39329 272.245 2.33477 273.051 2.19141L274.887 1.87891L276.723 1.54688C278.074 1.30671 279.431 1.36314 280.766 1.70312L282.602 2.15234L284.418 2.62109C285.031 2.77724 285.629 2.79761 286.234 2.66016L288.07 2.23047L289.906 1.82031C291.121 1.54339 292.347 1.42226 293.578 1.48828L295.414 1.58594L297.23 1.68359C298.018 1.72597 298.816 1.68126 299.613 1.52734L303.285 0.824219C304.789 0.533907 306.282 0.692349 307.699 1.27344L309.516 2.03516L311.352 2.77734C312.134 3.09802 312.889 3.27989 313.617 3.34375L315.453 3.5L317.27 3.67578C317.92 3.73284 318.588 3.65967 319.281 3.44141L322.953 2.26953C324.355 1.82607 325.796 1.76113 327.23 2.07422L329.066 2.46484L330.883 2.85547C331.903 3.0783 332.929 3.32195 333.949 3.57812L335.785 4.04688L337.621 4.49609C338.243 4.65139 338.843 4.6683 339.457 4.53516L341.293 4.14453L343.129 3.73438C344.423 3.45278 345.731 3.40804 347.035 3.61719L348.871 3.91016L350.707 4.22266C351.471 4.34539 352.232 4.35531 352.992 4.26172L354.828 4.02734L356.645 3.8125C358.038 3.641 359.427 3.80162 360.766 4.26172L362.582 4.88672L364.418 5.51172C365.034 5.72344 365.611 5.76587 366.176 5.66797L367.992 5.35547L369.828 5.04297C370.895 4.858 371.962 4.70604 373.031 4.61328L374.867 4.45703L376.684 4.30078C377.946 4.19123 379.208 4.2867 380.453 4.57422L382.289 5.00391L384.125 5.41406C384.304 5.45448 384.591 5.4712 385.121 5.10156L386.938 3.83203L388.773 2.5625C389.586 1.9963 390.558 1.59349 391.645 1.56641C392.732 1.54087 393.718 1.88525 394.555 2.42578L396.391 3.61719L398.207 4.80859C398.826 5.20948 399.285 5.28509 399.633 5.25781L403.305 4.94531C403.886 4.89584 404.535 4.71277 405.258 4.30078L407.094 3.24609L408.91 2.21094C410.568 1.26514 412.416 1.12773 414.184 1.9375L417.855 3.61719C418.197 3.7732 418.441 3.78468 418.773 3.63672L420.609 2.81641L422.426 1.99609C424.419 1.10353 426.405 1.55701 427.992 2.79688L429.809 4.22266L431.645 5.66797L432.074 5.90234C432.078 5.90191 432.121 5.90318 432.172 5.88281L433.988 5.14062L435.824 4.39844C436.984 3.9323 438.164 3.60526 439.359 3.42188L441.195 3.14844L443.031 2.85547C444.236 2.67186 445.455 2.65153 446.664 2.77734L448.48 2.97266L450.316 3.14844C451.161 3.2362 452.012 3.2547 452.855 3.1875L454.672 3.05078L456.508 2.89453C457.354 2.82697 458.207 2.68731 459.066 2.46484L460.902 1.99609L462.719 1.50781C463.896 1.20274 465.098 1.04801 466.293 1.01953L468.109 0.960938L469.945 0.921875C470.928 0.898449 471.911 0.863904 472.895 0.824219L474.73 0.746094L476.547 0.6875C477.719 0.640164 478.897 0.702621 480.062 0.902344L481.898 1.23438L483.734 1.54688C484.84 1.73732 485.94 2.006 487.035 2.34766L490.707 3.48047C491.173 3.62441 491.605 3.61543 492.094 3.44141L493.93 2.79688L495.766 2.13281C497.136 1.64239 498.554 1.49555 499.984 1.72266L503.656 2.30859C504.944 2.51496 506.2 2.95097 507.406 3.57812L509.223 4.51562L511.059 5.47266C511.078 5.48269 511.086 5.50697 511.098 5.51172C511.139 5.49508 511.22 5.43863 511.352 5.33594L513.188 3.89062L515.004 2.46484C515.811 1.83279 516.824 1.35773 517.992 1.33203C519.169 1.30775 520.206 1.74967 521.039 2.36719L522.855 3.71484L524.691 5.08203C524.947 5.27136 525.101 5.30934 525.141 5.31641C525.164 5.32014 525.208 5.3117 525.297 5.27734L527.113 4.57422L528.949 3.87109C530.083 3.43045 531.229 3.08939 532.387 2.875L534.223 2.54297L536.059 2.19141C537.393 1.94616 538.737 1.98232 540.062 2.28906L541.898 2.71875L543.715 3.14844C544.645 3.36368 545.581 3.52309 546.508 3.65625L548.324 3.92969L550.16 4.18359C551.144 4.32496 552.126 4.46876 553.109 4.59375L554.945 4.82812L556.762 5.04297C557.069 5.082 557.493 5.03994 558.09 4.65234L559.906 3.46094L561.742 2.26953C563.373 1.21162 565.265 0.958872 567.113 1.78125L568.949 2.60156L570.766 3.42188C571.222 3.62522 571.593 3.62529 571.977 3.5L573.793 2.89453L575.629 2.30859C576.865 1.90442 578.123 1.69874 579.398 1.70312H583.07C584.594 1.7107 586.031 2.18903 587.348 2.99219L589.184 4.10547L591 5.21875C591.687 5.63805 592.269 5.79299 592.758 5.80469L594.594 5.84375L596.41 5.90234C596.837 5.91256 597.373 5.78641 598.031 5.375L599.848 4.24219L601.684 3.08984C602.501 2.57993 603.442 2.2392 604.477 2.23047C605.512 2.22268 606.464 2.54925 607.289 3.05078L610.961 5.27734C611.044 5.32814 611.091 5.36658 611.117 5.375H611.156C611.182 5.36672 611.241 5.33383 611.332 5.27734L613.148 4.14453L614.984 3.01172C616.348 2.16638 617.869 1.70792 619.477 1.82031L621.293 1.95703L623.129 2.07422C624.06 2.13928 624.992 2.16199 625.922 2.15234L627.758 2.13281L629.574 2.11328C630.373 2.10499 631.18 2.00152 631.996 1.80078L633.832 1.35156L635.648 0.902344C636.878 0.599798 638.129 0.48445 639.379 0.550781L641.215 0.648438L643.031 0.746094C644.313 0.814125 645.574 1.1057 646.801 1.58594L648.637 2.28906L650.473 3.01172C651.332 3.34779 652.177 3.59529 653.012 3.75391L654.848 4.10547L656.664 4.45703C657.525 4.62055 658.388 4.71124 659.242 4.73047L662.914 4.80859C664.003 4.83268 665.09 4.91743 666.176 5.0625L668.012 5.29688L669.828 5.55078C670.221 5.6032 670.681 5.52867 671.273 5.19922L674.945 3.16797C676.204 2.4678 677.54 2.02347 678.93 1.89844L680.746 1.72266L682.582 1.56641C684.343 1.40861 685.945 2.03673 687.309 3.07031L689.145 4.45703L690.941 5.80469L692.738 4.39844L694.574 2.99219C695.956 1.92 697.601 1.2726 699.418 1.50781L701.254 1.74219L703.07 1.99609C703.961 2.11138 704.859 2.15415 705.746 2.15234H709.398C710.601 2.1499 711.807 2.2961 712.992 2.58203L714.809 3.01172L716.645 3.46094C717.531 3.67464 718.422 3.8229 719.301 3.91016L721.117 4.08594L722.953 4.28125C724.002 4.38541 725.05 4.51911 726.098 4.69141L727.934 4.98438L729.77 5.29688C730.753 5.45864 731.736 5.6141 732.719 5.76562L734.555 6.03906L736.391 6.33203C736.448 6.34097 736.722 6.36368 737.328 5.82422L741 2.58203C742.396 1.33944 744.18 0.547751 746.195 1L748.031 1.41016L749.848 1.82031C750.779 2.02924 751.713 2.19716 752.641 2.32812L754.477 2.60156L756.293 2.85547C757.126 2.97282 757.964 3.0014 758.793 2.95312L760.629 2.85547L762.465 2.73828C763.478 2.67877 764.498 2.63858 765.512 2.60156L767.328 2.52344L769.164 2.46484C770.515 2.4157 771.843 2.64428 773.129 3.12891L774.965 3.8125L776.781 4.51562C777.375 4.73946 777.915 4.76729 778.441 4.67188L782.113 4.00781C783.436 3.76746 784.763 3.79726 786.078 4.08594L787.914 4.47656L789.75 4.88672C790.435 5.03622 791.106 5.05771 791.781 4.94531L793.617 4.63281L795.434 4.33984C796.16 4.21854 796.923 3.9564 797.719 3.55859L801.391 1.72266C802.908 0.964995 804.566 0.784574 806.215 1.27344L808.031 1.80078L809.867 2.34766C810.63 2.57354 811.382 2.6724 812.113 2.66016L813.93 2.64062L815.766 2.60156C817.113 2.57952 818.433 2.84104 819.711 3.34375L821.547 4.06641L823.363 4.76953C823.756 4.9241 824.092 4.93481 824.496 4.76953L826.332 4.00781L828.148 3.26562C829.848 2.5684 831.609 2.67713 833.227 3.5L835.062 4.4375L836.879 5.35547C836.9 5.36638 836.924 5.38914 836.938 5.39453C836.935 5.39543 837.026 5.37308 837.23 5.21875L839.066 3.85156L840.902 2.46484C842.236 1.45809 843.775 0.829276 845.473 0.882812L847.309 0.941406L849.125 1C850.066 1.03021 851.016 1.0143 851.957 0.980469L853.793 0.921875L855.609 0.863281C856.907 0.816612 858.2 0.991343 859.457 1.39062L861.273 1.97656L863.109 2.5625C864.264 2.92929 865.513 3.50848 866.352 4.53516L867.055 5.375L867.738 6.21484C868.838 7.56086 868.768 9.25908 868.52 10.4922L868.148 12.3281L867.777 14.1445C867.724 14.4089 867.743 14.7691 868.09 15.3164L869.262 17.1328L870.414 18.9688C871.446 20.5981 871.687 22.4701 870.883 24.3008L870.082 26.1367L869.281 27.9531C868.969 28.6625 868.833 29.3252 868.832 29.9453V31.7812Z" fill="#402CC3"/>
</svg>
