<?xml version="1.0" encoding="UTF-8"?>
<svg id="Layer_2" data-name="Layer 2" xmlns="http://www.w3.org/2000/svg" viewBox="0 0 797.68 842.1">
  <defs>
    <style>
      .cls-1 {
        fill: #402cc3;
      }

      .cls-2 {
        fill: #361b86;
      }

      .cls-3 {
        fill: #ab4967;
      }

      .cls-4 {
        fill: #f0e3d0;
      }
    </style>
  </defs>
  <g id="Layer_2-2" data-name="Layer 2">
    <g>
      <path class="cls-3" d="M27.47,643.84h-1c-.02-.33.04-.67,0-1,.44.13.96.57,1,1Z"/>
      <path class="cls-1" d="M255.25,832.66c-.18,2.66.67,7.07-1.65,7.85l-41.31,1.16c-.12-3.03-.63-6.02-1-9h43.96Z"/>
      <path class="cls-1" d="M69.43,834.66c-.05.25,1.91,1.72.28,4.75-2.58,4.78-12.46,1.29-16.87,1.36-5.71.09-18.81,2.39-23.73.75-2.68-.9-1.3-4.75-1.64-6.85h41.96Z"/>
      <path class="cls-1" d="M305.2,833.66l4.5,1h35.96s-.5-1-.5-1v-1c.59-.16,1.67.2,2,0-.26,2.66-.22,5.31-1.1,7.88l-40.21.97-1.49-1.51-.64-6.36,1.49.02Z"/>
      <path class="cls-1" d="M161.34,834.66c-.02.32,2.03,4.26,1.01,6-6.67,1.88-13.6-.09-19.54-.03-5.2.05-19.49,3.6-22.74-2.24-1.35-2.42.36-3.54.31-3.72h40.96Z"/>
      <path class="cls-1" d="M620.89,834.66c-.12,1.86.66,5.3-.97,6.58-12.82.81-25.51-.72-38.34.3-2.77-.82-1.15-5.02-1.64-6.88h40.96Z"/>
      <path class="cls-1" d="M437.07,834.66c-.11,2.01.41,4.1-.44,6.06-1.71,2.46-33.59.25-38.94,0-1.86-1.04-.51-5.7-.58-6.06h39.96Z"/>
      <path class="cls-1" d="M528.98,834.66c-.1,1.52.69,5.29-.64,6.05-5.5,2.03-10.26-.22-15.87-.11-3.9.08-20.74,2.1-23.25-.14-.89-1.72-.66-4.12-1.2-5.8h40.96Z"/>
      <path class="cls-1" d="M11.49,21.45v1c-2.21.87-8.59,1.16-9.03,2.67.9,4.95-1.51,23.35,1.04,26.3,1.16,1.34,2.94,1.8,4,0,9.3.94,19.74,10.53,20.98,19.98h-1c-5.04-2.44-8.62-9.7-14.94-11.54-3.76-1.09-9.15.91-10.81-4.18C.21,51.04-.28,30.99.78,26.21c1.27-5.72,6.74-3.42,10.71-4.76Z"/>
      <path class="cls-1" d="M567.94,809.68c4.37,2.14,3.79,1.88,5.99,5.99,1.49,2.78,2.14,5.01,3,7.99-4.82-1.9-4.82-6.63-9.66-9.82-11.12-7.32-26.09-4.27-33.3,6.82l-3-1c1.07-2.93,2.13-3.82,4-5.99l7.29-5.19c8.76-4.5,17.17-2.97,25.67,1.2Z"/>
      <path class="cls-1" d="M376.13,804.69c.32.05.74.94,1,1l1.48,1,.52-1c5.61,1.71,7.41,3.81,10.99,7.99.29,1.32,1.18,2.05,2,3,.53.62,1.32.69,2,2l-1,2v1c-2.75.76-1.57-1.67-2.35-2.58-4.94-5.78-11.26-9.64-19.13-9.48-3.34.07-6.3,1.38-9.17,2.89l-12.31,9.17c.87-3.07,1.52-5.13,3-7.99.29-.36.68-.66,1-1,4.15-2.88,7.97-5.56,12.99-6.99.27-.08.65-.93,1-1,1.6,1.68,6.43,1.67,7.99,0Z"/>
      <path class="cls-1" d="M793.72,181.3c1.88.47,3.83,3.64,3.96,5.54-2.79,7.64,1.35,25.95-1.59,32.17-.94,1.98-11.58,2.81-15.62,5.27-3.4,2.07-4.79,8.39-8.73,7.97,2.05-8.1,7.68-12.78,14.99-15.98,2.53-1.11,4.04-3.03,8-1.99-.64-10.47,1.3-21.97-1.01-31.97v-1Z"/>
      <path class="cls-1" d="M770.75,573.91c.03.08,1.56-.11,1.65.19,1.82,6.6,2.78,9.66,9.42,13.22,7.68,4.12,13.92-.38,14.96,10.02.37,3.71.29,28.01-1.1,29.93-1.72,2.38-11.21,2.92-14.6,4.94s-4.61,9.05-9.33,8.64c.3-1.44,1.44-3.05,1.89-4.53l-.89-.47c3.41-6.3,5.55-7.56,11.99-9.99,2.79-.42,5.46-.54,7.99-2,.98-.56,2.05-1.15,2.06-2.49l-.06-29.48c-12.43-.1-20.5-6.3-23.98-17.98Z"/>
      <path class="cls-1" d="M459.05,804.69c11.57,2.8,20.49,3.48,24.98,15.98l-13.3-9.18c-6.09-2.38-12.92-2.92-18.59.76l-12.06,11.41c2.19-9.6,8.03-15.55,18-17-.13-.43-1.02-.89-1.01-.98.17-1.46,1.08-.9,2-1Z"/>
      <path class="cls-1" d="M666.85,819.67c-4.62-2.01-8.31-7.69-13.25-9.23-6.86-2.13-16.83-.5-22.22,4.22-2.55,2.24-3.6,7.3-7.48,8,1.04-4.12,2.56-7.83,5.98-10.49l-.98-.49c2.55-2.5,3.26-3.57,6.99-5,4.29.49,7.65-1.36,12.53-1.04,8.27.55,16.11,6.23,18.44,14.03Z"/>
      <path class="cls-1" d="M734.78,804.69c7.05,1.86,14.22,3.07,19.98,7.99.32.34.7.64,1,1,.23,2.24,1.32,3.82,2,5.99-4.44-1.48-6.27-5.73-10.75-7.73-8.1-3.62-14.4-2.72-21.94,1.46l-9.27,6.27c.26-.86.91-3.81,1-4,1.55-3.38,2.27-3.36,5-5,3.24-1.94,10.27-3.3,10.99-5.99.61-.1,1.35.04,2,0Z"/>
      <path class="cls-1" d="M299.21,819.67c-3.85-.83-5.5-4.76-8.66-6.82-11.67-7.63-21.69-1.03-31.3,5.82,5-11.98,16.92-16.08,29.18-10.7,6.83,3,8.02,5.36,10.78,11.7Z"/>
      <path class="cls-1" d="M3.5,788.7c1.29,1.29,2.83,1.86,4,0,11.67,1.76,17.9,11.09,19.98,21.98-.44.13-.96.57-1,1-3.15-3.44-4.97-8.88-8.51-11.98-5.09-4.45-13.15-4.16-17.46-9.51,3.37-.97.98-1.39,1-3.49h1c.02.11.92,1.92,1,2Z"/>
      <path class="cls-1" d="M12.49,505.98v1c-3.23,1.21-6.46,2.2-9.98,2.01l.99,32.96-1.01.98c11.97.57,20.61,5.95,22.98,18l-8.68-8.81c-7.13-5.81-15.13-1.41-16.3-12.17,1.67-7.96,1.67-18.11,0-25.97.97-9.15,5.52-5.59,11.99-7.99Z"/>
      <path class="cls-1" d="M796.72,133.34c-1.15,10.11-4.64,5.58-11.88,8.6l-13.09,9.39c-.07-.45-.55-.85-1-1,1.71-6.25,8.02-12.65,13.99-14.99.73,1.16,7.23.39,8.33.02,1.29-.43.47-1.78.67-2.02.31-.38,1.48-.61,2-1,.04.43.56.87,1,1Z"/>
      <path class="cls-2" d="M17.48,667.82c-5.17,3.61-8.32,4.59-14.55,5.93-.29,4.4-1.46,30.2.52,31.58,21.68,2.53,33.34,25.44,17.03,42.42,5.94-7.68,7.69-17.12,4.02-26.3-4.88-2.59-5.94-6.12-11.66-8.52-3.48-1.46-6.4-2.67-10.35-2.14-2.29-11.94-3.09-24.9-1-37.23l15.99-5.74Z"/>
      <path class="cls-1" d="M795.72,296.18h1c-.09,1.95.29,3.93-.14,5.85l-13.53,3.96-11.31,9.17c1.39-5.98,4.06-8.63,7.99-12.99,5.12-3.82,9.32-5.81,15.98-5.99Z"/>
      <path class="cls-1" d="M794.72,52.42c-.3.92.42,2.74-.11,3.88-5.57.91-10.27,4.7-15.37,7.12l-8.5,8.98c2.17-13.77,10.44-19.16,23.98-19.98Z"/>
      <path class="cls-1" d="M17.48,138.34c1.77.86,2.35.61,4.07,2.45,1.44,1.54,1.24,2.12,1.93,3.55,1.53,3.15,1.44,3.71,2,6.99-4.15-2.45-6-6.21-10.67-8.81-3.54-1.97-8.18-3.2-12.06-4.42-1.85-1.46-.21-3.57-.25-3.76,4.9.75,10.53,1.82,14.99,4Z"/>
      <path class="cls-1" d="M2.5,298.18c7.18-.63,14.84,2.54,19.41,8.07,2.46,2.97,2.94,4.49,4.57,5.92.64.56.73,1.26,1,2h-1c-3.48.7-5.14-3.98-7.66-5.84-4.53-3.35-9.34-5.33-15.09-5.38-2.45-1.83-1.18-4.45-1.23-4.77Z"/>
      <path class="cls-2" d="M623.89,822.67c-.87,3.44-1.33,6.41-1,10-.65.08-1.35-.09-2,0-.05.66.04,1.34,0,2h-40.96c-.9-3.41-1.95-7.37-3-10.99-.86-2.98-1.51-5.21-3-7.99,4.78,3.9,6.36,11.06,5.99,16.99,12.82-1.22,28.52,1.62,40.97,0,.8-9.99.34-13.46,7.99-20.98l.98.49c-3.42,2.67-4.93,6.38-5.98,10.49Z"/>
      <path class="cls-1" d="M24.47,393.09c.2,3.33-.51,1.83-2,.5-5.9-5.28-10.19-10.08-19.05-9.93-1.49-.98-.64-3.36-.93-4.56,11.68,1.46,17.42,2.82,21.98,13.99Z"/>
      <path class="cls-1" d="M2.5,215.26c10.51.28,19.86,4.88,22.98,14.99-7.38-5.52-12.99-9.64-22.57-10.92-2.45-1.77-.34-3.78-.41-4.06Z"/>
      <path class="cls-1" d="M795.72,542.94c-.11.67,1.53,3-1.01,4.48-3.93.88-7.99,1.55-11.65,3.34-4.73,2.3-6.12,6-10.31,8.17.73-2.28,1.58-4.63,2-6.99.32-.34.65-.69,1-1,5.58-5.02,12.64-7.02,19.98-7.99Z"/>
      <path class="cls-1" d="M2.5,461.02c11.05,1.14,19.78,4.93,22.98,15.98-3.8-.5-4.14-4.36-7.07-6.41-3.52-2.46-11.4-5.53-15.73-5.73-1.57-1.29-.12-3.65-.18-3.84Z"/>
      <path class="cls-1" d="M794.72,461.02c5.14,5.72-7.92,5.71-10.71,6.77-5.79,2.2-5.01,7.49-10.27,8.21.26-.72-.41-2.26.28-3.7.54-1.13,5.74-4.97,5.71-7.29.24-.14.73.14,1,0,4.68-2.45,8.66-3.53,13.99-4Z"/>
      <path class="cls-1" d="M795.72,379.1c-.32,1.34.67,3.15-.98,4.5s-7.39,1.11-9.94,2.06c-4.84,1.8-7.93,7.1-12.06,9.42,3.73-12.27,11.42-13.95,22.98-15.98Z"/>
      <path class="cls-2" d="M795.72,542.94c-7.35.98-14.4,2.97-19.98,7.99,4.36-5.8,11.69-8.99,18.97-9l-.12-31.33-.82-1.17c-3.29-.53-5.97-1.09-9.03-2.46,3.47-.54,10.35.32,11.55,3.94,1.73,5.23.45,25.97-.56,32.03Z"/>
      <path class="cls-2" d="M28.47,832.66l1,1c2.01.44,5.61-.11,7.99,0h1c7.4.15,14.77-.48,21.98-1l.5.98.5-.98c2.61-.26,5.37.19,8,0-.33-8.71,1.81-14.89,7.99-20.99-1.77,3.65-3.83,7.04-5,10.99-.9,3.05-2.4,9.11-3,11.99H27.47c-1.12-6.95-1.69-15.93-1-22.98.04-.43.56-.87,1-1,.79,4.15.95,7.32,1.04,11.54.07,3.48-2.39,7.59-.04,10.44Z"/>
      <path class="cls-2" d="M17.48,586.9c-4.81,3.28-9.23,3.97-14.88,5.1l.03,29.24c.69,2.02,5.57,1.79,8.08,2.91,8.73,3.93,14.61,8.8,15.77,18.7.04.33-.02.67,0,1-.48-2.74-2.34-4.63-3-5.99-.33-.68-.05-2.14-.92-3.53-4.67-7.51-12.89-9.02-21.06-10.46-1.13-4.13-1.96-28.99-.5-31.97l2.21-1.78,14.28-3.21Z"/>
      <path class="cls-2" d="M27.47,652.84c-1.94-2.05-.8-6.12-1-8.99h1c.23,2.35.31,6.73,0,8.99Z"/>
      <path class="cls-1" d="M793.72,789.7c6.18,3.64-4.75,4.96-7.22,6.26-6.38,3.35-7.48,7.06-12.76,10.72,3.62-12.69,9.3-13.23,19.98-16.98Z"/>
      <path class="cls-1" d="M23.48,637.85c-4.73-2.15-7.76-6.63-12.94-8.54-5.47-2.01-6.88,2.41-9.04-5.45,8.16,1.43,16.38,2.95,21.06,10.46.87,1.39.59,2.84.92,3.53Z"/>
      <path class="cls-1" d="M761.75,829.66c.12.91-.27,1.97.06,2.9.34.29,7.64.29,8.93.1.64,2.92,2.82,4.89.85,7.85-2.58-.07-10.56,1.6-10.64-2.12-.02-1.03,1.05-2.46.8-4.14-.27-1.84-1.58-3.48-2-5.59l2,1Z"/>
      <path class="cls-2" d="M7.49,99.38c-1.04.27-2.83-.42-4.03.43-2.19,1.63-.45,27.2-.82,31.9.73,2.18,12.81,2.07,14.85,6.63-4.46-2.18-10.08-3.25-14.99-4-1.37-6.32-4.69-31.52.43-35.04,1.4-.96,3.54-1.82,4.57.07Z"/>
      <path class="cls-1" d="M795.72,707.78c-.14,1.15.3,2.75-.94,3.54-3.71.75-9.53,1.21-12.77,3.14-2.53,1.51-3.41,6.15-7.27,6.3.17-.43-.29-1.46.08-2.2,3.25-6.53,13.63-11.36,20.9-10.79Z"/>
      <path class="cls-2" d="M2.5,183.29l.13,29.34c7.52,3.82,16.23,3.73,21.87,11.38s6.07,14.43,2.97,23.21l-.02-9.46c0-2.73-1.22-5.06-1.98-7.53-3.11-10.11-12.47-14.71-22.98-14.99-.65-2.46-1.85-3.44-2.07-6.42-.37-5.05-.71-18.56.09-23.06.39-2.18,1.52-1.88,1.98-2.48Z"/>
      <path class="cls-1" d="M795.72,788.7c-.2-.38-.96-.78-1-1-.11-.57.03-1.34,0-2l.98-.5-.98-.5c-.16-7.29.34-14.7,0-21.98l1-4c.48,1.28.88,1.42,1.07,3.38.37,3.76.38,24.92-1.07,26.59Z"/>
      <path class="cls-2" d="M11.49,21.45c10.3-3.47,11.24-12.37,14.65-21.02,6.03.86,42.04-1.47,44.15,1.22.41.57.04,1.31.14,1.82h-1c-.64-1.75-1.77-1.89-3.42-2.05-12.18-1.2-26.48.89-38.9.19-2.35.79-1.36,5.08-2.4,7.6-2.24,5.45-7.7,11.07-13.23,13.25v-1Z"/>
      <path class="cls-2" d="M303.2,15.46c-.22-3.67-1.31-13.53,2.7-14.78,3.24-1.01,30.97-.72,35.8-.25,1.84.18,3.66.28,5.31,1.19.07,4.98.32,10.15,2.14,14.84h-1c-1.51-3.97-1.9-14.17-3.64-14.84l-39.33-.15c-.19,1.25.26,2.87,0,4-.08.38-.84,1.08-1,2-.46,2.61-.01,4.9-1,7.99Z"/>
      <path class="cls-2" d="M395.11,10.46c.48-2.37-.38-5.77-.04-8.32.95-3.35,35.96-.9,41.49-1.67l-.5,1-38.32.14-1.5,1.5c-.6,2.33.23,5.14-.14,7.35h-1Z"/>
      <path class="cls-2" d="M620.89,3.47c0,1.66,0,3.33,0,5l-.99-7h-38.97c5.54-.88,36.14-2.32,39.03-.52.98.62.65,1.86.93,2.52Z"/>
      <path class="cls-2" d="M796.72,133.34c-.44-.13-.96-.57-1-1-.99-10.12.73-21.68,0-31.97,1.14.43.93,1.43,1.05,2.4.82,6.17.67,24.24-.06,30.57Z"/>
      <path class="cls-2" d="M796.72,296.18h-1v-30.97c1.95,4.46,1.29,24.7,1,30.97Z"/>
      <path class="cls-2" d="M2.5,786.71h-1c.03-4.61-.84-28.41,1-29.97,1.16,8.84-1.57,21.68,0,29.97Z"/>
      <path class="cls-1" d="M795.72,704.79c.41-9.95-.71-20.07.5-29.98.07,5.48,1.99,26.76-.5,29.98Z"/>
      <path class="cls-2" d="M26.47,249.23c-2.12,4.29-5.67,9.2-10.07,11.41-3.07,1.54-10.69,2.06-12.51,3.48-2.85,2.23-1.1,26.14-.96,31.12,9.46,2.59,20.32,6.54,23.53,16.93-1.63-1.43-2.11-2.94-4.57-5.92-4.57-5.53-12.23-8.7-19.41-8.07-.83-5.42-2.32-30.95-.08-34.3,10.21-3.04,18.13-5.06,24.06-14.65Z"/>
      <path class="cls-2" d="M795.72,431.05l1-.5v27.97c-1.42,1.62-.98-1.12-1-1.98-.23-7.8,0-15.69,0-23.49v-2Z"/>
      <path class="cls-2" d="M791.73.47v1c-4.11-.35-28.47-.48-30.39.88-.59,10.1-.38,13.77-7.58,21.1,6.04-6.21,4.5-15.09,7.56-21.91,2.25-1.61,26.09-1.49,30.4-1.07Z"/>
      <path class="cls-2" d="M.5,539.95c-.67-6.19-.66-19.77,0-25.97,1.67,7.86,1.67,18.01,0,25.97Z"/>
      <path class="cls-2" d="M795.72,758.73l-1,4c-.09-1.95.29-3.93-.14-5.85-8.38-1.59-13.41-3.31-18.85-10.13l9.62,5.86c4.82,2.25,8.24.42,10.36,6.12Z"/>
      <path class="cls-2" d="M533.98,820.67c-2.32,3.58-3.72,6.57-3,11h-2c.45-4.26.48-7.82,2-12l3,1Z"/>
      <path class="cls-2" d="M579.93,3.47c.29,3.54-.06,6.58-1,9.99-1.4-1.44-1.51-7.5-1.04-9.36.3-1.18,1.86-.47,2.04-.63Z"/>
      <path class="cls-2" d="M794.72,346.14c-3.16-.14-8.2.02-9.99-3,2.23.68,9.13,1.23,9.99,3Z"/>
      <path class="cls-1" d="M620.89,10.46c-.06-.65,0-1.34,0-2,0-1.66,0-3.33,0-5,.93,2.15,2.26,4.96,0,6.99Z"/>
      <path class="cls-1" d="M668.85,823.67c-.12-.16-1.42.11-1.99,0-.34-.87,1.01-1.86.99-1.99l1,2Z"/>
      <path class="cls-2" d="M793.72,181.3v1c-1.27-.15-2.81.21-4,0,.56-1.27,2.93-1.26,4-1Z"/>
      <path class="cls-1" d="M792.72,1.47c-.32-.05-.67.03-1,0V.47c.43.04.87.56,1,1Z"/>
      <path class="cls-4" d="M394.11,821.67h-1v-1c.38.22.89.59,1,1Z"/>
      <path class="cls-2" d="M307.2,833.66h9.99c.67,0,1.33,0,2,0,2.66-.02,5.33,0,7.99,0h17.98l.5,1h-35.96s-4.5-1-4.5-1h2Z"/>
      <path class="cls-2" d="M793.72,133.34c-.19.24.62,1.58-.67,2.02-1.1.37-7.6,1.15-8.33-.02,3.04-1.19,5.95-1.05,8.99-2Z"/>
      <path class="cls-2" d="M792.72,623.86c-2.53,1.45-5.2,1.58-7.99,2,2.52-.95,4.57-2.82,7.99-2Z"/>
      <path class="cls-2" d="M7.49,51.42c-1.06,1.8-2.84,1.34-4,0,1.32.09,2.69-.13,4,0Z"/>
      <path class="cls-2" d="M7.49,788.7c-1.16,1.86-2.7,1.29-4,0,1.29.13,2.75-.19,4,0Z"/>
      <path class="cls-3" d="M314.19,833.66h-3c.14-1.49,2.85-1.49,3,0Z"/>
      <path class="cls-3" d="M345.16,832.66v1h-3c.53-1.45,2.08-.75,3-1Z"/>
      <polygon class="cls-3" points="309.2 833.66 307.2 833.66 308.69 832.67 309.2 833.66"/>
      <path class="cls-3" d="M304.2,7.47c.16-.92.91-1.62,1-2l-1,2Z"/>
      <path class="cls-2" d="M794.72,785.71c-.01-.33,0-.67,0-1l.98.5-.98.5Z"/>
      <path class="cls-3" d="M29.47,833.66l-1-1c.2.25.93.98,1,1Z"/>
      <g>
        <path class="cls-4" d="M69.43,3.47c-.9,9.2,1.76,14.88,7.99,20.98,1.1,1.08,1.22,1.82,3,3,11,7.3,22.64,6.51,31.97-3,6.66-6.78,7.14-13.38,8.92-22.54l40.03-.44c-1.82,39.52,54.03,41.42,50.95,1l1-1h39.96v1c-.58,3.27.33,5.92,1,8.99,4.92,22.69,33.1,29.02,45.96,8.99,1.07-1.66,2.33-2.9,3-5,.99-3.09.54-5.38,1-7.99l1-2c.25-1.13-.2-2.75,0-4l39.33.15c1.74.67,2.12,10.88,3.64,14.84,1.6,4.2,2.35,4.1,5,6.99,1.54,1.68,1.91,2.46,4,4,15.67,11.51,35.85,1.52,38.96-16.98.37-2.22-.46-5.02.14-7.35l1.5-1.5,38.32-.14c.17.68.87,1.41,1,2,.31,2.81-.44,6.33,0,8.99.9,5.41,6.42,12.06,10.99,14.99,20.54,13.18,41.5-3.78,39.96-25.98h39.97c.72.22.79,1.81,1,2-1.27,10.82,6.56,25.28,17.98,26.97.32.05.67-.03,1,0,5.78,4.35,15.64.57,20.98-3s8.37-8.09,9.99-13.99c.94-3.41,1.29-6.45,1-9.99.39-.35.61-1.47,1-2h38.97s.99,6.99.99,6.99c0,.66-.06,1.35,0,2,.22,2.24.42,2.24,1,4,.84,2.54,1.12,4.78,4,5.99,2.3,4.44,2.64,4.53,6.99,6.99,18.95,10.72,39.57-3.22,38.1-24.34l1.5-1.5c1.63-.63,31.38-.6,34.87-.19,5.37.63,2.82,4.24,3.7,8.28,2.3,10.5,9.13,19.52,20.45,21.49,4.22.73,5.17-.27,8.26-.75,7.91-1.23,8.41-1.31,13.99-6.99,7.19-7.33,6.99-11,7.58-21.1,1.92-1.36,26.28-1.23,30.39-.88.33.03.68-.05,1,0,.35.06.75-.1,1,0l.94,48.9c-20.04,1.4-33.99,20.82-20.92,39.01,5.84,8.12,12.17,9.37,21.98,10.99.73,10.29-.99,21.85,0,31.97-.52.39-1.69.62-2,1-3.04.95-5.95.81-8.99,2-5.97,2.34-12.27,8.74-13.99,14.99-2.7,9.84-1.12,15.66,5,22.98,4.11,4.92,7.37,7.8,13.99,8.99,1.19.21,2.73-.15,4,0,2.31,10.01.36,21.5,1.01,31.97-3.96-1.04-5.47.88-8,1.99-28.09,8.56-20.45,47.3,7.99,47.95.29.25.91.78,1,1v30.97c-6.66.18-10.87,2.18-15.98,5.99-8.03,5.99-10.97,12.21-9.97,22.46.74,7.59,6.67,16.12,13.96,18.5.3.1.69-.09,1,0,1.79,3.02,6.83,2.85,9.99,3,.04.33-.06.68,0,1,1.56,8.75-1.16,21.72,0,30.97-19.31.53-30.42,18.25-21.98,35.96,2.18,4.59,4.65,7.77,9.09,10.4,5.24,3.1,10.38,2.27,13.89,6.59v2c-2.3,7.28-.4,15.97-.93,23.57-.14,1.98-.19,2.49-2.07,3.4-4.22-.34-9.07,2.04-11.99,5-.27.14-.76-.14-1,0-10.24,6.17-12.13,20.68-6.99,30.97,2.46,4.93,7,8.76,11.99,10.99,3.06,1.37,5.74,1.93,9.03,2.46l.82,1.17.12,31.33c-7.28.01-14.61,3.2-18.97,9-.35.31-.68.66-1,1-6.17,6.55-6.41,13.89-4,21.98,3.49,11.68,11.55,17.88,23.98,17.98l.06,29.48c0,1.34-1.08,1.93-2.06,2.49-3.42-.82-5.47,1.04-7.99,2-6.44,2.43-8.58,3.69-11.99,9.99-6.49,11.97-3.28,24.08,6.99,31.97,5.25,4.03,8.31,4.84,14.85,6.13l.14,30.83c-3.79,2.65-7.23,2.11-11.32,4.16-10.68,5.36-14.11,16.55-12.65,27.81.59,4.6,2.37,6.69,5,9.99,5.44,6.82,10.47,8.54,18.85,10.13.42,1.93.05,3.91.14,5.85.34,7.28-.16,14.69,0,21.98,0,.33-.01.67,0,1,.03.65-.11,1.42,0,2-22.94,4.53-26.61,24.5-22.98,44.96-.24.1-.65-.05-1,0-1.29.19-8.6.2-8.93-.1-.33-.93.06-1.99-.06-2.9-.97-7.64-.95-9.81-5.99-15.98-.29-.36-.68-.66-1-1-5.87-6.09-11.31-8.59-19.98-7.99-.65.04-1.39-.1-2,0-2.78.47-9.62,3.37-10.99,5.99-2.73,1.63-3.44,1.62-5,5-3.95,4.19-4.14,9.93-4.13,15.35l-1.5,1.49-40.32.15c1.86-20.05-16.21-33.13-34.96-25.98-3.74,1.42-4.45,2.5-6.99,5-7.66,7.51-7.19,10.99-7.99,20.98-12.44,1.63-28.15-1.21-40.97,0,.37-5.92-1.21-13.09-5.99-16.99-2.2-4.11-1.62-3.85-5.99-5.99-10.3-8.85-24.54-5.82-32.97,4-1.87,2.17-2.93,3.07-4,5.99-1.52,4.18-1.55,7.74-2,11.99-.03.33.03.67,0,1-5.38,0-10.6.8-15.98,1-1.25-1.35-2.71-1.37-4,0-1.66.04-3.33,0-5,0-1.01-1.18-1.99-1.18-3,0-4.32-.06-8.67.04-12.99,0,1.5-16.27-12.45-30.8-28.97-28.98-.92.1-1.83-.46-2,1-15.29,3.51-18.52,12.54-19.98,26.97-3.79.49-37.49.57-39.32-.14-2.24-.87-1.48-9.66-3.64-13.84-.67-1.3-1.47-1.38-2-2,.27-1.98-1.31-2.2-2-3-3.58-4.18-5.38-6.28-10.99-7.99-.53-.16-1.39.13-2,0-.26-.06-.67-.95-1-1-1.61-.23-6.54-.3-7.99,0-.35.07-.73.92-1,1-6.13-.32-9.26,2.98-12.99,6.99-.32.34-.71.64-1,1-6.4,8.09-5.08,9.54-5.99,18.98-.33.2-1.41-.16-2,0-.92.25-2.47-.45-3,1h-8.99l-.5-.98-.5.98h-2c-.14-1.49-2.85-1.49-3,0-2.66,0-5.33-.02-7.99,0l-.51-.99-1.49.99h-3c-.14-1.49-2.85-1.49-3,0h-2l-.51-.99-1.49.99h-2l-2-5c0-24.7-35.12-35.94-46.95-6.99-.45.14-.93.55-1,1-.44,2.98.21,6.81,0,9.99h-43.96c-1.07-8.57.04-11.61-5.99-18.98-3.57-4.37-3.95-4.21-8.99-5.99l-4-2c-.25-.49-1.39-.91-2-1-1.85-.26-6.15-.26-7.99,0-7.91,1.12-14.52,6.37-16.98,13.99-4.03,3.69-2.94,9.08-2.99,13.99-5.77-.76-40.73,1.39-42.55-.98,1.36-15.55-14.78-30.84-30.39-26-.33.03-.67-.04-1,0-5.12.68-6.32,2-9.99,5-.36.3-.67.67-1,1-6.18,6.09-8.31,12.28-7.99,20.99-2.63.18-5.38-.26-8,0-.33.03-.67-.02-1,0-7.21.52-14.58,1.15-21.98,1-.32,0-.73.01-1,0-2.38-.11-5.98.44-7.99,0-.07-.02-.8-.75-1-1-2.34-2.84.12-6.96.04-10.44-.09-4.23-.25-7.39-1.04-11.54-2.08-10.89-8.31-20.22-19.98-21.98-1.25-.19-2.71.13-4,0-.08-.08-.98-1.89-1-2-1.57-8.29,1.16-21.13,0-29.97,8.35-1.38,12.21-2.99,17.98-8.99,16.31-16.97,4.66-39.89-17.03-42.42-1.99-1.38-.81-27.18-.52-31.58,6.23-1.34,9.38-2.32,14.55-5.93,5.5-3.84,9.05-8,9.99-14.99.31-2.26.23-6.65,0-8.99-.04-.43-.56-.87-1-1-1.16-9.9-7.03-14.76-15.77-18.7-2.5-1.13-7.39-.89-8.08-2.91l-.03-29.24c5.65-1.13,10.07-1.81,14.88-5.1,2.14-1.46,2.48-2.28,4-4,15.47-17.53,3.36-39.26-17.98-40.96l-.99-32.96c3.52.2,6.75-.8,9.98-2.01,27.23-10.22,17.52-47.59-9.98-47.96l.12-29.33.82-1.17c34.59-4.84,33.7-46.9-.53-51.34l-.43-30.04c.04-.1.69-.53,1-1,14.32,1.45,29.13-15.19,24.98-28.97-.12-.41-.62-.77-1-1-.13-.62.17-1.52,0-2-.27-.74-.36-1.43-1-2-3.22-10.39-14.08-14.34-23.53-16.93-.14-4.98-1.89-28.89.96-31.12,1.81-1.42,9.44-1.94,12.51-3.48,4.4-2.21,7.94-7.12,10.07-11.41.34-.68.7-1.15,1-2,3.1-8.78,2.7-15.51-2.97-23.21s-14.35-7.57-21.87-11.38l-.13-29.34c.22-.29.71-.81,1-1,19.28.24,33.51-22.37,19.98-37.96-.69-1.42-.48-2-1.93-3.55-1.72-1.84-2.3-1.58-4.07-2.45-2.04-4.56-14.12-4.45-14.85-6.63.38-4.69-1.37-30.26.82-31.9,1.2-.85,3-.16,4.03-.43,9.79-2.57,19.57-7.72,20.98-18.98.27-2.18.28-6.83,0-8.99-1.24-9.45-11.68-19.04-20.98-19.98-1.31-.13-2.68.09-4,0-2.55-2.96-.14-21.35-1.04-26.3.44-1.51,6.82-1.8,9.03-2.67,5.53-2.17,10.99-7.8,13.23-13.25,1.03-2.52.05-6.81,2.4-7.6,12.42.69,26.72-1.4,38.9-.19,1.65.16,2.78.31,3.42,2.05ZM75.42,66.41c-3.68.42-4.93.81-6.99,4-1.63,2.52-2.26,4.37-2.04,7.45l.04,686.87c1.14,2.66,2.82,5.6,5.99,5.99,215.95,2.38,432.72.24,648.99,1.07,1.43.49,2.61-.87,3.38-1.07,3.21-.87,2.74.12,5-3,.41-.57,1.36-1,1.55-1.9l.45-466.64v-97.9c0-1.33,0-2.66,0-4,0-.67,0-1.33,0-2,0-1,0-2,0-3,0-1.33,0-2.66,0-4v-11.99c-.14-21.29.19-42.65,0-63.94,0-.33,0-.67,0-1-.09-9.75,1.63-31.99-1-39.96-1.2-3.64-1.98-2.68-4-4-.37-.24-.69-.89-1-1-3.3-1.21-3.85-.82-6.99-1-14.82-.84-30.96.07-45.96,0-.67,0-1.33,0-2,0-67.25-.3-134.56.04-201.8,0-.33,0-.67,0-1,0-115.15-.07-230.66-1.03-345.66,1-1.3-1.65-5.7-1.65-6.99,0-1.33.03-2.67-.03-4,0-2.19-1.69-7.77-1.69-9.99,0-1,.02-2-.02-3,0-6.89-1.68-16.18-1.67-22.98,0Z"/>
        <path class="cls-1" d="M182.32,804.69c1.6,1.68,6.43,1.67,7.99,0,.6.08,1.74.51,2,1,.03.06-1.18-.14-1,.99,1.67.16,3.41.45,4.99,1.01,5.04,1.78,5.42,1.63,8.99,5.99l-.98.49c1.38.92,1.45,2.24,1.98,3.51-4.72.33-7.29-5.18-10.95-6.53-8.45-3.13-17.46-1.08-24.25,4.52-2.16,1.78-2.62,5.92-5.76,6.01.21-.84-.24-2.25,0-3,2.46-7.62,9.07-12.87,16.98-13.99Z"/>
        <path class="cls-1" d="M89.41,805.69c11.91-.92,21.57,2.92,25.97,13.99-9.79-6.93-16-12.83-28.91-8.43-6.06,2.06-8.84,8.52-14.04,11.43,1.16-3.95,3.22-7.34,5-10.99.33-.33.64-.7,1-1l9.99-5c.33-.04.67.03,1,0Z"/>
        <path class="cls-2" d="M2.5,347.13l.43,30.04c34.23,4.44,35.11,46.5.53,51.34l-.82,1.17-.12,29.33c27.5.37,37.21,37.75,9.98,47.96v-1c12.51-4.66,16.52-16.77,12.99-28.97-3.2-11.05-11.93-14.84-22.98-15.98-.36-1.25-1.83-1.97-2.05-4.44-.36-4.19-.51-25.67.72-28.33,6.96-2.83,15.66-2.96,21.17-9.83,6.76-8.44,5.86-16.22,2.14-25.34-4.56-11.17-10.3-12.53-21.98-13.99-1.75-7.14-2.64-25.31,0-31.97Z"/>
        <path class="cls-2" d="M89.41,805.69c15.61-4.84,31.75,10.45,30.39,26,1.82,2.37,36.78.22,42.55.98.06-4.92-1.04-10.3,2.99-13.99-.24.75.21,2.15,0,3-.6,2.36-3.95,12.3-4,12.99h-40.96c-1.15-4.18-3.11-10.24-5-14.99-4.4-11.06-14.06-14.9-25.97-13.99Z"/>
        <path class="cls-2" d="M457.05,805.69c-.01.09.88.54,1.01.98-9.97,1.46-15.8,7.41-18,17-.72,3.14-1.6,5.49-1,9-.65.08-1.35-.09-2,0-.07.65.03,1.34,0,2h-39.96c-.81-3.81-1.93-9.02-3-12.99-.11-.41-.62-.78-1-1l1-2c2.16,4.18,1.4,12.97,3.64,13.84,1.83.71,35.53.63,39.32.14,1.46-14.43,4.69-23.47,19.98-26.97Z"/>
        <path class="cls-2" d="M794.72,52.42c-13.53.82-21.8,6.21-23.98,19.98-1.13,7.15-.28,10.4,3,16.98-13.07-18.19.88-37.62,20.92-39.01l-.94-48.9c.85.32,2.14,1.18,2.48,1.99,1.13,2.73,1.09,38.43.57,43.51-.2,1.97-1.41,3.52-2.05,5.45Z"/>
        <path class="cls-2" d="M794.72,347.13c3.02-.56,1.92,1.53,2,3.45.33,8.27.86,20.82-1,28.52-11.56,2.04-19.24,3.71-22.98,15.98-.81,2.67-1.74,6.62-1.61,9.34.16,3.39,2.7,6.8,1.61,9.65-8.43-17.71,2.68-35.43,21.98-35.96-1.17-9.25,1.56-22.22,0-30.97Z"/>
        <path class="cls-2" d="M635.88,806.69c18.75-7.15,36.82,5.93,34.96,25.98l40.32-.15,1.5-1.49c0-5.42.19-11.16,4.13-15.35-.09.19-.74,3.13-1,4-1.87,6.32-.23,14.22-7.48,14.98-4.69.5-32.64.79-35.78-.2-4.27-1.35-2.2-8.82-3.7-10.78l-1-2c-.18-1.31-.91-1.69-1-2-2.33-7.79-10.18-13.48-18.44-14.03-4.87-.32-8.23,1.53-12.53,1.04Z"/>
        <path class="cls-2" d="M112.39,24.45c.41-.4,5.13-9.35,5.31-10.18.81-3.8-.26-11.88,2.68-13.3,1.89-.92,34.45-.98,38.47-.49,1.5.18,3,.42,4.35,1.14-2.09,17.54,10.59,31.66,28.55,28.76,5.91-.95,14.92-6.89,17.41-12.55,1.86-4.22,1.11-12.8,3.13-15.35,3.09,40.41-52.77,38.51-50.95-1l-40.03.44c-1.79,9.16-2.27,15.76-8.92,22.54Z"/>
        <path class="cls-2" d="M795.72,788.7c-.39,1-1.3.76-2,1-10.68,3.75-16.36,4.29-19.98,16.98-.54,1.89-1.73,8.61-1.78,10.49-.09,3.24,3.12,14.15-.21,15.49-3.63-20.45.04-40.43,22.98-44.96.04.22.8.62,1,1Z"/>
        <path class="cls-2" d="M632.88,27.45l12.45,2.01c18.6-.5,23.62-12.29,25.66-28.84,5.29.31,39.25-1.35,40.67,1-.16,17.16,10.37,29.94,28.11,28.83-3.1.48-4.04,1.49-8.26.75-11.32-1.97-18.15-10.99-20.45-21.49-.89-4.05,1.66-7.66-3.7-8.28-3.49-.41-33.25-.44-34.87.19l-1.5,1.5c1.47,21.12-19.16,35.05-38.1,24.34Z"/>
        <path class="cls-2" d="M459.05,804.69c16.52-1.82,30.47,12.71,28.97,28.98,4.32.03,8.67-.06,12.99,0,1,.01,2,0,3,0,1.66,0,3.33.04,5,0,1.33-.03,2.67.05,4,0,5.38-.2,10.61-1,15.98-1-.06.66.05,1.34,0,2h-40.96c-1.55-4.82-2.28-9.21-4-13.99-4.49-12.51-13.4-13.19-24.98-15.98Z"/>
        <path class="cls-1" d="M396.11,10.46c-3.11,18.51-23.29,28.49-38.96,16.98l10.49,2.99c13.68,1.49,24.73-6.53,27.48-19.98h1Z"/>
        <path class="cls-2" d="M3.5,541.94c21.34,1.7,33.45,23.43,17.98,40.96,5.09-7.62,5.75-13.09,4-21.98-2.37-12.05-11.01-17.43-22.98-18l1.01-.98Z"/>
        <path class="cls-2" d="M3.5,182.3c6.39-4.23,13.23-2.19,18.82-9.65,5.33-7.11,4.56-13.1,3.16-21.32-.56-3.28-.47-3.84-2-6.99,13.53,15.6-.7,38.2-19.98,37.96Z"/>
        <path class="cls-2" d="M527.98,1.47h-39.97c1.54,22.19-19.42,39.16-39.96,25.97l8.73,2.76c10.26,2.07,23.33-3,27.44-13.04,1.91-4.67.61-15.27,4.5-16.48l39.26.79Z"/>
        <path class="cls-1" d="M255.25,11.46c3.48,19.22,25.35,24.23,40.18,14l4.77-5c-12.85,20.03-41.04,13.7-45.96-8.99h1Z"/>
        <path class="cls-2" d="M786.73,216.26c-7.31,3.2-12.94,7.88-14.99,15.98-2.58,10.21.24,23.38,10.81,27.87,4.51,1.92,8.75,1.1,12.17,4.1-28.44-.65-36.08-39.39-7.99-47.95Z"/>
        <path class="cls-2" d="M771.74,151.33c.5,3.08-.8,6.17-.54,9.04.4,4.5,2.7,8.9,4.53,12.94-6.11-7.32-7.69-13.14-5-22.98.45.14.93.55,1,1Z"/>
        <path class="cls-1" d="M112.39,24.45c-9.33,9.5-20.97,10.3-31.97,3l9.58,2.9c8.19.93,13.02-.3,19.13-4.91.96-.72,2.98-.71,3.26-.99Z"/>
        <path class="cls-2" d="M211.29,832.66c-2.34-4.93-2.8-9.72-5-14.99-.53-1.27-.59-2.59-1.98-3.51l.98-.49c6.04,7.37,4.92,10.41,5.99,18.98Z"/>
        <path class="cls-2" d="M771.74,640.85c-2.29,11.03.04,19.08,7.99,26.97-10.28-7.89-13.48-20-6.99-31.97l.89.47c-.45,1.48-1.59,3.08-1.89,4.53Z"/>
        <path class="cls-2" d="M772.74,558.93c-1.27,3.96-3.39,10.92-2,14.99-2.42-8.09-2.18-15.43,4-21.98-.41,2.36-1.27,4.72-2,6.99Z"/>
        <path class="cls-1" d="M528.98,3.47c.15.14,1.74-.47,2.02.66.54,2.15-.29,5.34.43,8.38,2.31,9.75,7.3,13.35,15.53,17.94-11.42-1.69-19.25-16.15-17.98-26.97Z"/>
        <path class="cls-2" d="M795.72,707.78c-7.27-.57-17.66,4.25-20.9,10.79-.37.74.09,1.77-.08,2.2-2.34,6.03-3.13,9.39-4,15.98-1.45-11.26,1.97-22.45,12.65-27.81,4.1-2.06,7.54-1.51,11.32-4.16.22-.16.87.17,1,0-.04.98.12,2.03,0,3Z"/>
        <path class="cls-2" d="M256.25,821.67c11.84-28.95,46.96-17.71,46.95,6.99,0,1.12.73,4.21-.99,3.99,1.08-5.64-1.04-8.45-3.01-12.98-2.76-6.34-3.95-8.7-10.78-11.7-12.26-5.39-24.18-1.29-29.18,10.7-1.91,4.58-3.72,8.17-3.08,13.43l-.91.55c.21-3.18-.44-7.01,0-9.99.34-.28.84-.61,1-1Z"/>
        <path class="cls-2" d="M27.47,316.16c.09.45.56.83,1,1,4.15,13.79-10.65,30.42-24.98,28.97.04-.06-.87-.55-1.01-.97,18.13-.8,27.97-12.9,23.99-31h1c.17.48-.13,1.38,0,2Z"/>
        <path class="cls-2" d="M779.74,465.02c.03,2.32-5.17,6.16-5.71,7.29-.69,1.44-.02,2.98-.28,3.7-1.1,3.04-2.98,5.88-2.98,9.49s3.17,7.25,1.99,10.49c-5.14-10.29-3.24-24.8,6.99-30.97Z"/>
        <path class="cls-2" d="M761.75,829.66l-2-1c-.71-3.54-.83-5.26-2-8.99-.68-2.17-1.77-3.75-2-5.99,5.05,6.18,5.02,8.34,5.99,15.98Z"/>
        <path class="cls-2" d="M350.16,821.67c-.58,2.04-2.06,10.43-3,10.99.91-9.44-.41-10.89,5.99-18.98-1.47,2.87-2.12,4.93-3,7.99Z"/>
        <path class="cls-1" d="M568.94,27.45c-5.34,3.57-15.2,7.34-20.98,3,3.59.35,7.73-.13,11.4-.09l9.58-2.91Z"/>
        <path class="cls-1" d="M77.42,24.45c-6.24-6.1-8.89-11.78-7.99-20.98h1c1.48,7.33.95,15.34,6.99,20.98Z"/>
        <path class="cls-2" d="M771.74,315.17c-2.91,12.56,1.48,21.22,11.99,27.97-7.29-2.38-13.22-10.91-13.96-18.5-1-10.25,1.94-16.48,9.97-22.46-3.93,4.36-6.61,7-7.99,12.99Z"/>
        <path class="cls-2" d="M253.25,2.47c3.72-.88,1.42,5.82,2,8.99h-1c-.67-3.07-1.58-5.72-1-8.99Z"/>
        <path class="cls-2" d="M625.89,20.45c-2.87-1.22-3.15-3.45-4-5.99l.99-3.99c.03,3.31,1.51,7.1,3.01,9.98Z"/>
        <path class="cls-2" d="M792.72,460.02c1.17.1,1.26.17,2,1-5.32.47-9.31,1.55-13.99,4,2.92-2.95,7.77-5.34,11.99-5Z"/>
        <path class="cls-2" d="M437.07,12.46c-.44-2.66.31-6.18,0-8.99.56,2.51,2.56,6.32,0,8.99Z"/>
        <path class="cls-2" d="M28.47,80.39c-2.07-2.06-.63-6.17-1-8.99h1c.28,2.17.27,6.81,0,8.99Z"/>
        <path class="cls-1" d="M349.16,16.46c1.1,2.84,3.92,3.67,4,6.99-2.65-2.89-3.39-2.79-5-6.99h1Z"/>
        <path class="cls-3" d="M98.4,66.41c-7.2.13-16.13-.79-22.98,0,6.8-1.67,16.09-1.68,22.98,0Z"/>
        <path class="cls-2" d="M567.94,809.68c-8.5-4.16-16.92-5.7-25.67-1.2l-7.29,5.19c8.43-9.81,22.67-12.85,32.97-4Z"/>
        <path class="cls-2" d="M754.76,812.68c-5.76-4.92-12.93-6.13-19.98-7.99,8.67-.6,14.11,1.9,19.98,7.99Z"/>
        <path class="cls-3" d="M111.39,66.41c-3.32.08-6.67-.08-9.99,0,2.22-1.69,7.8-1.69,9.99,0Z"/>
        <path class="cls-2" d="M376.13,804.69c-1.56,1.67-6.39,1.68-7.99,0,1.45-.3,6.38-.23,7.99,0Z"/>
        <path class="cls-2" d="M190.31,804.69c-1.56,1.67-6.39,1.68-7.99,0,1.84-.26,6.15-.26,7.99,0Z"/>
        <path class="cls-3" d="M122.38,66.41c-2.33.04-4.67-.05-6.99,0,1.3-1.65,5.7-1.65,6.99,0Z"/>
        <path class="cls-3" d="M725.79,66.41l-6.99-1c3.15.18,3.69-.21,6.99,1Z"/>
        <path class="cls-2" d="M88.41,805.69l-9.99,5c3.67-3,4.87-4.32,9.99-5Z"/>
        <path class="cls-2" d="M732.78,804.69c-.72,2.69-7.75,4.05-10.99,5.99,1.37-2.62,8.21-5.52,10.99-5.99Z"/>
        <path class="cls-2" d="M367.14,805.69c-5.02,1.43-8.84,4.11-12.99,6.99,3.73-4.01,6.86-7.31,12.99-6.99Z"/>
        <path class="cls-3" d="M513,833.66c-1.33.05-2.67-.03-4,0,1.28-1.37,2.75-1.35,4,0Z"/>
        <path class="cls-2" d="M196.31,807.68c-1.58-.56-3.33-.85-4.99-1.01-.18-1.13,1.03-.92,1-.99l4,2Z"/>
        <path class="cls-3" d="M330.18,833.66h-3c.14-1.49,2.85-1.49,3,0Z"/>
        <path class="cls-3" d="M504.01,833.66c-1,0-2,.01-3,0,1.01-1.18,1.99-1.18,3,0Z"/>
        <path class="cls-3" d="M319.19,833.66c-.67,0-1.33,0-2,0l1.49-.99.51.99Z"/>
        <path class="cls-2" d="M392.12,816.68c-.81-.95-1.71-1.68-2-3,.69.8,2.27,1.02,2,3Z"/>
        <path class="cls-2" d="M379.13,805.69l-.52,1-1.48-1c.61.13,1.47-.16,2,0Z"/>
        <path class="cls-3" d="M28.47,317.16c-.43-.16-.91-.55-1-1,.38.23.87.58,1,1Z"/>
        <path class="cls-3" d="M255.25,822.67c.07-.45.55-.86,1-1-.16.39-.66.72-1,1Z"/>
        <path class="cls-3" d="M38.46,833.66h-1c.27.01.67,0,1,0Z"/>
        <path class="cls-3" d="M60.44,832.66c.33-.02.67.03,1,0l-.5.98-.5-.98Z"/>
        <polygon class="cls-3" points="333.17 833.66 332.17 833.66 332.67 832.68 333.17 833.66"/>
        <g>
          <path class="cls-3" d="M726.79,67.41c2.02,1.32,2.79.35,4,4-1.65,1.06-1,3.78-1.02,5.48-.41,37.11,0,74.3.02,111.41.03,36.92.85,74.29,1,110.89.23,58.43-.17,116.9,0,175.34l-.99,3.48-.03-9.47c-7.63-60.03-18.89-121.34-39.5-178.29-6.7-18.51-21.86-58.35-35.89-71-2.09-1.89-9.31-5.87-9.97-7.01-1.25-2.13-.51-5.7-2.86-8.63-10.29-12.8-68.32-23.49-83.88-18.1-6.89,2.39-9.74,10.19-16.13,10.84-13.01,1.31-36.62-3.34-50.98-4.09-79.11-4.18-158.77-3.02-237.83,4.11-2.05-.34-3.58-4.99-5.95-7.09-6.69-5.92-18.3-7.54-26.97-6.95-12.7.86-56.05,11.59-64.49,20.42-3.82,3.99-2.73,8.01-4.92,11.07-2.16,3.03-9.5,6.93-13.84,13.14-29.84,42.67-53.5,137.05-61.84,188.91l-7.28,60.14.99-405.6,3.94-2.55,654.41-.45Z"/>
          <path class="cls-1" d="M468.04,65.41l.5.98.5-.98c67.25.04,134.56-.3,201.8,0l1.49.99.51-.99c15,.07,31.14-.84,45.96,0l6.99,1c.31.11.63.76,1,1l-654.41.45-3.94,2.55c2.06-3.19,3.32-3.57,6.99-4,6.85-.79,15.78.13,22.98,0,1-.02,2,.02,3,0,3.32-.08,6.67.08,9.99,0,1.33-.03,2.67.03,4,0,2.33-.05,4.67.04,6.99,0,115.01-2.03,230.51-1.07,345.66-1Z"/>
          <path class="cls-3" d="M724.79,770.72c-.76.21-1.94,1.56-3.38,1.07-216.27-.83-433.03,1.3-648.99-1.07h652.36Z"/>
          <path class="cls-2" d="M731.78,111.36l-.98.5.98.5c.19,21.29-.14,42.64,0,63.94l-.98.5.98.5v9.99l-1,1h-1c-.03-37.11-.43-74.3-.02-111.41.02-1.7-.63-4.41,1.02-5.48,2.63,7.97.91,30.21,1,39.96Z"/>
          <path class="cls-1" d="M731.78,188.29c0,1.33,0,2.66,0,4-1.49.14-1.49,2.85,0,3,0,.67,0,1.33,0,2-1.54.42-1.48,3.67,0,4v4c-1.67,3.01-1.7,9.77,0,12.99v1c-1.67,4.05-1.69,11.73,0,15.98v22.98c-1.67,2.68-1.7,9.11,0,11.99v28.97h-1c-.15-36.6-.97-73.98-1-110.89h2Z"/>
          <path class="cls-3" d="M731.78,235.24c-1.69-4.26-1.67-11.93,0-15.98v15.98Z"/>
          <path class="cls-3" d="M731.78,218.26c-1.7-3.22-1.67-9.97,0-12.99v12.99Z"/>
          <path class="cls-3" d="M731.78,270.21c-1.7-2.88-1.67-9.31,0-11.99v11.99Z"/>
          <path class="cls-3" d="M731.78,201.28c-1.48-.33-1.54-3.58,0-4,0,1.33,0,2.66,0,4Z"/>
          <path class="cls-3" d="M731.78,195.28c-1.49-.14-1.49-2.85,0-3,0,1,0,2,0,3Z"/>
          <path class="cls-3" d="M672.84,65.41l-.51.99-1.49-.99c.67,0,1.33,0,2,0Z"/>
          <polygon class="cls-3" points="731.78 188.29 730.78 188.29 731.78 187.29 731.78 188.29"/>
          <polygon class="cls-3" points="731.78 177.3 730.81 176.8 731.78 176.3 731.78 177.3"/>
          <path class="cls-3" d="M731.78,112.36l-.98-.5.98-.5c0,.33,0,.67,0,1Z"/>
          <path class="cls-3" d="M468.04,65.41c.33,0,.67,0,1,0l-.5.98-.5-.98Z"/>
          <g>
            <g>
              <path class="cls-1" d="M729.79,767.72c-2.25,3.12-1.78,2.13-5,3H72.43c-3.17-.39-4.86-3.33-5.99-5.99h1c1.2,3.06,2.7,5.5,6.43,5.05h650.49s5.43-2.06,5.43-2.06Z"/>
              <path class="cls-3" d="M67.43,764.73v-220.78s3.48,23.99,3.48,23.99c1.23,47.66,81.43,101.12,112.21,51.23,20.67-33.51,31.83-105.18,56.76-130.06,19.78-19.75,41.27-10.74,65.78-10.06,62.36,1.72,126.44,1.27,188.89,0,29.51-.6,51.03-9.35,69.81,21.02,17.63,28.51,39.48,119.91,61.59,135.22,31.9,22.1,97.43-19.91,100.72-57.99l4.1-23.36-.99,213.79-5.43,2.07H73.87c-3.74.43-5.23-2-6.43-5.06Z"/>
            </g>
            <g>
              <path class="cls-2" d="M68.43,70.4l-.99,405.6,7.28-60.14c8.34-51.86,32-146.25,61.84-188.91,4.34-6.2,11.67-10.11,13.84-13.14,2.19-3.06,1.1-7.08,4.92-11.07,8.45-8.83,51.79-19.56,64.49-20.42,8.67-.59,20.28,1.03,26.97,6.95,2.37,2.1,3.9,6.75,5.95,7.09,79.06-7.13,158.72-8.29,237.83-4.11,14.36.76,37.97,5.4,50.98,4.09,6.39-.64,9.24-8.45,16.13-10.84,15.56-5.4,73.59,5.3,83.88,18.1,2.36,2.93,1.62,6.5,2.86,8.63.67,1.14,7.88,5.12,9.97,7.01,14.03,12.65,29.2,52.5,35.89,71,20.6,56.95,31.87,118.26,39.5,178.29l.03,9.47.99-3.48c-.17-58.44.23-116.91,0-175.34h1l-.45,466.64c-.19.9-1.14,1.34-1.55,1.9l.99-213.79-4.1,23.36c-3.29,38.08-68.82,80.09-100.72,57.99-22.11-15.31-43.96-106.72-61.59-135.22-18.78-30.37-40.3-21.62-69.81-21.02-62.45,1.27-126.54,1.72-188.89,0-24.51-.68-46-9.68-65.78,10.06-24.93,24.88-36.09,96.55-56.76,130.06-30.78,49.89-110.98-3.57-112.21-51.23l-3.47-23.99v220.78h-1.01l-.04-686.87c-.22-3.09.41-4.93,2.04-7.45ZM480.03,324.16c-.18.01-1.37,1-3.39,1.07-53.03,1.76-106.41-1.45-159.46-.07v6h167.34c2.83,0,4.15-3.61-.49-3.49l3.99-3.5c-1.9,1.08-5.69-1.03-5.99-1,22.41-.43,26.18-20.88,27.97-38.96.97-.3.89-1.16,1-2,3.07-22.53,10.16-44.43,14.91-66.6.22-1.43-.01-2.81-.65-4.11-2.07-4.21-24.35-5.76-29.77-6.21-62.88-5.16-137.98-5.68-200.77,0-20.08,1.81-25.2-1.34-22.17,20.15,2.09,14.84,13.77,74.65,20.43,84.47,7.19,10.6,15.23,13.38,27.67,14.29l159.38-.04ZM93.41,381.1c-.25,1.17-.68,2.46-1,4-2.89,13.82-5.3,27.92-6.99,41.96l-1,1c-.14,6.36-1.24,12.68-2,18.98-.01.11-.81.32-1,2-4.01,35.14-5.99,75.9-1,110.89.25,1.73.97,2.84,1,3,3.29,20.33,10.66,38.24,28.06,50.36,7.52,5.23,10.6,7.33,19.89,3.59l.37-1.62c.4-.5,1.48-.23,1.62-.38.23-.23-.23-2.45,2-2l15.98-56.94c-2.92,14.3-5.68,32.37-10.26,46.17-1.48,4.47-3.61,7.76-5.73,10.77-1.53,2.17-1.21,1.23-2,2-.64.63.24.47-2,2-.09.06.23,1.44-.26,1.7-1.62.87-5.27.06-5.73,2.28,6.6,2.99,27.7,9.18,33.77,6.34,2.48-1.16,7.49-22.48,11.18-25.31-2.71,8.52-6.35,16.46-8.98,24.98,7.44-3.74,10.47-8.05,14.5-14.96,17.65-30.35,26.49-69.67,40.96-101.9,10.87-24.22,21.78-37.76,48.44-43.97.55-.13.91-.98,1-1,.61-.12,1.37.1,2,0,.05,0,.52.03,1,0,1.65-.12,3.34.09,5-.01-2.37-4.68-7.47-4.15-11.99-3.99,0-.09-.91-.52-1.01-.98l7-1.01c-13.79-2.43-21.72-19.04-25.96-30.98,1.48-1.57,12.28,9.36,13.64,10.79,3.62.81,2.56-6.25,8.33.19.21-.28-.68-6.4-.99-6.99-.18-.35-5.42-4.04-6.25-4.96-1.2-1.33-1.53-2.28-1.74-4.03,1.92,1.96,7.01,8.27,7.99,8.99,43.2,31.59,99.6-14.91,76.92-62.94.98,2.09,3.97,3.31,4.94,4.83,5.61,8.82,8.19,32.29,7.05,42.63-3.21,29.21-28.56,47.92-56.95,47.46,1.09,2.34,5.29,2.76,7.51,2.97,30.77,2.95,68.33,1.65,99.72,1.63,25.58-.02,54.99.96,80.13-.57,5.33-.32,11.04-1.98,16.45-2.04.21-2.61.11-1.65-1.51-1.97-22.94-4.5-40.59-13.61-47.16-37.78-4.28-15.75-.64-24.44,1.98-39.4.55-3.13,1.06-7.06,2.73-9.76-12.58,43.62,34.77,79.89,73.93,58.94,2.25,1.02-1.65,2.11-2.2,2.3-.8.28-8.14,1.85-5.8,3.69h4.01c.03,1.79-.58,5.3,1.62,5.91.36.1,7.04-.26,7.4-.36,5.99-1.6,19.85-17.15,23.93-22.53-.7,12.79-10.41,22.22-18.01,31.47-1.75,2.13.47,3.98-4.95,3.99,4.84,2.26,9.95,1.77,15.25,3.73,9.14,3.37,19.54,12.58,24.7,20.75-8.67-10.63-30.5-27.66-44.96-20.98-6.72,3.1,9.6,3.77,11.99,4,20.56,7.41,31.44,19.34,40.42,39,11.91,26.06,33.14,101.14,51.48,117.36,1.03.92,6.44,5.65,5.95,2.06-17.28-37.83-27.49-79.09-47.89-115.46,6.81,8.97,11.66,19.85,16.16,30.29,12.33,28.62,21.03,59.01,33.95,87.43,13.76,3.01,26.28-4.61,39.79-5.84l-7.99-2.99c7.78,2.74,17.8-4.84,23.5-9.96,16.8-15.09,21.4-36.41,23.45-57.97.02-.22.86-2.04,1-4,1.73-23.79-.25-48.13-1-71.93l-1-2-2-23.98c-.09-.72-.99-.93-1-1-2.13-16.28-3.91-32.83-6.99-48.95-.14-.76-.99-.93-1-1-8.99-46.37-26.53-124.09-52.13-163.16-14.06-21.45-71.07-33.98-95.21-31.64-8.7.84-16.97,5.98-26.49,3.99,2.95,4.41,2.49,8.38,1.85,13.32-1.3,10.03-5.68,22.28-7.84,32.62-.06.31-.7,1.56-1,3-3.1,15.01-10,43.81-7.55,58,.81,4.68,3.7,10.22,6.55,13.93-.19-.25-2.78-1.19-4.37-4.11-.6-1.1-4.51-14.13-5.61-12.87.9,3.77-1.98,2.95-3.01,4-6.22,6.29-10.46,12.48-19.74,14.73-56.38-1.08-119.66,5.74-175.55,1.24-12.33-.99-25.44-5.7-30.5-17.96l-.98,8.98c-.05-.09-1.74.44-2.02-.66-.53-2.05,1.65-11.07-3.46-9.33-.91.31-6.5,14.34-8.53,17.22-1.53,2.17-5.15,4.84-6.96,6.75,6.83-8.68,11.14-13.65,12.99-24.98.01-.07.93-.31,1-1,2.23-21.61-12.93-62.63-15.84-86.56-.69-5.68-1.92-11.03.86-16.33-9.17,2.13-16.3-3.14-24.49-3.99-26.97-2.82-81.62,8.58-96.56,33.28-22.11,36.55-39.67,101.41-48.78,143.53ZM515.99,442.05h-2.99v.98h2.99v-.98Z"/>
              <path class="cls-1" d="M512,316.16c1.03-1.04,3.91-.22,3.01-4,1.1-1.25,5.01,11.78,5.61,12.87,1.6,2.92,4.18,3.85,4.37,4.11,2.27,3.01,4.71,7.21,6.99,9.99,4.57,5.57,10.11,10.51,14.99,15.98,16.64,18.69,29.45,37.22,41.96,58.94l16.98,32.97v1c10.77,23.88,18.72,48.87,28.23,73.22.61,1.56.28,3.21,2.74,2.71.09.31-.09.69,0,1,6.97,24.68,11.25,55.54,21.49,79.91,2.19,5.21,4.92,8.23,8.83,12.16,1.15,1.16.76,2.59,3.65,1.83.37.27.65.7,1,1l7.99,2.99c-13.51,1.23-26.03,8.85-39.79,5.84-12.92-28.41-21.62-58.81-33.95-87.43-4.5-10.44-9.36-21.32-16.16-30.29-4.02-7.16-11.9-19.75-16.98-25.97-5.16-8.18-15.57-17.39-24.7-20.75-5.31-1.96-10.42-1.47-15.25-3.73,5.42,0,3.2-1.86,4.95-3.99,7.6-9.26,17.31-18.68,18.01-31.47-4.09,5.38-17.94,20.93-23.93,22.53-.36.1-7.04.46-7.4.36-2.2-.61-1.59-4.12-1.62-5.91h-4.01c-2.34-1.84,5-3.41,5.8-3.69.54-.19,4.45-1.27,2.2-2.3,45.05-24.1,26.39-99.59-29.45-94.89-17.87,1.51-39.5,18.68-44.48,35.94-1.66,2.7-2.18,6.63-2.73,9.76-2.62,14.96-6.26,23.65-1.98,39.4,6.57,24.17,24.22,33.28,47.16,37.78,1.62.32,1.72-.64,1.51,1.97-5.41.06-11.12,1.72-16.45,2.04-25.14,1.53-54.55.55-80.13.57-31.39.02-68.95,1.32-99.72-1.63-2.21-.21-6.42-.62-7.51-2.97,28.39.46,53.74-18.25,56.95-47.46,1.13-10.34-1.45-33.81-7.05-42.63-.97-1.52-3.96-2.75-4.94-4.83-1.44-3.05-7.83-11.14-10.35-13.63-43.08-42.63-108.93,10.59-76.57,65.58.21.36.72.65,1,1,.33.33.67.66,1,1,.21,1.76.54,2.71,1.74,4.03.83.92,6.07,4.6,6.25,4.96.31.6,1.2,6.71.99,6.99-5.76-6.44-4.71.62-8.33-.19-1.36-1.43-12.16-12.36-13.64-10.79,4.24,11.94,12.17,28.54,25.96,30.98l-7,1.01c.11.46,1.02.89,1.01.98-.18,1.55-1.16.79-2,1-.14-1.49-2.85-1.49-3,0-17.32,5.37-30.72,20.79-40.96,34.97-19.69,27.25-31.47,61.29-40.96,92.91-.09.31.09.69,0,1-3.24-.12-4.02,6.77-5,9.99-.09.31.1.7,0,1-3.69,2.83-8.7,24.15-11.18,25.31-6.06,2.84-27.16-3.36-33.77-6.34.46-2.22,4.11-1.41,5.73-2.28.49-.26.17-1.64.26-1.7,2.24-1.53,1.36-1.37,2-2,.79-.77.47.18,2-2,2.12-3.01,4.25-6.3,5.73-10.77,4.58-13.81,7.34-31.87,10.26-46.17.56-2.73,2.17-5.44,3-7.99l.98,1.01c.14-2.34.56-4.71,1.02-7.01.88-4.41,1.76-8.67,3-12.99,2.52.5,2.13-1.15,2.68-2.76,6.09-17.71,11.9-35.6,18.29-53.19.11-.29-.11-.7,0-1l21.98-47.95c.13-.27-.13-.73,0-1l6.42-9.06.57-3.93c13.37-24.11,28.47-42.83,46.95-62.94.02,2.34,3.11-1.64,3-3,.32-.34.68-.66,1-1,2.1-.76,4.84-2.78,5-5,.33-.34.68-.66,1-1,1.81-1.92,5.43-4.58,6.96-6.75,2.03-2.88,7.62-16.91,8.53-17.22,5.11-1.74,2.93,7.28,3.46,9.33.28,1.09,1.97.56,2.02.66,6.78,12.09,18.78,13.19,31.97,13.99h165.84c10.5-.68,22.22-3.61,27.97-12.99.06-.09,1.72.44,2.02-.66.37-1.37.44-5.32-1.02-6.34v-1ZM372.86,344.34c-5.34,1.57-4.47,9.05.84,9.81,9.28,1.33,8.73-12.61-.84-9.81ZM387.83,344.34c-4.15,1.35-4.35,8.98,1.88,9.74,9.89,1.21,6.51-12.46-1.88-9.74ZM409.88,353.89c2.37-1.23,3.95-8.71-1.32-9.73-12.29-2.38-7.14,14.12,1.32,9.73ZM426.91,353.95c.32-.2,2.05-4.36,1.95-5.13-1.06-7.98-16.02-5.48-10.86,3.92,1.32,1.71,7.57,2.05,8.91,1.22ZM401.85,355.38c-4.05-3.39-12.81,1.41-8.61,7.61,5.63,3.08,12.99-3.95,8.61-7.61ZM412.83,354.31c-8.81,1.88-2.85,14.14,4.83,7.89,3.6-2.93,1.21-9.18-4.83-7.89ZM386.96,355.28c-4.57-2.89-15.45,2.23-9.36,7.87,5.34,4.94,14.46-4.65,9.36-7.87ZM392.12,393.09c-3.03,2.38-16.18,4.35-14.89,9.31.18.71,3.43,3.56,3.9,3.68,5.19,2.08,7.62-.2,12.99,3,.32.19,1.75,4.57,5.99,2,.3.07.67-.02,1,0,.39.02.1.18,1,0,3.73-.73,8.54-3.24,11.99-5,1.65,2.65,7.64-3.67,7.98-4.51.59-2.46-1.55-1.12-1.99-1.48-.7-.59-1.33-1.35-2-2-.3-.29-.67-.92-1-1-.28-.07-.65.02-1,0-1.27-.72-4.69-1.8-5.99-2,5.83-10.74-1.58-17.38-11.99-18.98-.32-.05-.67,0-1,0-.67-.02-1.33.01-2,0l-1-1c-1.8-.86-1.78,0-2.01,1.47-.72,4.68.23,11.43,0,16.51ZM387.12,429.05c-5.07.93-3.53,6.99-.5,6.99h21.98c3.42,0,3.58-6.24.5-6.99-2.03-.5-19.61-.44-21.98,0Z"/>
              <path class="cls-3" d="M526.98,436.05c-39.16,20.95-86.51-15.32-73.93-58.94,4.98-17.27,26.61-34.44,44.48-35.94,55.84-4.7,74.5,70.79,29.45,94.89ZM460.05,385.1c-13.95,67,102.88,66.77,82.92-5-12.08-43.43-73.54-40.04-82.92,5Z"/>
              <path class="cls-3" d="M251.25,421.06c-32.36-54.99,33.49-108.21,76.57-65.58,2.52,2.49,8.91,10.58,10.35,13.63,22.67,48.03-33.73,94.53-76.92,62.94-.99-.72-6.07-7.03-7.99-8.99-.33-.34-.67-.67-1-1s-.63-.7-1-1ZM252.25,380.1c-6.04,13.08-1.64,29.29,7.48,39.97,30.51,35.72,89.22,4.96,73.44-41.97-13.84-41.17-73.81-37.55-80.92,2Z"/>
              <path class="cls-4" d="M260.24,461.02c4.52-.16,9.62-.69,11.99,3.99-1.65.11-3.35-.1-5,.01h-1c-.63.1-1.39-.12-2,0l-1,1c-26.66,6.21-37.57,19.75-48.44,43.97-14.46,32.24-23.31,71.56-40.96,101.9-4.02,6.92-7.06,11.22-14.5,14.96,2.63-8.52,6.27-16.46,8.98-24.98.1-.3-.09-.69,0-1l5-9.99c.09-.31-.09-.69,0-1,11.28-32,23.43-63.79,40.96-92.91,10.24-14.17,23.64-29.6,40.96-34.97.77-.24,2.14.21,3,0s1.82.55,2-1Z"/>
              <path class="cls-4" d="M572.94,485c5.08,6.23,12.96,18.81,16.98,25.97,20.41,36.36,30.61,77.63,47.89,115.46.49,3.59-4.91-1.14-5.95-2.06-18.33-16.22-39.57-91.3-51.48-117.36-8.99-19.66-19.87-31.59-40.42-39-4-1.44-7.91-2.8-11.99-4,14.46-6.68,36.29,10.35,44.96,20.98Z"/>
              <path class="cls-4" d="M512,316.16v1c-.05.66.08,1.35,0,2-.96.31-.91,1.15-1,2-.1.98.07,2.01,0,3-5.75,9.38-17.47,12.3-27.97,12.99-27.18,1.77-58.29.04-85.92,0-.33,0-.67,0-1,0-25.6-.06-53.68,1.52-78.92,0-13.19-.79-25.19-1.9-31.97-13.99l.98-8.98c5.06,12.25,18.17,16.96,30.5,17.96,55.89,4.51,119.17-2.32,175.55-1.24,9.28-2.24,13.52-8.43,19.74-14.73Z"/>
              <path class="cls-1" d="M482.03,323.16c.3-.02,4.09,2.08,5.99,1l-3.99,3.5c4.64-.12,3.32,3.49.49,3.49h-167.34v-6c53.04-1.38,106.43,1.83,159.45.07,2.01-.07,3.21-1.06,3.39-1.07.11,0,.82-.92,2-1Z"/>
              <path class="cls-3" d="M539.97,468.02c-2.38-.23-18.7-.89-11.99-4,4.08,1.19,7.99,2.55,11.99,4Z"/>
              <rect class="cls-1" x="513" y="442.05" width="2.99" height=".98"/>
              <g>
                <path class="cls-4" d="M511,282.2c-.96.28-.92,1.16-1,2-1.79,18.09-5.56,38.54-27.97,38.96-1.18.08-1.89.99-2,1l-159.38.04c-12.43-.91-20.47-3.69-27.67-14.29-6.66-9.81-18.34-69.63-20.43-84.47-3.03-21.48,2.1-18.33,22.17-20.15,62.79-5.68,137.89-5.16,200.77,0,5.41.44,27.7,1.99,29.77,6.21.63,1.29.86,2.67.65,4.11-4.75,22.17-11.84,44.07-14.91,66.6Z"/>
                <path class="cls-3" d="M510,284.2c.08-.84.04-1.71,1-2-.11.83-.03,1.7-1,2Z"/>
              </g>
              <path class="cls-3" d="M266.24,465.02h1c-.48.03-.95,0-1,0Z"/>
              <path class="cls-3" d="M263.24,466.02l1-1c-.09.02-.45.87-1,1Z"/>
              <path class="cls-2" d="M396.11,337.14l.5.98.5-.98c27.63.04,58.73,1.77,85.92,0h-165.84c25.24,1.52,53.33-.06,78.92,0Z"/>
              <path class="cls-3" d="M397.11,376.11h1c10.41,1.6,17.82,8.24,11.99,18.98-1.74-.27-4.73,1.41-5.53.06l-1.47-14.04-.51-.99-1.49.99c-.31.68-.67,1.33-1,2-2.48,5.12-.4,17.12-.93,23.57-.16,1.97-.16,2.48-2.07,3.4-.4-.27-.74-.59-1-1-3.05-4.83.22-26.11-1-32.97.67.01,1.33-.02,2,0Z"/>
              <path class="cls-3" d="M409.1,429.05c3.08.75,2.92,6.99-.5,6.99h-21.98c-3.03,0-4.57-6.06.5-6.99,6.53,1.68,15.54,1.67,21.98,0Z"/>
              <path class="cls-3" d="M416.09,397.09c.34.02.72-.07,1,0,.3.37.66.67,1,1,.66.65,1.29,1.4,2,2,.45,4.86-3.2,4.57-5.99,5.99-3.45,1.76-8.26,4.27-11.99,5-2-7.13,7.69-7.06,12-10.49-2.32-2.54-11.36,3.23-11.99,2.49-2.41-7.84,8.43-6.35,13.98-5.99Z"/>
              <path class="cls-3" d="M392.12,393.09c-.07,1.58.45,4.79-.18,5.82-.59.97-5.66,1.71-6.82,2.68.14,4.16,6.77-.82,6.99-.51,3.53,5.07-7.78,5.83-10.98,4.99-.47-.12-3.72-2.97-3.9-3.68-1.29-4.96,11.87-6.92,14.89-9.31Z"/>
              <path class="cls-2" d="M403.1,381.1l1.47,14.04c.8,1.36,3.78-.33,5.53-.06,1.3.2,4.72,1.28,5.99,2-5.55-.36-16.39-1.86-13.98,5.99.64.74,9.68-5.03,11.99-2.49-4.31,3.43-14,3.36-12,10.49-.9.18-.61.02-1,0l-1-27.97c.32-.67.69-1.32,1-2h2Z"/>
              <path class="cls-2" d="M426.91,353.95c-1.34.83-7.59.49-8.91-1.22-5.16-9.39,9.8-11.89,10.86-3.92.1.77-1.63,4.93-1.95,5.13Z"/>
              <path class="cls-2" d="M394.11,375.11v33.97h2c.26.41.6.73,1,1,.14.09,2.55.9,3,1-4.25,2.58-5.68-1.81-5.99-2-5.37-3.19-7.8-.92-12.99-3,3.2.83,14.5.08,10.98-4.99-.22-.31-6.85,4.67-6.99.51,1.17-.97,6.23-1.71,6.82-2.68.62-1.03.11-4.23.18-5.82.22-5.08-.73-11.83,0-16.51.23-1.47.21-2.34,2.01-1.47Z"/>
              <path class="cls-2" d="M409.88,353.89c-8.46,4.39-13.61-12.12-1.32-9.73,5.27,1.02,3.69,8.5,1.32,9.73Z"/>
              <path class="cls-2" d="M386.96,355.28c5.1,3.22-4.02,12.81-9.36,7.87-6.1-5.64,4.78-10.75,9.36-7.87Z"/>
              <path class="cls-2" d="M372.86,344.34c9.57-2.81,10.12,11.13.84,9.81-5.31-.76-6.18-8.24-.84-9.81Z"/>
              <path class="cls-2" d="M387.83,344.34c8.39-2.72,11.77,10.95,1.88,9.74-6.24-.76-6.04-8.4-1.88-9.74Z"/>
              <path class="cls-2" d="M412.83,354.31c6.04-1.29,8.43,4.96,4.83,7.89-7.68,6.25-13.64-6.01-4.83-7.89Z"/>
              <path class="cls-2" d="M401.85,355.38c4.39,3.66-2.97,10.69-8.61,7.61-4.21-6.2,4.55-11,8.61-7.61Z"/>
              <path class="cls-3" d="M401.11,411.07c-.33-.02-.7.07-1,0-.45-.1-2.86-.9-3-1,1.91-.92,1.91-1.43,2.07-3.4.53-6.45-1.55-18.46.93-23.57l1,27.97Z"/>
              <path class="cls-3" d="M395.11,376.11c1.21,6.86-2.05,28.14,1,32.97h-2v-33.97l1,1Z"/>
              <path class="cls-2" d="M173.33,589.9c9.49-31.62,21.27-65.66,40.96-92.91-17.53,29.12-29.68,60.91-40.96,92.91Z"/>
              <path class="cls-3" d="M409.1,429.05c-6.44,1.67-15.45,1.68-21.98,0,2.37-.44,19.95-.5,21.98,0Z"/>
              <path class="cls-2" d="M512,317.16c1.45,1.02,1.39,4.96,1.02,6.34-.3,1.1-1.96.57-2.02.66.07-.99-.1-2.02,0-3,.97-.33.9-1.17,1-2,.08-.65-.05-1.34,0-2Z"/>
              <path class="cls-2" d="M173.33,590.9l-5,9.99c.97-3.22,1.76-10.11,5-9.99Z"/>
              <path class="cls-2" d="M420.09,400.08c.44.37,2.58-.98,1.99,1.48-.35.84-6.33,7.16-7.98,4.51,2.79-1.42,6.44-1.14,5.99-5.99Z"/>
              <path class="cls-2" d="M258.25,462.02c-.86.21-2.23-.24-3,0,.14-1.49,2.85-1.49,3,0Z"/>
              <path class="cls-2" d="M252.25,422.06c-.28-.35-.78-.63-1-1,.37.29.67.67,1,1Z"/>
              <path class="cls-2" d="M418.09,398.08c-.34-.33-.7-.63-1-1,.33.08.7.71,1,1Z"/>
              <path class="cls-4" d="M397.11,376.11c.33,0,.68-.05,1,0l-.5-.02-.5.02Z"/>
              <path class="cls-2" d="M460.05,385.1v9.98c1.74.41.46-2.01,1.55-2.05,1.95-.08,5.4,2.2,8.44.06,2.94,36.41,62.64,37.91,63.94-3,5.79,1.82,4.99-4.7,8.98-2v-7.99c19.98,71.76-96.86,72-82.91,5Z"/>
              <path class="cls-1" d="M542.97,380.1v7.99c-4-2.7-3.2,3.82-8.99,2,1.45-45.67-67.67-43.16-63.94,3-3.04,2.15-6.49-.13-8.44-.06-1.09.04.19,2.46-1.54,2.05v-9.98c9.37-45.03,70.82-48.43,82.91-5Z"/>
              <path class="cls-2" d="M252.25,380.1c-.28,1.56-1.39,11.54-.99,11.99,3.71-1.67,4.23-.08,6.97,2-.37-4.22.04-7.14,1.01-10.99-2.77,52.89,73.36,48.02,63.94-4,.74,1.09,1.96,3.72,2.15,3.84,2.13,1.37,9.03-.79,7.84-4.84,15.78,46.93-42.93,77.69-73.44,41.97-9.12-10.68-13.52-26.89-7.48-39.97Z"/>
              <path class="cls-1" d="M333.17,378.1c1.19,4.04-5.71,6.21-7.84,4.84-.18-.12-1.41-2.75-2.15-3.84-4.91-7.25-6.13-13.04-14.68-17.79-20.4-11.32-43.7-.23-49.26,21.78-.97,3.85-1.38,6.77-1.01,10.99-2.74-2.08-3.26-3.67-6.97-2-.4-.45.71-10.42.99-11.99,7.12-39.54,67.08-43.16,80.92-2Z"/>
              <path class="cls-3" d="M511,321.16c.09-.84.04-1.68,1-2-.1.83-.03,1.66-1,2Z"/>
              <path class="cls-3" d="M396.11,337.14c.33,0,.67,0,1,0l-.5.98-.5-.98Z"/>
              <polygon class="cls-3" points="403.12 381.1 401.12 381.1 402.59 380.11 403.12 381.1"/>
              <path class="cls-3" d="M533.98,390.09c-1.3,40.9-60.99,39.4-63.94,3-3.73-46.16,65.38-48.66,63.94-3Z"/>
              <path class="cls-3" d="M323.18,379.1c9.42,52.01-66.71,56.88-63.94,4,5.56-22.02,28.86-33.1,49.26-21.78,8.55,4.74,9.78,10.53,14.68,17.79Z"/>
              <g>
                <path class="cls-4" d="M93.41,381.1c9.11-42.12,26.67-106.98,48.78-143.53,14.94-24.7,69.6-36.1,96.56-33.28,8.19.86,15.32,6.13,24.49,3.99-2.77,5.3-1.55,10.65-.86,16.33,2.92,23.93,18.07,64.95,15.84,86.56l-1,1c-1.84,11.33-6.16,16.3-12.99,24.98-.32.34-.67.66-1,1-1.63,1.69-3.35,3.23-5,5-.32.34-.68.65-1,1-.88.95-1.94,1.84-3,3-18.48,20.11-33.59,38.83-46.95,62.94-2.41,4.34-4.81,8.5-6.99,12.99-.13.27.13.73,0,1-9.76,14.72-16.03,31.53-21.98,47.95-.11.29.11.7,0,1-2.28,1.45-3.12,5.04-4.01,7.48-5.77,15.95-12.31,32.17-16.97,48.46-1.24,4.32-2.12,8.57-3,12.99-2,1.53-1.41,4.18-2,5.99-.82,2.55-2.44,5.26-3,7.99l-15.98,56.94c-2.23-.45-1.76,1.76-2,2-.14.14-1.22-.12-1.62.38l-.37,1.62c-9.29,3.74-12.37,1.64-19.89-3.59-17.41-12.12-24.77-30.03-28.06-50.36l-1-3c-5-35-3.01-75.75,1-110.89l1-2c.75-6.3,1.86-12.62,2-18.98l1-1c1.69-14.04,4.1-28.14,6.99-41.96l1-4ZM250.25,226.25c-.13-.12.45-1.71-.67-2.01-2.32-.63-12.7-.06-13.32,4.01l-1,1c.13,1.97-.19,4.03,0,5.99s1.43,8,2,9.99c1.86,6.49,2.6,10.55,10.46,10,13.42-.94,6.82-14.61,5.52-22.99-.05-.66.04-1.34,0-2-.22-3.8-2.25-3.32-3-4ZM176.33,251.23c-3.49,2.63-3.54,4.71-4,8.99-.29,2.73-.02,6.14,0,8.99.02,2.45-.8,6.11,1,7.99.04.33-.05.67,0,1,1.15,8.02,13.56,23.11,21.98,19.98,2.98-1.11,15.39-12.15,16.85-14.85,3.44-6.37,4.26-19.07,3.13-26.11-.41-2.55-2.45-4.21-4-5.99-.56-2.31-1.68-3.45-4-4-.36-.26-.66-.84-1-1-3.11-1.51-18.55-.67-22.43.05-1.99.37-6.24,3.12-7.54,4.95ZM143.36,284.2c-2.79,1.31-3.1,1.69-5,4-.29.35-.81.66-1,1-2.39,4.27-3.53,21.9-2.56,27.03.33,1.76,1.64,4.32,2.56,5.94,1.69,2.97,1.51,3.5,5,5,13.15,5.66,24.3,2.15,33.97-6.99,2.92-2.76,5.81-5.61,7.99-8.99,4.31-6.68,1.23-6.54-2-11.99-4.11-6.95-9.82-12.86-17.98-14.99-.67,0-1.33,0-2,0-6.97-1.87-12.27-3.15-18.98,0ZM214.29,287.19c-4.02,2.8-7.63,6.75-9.99,10.99-2.85,2.43-5.77,5.98-4.49,9.93.98,3.03,14.69,16.89,17.74,18.28,8.88,4.04,30.83,2.93,32.7-9.22.05-.32-.03-.67,0-1,2.23-.7,2.03-2.62,2.09-4.5.13-3.82.27-11.47-.19-14.89-2.22-16.49-26.67-17.37-37.87-9.58ZM190.31,313.17c-6.78,2.96-14.7,10.63-16.98,17.98-2.28,7.32-3.2,16.79,0,23.98.07.65-.11,1.38,0,2,.21,1.23,2.78,4.39,3.78,4.94,5.58,3.07,21.29,4.08,27.19,1.06.36-.19.64-.78,1-1,4.93-1.28,7.78-4.78,8.91-9.64.71-3.07.61-16.95.07-19.85-.38-2.04-1.88-2.25-1.98-2.47-2.06-4.7-4.17-7.41-7.99-10.99-2.01-3.23-8.56-8.89-12.3-7.85-1.16.32-1.51,1.77-1.69,1.85Z"/>
                <path class="cls-3" d="M92.41,385.1c.32-1.53.75-2.82,1-4l-1,4Z"/>
                <path class="cls-3" d="M81.42,562.92c-.03-.16-.75-1.27-1-3l1,3Z"/>
                <path class="cls-3" d="M81.42,449.03c.19-1.68.99-1.89,1-2l-1,2Z"/>
                <path class="cls-3" d="M277.23,312.17l1-1c-.07.69-.99.93-1,1Z"/>
                <path class="cls-3" d="M84.42,428.06l1-1-1,1Z"/>
                <path class="cls-1" d="M206.3,246.23c.34.16.64.74,1,1,.23.16,3.61,3.55,4,4,1.55,1.78,3.59,3.44,4,5.99-3.56,8,.11,16.59-3.79,24.69l-16.19,16.27c-8.42,3.13-20.83-11.96-21.98-19.98l.99-6.99h-.98s-.01,5.99-.01,5.99c-1.8-1.88-.98-5.54-1-7.99,1.69-1.89,1.69-7.11,0-8.99.45-4.28.51-6.36,4-8.99,1.81-1.37,6.48-3.26,8.76-3.71,6.04-1.2,15.06,0,21.21-1.28ZM182.32,254.23c-.93.65-1.38,1.01-2,2-.16.25-1.45.4-1.8,1.66-.79,2.82-.33,10.46-.2,13.88.07,1.92-1.03,4.01,2,3.45,1.15,5.33,5.82,12.37,10.65,14.87,3.71,1.92,5.48-.53,8.33-2.88.36-.3.66-.68,1-1s.69-.66,1-1c8.73-3.74,9.12-17.18,7.75-25.24-.22-1.28-1.47-5.38-3.75-4.73-.16-.17.16-.9,0-1-.93-2.72-6.09-2.88-7.99-1-.66-.04-1.33.01-2,0,.48-3.18-1.28-1.86-3.19-1.71-4.5.36-6.42.36-9.8,2.7Z"/>
                <path class="cls-1" d="M162.34,284.2c-1.55.02-3.36-.57-2.99.99l4.99-.99c8.16,2.12,13.87,8.04,17.98,14.99,2.21,3.96,2.3,7.5,2,11.99-2.18,3.39-5.07,6.23-7.99,8.99l-11.6,6.88c-7.51,2.8-14.86-.44-22.36.11-3.48-1.5-3.3-2.03-5-5l-1.88-11.38,1.88-21.58c.19-.34.71-.65,1-1l5.99-3.01-1-.99c6.71-3.15,12.01-1.87,18.98,0ZM168.33,292.19c-7.18-5.85-26.22-7.17-27.9,4.57-.57,3.95-.53,13.88.01,17.86,1.26,9.26,18.35,9.95,24.89,5.54,1.93-1.3,12.46-11.3,12.85-12.71.63-2.31-4.16-8.69-5.85-11.26-.84-1.28-1.48-2.38-3-3-.28-.33-.67-.73-1-1Z"/>
                <path class="cls-1" d="M190.31,313.17c7.96-1.76,8.85,2.94,12.99,6.47.41.35.95-.52.99-.48,3.83,3.58,5.94,6.29,7.99,10.99.83,12.12,4.86,24.58-6.99,31.97-.36.22-.64.81-1,1-7.27-1.15-20.12,2.21-26.35-2.12-2.65-1.84-1.75-6.29-4.62-3.88-.11-.62.07-1.35,0-2v-23.98c2.29-7.35,10.2-15.03,16.98-17.98ZM180.32,329.15c-3.12,3.77-4.27,17.6-3.02,22.32.29,1.1,1.97.57,2.02.66.68,1.22.7,2.59,2,4,.81.88.42,1.63,2.48,1.98,4.53.78,16.39,1.38,20.24-.78,1.43-.8,1.42-1.21,2.26-2.2.07-.09.93-1.78,1-2,1.57-4.64,1.78-15.34,0-19.98-.92-2.4-11.94-14.74-13.7-14.83-2.18-.12-11.48,8.68-13.27,10.84Z"/>
                <path class="cls-1" d="M250.25,316.16c-.03.33.05.68,0,1-2.36,1.48-2.16,4.05-4.46,6.03-4.65,3.98-23.37,4.06-28.74,1.7-1.77-.78-14.3-13.28-14.99-14.97-2.19-5.32-.13-7.49,2.24-11.74s5.97-8.19,9.99-10.99l10.62-2.87c7.43-.88,23.68-.21,25.29,9.42.77,4.63.52,17.44.06,22.42ZM241.26,290.19c-11.57-5.24-25.61-2.44-30.97,9.99-.44.66-2.82,4.44-2.88,4.71-.82,3.45,10.94,12.17,13.87,14.27.13.09-.51,1.75.63,2.04,2.79.71,14.75,1.06,17.35-1.04.33-.03.69.07,1,0,8.48-1.85,7.45-23.19,3-27.97-.33-.35-1.87-1.95-2-2Z"/>
                <path class="cls-1" d="M250.25,226.25c.41.42.82,3.97,1.01,4.99l1.99-1c.04.66-.05,1.34,0,2,0,.13-1.19,1.12-1.05,2.41.57,5,3.11,9.63,2.05,15.08-.68,3.48-2.74,1.84-4,2.49.13-.04,1.97-1.6,2.02-1.72,1.45-3.4-1.19-19.07-4.02-21.25-.36-.28-.86-.97-1-1-14.13-5.12-7.99,17.43-3,22.98.99-.04,2,.06,3,0,.11,1.17,2.21,1.22,3,1-8.77,4.55-10.19,0-10.99-8.48l-1.99,1.49c-.57-1.99-1.8-7.96-2-9.99,1.63-1.04,1.61-5.01,0-5.99l1-1c2.65-1.91,11.76-4.3,13.99-2Z"/>
                <path class="cls-2" d="M250.25,317.16c-1.87,12.16-23.82,13.26-32.7,9.22-3.05-1.39-16.76-15.25-17.74-18.28-1.28-3.95,1.64-7.49,4.49-9.93-2.37,4.25-4.43,6.42-2.24,11.74.69,1.68,13.23,14.19,14.99,14.97,5.36,2.36,24.08,2.28,28.74-1.7,2.31-1.97,2.1-4.55,4.46-6.03Z"/>
                <path class="cls-2" d="M250.25,316.16c.46-4.98.71-17.79-.06-22.42-1.61-9.64-17.85-10.3-25.29-9.42l-10.62,2.87c11.2-7.8,35.64-6.91,37.87,9.58.46,3.42.32,11.07.19,14.89-.06,1.88.14,3.8-2.09,4.5Z"/>
                <path class="cls-2" d="M204.3,363.12c-5.91,3.03-21.61,2.01-27.19-1.06-1-.55-3.56-3.71-3.78-4.94,2.87-2.41,1.97,2.04,4.62,3.88,6.23,4.33,19.08.96,26.35,2.12Z"/>
                <path class="cls-2" d="M173.33,355.13c-3.2-7.18-2.28-16.66,0-23.98v23.98Z"/>
                <path class="cls-2" d="M215.29,257.22c1.13,7.04.31,19.74-3.13,26.11-1.46,2.7-13.87,13.74-16.85,14.85l16.19-16.27c3.89-8.09.22-16.68,3.79-24.69Z"/>
                <path class="cls-2" d="M178.32,473.01c-6.39,17.59-12.2,35.47-18.29,53.19-.55,1.61-.17,3.26-2.68,2.76,4.66-16.29,11.2-32.51,16.97-48.46.88-2.44,1.72-6.03,4.01-7.48Z"/>
                <path class="cls-2" d="M206.3,246.23c-6.15,1.29-15.17.09-21.21,1.28-2.28.45-6.95,2.34-8.76,3.71,1.3-1.82,5.55-4.58,7.54-4.95,3.87-.72,19.32-1.56,22.43-.05Z"/>
                <path class="cls-2" d="M137.36,322.16c-.92-1.61-2.22-4.18-2.56-5.94-.98-5.13.16-22.76,2.56-27.03l-1.88,21.58,1.88,11.38Z"/>
                <path class="cls-2" d="M205.3,362.12c11.85-7.38,7.83-19.84,6.99-31.97.1.23,1.6.44,1.98,2.47.54,2.91.64,16.78-.07,19.85-1.12,4.86-3.97,8.36-8.91,9.64Z"/>
                <path class="cls-2" d="M176.33,320.16c-9.66,9.14-20.82,12.65-33.97,6.99,7.5-.55,14.86,2.68,22.36-.11l11.6-6.88Z"/>
                <path class="cls-2" d="M178.32,472.01c5.95-16.42,12.22-33.23,21.98-47.95l-21.98,47.95Z"/>
                <path class="cls-2" d="M248.26,229.25c2.83,2.19,5.47,17.86,4.02,21.25-.05.12-1.89,1.69-2.02,1.72,1.26-.65,3.32.99,4-2.49,1.06-5.45-1.48-10.07-2.05-15.08-.15-1.29,1.05-2.28,1.05-2.41,1.3,8.38,7.9,22.05-5.52,22.99-7.86.55-8.6-3.51-10.46-10l1.99-1.49c.81,8.48,2.22,13.03,10.99,8.48-.79.22-2.89.17-3-1,.7-.04,3.63-.78,3.85-1.14l-2.85-20.84Z"/>
                <path class="cls-2" d="M184.32,311.17c.31-4.49.21-8.02-2-11.99,3.23,5.45,6.31,5.31,2,11.99Z"/>
                <path class="cls-2" d="M236.27,228.25c.62-4.07,11-4.64,13.32-4.01,1.11.3.53,1.89.67,2.01.74.68,2.77.2,3,4l-1.99,1c-.2-1.02-.6-4.57-1.01-4.99-2.23-2.3-11.33.09-13.99,2Z"/>
                <path class="cls-2" d="M207.3,410.07l-.57,3.93-6.42,9.06c2.18-4.49,4.58-8.64,6.99-12.99Z"/>
                <path class="cls-2" d="M204.3,319.16s-.59.82-.99.48c-4.14-3.54-5.03-8.23-12.99-6.47.18-.08.53-1.53,1.69-1.85,3.74-1.04,10.29,4.62,12.3,7.85Z"/>
                <path class="cls-2" d="M172.33,269.21c-.02-2.85-.29-6.26,0-8.99,1.69,1.89,1.69,7.11,0,8.99Z"/>
                <path class="cls-2" d="M173.33,278.2c-.05-.33.04-.67,0-1v-5.99s.99,0,.99,0l-.99,6.99Z"/>
                <path class="cls-2" d="M235.27,235.24c-.19-1.96.13-4.02,0-5.99,1.61.98,1.63,4.95,0,5.99Z"/>
                <path class="cls-2" d="M162.34,284.2c.67,0,1.33,0,2,0l-4.99.99c-.37-1.55,1.44-.97,2.99-.99Z"/>
                <path class="cls-2" d="M154.35,541.94c-.45,2.29-.88,4.66-1.02,7.01l-.98-1.01c.58-1.81,0-4.46,2-5.99Z"/>
                <path class="cls-2" d="M207.3,247.23c2.31.55,3.44,1.69,4,4-.39-.44-3.77-3.83-4-4Z"/>
                <path class="cls-2" d="M263.24,338.14c-.16,2.21-2.9,4.23-5,5,1.65-1.76,3.37-3.3,5-5Z"/>
                <path class="cls-2" d="M257.25,344.14c.12,1.36-2.98,5.34-3,3,1.06-1.16,2.11-2.05,3-3Z"/>
                <path class="cls-2" d="M143.36,284.2l1,.99-5.99,3.01c1.9-2.31,2.21-2.69,5-4Z"/>
                <path class="cls-4" d="M195.31,253.23c.66.01,1.34-.04,2,0,1.72.11,6.86.32,7.99,1,.16.1-.16.83,0,1,2.68,2.91,2.71,17.36,1.94,21.42-.46,2.42-4.18,6.61-5.94,8.55-.31.34-.66.68-1,1l-1,1c-2.85,2.35-4.61,4.8-8.33,2.88-4.83-2.5-9.51-9.54-10.65-14.87-1.46-6.77-.46-12.19,0-18.98.62-.99,1.07-1.35,2-2,4.32-1.08,8.57-1.08,12.99-1ZM200.3,268.2l-6.63-7.91-6.35,6.43c-.42,2.26.99,1.38,2.47,1.48,3.47.25,7.04-.17,10.51-.01Z"/>
                <path class="cls-2" d="M205.3,255.22c2.28-.65,3.54,3.45,3.75,4.73,1.37,8.05.98,21.5-7.75,25.24,1.76-1.94,5.48-6.12,5.94-8.55.77-4.07.73-18.52-1.94-21.42Z"/>
                <path class="cls-2" d="M180.32,275.2c-3.02.56-1.92-1.53-2-3.45-.13-3.41-.59-11.06.2-13.88.35-1.26,1.64-1.4,1.8-1.66-.46,6.79-1.46,12.21,0,18.98Z"/>
                <path class="cls-2" d="M182.32,254.23c3.38-2.35,5.31-2.35,9.8-2.7,1.91-.15,3.66-1.47,3.19,1.71-4.42-.08-8.67-.08-12.99,1Z"/>
                <path class="cls-2" d="M205.3,254.23c-1.13-.68-6.27-.89-7.99-1,1.9-1.88,7.06-1.72,7.99,1Z"/>
                <path class="cls-2" d="M199.3,287.19l1-1c-.34.32-.64.7-1,1Z"/>
                <path class="cls-4" d="M168.33,292.19c.33.27.72.67,1,1,.9,1.06,1.34,2.49,3,3,1.7,2.58,6.49,8.95,5.85,11.26-.39,1.41-10.91,11.41-12.85,12.71-17.37,2.7-24.99,3.29-23.96-16.47.1-1.87.78-8.43,1.2-9.79,2.21-7.19,20.3-4.18,25.76-1.72ZM155.35,298.18l-7.97,6.49,7.97,7.49v-13.99Z"/>
                <path class="cls-2" d="M168.33,292.19c-5.46-2.47-23.55-5.48-25.76,1.72-.41,1.35-1.1,7.92-1.2,9.79-1.03,19.76,6.59,19.17,23.96,16.47-6.54,4.4-23.63,3.72-24.89-5.54-.54-3.98-.58-13.91-.01-17.86,1.68-11.74,20.72-10.42,27.9-4.57Z"/>
                <path class="cls-2" d="M172.33,296.18c-1.66-.51-2.09-1.94-3-3,1.51.62,2.15,1.72,3,3Z"/>
                <path class="cls-4" d="M180.32,329.15c1.79-2.16,11.09-10.96,13.27-10.84,1.76.1,12.78,12.43,13.7,14.83v19.98c-.07.22-.93,1.91-1,2-7.61,4.53-16.74.53-24.98,1-1.3-1.4-1.32-2.78-2-4l1-22.98ZM199.3,343.14c-2.47.44-5.01-.67-7.32-.61-1.05.03-5.47.11-4.65,2.09l6.34,5.43,5.63-6.91Z"/>
                <path class="cls-2" d="M179.32,352.13c-.05-.09-1.73.44-2.02-.66-1.25-4.72-.1-18.55,3.02-22.32l-1,22.98Z"/>
                <path class="cls-2" d="M181.32,356.13c8.23-.47,17.37,3.53,24.98-1-.83.99-.83,1.4-2.26,2.2-3.85,2.16-15.71,1.56-20.24.78-2.06-.35-1.67-1.11-2.48-1.98Z"/>
                <path class="cls-2" d="M207.3,353.13v-19.98c1.78,4.64,1.57,15.34,0,19.98Z"/>
                <path class="cls-4" d="M241.26,290.19c.13.05,1.67,1.65,2,2,.83,8.19,3.88,22.19-3,27.97-.31.07-.67-.03-1,0-3.81.38-9.04.14-12.99,0-.54-1.31-1.9-.92-3-1-.66-.05-1.34.03-2,0-2.94-2.1-14.69-10.83-13.87-14.27.06-.27,2.44-4.05,2.88-4.71,6.65-9.91,19.61-14.34,30.97-9.99ZM236.94,306.87c3.76-4.7-5.92-9.41-6.67-8.68,1.85,4.44-.59,8.34,0,12.97.55.64,6.27-3.8,6.66-4.3Z"/>
                <path class="cls-2" d="M240.26,320.16c6.87-5.79,3.82-19.78,3-27.97,4.45,4.79,5.48,26.12-3,27.97Z"/>
                <path class="cls-2" d="M241.26,290.19c-11.36-4.35-24.32.08-30.97,9.99,5.36-12.43,19.4-15.23,30.97-9.99Z"/>
                <path class="cls-2" d="M223.28,319.16c.53,1.28,1.89.96,3,1,3.95.14,9.17.38,12.99,0-2.6,2.1-14.56,1.75-17.35,1.04-1.15-.29-.51-1.95-.63-2.04.66.03,1.34-.05,2,0Z"/>
                <path class="cls-4" d="M247.26,228.25c.14.03.64.72,1,1l2.85,20.84c-.22.35-3.15,1.09-3.85,1.14-.99.06-2-.04-3,0-1.91-6.8-11.05-25.61,3-22.98Z"/>
                <path class="cls-2" d="M247.26,228.25c-14.04-2.63-4.91,16.18-3,22.98-4.99-5.54-11.13-28.09,3-22.98Z"/>
                <path class="cls-3" d="M200.3,268.2c-3.47-.16-7.04.26-10.51.01-1.48-.11-2.89.78-2.47-1.48l6.35-6.43,6.63,7.91Z"/>
                <polygon class="cls-3" points="155.35 298.18 155.35 312.17 147.37 304.68 155.35 298.18"/>
                <path class="cls-3" d="M199.3,343.14l-5.63,6.91-6.34-5.43c-.82-1.98,3.6-2.06,4.65-2.09,2.32-.06,4.85,1.05,7.32.61Z"/>
                <path class="cls-3" d="M236.94,306.87c-.4.5-6.11,4.94-6.66,4.3-.59-4.63,1.85-8.54,0-12.97.75-.73,10.43,3.98,6.67,8.68Z"/>
                <path class="cls-1" d="M226.28,320.16c-1.11-.04-2.47.28-3-1,1.1.08,2.45-.31,3,1Z"/>
              </g>
              <g>
                <path class="cls-4" d="M706.81,399.08l1,1c3.08,16.12,4.87,32.67,6.99,48.95l1,1,2,23.98,1,2c.75,23.8,2.73,48.14,1,71.93l-1,4c-2.05,21.56-6.65,42.88-23.45,57.97-5.7,5.12-15.72,12.71-23.5,9.96-.35-.3-.63-.73-1-1-7.21-5.16-10.55-12.77-13.48-20.99-8.41-23.63-11.07-49.53-20.49-72.92-.09-.31.09-.69,0-1-4.47-15.79-12.25-34.53-18.52-49.92-3.49-8.56-7.3-18.6-12.45-26.01v-1l-11.71-24.71c-2.61-2.17-3.63-5.39-5.28-8.26-12.51-21.73-25.32-40.25-41.96-58.94-3.87-6.14-9.51-11.26-14.99-15.98-2.28-2.78-4.73-6.98-6.99-9.99-2.85-3.71-5.74-9.25-6.55-13.93-2.46-14.19,4.45-42.99,7.55-58l1-3c2.17-10.34,6.54-22.59,7.84-32.62.64-4.95,1.1-8.91-1.85-13.32,9.52,1.99,17.79-3.15,26.49-3.99,24.15-2.34,81.16,10.19,95.21,31.64,25.6,39.07,43.14,116.79,52.13,163.16ZM540.97,251.23c.07.36-.11.79,0,1,2.18,4,10.25,5.06,13.9,1.41,1.85-1.86,7.14-18.16,7.12-20.9-.05-7.3-11.41-10.69-16.08-6.04-3.43,3.42-7.57,19.56-4.93,24.53ZM585.93,245.23c-4.04,2.68-6.43,9.45-6.99,13.99-.31,2.47-.29,7.5,0,9.99.65,5.6,1.89,6.88,5,10.99,16.75,22.16,48.77,6.91,45.96-20.98-.03-.32-.95-.76-1-1-.17-.9.23-2.25,0-3-3.91-12.68-15.96-19.6-28.97-17.98-4.52.56-11.58,3.98-13.99,7.99ZM533.98,293.19c-.33.33-.71.64-1,1-.87,1.08-1.46,1.52-2,3-.1.29.1.69,0,1-11.35,13.02,3.57,36.3,17.72,38.72,22.94,3.92,39.3-19.14,28.23-39.72-3.19-5.93-7.69-9.71-13.99-11.99-11.38-4.12-21.68-1.73-28.97,7.99ZM640.87,286.19c-.38.16-.67.82-1,1-13.2,5.06-16.6,19.37-12.99,31.97.48,1.68.96,1.89,1,2,.38.91.39,1.92,1,3,2.24,3.98,3.78,6.12,7.99,7.99.83.85,1.81,1.71,3,2,.31.08.68-.07,1,0,7.18,5.9,20.12,2.65,26.86-2.61,22.35-17.43,1.49-57.21-26.86-45.34ZM595.92,331.15c-5.23.63-4.02,1.49-6.99,4-3.09.67-6.37,4.01-6.99,6.99-3.24,4.06-4.3,5.51-5,10.99-.21,1.63-.14,4.3,0,5.99.03.33-.04.67,0,1,.86,6.69,6.42,17.4,12.99,19.98.28.11.69-.1,1,0,19.95,13.16,42.8-7.12,38.26-28.77-1.71-8.14-8.33-16.71-16.28-19.18-.98-.3-1.19-.8-3-1-3.7-1.87-10.04-1.44-13.99,0Z"/>
                <path class="cls-3" d="M718.8,551.93l1-4c-.14,1.96-.98,3.78-1,4Z"/>
                <path class="cls-3" d="M525.98,257.22c.3-1.43.93-2.69,1-3l-1,3Z"/>
                <path class="cls-3" d="M718.8,476.01l-1-2,1,2Z"/>
                <path class="cls-3" d="M715.8,450.03l-1-1c0,.07.91.28,1,1Z"/>
                <path class="cls-3" d="M707.81,400.08l-1-1c.01.07.85.24,1,1Z"/>
                <path class="cls-1" d="M628.88,255.22c-1.7.21-1.29,2.41,0,3,.05.24.97.68,1,1-1.61,5.39-.83,9.78-3.11,15.37-7.06,17.33-31.03,18.67-42.85,5.61-3.11-4.11-4.35-5.39-5-10.99,1.69-2.22,1.69-7.8,0-9.99.57-4.54,2.95-11.3,6.99-13.99l13.99-7.99c13.01-1.62,25.06,5.3,28.97,17.98ZM594.92,244.23c-9.45,6.26-10.01,13.47-9.99,23.98,0,.21-1.36,1-.84,3.18s2.57,3.36,3.84,4.82c.29.33.67.7,1,1,2.48,7.85,15.91,6.83,21.98,5,2.2-.67,7.21-3.52,8.99-5,1.89-1.56,5.19-4.69,3-6.99.31-.68.84-1.55,1-2,2.78-7.8,1.25-18.93-7.99-20.98-1.08-.74-4.04-2.72-5-3,2.53-.9-1.25-1.68-1.76-1.73-5.49-.44-9.55-1.37-14.22,1.73Z"/>
                <path class="cls-1" d="M595.92,331.15c2.47-.3,10.99-.33,13.99,0,1.81.2,2.02.69,3,1l7.63,5.36c18.7,24.06,1.65,53.08-29.61,42.59-.31-.1-.72.11-1,0l-7.83-8.65-5.16-11.33c-.04-.33.03-.67,0-1,1.63-1.04,1.61-5.01,0-5.99.7-5.48,1.76-6.93,5-10.99,2.05-2.56,4.5-4.89,6.99-6.99,2.97-2.5,1.76-3.37,6.99-4ZM586.93,343.14c-1.06,1.04-4.31,4.26-2,5-.35.67.65,1.82-1,2-.1.01-.57-.85-.98-1.01-1.76,8.63-2.3,16.11,4.97,21.99,1.56,1.26,5.47,2.76,5.99,4,.03.06-.86.56-1.01.98,2.04.17,3.96.86,6.01,1.02.33.03.67-.01,1,0,3.88,2.51,8.4.84,11.99-1,2.82-1.44,7.05-5.36,8.99-7.99,4.54-6.16,5.33-14.35,2.12-21.61l-1.12.63c-4.93-12.74-26.03-12.79-34.97-4Z"/>
                <path class="cls-1" d="M640.87,286.19c4.79,2.22,9.76-.58,15.4.09,21.73,2.59,25.63,38.86,6.93,46.71-6.77,2.84-15.26,2.64-22.33,1.15-.32-.07-.69.08-1,0-.44-1.93-1.92-1.52-3-2-4.21-1.87-5.75-4.01-7.99-7.99l-.03-4.01-.97,1.01c-.04-.1-.52-.32-1-2,1.12-3.91-.38-7.95.12-12.38.94-8.29,5.54-15.66,12.87-19.59.33-.18.62-.84,1-1ZM636.88,296.18c-.35.28-.67.68-1,1-6.4,6.27-6.96,14.64-2,21.98.88,1.31,4.83,5.93,5.99,6.99.8.73,1.44,1.58,2.51,1.97l.49-.97c.38.22.72.9,1,1,6.01,2.2,9.13,2.96,16,.98-.15-.41-1.04-.91-1.01-.98.27-.65,7.43-5.14,8.99-6.99,5.72-6.8,5.18-14.27,0-20.98-2.11-2.73-6.03-6.26-8.99-7.99-.19-.11-.33-1.17-1.7-1.75-6.43-2.71-16.13.02-20.28,5.74Z"/>
                <path class="cls-1" d="M562.95,285.19c6.3,2.28,10.8,6.06,13.99,11.99l2.04,16.52c-8.23,37.63-60.2,23.75-47.99-15.52.1-.31-.1-.71,0-1l2-3c.29-.36.67-.67,1-1,8.11-8.24,18.02-9.44,28.97-7.99ZM539.97,293.19c-.33.27-4.65,6.33-5,6.99-2.24,4.36-2.73,9.65-2.09,14.56.29,2.22,2.03,1.29,2.09,1.43,2.31,5.5,2.4,8.12,7.99,11.99,4.26,2.95,9.16,3.56,14.52,3.02.92-.09,7.95-1.97,8.3-2.22.51-.36.03-1.69.16-1.8,3.36-3.02,7.25-7.32,7.99-11.99l.99.5c.74-3.15,2.21-14.39-.99-12.49-2.55-5.22-5.01-10.06-10.99-11.99.48-2.17-1.04-2.45-2.71-2.73-6.67-1.14-15.64-.88-20.26,4.73Z"/>
                <path class="cls-2" d="M670.84,618.87c-2.89.76-2.5-.67-3.65-1.83-3.91-3.93-6.64-6.96-8.83-12.16-10.24-24.38-14.52-55.23-21.49-79.91,9.42,23.39,12.07,49.3,20.49,72.92,2.93,8.22,6.27,15.82,13.48,20.99Z"/>
                <path class="cls-2" d="M540.97,252.23c.98-.08,2.03.13,3,0,1.33,2.42,6.67,2.59,8.99,1.49,3.33-1.57,8.09-20.18,6.84-23.86-.62-1.83-2.26-1.22-2.85-1.61-9.9-6.63-14.34,1.42-12.98,10.98,2.61-2.12,1.74-8.05,4.39-10.08,2.23-1.71,5.96-.68,8.59-.91,3.57,1.99-2.16,23.14-4.99,24.52-1.94.94-3.26.5-4-1.54,1.47-.4,3.98.83,4.84-1.65l4.23-18.72c-10.35-4.98-9.42,1.87-11.07,9.38-.02.07-.86.25-1,1-.43,2.35.31,5.48-1,7.99-.03-.21-.91-.74-.95-1.57-.13-2.26,1.97-5.23.46-7.42-1.73,2.04-2.92,8.75-2.5,10.98-2.63-4.97,1.5-21.11,4.93-24.53,4.67-4.65,16.03-1.27,16.08,6.04.02,2.74-5.27,19.04-7.12,20.9-3.65,3.65-11.71,2.59-13.9-1.41Z"/>
                <path class="cls-2" d="M546.96,251.23c-.72.17-1.33.78-3,1-.21-.38.18-1.44,0-2l3,1Z"/>
                <path class="cls-2" d="M612.9,332.15c7.95,2.48,14.58,11.04,16.28,19.18,4.54,21.65-18.31,41.93-38.26,28.77,31.26,10.49,48.3-18.53,29.61-42.59l-7.63-5.36Z"/>
                <path class="cls-2" d="M640.87,286.19c28.35-11.87,49.21,27.91,26.86,45.34-6.74,5.26-19.68,8.52-26.86,2.61,7.07,1.49,15.56,1.69,22.33-1.15,18.71-7.86,14.8-44.12-6.93-46.71-5.64-.67-10.61,2.12-15.4-.09Z"/>
                <path class="cls-2" d="M576.94,297.18c11.07,20.58-5.29,43.64-28.23,39.72-14.15-2.42-29.07-25.7-17.72-38.72-12.21,39.27,39.77,53.16,47.99,15.52l-2.04-16.52Z"/>
                <path class="cls-2" d="M636.88,523.96c-2.45.51-2.13-1.15-2.74-2.71-9.52-24.35-17.46-49.34-28.23-73.22,5.15,7.41,8.97,17.45,12.45,26.01,6.26,15.39,14.05,34.12,18.52,49.92Z"/>
                <path class="cls-2" d="M583.93,280.2c11.82,13.06,35.78,11.72,42.85-5.61,2.28-5.59,1.5-9.98,3.11-15.37,2.81,27.89-29.2,43.14-45.96,20.98Z"/>
                <path class="cls-2" d="M639.87,287.19c-7.33,3.93-11.93,11.3-12.87,19.59-.5,4.43.99,8.46-.12,12.38-3.62-12.6-.21-26.9,12.99-31.97Z"/>
                <path class="cls-2" d="M562.95,285.19c-10.96-1.45-20.87-.24-28.97,7.99,7.3-9.72,17.59-12.11,28.97-7.99Z"/>
                <path class="cls-1" d="M556.95,228.25c-2.62.23-6.35-.8-8.59.91-2.65,2.03-1.78,7.96-4.39,10.08-1.37-9.56,3.08-17.62,12.98-10.98Z"/>
                <path class="cls-1" d="M543.97,249.23c.04.35-.09.74,0,1,.18.56-.21,1.62,0,2-.97.13-2.02-.08-3,0-.11-.21.07-.64,0-1-.42-2.23.77-8.94,2.5-10.98,1.51,2.19-.59,5.16-.46,7.42.05.83.93,1.36.95,1.57Z"/>
                <path class="cls-1" d="M543.97,252.23c1.67-.22,2.27-.83,3-1,.32-.07.69.08,1,0,.74,2.04,2.06,2.48,4,1.54,2.83-1.37,8.56-22.53,4.99-24.52.59.39,2.22-.22,2.85,1.61,1.25,3.67-3.51,22.29-6.84,23.86-2.32,1.09-7.67.93-8.99-1.49Z"/>
                <path class="cls-2" d="M609.9,331.15c-3-.33-11.51-.3-13.99,0,3.94-1.44,10.29-1.87,13.99,0Z"/>
                <path class="cls-2" d="M588.92,414.07c1.65,2.86,2.67,6.09,5.28,8.26l11.71,24.71-16.98-32.97Z"/>
                <path class="cls-2" d="M599.91,237.24l-13.99,7.99c2.4-4.02,9.47-7.43,13.99-7.99Z"/>
                <path class="cls-2" d="M578.93,269.21c-.29-2.49-.31-7.52,0-9.99,1.69,2.19,1.69,7.77,0,9.99Z"/>
                <path class="cls-2" d="M576.94,360.12l5.16,11.33,7.83,8.65c-6.56-2.58-12.12-13.29-12.99-19.98Z"/>
                <path class="cls-2" d="M576.94,359.12c-.14-1.69-.21-4.37,0-5.99,1.61.98,1.63,4.95,0,5.99Z"/>
                <path class="cls-2" d="M588.92,335.15c-2.49,2.1-4.95,4.43-6.99,6.99.62-2.99,3.9-6.32,6.99-6.99Z"/>
                <path class="cls-2" d="M531.98,339.14c5.48,4.73,11.11,9.85,14.99,15.98-4.87-5.47-10.41-10.41-14.99-15.98Z"/>
                <path class="cls-2" d="M628.88,324.16c-.61-1.08-.62-2.08-1-3l.97-1.01.03,4.01Z"/>
                <path class="cls-2" d="M628.88,258.22c-1.29-.59-1.7-2.79,0-3,.23.75-.17,2.09,0,3Z"/>
                <path class="cls-2" d="M639.87,334.15c-1.18-.29-2.17-1.15-3-2,1.08.48,2.55.07,3,2Z"/>
                <path class="cls-2" d="M530.98,297.18c.54-1.48,1.12-1.91,2-3l-2,3Z"/>
                <path class="cls-4" d="M610.9,244.23c.95.28,3.91,2.26,5,3,7.98,5.45,8.42,11.86,7.99,20.98-.16.45-.69,1.32-1,2-1.04,2.31-2.63,4.4-3,6.99-1.78,1.47-6.79,4.33-8.99,5-9.3,0-14.67,1.6-21.98-5-.33-.3-.71-.67-1-1l-3-7.99c-.02-10.5.54-17.72,9.99-23.98,5.27-.83,10.75-1.53,15.98,0ZM589.92,272.21h26.47l1.41-2.38c-3.83-3.24-10.55-20.98-14.38-21.63-1.87-.48-1.34.78-1.76,1.32-1.92,2.43-9.72,16.03-10.96,18.98-.53,1.26-1.05,2.26-.79,3.71Z"/>
                <path class="cls-2" d="M594.92,244.23c4.67-3.09,8.73-2.16,14.22-1.73.51.04,4.29.82,1.76,1.73-5.23-1.53-10.72-.83-15.98,0Z"/>
                <path class="cls-2" d="M615.9,247.23c9.25,2.05,10.77,13.18,7.99,20.98.43-9.12-.02-15.53-7.99-20.98Z"/>
                <path class="cls-2" d="M588.92,277.2c7.31,6.6,12.68,5,21.98,5-6.06,1.84-19.5,2.85-21.98-5Z"/>
                <path class="cls-2" d="M622.89,270.21c2.19,2.3-1.1,5.43-3,6.99.37-2.6,1.95-4.69,3-6.99Z"/>
                <path class="cls-2" d="M587.92,276.2c-1.27-1.45-3.34-2.72-3.84-4.82s.84-2.96.84-3.18l3,7.99Z"/>
                <path class="cls-4" d="M621.89,347.13c2.46,6.35.79,14.69-1,20.98-1.94,2.63-6.17,6.55-8.99,7.99-4,.94-7.89,1.14-11.99,1-.33-.01-.67.03-1,0l-5-2c-.52-1.24-4.43-2.73-5.99-4-5.43-5.47-5.14-13.89-4-20.98,1.65-.18.65-1.32,1-2,.83-1.6,1.78-3.15,2-5,8.94-8.79,30.03-8.74,34.97,4ZM592.42,344.16c-5.36,4.24,7.96,10.19,7.42,13.32l-8.91,10.12c1.03,5.7,10.18-7.78,12.34-7.4l10.12,8.91c5.7-1.03-7.78-10.18-7.4-12.34l9.89-10.13c-4.24-5.36-10.19,7.96-13.32,7.42l-10.13-9.89Z"/>
                <path class="cls-2" d="M620.89,368.11c1.79-6.29,3.46-14.62,1-20.98l1.12-.63c3.21,7.26,2.43,15.45-2.12,21.61Z"/>
                <path class="cls-2" d="M583.93,350.13c-1.14,7.09-1.44,15.51,4,20.98-7.27-5.89-6.73-13.36-4.97-21.99.41.16.87,1.02.98,1.01Z"/>
                <path class="cls-2" d="M611.9,376.11c-3.59,1.84-8.11,3.51-11.99,1,4.1.14,7.99-.06,11.99-1Z"/>
                <path class="cls-2" d="M584.93,348.13c-2.32-.74.94-3.95,2-5-.22,1.85-1.16,3.39-2,5Z"/>
                <path class="cls-2" d="M598.91,377.11c-2.04-.17-3.97-.85-6.01-1.02.15-.41,1.04-.91,1.01-.98l5,2Z"/>
                <path class="cls-4" d="M658.86,292.19c2.96,1.74,6.88,5.26,8.99,7.99,3.14,6.9,2.55,14.03,0,20.98-1.56,1.85-8.72,6.34-8.99,6.99-4.92,1.76-10.03,1.04-14.99,0-.28-.1-.62-.78-1-1l-3-1c-1.16-1.06-5.11-5.69-5.99-6.99-2.74-7.99-2.22-14.71,2-21.98.33-.32.65-.72,1-1,6.49-5.15,14.01-6.14,21.98-4ZM646.6,296.42c-14.67,3.05-12.57,28.02,4.78,27.8,20.79-.26,17.63-32.46-4.78-27.8Z"/>
                <path class="cls-2" d="M667.85,321.16c2.55-6.95,3.14-14.08,0-20.98,5.18,6.71,5.72,14.18,0,20.98Z"/>
                <path class="cls-2" d="M633.88,319.16c-4.96-7.33-4.41-15.71,2-21.98-4.22,7.27-4.74,13.99-2,21.98Z"/>
                <path class="cls-2" d="M658.86,292.19c-7.96-2.15-15.48-1.16-21.98,4,4.15-5.73,13.85-8.45,20.28-5.74,1.37.58,1.51,1.64,1.7,1.75Z"/>
                <path class="cls-2" d="M658.86,328.15c-.03.06.86.57,1.01.98-6.87,1.98-9.99,1.22-16-.98,4.95,1.04,10.07,1.76,14.99,0Z"/>
                <path class="cls-2" d="M642.87,327.15l-.49.97c-1.07-.39-1.71-1.25-2.51-1.97l3,1Z"/>
                <path class="cls-4" d="M562.95,291.19c5.98,1.92,8.44,6.77,10.99,11.99-.4,3.74.57,8.43,0,11.99-.75,4.67-4.63,8.97-7.99,11.99-2.32.88-4.57,1.45-6.99,2-2.33-.05-4.67.07-6.99,0-3.11-.1-5.96-.29-8.99-1-5.59-3.87-5.68-6.48-7.99-11.99-.09-.63.14-1.43,0-2-.11-.46-.56-.83-1-1-.61-4.14.3-8.89,1-12.99.34-.66,4.66-6.72,5-6.99,4.67-3.82,17.34-3.81,22.98-2ZM542.47,297.18l-1.5,1.5v21.98c0,.18,2.32,2.5,2.5,2.5h20.98c.18,0,2.5-2.32,2.5-2.5v-21.98l-1.5-1.5h-22.98Z"/>
                <path class="cls-2" d="M539.97,293.19c4.62-5.61,13.6-5.88,20.26-4.73,1.68.29,3.19.56,2.71,2.73-5.64-1.81-18.31-1.83-22.98,2Z"/>
                <path class="cls-2" d="M565.95,327.15c-.12.11.35,1.44-.16,1.8-.35.25-7.38,2.13-8.3,2.22-5.36.54-10.25-.07-14.52-3.02,3.03.71,5.88.9,8.99,1,2.09,2.61,5.12.43,6.99,0,2.43-.55,4.67-1.12,6.99-2Z"/>
                <path class="cls-2" d="M573.94,303.18c3.2-1.89,1.73,9.34.99,12.49l-.99-.5c.57-3.56-.4-8.25,0-11.99Z"/>
                <path class="cls-2" d="M533.98,313.17c.07.45.55.86,1,1,.14.57-.09,1.37,0,2-.06-.14-1.8.79-2.09-1.43-.64-4.91-.16-10.2,2.09-14.56-.7,4.1-1.61,8.85-1,12.99Z"/>
                <path class="cls-4" d="M545.97,240.24c1.65-7.51.72-14.36,11.07-9.38l-4.23,18.72c-.87,2.48-3.37,1.26-4.84,1.65-.31.08-.68-.07-1,0l-3-1c-.09-.26.04-.65,0-1,1.31-2.51.57-5.64,1-7.99l1-1Z"/>
                <path class="cls-3" d="M544.97,241.24c.14-.75.98-.93,1-1l-1,1Z"/>
                <path class="cls-3" d="M589.92,272.21c-.26-1.45.26-2.45.79-3.71,1.24-2.95,9.04-16.55,10.96-18.98.43-.54-.11-1.8,1.76-1.32,3.84.65,10.55,18.38,14.38,21.63l-1.41,2.38h-26.47ZM595.92,268.21h15.98l-8.48-13.99-7.5,13.99Z"/>
                <path class="cls-3" d="M592.42,344.16l10.13,9.89c3.14.55,9.09-12.77,13.32-7.42l-9.89,10.13c-.38,2.16,13.1,11.31,7.4,12.34l-10.12-8.91c-2.16-.38-11.31,13.1-12.34,7.4l8.91-10.12c.55-3.14-12.77-9.08-7.42-13.32Z"/>
                <path class="cls-3" d="M646.6,296.42c22.41-4.65,25.58,27.55,4.78,27.8-17.35.22-19.46-24.76-4.78-27.8ZM648.62,300.4c-12.88,2.03-8.56,22.86,5.53,19.55,10.63-2.5,9.03-21.84-5.53-19.55Z"/>
                <path class="cls-3" d="M542.47,297.18h22.98l1.5,1.5v21.98c0,.18-2.32,2.5-2.5,2.5h-20.98c-.18,0-2.5-2.32-2.5-2.5v-21.98l1.5-1.5ZM562.95,301.18h-16.48l-1.5,1.5v15.48h17.98v-16.98Z"/>
                <path class="cls-1" d="M558.95,329.15c-1.88.43-4.91,2.61-6.99,0,2.32.07,4.67-.05,6.99,0Z"/>
                <path class="cls-1" d="M534.98,314.17c-.45-.14-.93-.55-1-1,.44.17.89.54,1,1Z"/>
                <polygon class="cls-4" points="595.92 268.21 603.42 254.22 611.9 268.21 595.92 268.21"/>
                <path class="cls-4" d="M648.62,300.4c14.56-2.3,16.16,17.05,5.53,19.55-14.09,3.31-18.41-17.52-5.53-19.55Z"/>
                <polygon class="cls-4" points="562.95 301.18 562.95 318.16 544.97 318.16 544.97 302.68 546.46 301.18 562.95 301.18"/>
              </g>
            </g>
          </g>
        </g>
      </g>
    </g>
  </g>
</svg>