<?xml version="1.0" encoding="UTF-8"?>
<svg id="Layer_2" data-name="Layer 2" xmlns="http://www.w3.org/2000/svg" viewBox="0 0 877.68 1270.63">
  <defs>
    <style>
      .cls-1 {
        fill: #534993;
      }

      .cls-2 {
        fill: #402cc3;
      }

      .cls-3 {
        fill: #ab4967;
      }

      .cls-4 {
        fill: #f0e3d0;
      }
    </style>
  </defs>
  <g id="Layer_4" data-name="Layer 4">
    <g>
      <polygon class="cls-1" points="876.14 218.3 875.14 218.3 875.14 212.3 876.14 218.3"/>
      <path class="cls-4" d="M74.92,28.42c.42.14,1.15,1.51,2.65,1.8,9.15,1.73,18.99-3.22,23.71-10.9,3.84-6.25,3.29-10.99,4.65-17.88l29.83,1.1c1.31,7.02,2.46,14.49,7.07,20.2.78.96,1.92.59,2.02.68s-.27,1.29.69,2.02c16.85,12.79,40.48-.5,39.27-21.01.59-.58.85-1.99,1.97-2.49,2.37-1.06,26.56-.93,28.4.38,2.14,7.71,1.2,12.96,6.63,19.57,15.68,19.08,44.45,3.85,41.93-19.47l29.32-.04c1.49.35,2.61,10.38,3.45,12.74,6.38,17.87,28.67,20.68,40.14,5.76,5.04-6.56,4.5-11.83,6.02-19.46l30.01.46c2.96,11.12,4.99,23.92,17.95,27.52,14.35,3.98,27.77-4.22,30.73-18.72.63-3.07-.51-6.38,1.24-9.26,8.57.95,19.77-1.29,27.97,0,.37.06,2.76,1.25,2.99,1.73.04,18.73,17.37,33.49,34.97,23.26,9.26-5.39,12.54-13.38,11.99-23.98,10.13.48,20.93-1.21,30.97,0,.35.04.73-.08,1,0,.31,7.93,1.22,12.9,5.99,18.99.29.37.68.66,1,1,2.54,2.73,2.65,3.01,5.99,5,14.86,8.83,30.64-.34,33.86-16.59.43-2.19-.28-4.53.3-6.73.31-1.17,1.58-1.34,1.8-1.66,10.32.66,19.85-1.44,29.97,0,.33.05.67-.03,1,0v1c.63,8.66,4.53,19.62,12.45,24.02,15.33,8.51,31.39-1.55,34.37-17.53.44-2.36-2.46-5.89,2.16-7.96,1.98-.89,28.78-.96,30.01-.08,1.68,1.61.54,4.04.95,5.89.18.79,1.72.54,1.8,1.14.61,4.93-.49,3.02,1.92,8.04.16.33-.39,1.68.32,2.83.74,1.21,8.94,8.36,10.2,8.92,7.27,3.28,15.23,1.44,21.72-2.27l2-1c.37-.28.65-.69,1-1,7.23-6.45,8.35-12.4,8.99-21.99,10.11-1.36,20.72-1.82,30.78.19,1.83,1.59.32,14.94,5.19,16.8v1c9.21,12.95,23.41,14.22,34.88,3.41,2.58-2.43,7.43-8.4,7.57-11.84.11-2.86-1.06-6.43-.48-9.55h31.97c-.16,8.96,1.87,14,7.99,19.99.33.33.64.71,1,1,1.45,1.18,3.07,3.03,4.73,3.76,2.81,1.25,10.27,1.37,11.11,3.87.79,2.36.51,24.54.14,28.34-3.05.93-6.21,1.1-9.27,2.22-12.32,4.49-18.29,17.41-15.45,30,1.45,6.42,10.89,16.46,17.49,17.57,2.35.4,4.78-1.31,7.11.31l.18,29.27c-33.48,3.9-34.41,45.63-1.03,50.02,1.63,1.24.83,3.84.98,5.52.03.33-.02.67,0,1,.03.66-.02,1.33,0,2,0,.33,0,.67,0,1,.08,3.65,0,7.34,0,10.99v8.99c-21.62,1.85-34.75,23.39-18.98,40.97.58.65,2.47,2.6,3,3,5.14,3.86,9.5,5.28,15.88,6.1l.15,29.22c-4.22,2.1-8.26,2.17-12.71,4.48-10.7,5.54-15.5,18.46-11.39,29.79.57,1.57,1.89,2.02,2.08,2.37,5.05,9.61,10.81,12.06,21.4,13.88,1.12.68.49,2.07.58,3.11.05.66-.02,1.34,0,2,.04,1-.03,2,0,3s-.02,2,0,3,0,2,0,3c0,2.66,0,5.33,0,7.99v5c-.18.69.43,2.15-.16,2.8-16.51,1.04-30.57,16.26-24.02,32.88,4.17,10.57,12.14,14.39,22.18,17.29,1.1.32,1.66-.46,3,1l-1.08,28.91c-5.49.11-14.84,2.79-18.35,7.14-1.24,1.53-.98,2.74-1.55,3.92-.28.14-1.2-.3-1.79.18-3.2,2.58-5.21,18.44-1.21,21.81.07.32-.07.68,0,1,.58,2.56,1.46,3.18,3,5,.66.78,4.24,4.37,5,5,5.03,4.2,7.82,4.18,13.99,5,.32.04.67-.02,1,0l-.1,29.88c-19.9,1.11-33.67,21.43-21.32,39.06.79,1.13,1.98,1.48,2.44,2.01.3.36.67.67,1,1l1,1c.35.3.63.73,1,1,4.76,3.49,9.49,6.35,15.98,6l-.95,30.52c-18.86,1.57-31.48,19.97-21.46,37.36,2.23,3.87,2.65,3.17,5.43,5.06.15.31-.32,1.23.16,1.81.22.27,5.44,3.07,6.16,3.37,3.58,1.48,6.94,1.82,10.54,2.95l-.82,29.39c-34.26,3.41-32.56,47.88.96,49.42l.04,30.32c-4.47,2.41-9.01,1.66-13.74,4.45-21.61,12.8-10.33,44.9,13.57,45.33.47.9,0,1.97.13,2.84.06.46.52.91,1,1,.8,5.13-.19,18.63,0,24.98,0,.33-.01.67,0,1-11.24,1.63-19.29,4.86-23.98,14.99-.2.44.18,1.45,0,2-.06.18-1.6.56-1.79,1.62-.14.73.81,1.28.79,1.37-2.15,13.48,3.72,25.26,17.75,28.74,1.83.46,3.66-.01,5.23.24,3.64,3.41,1.03,6.6.95,10.45-.13,6.69-.22,13.87.04,20.53-9.6,1.58-18.38,3.74-23.16,13.31-9.2,18.43,5.74,33.8,23.22,37.27l-.16,29.27c-22.01,1.58-34.7,23.34-18.88,41.07.31.35.66.67,1,1,5.53,5.4,9.99,7.32,17.81,8.2.54.44.04,1.44.18,1.79v7.99c0,1.33,0,2.66,0,4,0,.67,0,1.33,0,2,0,.33,0,.67,0,1-.02,1.33.04,2.67,0,4-.03,1,.06,2,0,3-.11,2.01.42,4.11-.43,6.06-20.39,2.95-34.06,23.06-19.53,41.1,1.69,2.09,3.44,2.76,4.97,3.8.29.2.52.73,1,1,4.45,2.54,7.74,3.97,13.03,4.45l.83,1.17c-.43,4.62,1.43,26.96-.85,28.87-1.29,1.08-7.51,1.95-10,2.99-16.38,6.84-19.87,25.45-8,38.47.32.35.66.68,1,1,4.94,4.71,10.94,8.24,17.98,8-.99,7.44,2.59,14.77,0,21.98-.58.34-.71.23-1,1-12.43-3.39-18.75,11.24-27.71,12.75-8.16,1.37-18.25-.56-26.65.3-1.75-9.33-3.3-17.64-11.63-23.48-3.17-2.22-12.91-5.19-16.3-4.62-.67.11-.58,1.75-.83,1.88-.38.2-4.8.43-7.33,2.12-8.04,5.36-10.29,13.97-12.68,22.82-2.26,2-29.19,1.96-30.82-.4-.87-6.12-3.65-19.08-10.9-20.35-3.49-7.16-15.12-7.11-21.74-4.34-.87.36-2.95,3.21-4.23,4.34-7.55,6.64-5.72,5.33-8.05,14.27-.23.88-1.85.68-1.81,1.16.07,1.05,1.21,2.04.76,3.88-.29,1.17-1.73,1.41-1.88,1.67-9.89,2.25-20.81.41-30.97,1-.31-.25-.75-.68-1-1,1.12-26.84-34.37-39.09-44.44-11.98-1.27,3.43-1.18,10.38-3.5,11.49-1.11.53-9.42,1.4-11.46,1.53-6.09.4-12.42-.37-18.52-.04-.33-.39-.34-.65-1-1-1.12-9.32-5.3-23.07-15.71-25.76-1.9-.49-3.94.13-5.6-.24-.81-.18-.78-1.9-1.17-2-2.9-.76-2.25,1.81-3.16,2.01-2.52.55-5.39-.5-8.38.45-8.24,2.61-14.31,16.42-14.37,24.6l-31.46.88c.28-35.83-46.87-37.75-46.02-.94-.33.04-.68-.06-1,0-5.06.94-28.03,2.16-31.3.08-3.02-10.25-4.43-20.08-15.28-24.94-18.24-8.16-32.74,6.89-34.27,24.43-10.32,1.19-20.71,2.49-30.99.39.91-21.9-22.98-36.8-39.9-19.34-5.83,6.02-5.34,15.75-7.6,18.38-2.95,3.43-25.18,1.82-30.53,1.57l-5.14-17.38c-.6-.48-1.45-.03-1.79-.17-2.05-4-3.85-6.34-8.3-8.19-17.61-7.32-32.41,8.41-33.24,25.3-2.07,1.51-29.98,1.37-30.95-.06-2.05-36.32-46.6-35.15-47.39.94-.26.09-.65-.04-1,0-3.19.4-27.62.32-28.98-.49-3.47-8.57-2.94-17.34-11.65-23.33-18.25-12.55-38.1,2.32-37.29,22.82-1.15,1.14-29.55,1.65-32.28.81-2.12-.65-2.63-3.5-4.19-4.81-5.36-4.51-11.53-5.97-18.04-7.94v-23.11c25.93-2.72,34.41-35.64,9.79-47.65-3.34-1.63-8.19-.96-10.11-4.96l-.13-27.27c.39-.19,1.07.14,1-1,25.37-1.79,33.62-36.02,9.24-46.71-2.41-1.06-7.89-1.6-9.25-2.74-1.49-1.25-1.63-27.81-.1-29.91,31.5-4.85,32.5-45.42.07-50.01l-.79-28.86c.9-2.66,10.46-3.44,13.82-6.66.34-.32.66-.67,1-1,4.47-1.71,9.29-10.04,9.9-14.57,1.52-11.36-5.35-22.77-15.92-26.87-2.77-1.08-5.94-.89-8.52-2.47-.79-1.13-.9-24.92-.41-27.51.78-4.11,9.26-4.38,13.21-6.77,4.73-2.87,10.67-11.01,11.52-16.44.12-.78-.78-1.22-.78-1.3.02-.33,0-.67,0-1l.98-.5-.98-.5c0-.33.03-.67,0-1-.59-7.3-.49-10.8-6-16.48-5.66-5.83-11.67-5.43-17.84-9.14v-28.21c5.15-2.13,11.3-3.33,15.73-6.74,18.2-14.04,7.23-44.14-15.88-42.35v-30.98c.1-.22.72-.75,1-1,32.39-4.41,31.62-45.05-.87-49.1-.07-7.58-.37-15.27-.13-22.85.07-2.32-.05-4.67,0-7,17.59-2.49,30.52-17.47,22.83-35.33-4.48-10.39-12.5-12.47-22.37-15.6l-.46-29.02c.13-.24.72-.77,1-1,6,.72,17.59-5.82,19.98-10.99v-1c5.44-5.25,5.1-16.26,2.17-22.65-.82-1.79-5.64-7.66-7.18-8.79-4.13-3.02-15.27-4.21-15.97-8.03-.56-3.04-.24-26.36.88-27.91,6.46-.54,10.32-2.71,15.1-6.57.36-.29.66-.68,1-1,12.59-12.06,10.77-31.55-5.62-38.85-2.99-1.33-9.89-2.15-10.87-4.12l-.49-27.99c1.95-2.84,7.66-2.94,11.04-4.45,18.45-8.25,18.55-34.17.2-42.27-3.61-1.59-7.74-1.66-11.24-4.25v-28.98c2.22-2.52,10.33-2.9,15.01-6.47,13.52-10.35,12.76-30.38-1.66-39.35-2.91-1.81-6.89-2.42-9.7-3.74-1.3-.61-2.52-.32-3.64-1.4l.49-28.99c1.36-2.76,5.13-1.56,7.52-2.47,26.93-10.19,21.63-45.85-7.02-47.5-.1-.29.07-.69,0-1v-28.98c2.49-2.03,7.9-2.46,11.31-4.18,11.48-5.79,15.09-18.28,10.67-29.8-.58-1.52-.08-2.7-1.54-4.95-4.08-6.27-12.93-10.88-20.39-11.09l-1.05-10.95c.17-5.47.5-12.62,1-17.99,7.76-3.52,18.41-5.43,22.16-14.31,7.24-17.19-2.72-33.22-21.16-34.66-1.89-1.23-1.07-27.74,0-31.98,6.69-3.51,8.86-.33,15.98-7.99,5.3-5.7,5.84-9.14,6.99-16.99,1.85-1.5,28.43-1.54,29.97,0,1.28,11.6,3.63,20.17,14.99,24.98.27.12.69-.11,1,0ZM773.24,79.39c-171.3-.68-343.88-.1-514.95-.05-61.03.02-122.1-.16-183.11.33l-3.33,5.14c.9,234.37-.54,469.15-.93,703.11v10.99c0,.33,0,.67,0,1,0,1,0,2,0,3v1l-.05,372.31,1.01,2.99c2.8.58,5.63,1.27,8.5,1.49,40.17,3.19,88.8-.13,129.97-.07,195.53.25,391.26.96,587.41,1.08,5.65-.04,7.03-2.38,7.49-7.5,1.13-12.38-.03-28.24-.01-41.08.08-76.52-.1-153.95-.09-230.84,1.92-272.06.98-545.75,2.1-818.47.36-4.34-5.73-4.13-9.04-4.44-.33-.03-.67.02-1,0-2.63-.2-5.35.09-7.99,0-.66-.02-1.33.02-2,0-1-.03-2,0-3,0-.33,0-.67,0-1,0-2,0-4,0-5.99,0-.33,0-.67,0-1,0-.67,0-1.33,0-2,0-.33,0-.67,0-1,0Z"/>
      <path class="cls-2" d="M729.28,1241.63c7.25,1.27,10.03,14.23,10.9,20.35,1.64,2.37,28.56,2.4,30.82.4,2.39-8.85,4.64-17.46,12.68-22.82,2.53-1.68,6.95-1.92,7.33-2.12.25-.13.17-1.77.83-1.88,3.39-.57,13.14,2.4,16.3,4.62,8.33,5.85,9.88,14.15,11.63,23.48,8.4-.86,18.49,1.07,26.65-.3,8.97-1.51,15.29-16.15,27.71-12.75-.79,2.08,1.16,2.66-3.08,4.38-6.89,2.79-16.75.37-16.95,10.56l-4.95.06-.51,2.99c.64-2-6.76-2.24-7.83-2.04-.73.14-.54,1.9-1.27,2-4.48.66-13.42-2.35-18.7-.91-5.6-5.3-2.16-19.38-11.66-19.04l1.01-2.98c-3.41-.19-5.47-3.44-9.4-4.19-3.61-.69-11.39,1.02-14.56,2.76-1.91,1.05-.42,3.84-7.02,1.42,1.25,4.05-2.26,4.36-3.04,5.72-1.9,3.32-2.86,9.89-2.04,13.62-1.07,2.27-3.11,1.77-3.65,2-.26.11-.25,1.56-.93,1.69-2.03.37-4.22-1.91-5.83.97l-2.49-1.99.48,3-8.84-.99-1.62-2.02-.02,3.01c-4.94-.65-6.73-3.37-11.48-3.96-1.68-5.09-2.35-11.68-4.62-16.47-1.49-3.15-3.62-3.92-5.88-8.56-1.78-.31-4.13.52-6.01-.48l1.01-2.5-3.98,1.99.99-2.99h-3s1,2.98,1,2.98h-2.99s.49-3,.49-3l-5.47,3.01-.99-1.99c-.09,3.04-3.48.85-3.51,5.03l-3.5-2.04c1.28-1.13,3.36-3.97,4.23-4.34,6.62-2.77,18.26-2.82,21.74,4.34Z"/>
      <path class="cls-2" d="M455.55,1261.62c-.85-36.82,46.3-34.9,46.02.94l31.46-.88c.05-8.18,6.13-21.99,14.37-24.6,2.99-.95,5.87.1,8.38-.45.91-.2.26-2.77,3.16-2.01.39.1.36,1.82,1.17,2,1.67.37,3.7-.26,5.6.24,10.41,2.69,14.59,16.44,15.71,25.76-.32-.17-1.32.3-1.9-.06l-1.18-9.86c-3.95.84-3.81-1.87-6.76-3.21l.86-2.85c-3.09.24-4.23-.93-4.02-4l-.97,2.29-2,.68c-3.55-7.45-7.1-4.16-12.75-2.23-4.2,1.43-8.11,2.74-11.89,5.63-6.09,4.66-4.54,9.02-7.59,15.36-3.12-.11-5.84,2.76-8.47,3.03-.76.08-10-.64-10.62-.79-.8-.2-.55-2.06-1.16-2.04-2.19.07-3.13,2.88-8.81,1.81-.88-.17-4.34-2.69-4.41-2.94-.19-.69.76-1.98.5-3.04-.86-3.39-2.74-13.73-5.52-14.73-1.14-.41-3.08.39-4.08-.2-.67-.39-4.48-11.17-10.64-4.86l-1.61-2.89c-4.61-.32-4.24,4.28-4.94,4.87-.41.34-5.22-1.33-10,2.49-5.61,4.48-5.8,10.2-7.92,16.53ZM472.03,1239.63v1c.65-.33.65-.67,0-1Z"/>
      <path class="cls-2" d="M3.99,1146.69l.13,27.27c1.92,4.01,6.77,3.33,10.11,4.96,24.61,12.01,16.14,44.92-9.8,47.65v23.11c6.52,1.97,12.69,3.43,18.05,7.94,1.56,1.31,2.07,4.16,4.19,4.81,2.73.83,31.13.33,32.28-.81-.81-20.49,19.05-35.37,37.29-22.82,8.71,5.99,8.18,14.75,11.65,23.33,1.37.81,25.79.89,28.98.49.08,3.76-7.25,1.52-7.01,5.98h-1.99s1.02-1.97,1.02-1.97c-3.52-.22-6.24-.46-8.99,1.99l-.02-3.01c-6.12,2.84-10.29.38-15.04-2.57.2-12.85-5.07-22.61-18.92-21.43l.51-1.95-7.5,1.97.49-2.99-1.49,3c-4.18-1.26-10.1,1.18-10.93,5.58l-2.97-.57c-2.41,4.27-1.98,10.3-3.09,14.29-.31,1.13-1.93.6-1.99.69-.25.36.39,2.37-.98,3.48-.29.24-6.32,3.31-6.69,3.36-1.17.17-2.38-1.62-3.86-1.82-6.31-.84-8.99.12-14.2.8-2.09.27-3.98-1.12-5.75.13l-.99-3.96-1.48,2.99c-.75-4.99-5.34-5.3-8.22-7.06-.91-.56-.91-1.63-2.04-2.2-2.09-1.04-8.95-2.53-9.77-3.19-1.27-1.02-.58-2.88-1.06-3.73-.52-.93-1.72-.88-1.87-1.5-.64-2.69-.3-18.64.72-21.03,1.99-4.66,9.1-4.16,12.99-5.96.33-.15,5.47-4.06,5.72-4.32,2.84-2.97,5.38-10.35,5.58-14.45.51-10.78-4.82-13.44-12.33-18.49-.61-.41-.67-1.25-.89-1.89l-2.77.79-.56-1.93-.51,2.01-1.04-1.93-2.94.93c.43-3.83-5.06-4.55-3.11-9.54l-2.88-.47,2.08-2.42-.13-22.97c.14-1.21,1.6-.38,2.04-.59Z"/>
      <path class="cls-2" d="M137.86,1262.62c.8-36.09,45.34-37.26,47.39-.94.97,1.43,28.88,1.57,30.95.06.84-16.89,15.64-32.62,33.24-25.3,4.44,1.85,6.25,4.19,8.3,8.19.34.14,1.2-.3,1.79.17l5.14,17.38c5.36.25,27.59,1.87,30.53-1.57,2.26-2.63,1.77-12.36,7.6-18.38,16.92-17.46,40.81-2.56,39.9,19.34,10.28,2.1,20.68.8,30.99-.39,1.53-17.54,16.02-32.59,34.27-24.43,10.84,4.85,12.25,14.68,15.28,24.94,3.28,2.08,26.25.86,31.3-.08-.72,2.47-2.7,1.76-4.48,2.02-7.06,1.03-14.51,4.09-20.94.91l-1.53,2.06c.52-3.2-2.87-1.44-5.02-2.47-2.42-1.16-3.71-13.27-5.09-16.7-.08-.19-1.97-3.38-2.13-3.51-1.69-1.43-7.71-1.81-10.16-2.18l-.66-2.99-4.92-.14,2.99-1.98c-1.78-.98-4.68,2.26-4.98,1.99-.35-.32.78-2.42-1-1.99l-.56,3.06c-2.31.28-5.69-.63-7.75-.09-.92.24-1.92,4.53-5.69,3.03l1.99,1.98c-7.63.07-7.69,17.18-9.94,18.55-1.33.81-3.28.07-4.29.52-.88.39-.55,1.49-2.22,2.04-3.16,1.03-6.52-.82-9.03,1.88l-1.99-2.98c-1.12,4.57-4.37-.96-5.96-1.1-3.82-.34-4.83.92-7.51,3.09-1.01-1.06-3.83-15.51-5.23-18.31-.81-1.62-3.7-2.41-3.7-6.25-1.39-1.03-4.55-.08-6.38-.44-.79-.16-.84-2.59-3.37-2.78-2.5-.19-5,1.65-7.75-.24-1.72,2.36-5.5,1.88-9.16,3.97-.68.39-6.17,4.22-6.44,4.5-3.15,3.17-3.23,13.02-5.17,15.33-.63.74-2.31.59-3.04,1.16-.95.75-1.18,2.29-1.71,2.61-.38.23-8.07.29-8.93.2-2.61-.28-4.43-2.37-7.57-1.78-1.25,6.77-3.16,1.51-4.26,1.12-1.84-.67-6.79-.92-7.99-2.32-1.37-1.6-.97-7.36-1.68-9.81-.67-2.31-2.47-6.81-3.55-8.94-2.72-1.12-7.39-4.02-8.91-4.54-4.65-1.56-8.27-.02-12.63-1.34-.84,2.39-4.57,2.31-6.77,3.04-1.37.46-1.31,2.22-1.91,2.59-1.03.64-2.54-.29-3.84.87-4.6,4.11-4.02,17.09-9.37,20.46-1.46.92-12.07.63-14.92.99-2.02.25-4.93,2.04-6.02,1.96-.58-.04-.45-1.84-1.2-2.01s-1.75.82-3.62-.02c-.33-.15-4.56-5.06-4.75-5.48-1.51-3.43-.88-7.81-3.1-10.92-1.55-2.17-4.48-2.22-5.41-3.64-.69-1.05.91-3.11-.97-3.97-1.04,3.65-7.12,1.74-7.5-1.99h-.96c.32,2.4-2.02,1.96-3.58,2.96l-.93-1.99c-3.32-.96-1.6,1.72-3.49,2.02l-.49-2.98-6.51.99,1,3.98c-6.86-2.25-4.62,2.46-6.5,5.02-.83,1.12-2.77.55-3.58,1.62-1.68,2.22-.7,9.31-3.9,10.36ZM197.8,1264.63h-1.99v.98h1.99v-.98Z"/>
      <path class="cls-2" d="M874.14,905.85c.9.14,1.95-.01,2.53.94l.4,30.01c-.63.24-1.36-.06-1.93.04.07,1.75.78,3.29,1,4.99l-10.92,1.13c.57,4.1-2.5,2.86-4.96,4.49-8.82,5.82-11.53,13.12-7.64,23.44.81,2.16,1.91,1.79,2.92,3.05.56.7.44,2.08.89,2.6.35.4,7.73,5.91,8.32,6.17,4.82,2.1,11.6.35,12.43,6.55.64,4.78.67,21.34.01,26.09-.34,2.47-2.05,3.54-2.07,4.93l2.01,1.5-7.84,1.15-1.16,3.85-1.61-2.06c-8.25-.37-6.7,3.98-9.31,7.62-.65.91-5.83,4.3-6.02,5.15-.55,2.48-.11,7.63.6,10.19.6,2.17,1.88,1.89,2.28,2.87.68,1.7.54,5.14,2.09,7.22-15.82-17.73-3.13-39.49,18.88-41.07l.16-29.27c-17.47-3.46-32.42-18.84-23.22-37.27,4.78-9.57,13.55-11.73,23.16-13.31-.26-6.66-.17-13.84-.04-20.53.08-3.85,2.69-7.04-.95-10.45Z"/>
      <path class="cls-2" d="M859.16,581.06l17.84,6.14c-.93,8.43,3.06,29.86-3.13,35.56-1.62,1.49-4.63.15-3.73,4.27-2.23.25.45-3.67-2.45-2.97-.53.13-9.43,4.55-9.87,4.89-.91.7-.63,2.19-1.27,2.96-1.87,2.27-4.16,2.44-3.38,7.12l-1.98-1.01c-.19,5.43.58,12.34,3.1,17.17.94,1.81,2.46,1.79,3.88,4.83,2.72,1.85,5.87,3.36,9.01,4.48s7.63.36,9.24,3.74c1.06,2.24,1.3,25,.7,28.23-.66,3.54-6.65,5.7-9.52,7.51-2.5-5.68-1.82-.12-2.37.47-1.69,1.8-7.41,4.94-10.05,4.55l1.99,1.48c-2.88,1.2-.83,4.28-1.01,4.46-.16.16-2.45.06-3.56.95-3.7,2.98-.41,16.25,2.13,20.04.22.32,5.12,5.29,5.43,5.51,3.72,2.65,15.09,3.63,16.5,6.5.9,1.82.89,24.13.52,27.52-.79,7.09-2.08,5.41-6.31,6.49-.83.21-.64,1.78-1.4,1.96-1.63.38-3.69-.21-5.6.23-1.52.35-10.01,9.48-10.75,11.18-2.45,5.55-1.65,12.14.52,17.68.8,2.04,6.5,7.88,8.33,8.83,3.77,1.97,8.74,3.08,12.97,3.31,3.34,1.84,2.28,20.75,2.23,25.27-.02,1.69.64,4.44-1.02,5.48-.19-6.36.8-19.85,0-24.98-.07-.47-.52-.88-1-1-.12-.87.35-1.95-.13-2.84-23.9-.43-35.18-32.53-13.57-45.33,4.72-2.8,9.27-2.04,13.74-4.45l-.04-30.32c-33.52-1.54-35.22-46-.96-49.42l.82-29.39c-3.59-1.13-6.96-1.47-10.54-2.95-.72-.3-5.93-3.09-6.16-3.37-.47-.59-.01-1.5-.16-1.81-2.78-1.89-3.2-1.2-5.43-5.06-10.02-17.4,2.6-35.79,21.46-37.36l.95-30.52c-6.49.34-11.22-2.51-15.98-6Z"/>
      <path class="cls-2" d="M859.16,262.27l16.78,5.21c1.75,6.27,2.89,32.26-1.48,35.84-.81.67-3.18,1.05-4.31,1.93l-1-3c-.45,4.08-6.91,4.52-9.34,5.96-1.08.64-.37,2.21-.91,2.78-.49.51-1.99-.03-2.82.88-1.4,1.52-1.03,4.97-1.2,5.17-.46.57-2.16.74-2.8,1.59-2.93,3.92.81,11.15,1.07,15.59-.19-.35-1.51-.8-2.08-2.37-4.11-11.33.69-24.24,11.39-29.79,4.45-2.31,8.49-2.37,12.71-4.48l-.15-29.22c-6.38-.81-10.74-2.24-15.88-6.1Z"/>
      <path class="cls-2" d="M875.14,507.11c.66.04,1.34-.06,2,0-1.23,8.06,2.23,24.59-1.3,31.21-1.09,2.04-3.87,1.81-2.7,5.78-3.52-2.67-7.25,1.87-7.68,1.96-3.75.79-5.36-1.5-8.21,2.84-1.45,2.2-.04,5.23-5.1,5.19l.88,2.51c.03.62-1.67.35-1.86,1.14-1.69,7.15,2.51,14,4.98,20.33-.45-.54-1.64-.88-2.44-2.01-12.35-17.63,1.42-37.95,21.32-39.06l.1-29.88ZM870.64,540.09v1c.65-.33.65-.67,0-1Z"/>
      <path class="cls-2" d="M861.15,1142.69c3.61-.02,14.12,2.99,15.47,6.01,1.55,3.46.73,26.02-.98,29.96-2.59,5.97-8.71,3.67-8.5,9-1.13-1.67-8.57-.15-8.83.22-.83,1.17-2.54,5.13-2.17,6.75l-4.1.59c-2.38,8.49-.7,16.28,4.12,23.41-11.87-13.02-8.38-31.63,8-38.47,2.49-1.04,8.71-1.91,10-2.99,2.28-1.91.43-24.25.85-28.87l-.83-1.17c-5.29-.48-8.58-1.91-13.03-4.45Z"/>
      <path class="cls-2" d="M875.14,351.21l2-1.5c-.87,6.19,1.66,28.41-1.45,32.53-.78,1.04-6.6,1.04-6.56,4.93l-2.48-2.98c-.64,3.06-2.76,1.41-4.24,2.22-1.38.76-4.82,7.75-5.56,8.51-.43.44-1.85.04-2.72.94-7.47,7.7-.09,22.21,8.13,26.69,1.85,1.01,4.55,1.78,6.63,2.36,3.43.96,6.5-1.7,4.26,3.24-10.03-2.9-18.01-6.72-22.18-17.29-6.55-16.62,7.51-31.84,24.02-32.88.59-.65-.03-2.1.16-2.8.32-1.22,2.53-3.55,0-5,0-2.66,0-5.33,0-7.99,1.5-.14,1.5-2.86,0-3-.02-1,.03-2,0-3,1.5-.14,1.5-2.86,0-3-.02-.66.05-1.34,0-2Z"/>
      <path class="cls-2" d="M17.98,980.8c-3.36,3.22-12.92,4-13.82,6.66l.79,28.86c32.43,4.59,31.43,45.16-.07,50.01-1.53,2.1-1.39,28.67.1,29.91,1.36,1.14,6.84,1.68,9.25,2.74,24.39,10.69,16.13,44.93-9.24,46.71l-1-1.99c7.54,1.37,17.03-4.58,20.48-11.08.54-1.02-.44-2.26-.23-2.74.08-.19,1.61-.26,2.06-1.39,1.38-3.49,1.11-11.46-.94-14.71-.33-.52-8.14-8.46-8.7-8.71-2.56-1.13-5.82-.92-8.6-1.96-5.22-1.96-4.39-4.9-5.11-8.83-1.05-5.74-1.69-12.62-1.36-18.69.09-1.59,1.08-8.85,1.64-9.62.38-.53,3.83-1.64,5.05-2.27,2.91-1.49,1.41-.59,4.49-1.58,3.88-1.24,9.91-3.54,9.34-8.3,4.23.92,3.56-6.79,5.49-10.08-1.62-6.32.26-14.42-8.61-15l1.5-1.99-16.5-6.01c1.54-3.87-2.39-8.71-2.52-12.87-.05-1.68,1.25-2.79,1.22-3.7-.19-6.36-1.81-12.83.54-19.15l14.75-4.24Z"/>
      <path class="cls-2" d="M660.35,1262.62c-3.96-4.93-1.28-6.23-3.23-10.29-.69-1.43-2.28-1.65-3.14-2.94-1.01-1.51-1.17-3.38-2.37-4.79-3.23-3.78-7.58-1.68-11.5-3.05-1.08-.38-1.08-3.72-5.66-1.03l-.58-1.91c-3.45,5.18-10.13,4.96-14.16,9.32.54,3.33-2.1,3.67-2.62,4.91-4.5,10.73.04,13.75-15.25,14.79-2.56.17-16.95-1.11-18.76-2-1.23-.61-.47-1.81-.66-2.02,6.1-.33,12.44.44,18.52.04,2.04-.13,10.34-1,11.46-1.53,2.32-1.1,2.23-8.05,3.5-11.49,10.07-27.11,45.56-14.87,44.44,11.98ZM625.39,1242.62h1.48s1.49-1.5,1.49-1.5l-2.97.52v.98Z"/>
      <path class="cls-2" d="M857.16,1058.75l19.5,8.98c.66,1.31,1.04,27.28.51,29.3-.27,1-2.01.94-2.48,1.73-.78,1.3-.12,3.36-1.13,4.09-1.5,1.08-6.23.63-7.92,2.87l-1.48-1.98c.58,2.54-6.88,4.93-7.55,5.93-.93,1.39,0,3.59-.68,4.84-.39.71-3.8,1.31-4.57,3.92-1.49,5.07.44,12.88,3.45,17.16,1.32,1.87,5.22,3.36,5.34,6.12-1.54-1.05-3.29-1.71-4.97-3.8-14.54-18.04-.86-38.15,19.53-41.1.86-1.95.32-4.06.43-6.06,1.5-.14,1.5-2.86,0-3,.04-1.33-.02-2.67,0-4l.98-.5-.98-.5c0-.67,0-1.33,0-2,1.56-.41,1.49-3.67,0-4v-2c2.33-1.72.75-4.13,0-6-.14-.35.36-1.35-.18-1.79-7.82-.89-12.28-2.8-17.81-8.2ZM853.66,1112.71v1c.65-.33.65-.67,0-1Z"/>
      <path class="cls-2" d="M3.99,746.95v30.98c23.1-1.79,34.07,28.31,15.87,42.35-4.43,3.42-10.58,4.61-15.74,6.74v28.21c6.16,3.71,12.18,3.31,17.84,9.14,5.52,5.68,5.41,9.18,6,16.48l-3.07-9.93c-4.1,1.29-4.07-2.43-5.56-2.91-7.01-2.3-2.16-.82-5.06-3.15-2.09-1.68-7.93-1.75-8.23-2.06s.31-4.77-3.04-5.7c-1.34-9.3-1.39-19.7-.44-29.18,1.47-4.93,10.37-4.15,15.04-7.4,1.83-1.27,6.62-7.89,7.64-9.88,3.04-5.94,3.78-21.68-6.27-19.74l1.99-1.48c-2.58-3.81-6.97-2.29-10.99-2.49l-.05-3.94-5-.62c-.98-3.76-3.01-8.02-3.01-11.94,0-2.34,1.08-4.54,1.12-6.95.09-5.14-.99-12.25.96-16.53Z"/>
      <path class="cls-2" d="M3.99,587.06l.46,29.02c9.87,3.13,17.89,5.21,22.37,15.6,7.69,17.85-5.24,32.84-22.83,35.33.83-2.87,9.75-3.96,12.19-5.09,1.54-.71,8.07-7.35,8.76-8.69,1.37-2.67,2.08-7.63,2.09-10.71.04-12.22-4.31-13.26-13.87-18.19-.91-.47-2.57,0-3.38-.39-1.39-.65-4.07-3.79-6.52-4.1.44-9.49-1.39-21.09-.32-30.39.19-1.62.57-1.52,1.06-2.39Z"/>
      <path class="cls-2" d="M20.97,499.11c2.96-6.73,7.54-11.31,6.76-19.2-.23-2.34-3.46-9.35-5.21-10.86-1.24-1.07-8.85-5.94-10.5-6.32s-3.59.96-4.86.24c-.3-.17-3.88-5.21-3.98-5.53-.79-2.6-.68-23.28-.26-26.89.18-1.56.39-1.42,1.06-2.39l.49,27.99c.98,1.97,7.88,2.79,10.87,4.12,16.4,7.29,18.21,26.78,5.62,38.85Z"/>
      <path class="cls-2" d="M27.97,883.86c0,.08.9.52.78,1.3-.85,5.43-6.78,13.57-11.52,16.44-3.95,2.4-12.43,2.67-13.21,6.77-.49,2.59-.38,26.39.41,27.51,2.59,1.57,5.76,1.39,8.52,2.47,10.57,4.11,17.44,15.52,15.92,26.87-.61,4.53-5.43,12.86-9.9,14.57.23-.23,3.85-4.46,4.03-4.73,3.08-4.67,5.22-14.1,3.92-19.55-.16-.69-1.53-.63-1.87-1.48-.89-2.19-.06-4.16-2.58-6.25-.73-.61-1.95-.61-2.69-1.07-.82-.51-.9-1.61-.99-1.64-.48-.18-2.4.83-4.09.6-2.62-.35-2.57-2.64-3.44-2.83-1.26-.28-3.28.39-4.13-.16-.48-.31-.52-2.41-1.25-3.25-.89-1.02-2.33-1.41-2.86-2.38-1.64-3.04-1.6-27.09-.03-30.44,2.6-5.56,11.64-2.02,13.1-7.65l2.88.9c-.91-3.85,1.85-2.56,3.45-4.02,2.85-2.62,3.51-8.74,5.55-11.97Z"/>
      <path class="cls-2" d="M876.14,429.16c.92,1,.9.95,1.05,2.39.48,4.41.39,30.71-2.07,32.59-1.7-.71-6.91-2.13-8.45-1.78-.28.06-3.84,3.51-4.27,3.73-2.28,1.16-4.98,1.87-7.25,3.04-3.87,8.1-4.87,12.98-3,21.99-4-3.37-2-19.23,1.21-21.81.59-.48,1.51-.03,1.79-.18.57-1.19.31-2.39,1.55-3.92,3.51-4.35,12.86-7.03,18.35-7.14l1.08-28.91Z"/>
      <path class="cls-2" d="M876.14,218.3c-1.9,6.82-1.84,4.59-7.55,4.13-.48-.04-.39,1.49-1.18,1.81-2.62,1.05-9.06,2.74-10.97,4.34-.38.32-4.51,8.08-4.71,8.77-2.32,7.72.8,15.44,4.44,21.93-15.77-17.58-2.64-39.13,18.98-40.97h1Z"/>
      <path class="cls-2" d="M859.16,23.42c3.86,3.25,11.4,2.86,14.7,4.69,6.22,3.44,2.05,24.01,3.32,30.7-.04,1.18-1.42.4-2.04.59-.16,1.59-.93,3.26-1.13,4.87-2.95.39-8.26,1.47-10.78,2.71-1.2.59-5.78,4.91-6.64,5.79-6.24,6.47-6.78,13.67-3.28,21.96,4.44,10.52,12.07,10.7,21.93,13.25.55.77,1.89,11,1.98,12.89.12,2.62-1.08,4.77-1.09,6.99-.01,2.88,1.55,5.26.95,8.93-1.38,8.48-14.24,8.39-18.66,11.84-3.64,2.85-7.34,11.5-7.34,16.2,0,5.47,4.13,14.3,8.53,17.48,4.02,2.91,15.66,4.4,16.85,7.23,1.2,2.85,1.1,21.33.73,25.37-.18,1.95-.78,2.35-1.07,3.38l-1-6v-2l.98-.5-.98-.5c0-3.65.08-7.34,0-10.99l.98-.5-.98-.5c-.02-.66.03-1.34,0-2l.98-.5-.98-.5c-.15-1.68.65-4.28-.98-5.52-33.38-4.39-32.45-46.12,1.03-50.02l-.18-29.27c-2.33-1.62-4.76.09-7.11-.31-6.6-1.11-16.04-11.15-17.49-17.57-2.84-12.6,3.13-25.51,15.45-30,3.06-1.12,6.22-1.29,9.27-2.22.37-3.8.65-25.99-.14-28.34-.84-2.5-8.31-2.62-11.11-3.87-1.66-.74-3.28-2.59-4.73-3.76Z"/>
      <path class="cls-2" d="M5.99,60.4c18.43,1.44,28.4,17.48,21.16,34.66-3.74,8.88-14.4,10.78-22.16,14.31.07-.76-.41-1.63.62-2.07l16.14-6.15c5.36-8.02,8.72-17.39,4.19-26.76l-2.97,1,1-3.98-15-5.53c-.95-1.46-2-4.16-2.99-5.48-.08-.11-1.56.53-1.97-.72-1.27-3.83-.03-6.65-.03-9.85,0-5.39-.85-14.05.01-18.93.3-1.69.63-1.78,1.99-2.49-1.07,4.24-1.89,30.75,0,31.98Z"/>
      <path class="cls-2" d="M876.14,856.88c.06,1.84.06,3.32,1.01,4.99l-7.51,2.99-2.47-2.97c.57,2.49-2.18,1.61-2.77,2.25-.52.56-.02,2.11-.41,2.52-.66.69-3.74-.3-4.82,1.73l1.98,2.47-8.99,1.01c4.68-10.14,12.73-13.36,23.98-14.99Z"/>
      <path class="cls-2" d="M3.99,297.25c-1.02-.99-.88-1.01-1.05-2.4-.44-3.61-.53-23.1.27-25.87,1.25-4.35,10-4.32,14.11-6.87,8.33-5.17,14.17-21.08,8.36-29.52-.18-.25-4.19-4.14-4.46-4.28-1.29-.7-3.99-.41-5-1.23s-.9-3.4-1.29-3.73c-.2-.17-2.75,1.2-5.13-.06-.33-.18-4.69-4.65-4.8-4.98,28.65,1.64,33.95,37.3,7.02,47.5-2.4.91-6.16-.29-7.52,2.47l-.49,28.99Z"/>
      <path class="cls-2" d="M3.99,674c-.24,7.58.06,15.27.13,22.85,32.49,4.05,33.25,44.69.87,49.1,3.41-2.95,3.55-1.16,6.21-2.28,12.93-5.45,19.67-16.63,14.26-30.69-.36-.94-4.25-6.66-4.64-6.79-.77-.26-3.35,1.37-4.83.78l-.02-3c-4.05,2.01-2.55-.47-3.65-1.02-1.71-.85-3.6-.53-5.04-1.3-6.18-3.29-4.69-18.31-4.8-24.64-.03-1.68-1.92-3.48,1.51-3.02ZM9.98,699.99h-1.99v.98h1.99v-.98Z"/>
      <path class="cls-2" d="M3.99,127.36l1.05,10.95c7.46.21,16.31,4.81,20.39,11.09,1.46,2.25.96,3.43,1.54,4.95-2.94.69-1.46-2.31-2.59-3.09-1.21-.85-3.87-.81-5.41-.91l1.02-2.98c-3.01.83-3.51-2.34-4.78-2.99-2.56-1.28-7.5-1.39-9.68-4.05-2.73-3.32-1.65-9.04-1.53-12.96Z"/>
      <path class="cls-2" d="M74.92,28.42c18.42,3.96,29.29-9.11,29.12-26.83,1.36-2.21,30.3-1.19,34.83-.14-1.46,5.21.33,12.01,2.61,16.9.2.44,3.15,4.88,3.38,5.08.17.14,1.72-.38,2.68.27s.9,2.07,3.28,3.26c5.84,2.92,14.91,2.61,20.76-.26,1.69-.83,8.25-7.29,9.16-9.08,2.02-4,2.45-8.1,2.04-12.56.19-1.16,1.87-.45,2.04-.62,1.2,20.51-22.42,33.8-39.27,21.01-.96-.73-.59-1.92-.69-2.02s-1.25.28-2.02-.68c-4.61-5.71-5.76-13.18-7.07-20.2l-29.83-1.1c-1.36,6.89-.8,11.62-4.65,17.88-4.72,7.69-14.56,12.63-23.71,10.9-1.5-.28-2.23-1.65-2.65-1.8Z"/>
      <path class="cls-2" d="M740.27,2.44c.13-.13-.29-1.35.19-1.76,1.18-1.02,29.33-.45,31.12.68l4.66,18.07c-4.87-1.86-3.36-15.21-5.19-16.8-10.06-2.01-20.67-1.54-30.78-.19-.64,9.58-1.76,15.54-8.99,21.99,3.43-4.73,5.82-9.87,6.9-15.59.36-1.9-.31-4.18.08-5.74.27-1.11,1.9-.53,2.02-.66Z"/>
      <path class="cls-2" d="M500.51,2.44c.13-.13-.29-1.35.19-1.76,1.03-.9,23.71-.36,27.33-.24,1.92.06,4.01-1.02,3.45,2-10.04-1.21-20.84.48-30.97,0,.55,10.6-2.72,18.6-11.99,23.98,4.51-3.2,4.78-4.91,7.01-9.28.28-.55,1.54-.65,1.68-.98,1.64-4.03.45-9.78,1.28-13.06.28-1.1,1.9-.53,2.02-.66Z"/>
      <path class="cls-2" d="M4.99,217.3c-3.01.58-1.87-1.55-2.07-3.47-.53-5.07-.58-17.11.13-21.97.25-1.69.63-2.47,1.94-3.54v28.98Z"/>
      <path class="cls-2" d="M692.32,1262.62c-.46.77-.5,2.14-1.25,2.71-3.9,2.99-17.24-4.2-20.23,2.3-1.66-4.87-5.49-1.83-7.93-2.21-1.13-.17-1.21-1.52-1.56-1.8,10.16-.59,21.08,1.25,30.97-1Z"/>
      <path class="cls-2" d="M776.24,20.43c2.86.31,3.49,3.59,6.06,5.43,3.95,2.83,11.57,4.69,16.25,3.55.72-.18.67-1.69.83-1.76.37-.15,4.68-.63,6.79-1.72,10.6-5.49,9.63-14.94,12.16-25.35,10.79.42,21.97-1.03,32.35,1.83,1.85,2.94,1.33,6.3,2.41,9.58,1.21,3.67,3.39,7.02,5.05,10.43-6.12-5.99-8.15-11.03-7.99-19.99h-31.97c-.57,3.12.59,6.69.48,9.55-.13,3.44-4.99,9.41-7.57,11.84-11.47,10.82-25.67,9.54-34.88-3.41Z"/>
      <path class="cls-2" d="M581.43,2.44c.15-.22-.34-1.43.14-1.82l1.3-.25c8.35.34,16.74-.2,25.09.07,1.92.06,4.01-1.02,3.45,2-10.12-1.44-19.65.66-29.97,0Z"/>
      <path class="cls-2" d="M19.98,500.11c-4.78,3.87-8.64,6.03-15.1,6.57-1.13,1.54-1.44,24.87-.88,27.91.7,3.82,11.84,5.01,15.97,8.03,1.53,1.12,6.35,6.99,7.18,8.79,2.93,6.4,3.27,17.4-2.17,22.65,5.19-12.41,2.39-18.37-3.93-29.3-3.07-2.77-8.9-.75-11.82-1.95-.28-.12-.45-1.34-1-1.69-4.08-2.58-4.69-1.97-5.23-7.54-.83-8.66.47-18.55.12-27.34l16.85-6.13Z"/>
      <path class="cls-2" d="M28.97,3.44c.15-.15-.5-1.58.72-1.98,1.46-.49,16.56-1.2,18.76-1.1,1.91.09,8.35.7,9.82,1.07,1.14.29.54,1.88.67,2.01s1.67-.5,2,.69c.34,1.24-.15,3.05.26,4.54,1.45,5.3,3.31,11.96,7.17,15.81,1.5,1.5,4.64,1.52,5.57,3.95-11.35-4.81-13.71-13.39-14.99-24.98-1.54-1.54-28.13-1.5-29.97,0-1.15,7.85-1.69,11.29-6.99,16.99l2.95-4.73,2.04-11.58c.29-1.17,1.87-.55,2-.68Z"/>
      <path class="cls-2" d="M857.16,1219.64c2.57.52,5.74,4.39,7.75,4.84,3.03.67,2.08.14,4.95,1.1,1.15.39,2.72-.1,4.25.57,5.57,2.43,2.01,17.53,3.08,22.89-.14,1.2-1.68.36-2.05.58,2.58-7.21-1-14.54,0-21.98-7.04.24-13.04-3.29-17.98-8Z"/>
      <path class="cls-2" d="M422.58,1.44l20.48-1.44,8.01.44-.52,1c-8.2-1.29-19.4.95-27.97,0Z"/>
      <path class="cls-2" d="M538.47,21.42c-4.77-6.09-5.68-11.06-5.99-18.99,2.96.94,1.77,5.49,2.44,8.05,1.03,3.91,2.65,7.14,3.55,10.94Z"/>
      <path class="cls-2" d="M342.66,1.44c1.04-1.66,3.79-1,5.48-1.02,5.09-.06,24.24-1.1,26.84,1.92,1.21,5.93,1.88,12.01,4.86,17.4.79,1.43,3.16,2.08,3.47,4.7l7.3,4.97c-12.96-3.6-14.99-16.4-17.95-27.52l-30.01-.46Z"/>
      <path class="cls-2" d="M3.99,377.19l-.98,1c.82-8.63-1.14-19.23-.07-27.59.18-1.43.17-1.38,1.06-2.39v28.98Z"/>
      <path class="cls-2" d="M860.15,502.11c3.55.97,6.92,2.18,10.54,3,1.79.4,4.03-1.25,3.45,2-6.17-.82-8.95-.8-13.99-5Z"/>
      <path class="cls-2" d="M24.97,575.06c-2.39,5.17-13.98,11.71-19.98,10.99,3.31-2.68,6.22-2.07,9.88-3.61,4.59-1.93,6.15-5.34,10.1-7.38Z"/>
      <path class="cls-2" d="M852.16,873.87h1.99s0,1.99,0,1.99l-3,1.01c.01-.09-.93-.64-.79-1.37.2-1.06,1.73-1.44,1.79-1.62Z"/>
      <path class="cls-2" d="M852.16,492.12l1.85.12,1.15,4.87c-1.54-1.81-2.42-2.43-3-5Z"/>
      <rect class="cls-2" x="583.43" y="1267.62" width="2.99" height=".98"/>
      <path class="cls-2" d="M545.46,27.42c-3.35-1.99-3.46-2.27-5.99-5l5.99,5Z"/>
      <path class="cls-2" d="M730.28,25.42l-2,1c.63-.36,1.88-.91,2-1Z"/>
      <path class="cls-2" d="M27.97,882.86c0-.33,0-.67,0-1l.98.5-.98.5Z"/>
      <path class="cls-2" d="M858.16,580.06l-1-1c.33.33.65.7,1,1Z"/>
      <path class="cls-2" d="M612.4,3.44v-1l.98.5c-.02.21-.99.37-.98.5Z"/>
      <path class="cls-2" d="M38.46,1267.61c.65.33.65.67,0,1v-1Z"/>
      <path class="cls-2" d="M773.24,79.39l.5.98.5-.98c.67,0,1.33,0,2,0l.5.98.5-.98c2,0,4,0,5.99,0l.5.98.5-.98c1,0,2-.03,3,0l1.49.99.51-.99c2.64.09,5.36-.2,7.99,0l.5.98.5-.98c3.31.31,9.4.11,9.04,4.44-1.12,272.72-.18,546.42-2.1,818.47,0,76.89.17,154.32.09,230.84-.01,12.83,1.14,28.7.01,41.08-.47,5.12-1.84,7.45-7.49,7.5-196.15-.12-391.88-.83-587.41-1.08-41.17-.05-89.8,3.26-129.97.07-2.86-.23-5.69-.91-8.5-1.49l-1.01-2.99.05-372.31.98-.5-.98-.5c0-1,0-2,0-3l.98-.5-.98-.5v-9.99l.98-.5-.98-.5c.39-233.96,1.82-468.74.93-703.11l3.33-5.14c61.01-.49,122.08-.31,183.11-.33,171.07-.06,343.65-.64,514.95.05ZM88.91,337.22c0,.34,0,.67,0,1,0,1.67,0,3.33,0,5,0,.13-.67.52,0,1v3c-.67.48,0,.88,0,1-.02,5.98.02,12,0,17.99,0,.13-.66.52,0,1v4c-.67.47,0,.87,0,1,0,.67,0,1.33,0,2,0,.34,0,.67,0,1-.01,4.86-.99,9.78-1,13.99,0,.88,1,.93,1,1,0,.67,0,1.33,0,2-1.61.95-1.64,4.99,0,6,0,1,0,2,0,3-1.58.66-1.58,4.34,0,5,0,1.67,0,3.33,0,5-1.58.66-1.58,4.34,0,5,0,1,0,2,0,3-1.58.66-1.58,4.34,0,5,0,1,0,2,0,3-1.7,2.87-1.66,9.33,0,11.99,0,.67,0,1.33,0,2,0,.16-.99.67-1,3-.1,47.39,0,95.28-.05,142.37-.06,60.5-.27,121.05.48,181.48l70.99,1.94c31.21-1.6,63.07.47,94.41,0,.67-.01,1.33,0,2,0,1.33,0,2.67.03,4,0,1-.02,2.01.06,3,0s2.02.11,3,0c2-.22,2.42-.85,3-1,1.16-.31,5.94-.23,4.98-2.47-.91-2.1-5.99-6.34-6.75-9.26-.32-1.22-.28-7.56.1-8.6.88-2.45,7.23-7.41,8.2-9.67,2-4.64-15.97-23.04-19.49-27.48-29.64-37.3-62.44-79.19-41.16-130.07,14.83-35.46,62.77-35.55,65.09-68.79.74-10.6-1.46-6.78-7.47-11.48-18.93-14.8-3.53-39.5,18.48-34.98v-24.48c-.88-1.43-1.99-1.38-3.45-1.55-12.97-1.52-34.12-.49-48-.53-40.73-.1-89.1,4.04-128.92.62-8.7-.75-6.49-4.8-4.49-11.57,14.05-47.39,32.74-94.79,47.69-142.17,11.59-36.72,21.48-74.01,33.21-110.68,2.16-5.48,11.11-4.17,16.03-4.45.15,0,.56.02,1,0,2.32-.1,4.67.05,6.99,0,.31,0,.65,0,1,0,1.33-.03,2.66.02,4,0h1c.67,0,1.33,0,2,0,.57,0,1.49,0,2,0,3.65.04,7.34-.03,10.99,0,.34,0,.67,0,1,0,2.54.02,5.01.96,7.99,1,1,.01,2-.01,3,0,3.65.04,7.34,0,10.99,0,1,0,2,0,3,0,.67,0,1.33.01,2,0,2.3-.04,4.73-.99,5-1,.67-.02,1.33.02,2,0,.07,0-.07,1.04,1,1,1.46-.05,3.12-.92,5-1,.17,0,.76.96,1.51.93.84-.03,1.33-.93,1.48-.93.66-.02,1.33.03,2,0,.66,1.58,4.34,1.58,5,0,2.32-.1,4.68.08,7,0-3.49-14.95-4.07-29.1,10.29-38.16,16.81-10.6,38.1,1.45,39.68,20.71.41,5.02-2.22,12.54-1.98,16.06.06.91.83,2.4,1.45,2.4h99.4l86.76,264.12c-.65,2.2-4.12,3.7-6.32,3.73-50.9.21-102.2-.39-152.83.02-7.45.06-20.47-1.24-27.01-.04-1.12.2-1.87.51-2.5,1.5v22.99c6.86,3.23,11.98-.33,19.31,4.67,9.18,6.26,9.61,18.29,3.11,26.76-3.12,4.06-7.54,4.83-11.3,7.68-.19,3.55-.38,7.19-.01,10.74,3.36,32.43,44.78,28.56,55.84,56.58,2.63.26,1.61.05,1.96-1.49,3.81-16.74,8.42-33.08,26.78-38.19,53.24-14.81,111.93-21.7,165.66-36.14,17.87-.69,35.63,5.17,52.83,6.67,36.36,3.18,73.07,8.65,110.72,12.57l27.02,3.54,1.67-3.38c.28-62.64-.07-124.75-.05-187.43,0-.33,0-.67,0-1,0-2.33,0-4.67,0-7,0-.33,0-.67,0-1,0-.67,0-1.33,0-2,0-.17.94-.7.94-1.5s-.94-1.33-.94-1.5c0-.67,0-1.33,0-2,0-.33,0-.67,0-1,0-3.66,0-7.34,0-10.99,1.58-.66,1.58-4.34,0-5,0-.67,0-1.33,0-2,0-.33,0-.67,0-1,0-2.33,0-4.67,0-7,0-.33,0-.67,0-1v-2c0-.33,0-.67,0-1v-11.99c0-.33,0-.67,0-1,0-1.33,0-2.66,0-4,0-.33,0-.67,0-1,0-.67,0-1.33,0-2,0-.33,0-.67,0-1,0-2.66,0-5.34,0-7.99,0-.13.66-.52,0-1v-7c.05-10.49-.05-21.01-.04-31.52,0-2.49,1.04-4.77,1.04-7.46,0-.74-1-.93-1-1,.02-32.39.89-63.61,0-95.94,0-.29,0-.68,0-1-.01-1.67,0-3.33,0-5l2.01-.5c.04-1.06-1.75-.23-2.01-.5-.28-.29.07-2.31-1.6-2.86-6.36.55-12.72-.94-18.83-1.18-48.89-1.93-99.91.08-148.85,0-176.99-.27-354,.26-530.98.1-1.95,20.28-.94,40.99-1,61.45-.17,59.38.11,119.63-.05,179.34ZM130.87,421.16h301.21c2.66,0,.62-9.33.23-11.22-7.78-37.63-19.9-77.04-29.23-114.67-8.58-34.59-15.81-69.55-25.58-103.83-12.34-1.18-24.83-.06-37.25-.12-39.91-.2-82.58-2.12-121.96-.82-2.2.07-15.14.76-15.59,1.4-9.58,30.62-18.92,61.36-28.84,91.87-12.42,38.2-25.81,76.24-37.25,114.64-2.21,7.42-6.62,14.61-5.73,22.75ZM498.42,420.07l-72.32-227.78c-.45-.83-1.21-.84-2.01-.99-3.66-.69-28.36-.92-30.49.51-1.09.73-1.14,1.4-.59,2.53l58.74,224.13c.39.96,1.12,1.53,2.03,1.97,2.93,1.4,33.87,1.16,39.28.77,1.87-.13,3.64-.41,5.36-1.14ZM342.56,482.21c-1.79-2.14-26.11-.16-30.33-.05-7.86.22-16.33-.62-24.06-.09-1.75.12-5.75.12-5.53,2.54,1.14,8.1,9.78,8.93,16.58,9.48,7.15.58,29.93.3,36.18-1.75,3.96-1.3,8.53-5.61,7.16-10.13ZM460.55,545.07l189.27,34.03c41.45-12.84,83.91-23.3,125.19-36.75,3-.98,14.59-3.9,7.55-8.09-2.59-1.55-18.62-3.39-22.95-4.02-34.57-5.08-69.21-8.83-103.74-13.15-16.22-2.02-44.67-8.38-59.9-5.93-15.66,2.51-31.72,8.16-47.28,11.67-25.67,5.8-52.92,10.69-78.16,17.75-3.05.85-8.11,1.96-9.98,4.5ZM316.64,513.16l-19.92-2.06c-2.02,11.61-5.46,22.42-12.58,31.9-2.81,3.74-7.64,9.14-11.16,12.1-2.44,2.05-28.69,19.04-25.22,22.95,30.1,4.35,60.71,3.04,90.97.57,5.82-4.11-8.12-16.67-10.35-19.8-10.89-15.3-10.52-27.51-11.73-45.66ZM781.23,560.08l-125.58,38.76c-3.62,1.12-7.89,16.18-7.21,18.56l2.21,1.49,128.91-40.78c2.2-1.19,1.59-15.07,1.66-18.03ZM643.36,666c-2.15-4.7-4.66-9.13-6.45-14.03-4.66-12.79-4.7-28.62-2.09-41.98.86-4.41,2.76-8.18,3.84-12.19.27-1.01,1.23-1.29-.28-2.24l-192.44-34.36c-6.44-.24-9.12-1.76-12.24,4.5-6.87,13.8-5.81,40.83,6.13,51.58l203.54,48.72ZM781.19,586.1l-132.84,41.4c-2.73,2.01,1.8,14.87,2.11,18.42,2.13,1.82,24.63-7.87,29.14-9.23,3.02-.91,10.11-2.44,12.13-2.66l.76-1.77c2.2.57,5.39-.66,7.2-2.39l82.95-27.71-1.45-16.06ZM318.29,698.6c18.86-28.1,32.98-56.88,29.35-92.04-.39-3.81-.35-7.05-4.43-7.56-15.23-1.91-35.86.71-51.99.04-8.34-.35-18.62-1.15-26.97-2-4.72-.48-25.18-4.92-27.5-3.51-4.79,2.92-4.6,29.12-3.74,34.76,3.51,23.18,29.51,57.37,45.68,74.2,6.56,6.83,11.22,13.81,21.52,13.56,10.04-.24,12.39-11.17,18.09-17.46ZM785.22,610.04l-130.87,42.99c1.03,5.3,3.7,10.98,10.25,8.74l122.19-42.72-1.58-9.01ZM786.13,643.11c-4.05-1.94-8.56-.47-12.67.63-18.15,4.84-38.95,14.47-57.18,20.75-22.33,7.69-44.81,15.32-67.36,22.37-78.72-15.52-155.94-38.99-234.76-53.78-7.27,2.99-14.92,5.62-22.09,8.9-.99.45-2.34.61-2.46,2.03,72.89,17.51,145.03,38.09,218.02,55.24,7.22,1.7,13.13,4.97,21.26,4.8s28.68-8.64,37.41-11.61c38.4-13.06,76.21-27.96,114.49-41.37,3.07-1.44,6.29-4.21,5.35-7.96ZM543.46,772.93c-2.73-14.23-4.12-28.92-3.03-43.5.57-7.6,4.53-16.62,4.98-23.09.11-1.56.34-2.65-.92-3.88-3.3-3.21-18.19-4.45-23.23-5.74-42.33-10.82-86.96-24.56-129.42-33.43-9.07-1.89-17.42-4.34-20.92,6.5-4.01,12.43-3.87,45.55,6.98,54.52,5.55,4.59,28.31,8.74,36.7,11.15,42.99,12.36,85.78,25.48,128.87,37.47ZM639.6,723.2c-.87,3.18-7.34,17.58-.95,16.59l141.97-54.91c5.58-.22,7.74-16.18,3.29-15.74l-144.32,54.05ZM782.23,692.99l-146.37,56.95c-1.26,2.09-.19,13.64.69,16.31.51,1.56,1.55,1.95,3.06,1.52l142.61-58.3v-16.49ZM560.13,706.09c-3.44,1.09-7.31,18.58-7.66,22.39-.92,9.83.38,43.39,8.46,49.48,1.92,1.44,17.15,6.36,18.9,5.92l1.45-2.23c-5.31-13.51-6.32-28.69-4.71-43.05.99-8.89,4.23-17.23,5.79-25.97-.72-2.13-20.02-7.23-22.22-6.53ZM622.38,796.92c-.82-6.76-4.37-12.89-5.71-19.76-2.48-12.65-2.55-27.05-.22-39.64.67-3.61,4.72-11.46,3.8-14.84-1.09-4.02-19.93-5.59-24.22-7.49-4.45.85-7.95,21.1-8.48,25.4-1.34,10.88-.15,38.44,7,46.7,4.29,4.95,21.24,6.91,27.83,9.63ZM777.97,720.15l-136.92,54.96-1.66,2.25c1.6,3.9,3.16,13.63,8.77,10.89,41.16-19.62,87.35-34.53,127.75-55.12,1.97-1,6.66-2.74,7.17-4.85s-1.05-10.36-5.11-8.13ZM349.65,769.94h21.48l10.46-22.4c-12.34-5.51-23.59-13.04-27.96-26.57-2.81,2.47-6.92,11.06-7.06,14.51-.25,6,9.84,7.09,10.11,16,.25,8.05-7.15,11.1-7.89,14.16-.18.76.68,4.17.86,4.29ZM292.45,745.19c-2.84.5-6.03,1.88-5.78,5.21.68,7.01,18.56,7.06,23.52,6.99,4.22-.06,21.49-.5,21.51-6.94-.13-1.66-1.37-2.57-2.66-3.36-4.66-2.84-30.6-2.96-36.59-1.89ZM784.92,768.65c3.8-4.47-.87-7.31-5.51-5.02-42.57,16.39-84.54,37.68-127.07,53.77-4.98,1.88-11.18,4.59-16.47,4.6-8.69.02-32.2-9.76-42.25-12.79-59.95-18.06-120.13-36.97-180.4-53.17-6.88,1.23-13.12,4.03-15.62,10.9,49.79,14.25,99.6,28.85,149.07,44.26,22.93,7.14,47.63,17.53,70.5,23.42,8.65,2.22,11.44.98,19.46-1.95,41.3-15.07,83.28-35.4,123.63-53.21,5.2-2.3,21.64-7.25,24.66-10.8ZM311.69,776.93l-20.04-.56c-3.76,13.55-8.26,23.84-20.4,31.56-1.92,1.22-19.42,8.77-18.5,9.97,21.05,6.02,46.56,8.87,68.47,7.05,2.63-.22,5.96-.16,5.98-3.5.03-4.54-8.65-17.91-10.8-23.74-2.33-6.31-4.51-14.09-4.71-20.77ZM606.39,931.83c-9.2-25.43-7.79-53.28,3.99-77.45l-.98-.98c-16.25-5.97-32.7-11.47-49.18-16.77-51.91-16.69-108.13-36.69-160.4-50.41-2.98-.78-7.94-2.71-10.28.14-5.81,7.05-6.6,56.37,3.14,64.97l213.72,80.51ZM788.22,1157.19v-128.92c0-.6-1.63-1.51-2.52-1.57-.97-.07-14.99,7.38-17.36,8.67-38.53,21.15-76.04,44.8-114.3,66.55-27.45,15.61-59.63,36.21-87.57,49.31-7.3,3.42-9.81,4.11-17.56,1.5-99.84-49.07-198.72-100.21-298.79-148.82-24.55-11.92-53.01-22.62-76.51-35.39-7.55-4.1-7.73-9.56-.05-13.45,19.58-9.9,43.07-16.29,62.87-26.05,1.64-.81,5.67-2.25,6.2-3.85l-3.36-42.32c-21.94-9.27-56.46-16.49-42.65-48.62,10.98-25.56,38.59-33.64,62.11-43.31l-1.03-2.47-166.09-2.27-2.5.99c-.48,2.39-1.07,4.78-1.25,7.23-4.45,61.34,3.37,128.05.09,189.96.27,48.56-2.37,96.97-1.1,145.9.25,9.59,1.21,19.44,1.87,29.05l1.39,1.72,366.98.61c106.11,2.3,213.19.42,319.69,1.1l9.45-1.54c.49-.34,1.88-3.35,1.99-4.01ZM780.98,805.66c.86-2.08,4.19-14.46.77-14.69-9.34,4.02-18.84,7.72-28.16,11.77-41.17,17.9-82.36,36.8-122.74,56.1-2.59,2.55-11.39,18.92-4.17,17.86l154.3-71.04ZM780.23,815.91l-158.63,71.15c-2.42,7.2-2.3,15.61.29,22.79,1.77,2.18,11.06-2.88,13.84-4.14,18.69-8.47,36.72-18.79,55.23-27.7,28.42-13.69,57.13-26.8,85.69-40.2,1.09-.5,1.39-1.29,1.59-2.41,1.02-5.88.03-13.49,1.99-19.49ZM336.49,843.05c-.36-.59-5.11-2.05-6.3-2.18-9.82-1.09-22.66.65-33.03.07-19.93-1.11-39.96-5.3-57.9-14.13-18.54,8.72-30.75,22.4-2.94,30.02,15.2,4.16,32.27,5.46,47.88,7.11l50.8-15.21c1.89-.5,2.3-4.34,1.49-5.68ZM778.23,847.88l-153.21,71.86c-2.37,2.55,3.86,12.59,6.38,14.65l1.97.05,145.14-71.5c3.85-3.05-1.55-10.66-.29-15.05ZM782.23,889.86c-1.41-1.44-12.9,4.24-15.19,5.28-38.43,17.33-76.32,39.15-114.46,57.39-15.08,7.21-19.32,11.82-36.71,6.32-2.69-.85-4.95-2.66-7.48-3.51-84.78-28.53-167.44-63.59-251.46-94.23l-7.32.21-68.88,24.04,143.05,53.79c37.54,14.89,74.9,30.93,112.74,45.12,7.52,2.82,31.31,12.63,37.44,12.6,1.66,0,2.92-.14,4.53-.56,7.77-2.03,28.38-13.6,37.14-17.8,48.43-23.21,96.8-47.63,144.53-72.29,3.63-1.88,20.5-10.18,21.58-12.39.63-1.29.63-2.59.51-3.97ZM552.28,1010.95c-95.44-39.68-192.02-76.56-288.52-113.61l-6.02-.49,1.23,12.76c11.22,6.25,23.75,9.04,35.71,13.75,73.39,28.92,146.62,58.43,219.78,87.95,5.23,2.11,28.61,13.76,31.98,12.02,1.62-.84,6.9-10.54,5.83-12.38ZM780.23,917.85c-14.73,5.67-28.85,13.33-42.98,20.46-57.21,28.88-114.15,58.33-171.14,87.64-4.96,1.32-10.39,25.11-9.22,26.83,1.39,1.61,2.92,1,4.59.53,9.24-2.63,30.06-14.97,39.98-19.99,59.42-30.06,118.39-61.71,177.24-92.52l1.53-22.95ZM268.46,923.15c-1.56-.65-3.12-.29-4.72-.32l1.16,17.85c28.68,11.59,57.27,23.51,85.73,35.65,48.8,20.83,98.49,40.79,146.56,63.25,3.42,1.6,14.76,6.2,16.6,8.11,3.69,3.84.68,11.51-5.29,8.57l-243.47-105.23-3.27-.22c.89,4.36-4.11,13.05-1.01,16.51l277.73,128.4c-5.34-17.28-4.64-35.35-.32-52.78.68-2.73,1.07-5.71,3.3-7.68l-1.58-1.39c-66.73-26.37-132.67-54.74-199.22-81.54-24.03-9.68-48.85-19.38-72.19-29.18ZM779.23,951.82l-223.13,113.82c-2.3,2.54.66,22.93,2.4,27.05l3.67-.74c49.82-27.44,99.65-54.87,149.45-82.35,5.1-2.81,11.68-3.58,15.94-9.09l50.52-26.86c1.28-2.05-1.91-8.41,2.15-7.85l-1.99-.99c2.84-3.82.25-8.51.99-12.98ZM245.38,975.1c-1.36.15-2.91,1.08-3.53,2.36-.51,1.71,1.15,4.2,2.39,5.36,2.85,2.65,16.01,8.3,20.47,10.5,32.08,15.78,64.91,30.22,97.14,45.73,57.81,27.82,114.96,57.82,173.26,84.52,2.82,1.29,15.17,7.32,16.83,7.19,6.56-.52-2.72-13.8-5.57-15.45-82.28-38.55-163.36-79.91-246-117.69-13.91-6.36-32.38-15.98-46.37-20.57-2.11-.69-6.67-2.16-8.63-1.94ZM779.22,983.8c-.74-.52-7.28,3.13-8.65,3.82-65.19,33.11-127.23,73.17-192.5,106.24-2.87,1.45-8.09,2.69-10.07,3.96-2,1.28-1.32,4.32-6.56,2.9-1.53,1.44,5.93,16.05,8.7,16.86l7.3-2.35c64.61-39.47,134.03-73.54,198.09-113.64,1.49-.93,5.17-2.91,5.55-4.48l-1.87-13.31Z"/>
      <path class="cls-1" d="M875.14,1074.74v-6c.75,1.87,2.33,4.28,0,6Z"/>
      <path class="cls-1" d="M875.14,375.19v-5c2.53,1.45.32,3.78,0,5Z"/>
      <path class="cls-1" d="M875.14,1080.74c0-1.33,0-2.66,0-4,1.49.32,1.56,3.58,0,4Z"/>
      <path class="cls-1" d="M875.14,356.21c-.03-1,.04-2,0-3,1.5.14,1.5,2.86,0,3Z"/>
      <path class="cls-1" d="M875.14,362.2c0-1,.02-2,0-3,1.5.14,1.5,2.86,0,3Z"/>
      <path class="cls-1" d="M875.14,1090.73c.06-.99-.03-2,0-3,1.5.14,1.5,2.86,0,3Z"/>
      <path class="cls-1" d="M789.22,79.39l-.51.99-1.49-.99c.67.02,1.33-.02,2,0Z"/>
      <path class="cls-1" d="M876.14,830.9c-.48-.09-.94-.54-1-1,.47.12.93.53,1,1Z"/>
      <path class="cls-1" d="M797.22,79.39c.33.02.67-.03,1,0l-.5.98-.5-.98Z"/>
      <polygon class="cls-1" points="70.93 803.92 70.93 802.92 71.9 803.42 70.93 803.92"/>
      <path class="cls-1" d="M783.23,79.39c.33,0,.67,0,1,0l-.5.98-.5-.98Z"/>
      <path class="cls-1" d="M776.24,79.39c.33,0,.67,0,1,0l-.5.98-.5-.98Z"/>
      <path class="cls-1" d="M773.24,79.39c.33,0,.67,0,1,0l-.5.98-.5-.98Z"/>
      <path class="cls-1" d="M70.93,799.92c0-.33,0-.67,0-1l.98.5-.98.5Z"/>
      <polygon class="cls-1" points="70.93 788.93 70.93 787.93 71.9 788.43 70.93 788.93"/>
      <path class="cls-1" d="M875.14,195.31c-.02-.33.03-.67,0-1l.98.5-.98.5Z"/>
      <path class="cls-1" d="M875.14,198.31c0-.33,0-.67,0-1l.98.5-.98.5Z"/>
      <polygon class="cls-1" points="875.14 210.3 875.14 209.3 876.12 209.8 875.14 210.3"/>
      <path class="cls-1" d="M875.14,1083.73c0-.33,0-.67,0-1l.98.5-.98.5Z"/>
      <path class="cls-1" d="M870.64,540.09c.65.33.65.67,0,1v-1Z"/>
      <polygon class="cls-1" points="625.39 1242.62 625.39 1241.64 628.36 1241.12 626.87 1242.62 625.39 1242.62"/>
      <path class="cls-1" d="M853.66,1112.71c.65.33.65.67,0,1v-1Z"/>
      <path class="cls-1" d="M472.03,1239.63c.65.33.65.67,0,1v-1Z"/>
      <rect class="cls-1" x="7.99" y="699.99" width="1.99" height=".98"/>
      <rect class="cls-1" x="195.81" y="1264.63" width="1.99" height=".98"/>
      <path class="cls-4" d="M790.22,100.37v1c0,1.67-.01,3.33,0,5v1c.89,32.33.02,63.55,0,95.94l1,1c0,2.69-1.04,4.96-1.04,7.46,0,10.5.09,21.02.04,31.52v7.99c0,2.66,0,5.34,0,7.99v1c0,.67,0,1.33,0,2v1c0,1.33,0,2.66,0,4v16.99c0,2.33,0,4.67,0,7v1c0,.67,0,1.33,0,2,0,1.67,0,3.33,0,5,0,3.66,0,7.34,0,10.99v1c0,.67,0,1.33,0,2v3c0,.67,0,1.33,0,2v1c0,2.33,0,4.67,0,7v1c-.02,62.67.33,124.79.05,187.43l-1.67,3.38-27.02-3.54c-37.64-3.92-74.36-9.39-110.72-12.57-17.2-1.51-34.96-7.36-52.83-6.67-53.74,14.45-112.42,21.33-165.66,36.14-18.37,5.11-22.97,21.44-26.78,38.19-.35,1.54.67,1.75-1.96,1.49-11.06-28.02-52.48-24.15-55.84-56.58-.37-3.54-.18-7.19.01-10.74,3.76-2.85,8.18-3.62,11.3-7.68,6.5-8.47,6.07-20.5-3.11-26.76-7.34-5-12.45-1.44-19.31-4.67v-22.99c.63-.99,1.38-1.29,2.5-1.5,6.55-1.2,19.57.1,27.01.04,50.63-.41,101.94.19,152.83-.02,2.19-.03,5.67-1.53,6.32-3.73l-86.76-264.12h-99.4c-.62,0-1.39-1.48-1.45-2.4-.24-3.52,2.39-11.04,1.98-16.06-1.58-19.27-22.88-31.31-39.68-20.71-14.37,9.06-13.79,23.21-10.29,38.16-2.32.08-4.68-.09-7,0-1.66.07-3.34-.08-5,0-.66.03-1.33-.02-2,0h-3c-1.88.08-3.54.95-5,1l-1-1c-.66.02-1.33-.02-2,0-1.6.06-4.14-.62-5,1-.67.01-1.33,0-2,0-.14-1.5-2.86-1.5-3,0-3.65,0-7.34.04-10.99,0-.14-1.5-2.86-1.5-3,0-2.98-.03-5.45-.98-7.99-1h-1c-3.65-.03-7.34.04-10.99,0h-2c-.67,0-1.33,0-2,0h-1c-1.33.02-2.66-.03-4,0h-1c-2.32.05-4.67-.1-6.99,0h-1c-4.93.28-13.88-1.03-16.03,4.45-11.74,36.68-21.62,73.97-33.21,110.68-14.95,47.38-33.64,94.78-47.69,142.17-2.01,6.77-4.22,10.82,4.49,11.57,39.81,3.43,88.18-.71,128.92-.62,13.88.03,35.03-1,48,.53,1.45.17,2.57.12,3.45,1.55v24.48c-22.01-4.53-37.41,20.18-18.48,34.98,6.01,4.7,8.21.88,7.47,11.48-2.32,33.24-50.26,33.33-65.09,68.79-21.28,50.88,11.52,92.77,41.16,130.07,3.53,4.44,21.49,22.84,19.49,27.48-.97,2.26-7.32,7.22-8.2,9.67-.37,1.04-.41,7.39-.1,8.6.76,2.92,5.84,7.16,6.75,9.26.97,2.24-3.82,2.17-4.98,2.47l-3,1c-.98.11-2.01-.06-3,0-.14-1.5-2.86-1.5-3,0-1.33.03-2.66,0-4,0l-1.49-.99-.51.99c-31.34.47-63.2-1.6-94.41,0l-70.99-1.94c-.76-60.44-.55-120.98-.48-181.48.05-47.09-.06-94.97.05-142.37l1-3c0-.67,0-1.33,0-2,0-3.99,0-8,0-11.99,0-1,0-2,0-3,0-1.67,0-3.33,0-5,0-1,0-2,0-3,0-1.67,0-3.33,0-5s0-3.33,0-5,0-3.33,0-5c0-1,0-2,0-3,0-2,0-4,0-6,0-.67,0-1.33,0-2l-1-1c.01-4.21.99-9.13,1-13.99v-1c0-.67,0-1.33,0-2v-6c.02-5.98-.02-12,0-17.99v-5c0-1.67,0-3.33,0-5v-1c.15-59.71-.12-119.96.05-179.34.06-20.45-.95-41.17,1-61.45,176.98.16,353.99-.37,530.98-.1,48.95.08,99.96-1.93,148.85,0,6.11.24,12.47,1.74,18.83,1.18,1.68.55,1.32,2.57,1.6,2.86Z"/>
      <path class="cls-3" d="M788.22,1157.19c-.11.65-1.5,3.67-1.99,4.01l-9.45,1.54c-106.5-.68-213.58,1.2-319.69-1.1l-366.98-.61-1.39-1.72c-.67-9.61-1.62-19.46-1.87-29.05-1.27-48.93,1.37-97.34,1.1-145.9,3.28-61.9-4.54-128.61-.09-189.96.18-2.45.77-4.85,1.25-7.23l2.5-.99,166.09,2.27,1.03,2.47c-23.52,9.67-51.13,17.75-62.11,43.31-13.8,32.13,20.72,39.35,42.65,48.62l3.36,42.32c-.53,1.6-4.57,3.04-6.2,3.85-19.8,9.77-43.29,16.15-62.87,26.05-7.69,3.89-7.5,9.35.05,13.45,23.5,12.77,51.96,23.46,76.51,35.39,100.07,48.61,198.95,99.75,298.79,148.82,7.76,2.61,10.26,1.93,17.56-1.5,27.94-13.1,60.12-33.7,87.57-49.31,38.26-21.75,75.76-45.4,114.3-66.55,2.37-1.3,16.39-8.75,17.36-8.67.89.07,2.52.98,2.52,1.57v128.92Z"/>
      <path class="cls-3" d="M130.87,421.16c-.89-8.13,3.52-15.32,5.73-22.75,11.44-38.4,24.82-76.44,37.25-114.64,9.92-30.51,19.26-61.25,28.84-91.87.46-.64,13.39-1.33,15.59-1.4,39.38-1.3,82.05.62,121.96.82,12.42.06,24.91-1.05,37.25.12,9.78,34.28,17.01,69.23,25.58,103.83,9.33,37.63,21.45,77.04,29.23,114.67.39,1.89,2.43,11.22-.23,11.22H130.87Z"/>
      <path class="cls-3" d="M782.23,889.86c.11,1.38.12,2.68-.51,3.97-1.08,2.21-17.95,10.51-21.58,12.39-47.72,24.65-96.09,49.08-144.53,72.29-8.77,4.2-29.37,15.77-37.14,17.8-1.6.42-2.87.55-4.53.56-6.13.03-29.92-9.78-37.44-12.6-37.84-14.19-75.21-30.22-112.74-45.12l-143.05-53.79,68.88-24.04,7.32-.21c84.02,30.63,166.69,65.7,251.46,94.23,2.54.85,4.79,2.66,7.48,3.51,17.39,5.5,21.64.89,36.71-6.32,38.14-18.23,76.04-40.06,114.46-57.39,2.3-1.04,13.78-6.72,15.19-5.28Z"/>
      <path class="cls-4" d="M606.39,931.83l-213.72-80.51c-9.74-8.6-8.95-57.92-3.14-64.97,2.35-2.85,7.3-.92,10.28-.14,52.27,13.72,108.49,33.72,160.4,50.41,16.48,5.3,32.93,10.8,49.18,16.77l.98.98c-11.78,24.17-13.19,52.02-3.99,77.45ZM402.86,810.66l173.34,58.04c2.8.8,4.8-1.27,6.08-3.54.59-2.32-1.59-5.19-3.84-5.79l-172.51-57.21c-4.6-.43-5.67,5.76-3.07,8.5ZM551.28,883.03l-143.66-51.75c-4.94-1.78-6.58,5.43-3.76,8.36.64.67,5.14,2.47,6.47,3.01,42.64,17.51,91.15,28.77,134.08,46.75,6.24,1.16,7.96.55,6.87-6.38Z"/>
      <path class="cls-4" d="M268.46,923.15c23.34,9.8,48.16,19.5,72.19,29.18,66.55,26.8,132.49,55.16,199.22,81.54l1.58,1.39c-2.23,1.96-2.62,4.95-3.3,7.68-4.32,17.43-5.02,35.5.32,52.78l-277.73-128.4c-3.1-3.46,1.9-12.15,1.01-16.51l3.27.22,243.47,105.23c5.97,2.94,8.98-4.73,5.29-8.57-1.84-1.92-13.18-6.52-16.6-8.11-48.07-22.46-97.76-42.42-146.56-63.25-28.45-12.15-57.05-24.07-85.73-35.65l-1.16-17.85c1.61.03,3.17-.33,4.72.32Z"/>
      <path class="cls-3" d="M460.55,545.07c1.86-2.53,6.93-3.64,9.98-4.5,25.24-7.06,52.5-11.95,78.16-17.75,15.55-3.51,31.62-9.16,47.28-11.67,15.23-2.44,43.69,3.91,59.9,5.93,34.54,4.31,69.18,8.06,103.74,13.15,4.33.64,20.36,2.48,22.95,4.02,7.04,4.2-4.56,7.12-7.55,8.09-41.28,13.45-83.74,23.9-125.19,36.75l-189.27-34.03Z"/>
      <path class="cls-3" d="M543.46,772.93c-43.09-11.99-85.88-25.11-128.87-37.47-8.39-2.41-31.15-6.57-36.7-11.15-10.84-8.97-10.99-42.09-6.98-54.52,3.5-10.85,11.85-8.4,20.92-6.5,42.46,8.87,87.1,22.61,129.42,33.43,5.04,1.29,19.93,2.53,23.23,5.74,1.27,1.24,1.03,2.32.92,3.88-.45,6.47-4.41,15.49-4.98,23.09-1.09,14.58.29,29.27,3.03,43.5Z"/>
      <path class="cls-4" d="M643.36,666l-203.54-48.72c-11.93-10.75-13-37.78-6.13-51.58,3.12-6.26,5.8-4.74,12.24-4.5l192.44,34.36c1.52.95.56,1.23.28,2.24-1.08,4.01-2.98,7.79-3.84,12.19-2.61,13.37-2.57,29.19,2.09,41.98,1.78,4.9,4.3,9.33,6.45,14.03ZM608.16,608.28c-1.15-1.1-21.94-5.16-25.55-5.92-36.32-7.67-73.94-16.05-110.67-22.21-3.24-.54-23.14-3.65-24.24-2.94-2.5,3.85,1.08,6.35,4.6,7.59l152.62,31.32c3.95.41,5.66-5.51,3.22-7.84ZM617.14,637.27l-164.2-37.17c-7.4-1-8.32,5.54-1.62,7.69,49.92,9.43,99.06,24.26,148.86,33.96,3.34.65,16.97,3.56,18.14-.35.08-1.18-.33-3.41-1.18-4.12Z"/>
      <path class="cls-3" d="M318.29,698.6c-5.7,6.29-8.05,17.21-18.09,17.46-10.3.25-14.95-6.72-21.52-13.56-16.17-16.84-42.17-51.02-45.68-74.2-.85-5.64-1.05-31.84,3.74-34.76,2.33-1.42,22.78,3.02,27.5,3.51,8.35.85,18.63,1.65,26.97,2,16.14.67,36.76-1.96,51.99-.04,4.08.51,4.04,3.75,4.43,7.56,3.62,35.16-10.5,63.94-29.35,92.04Z"/>
      <path class="cls-3" d="M498.42,420.07c-1.72.73-3.49,1.01-5.36,1.14-5.41.39-36.35.63-39.28-.77-.91-.43-1.64-1.01-2.03-1.97l-58.74-224.13c-.55-1.13-.5-1.8.59-2.53,2.14-1.43,26.83-1.21,30.49-.51.8.15,1.56.16,2.01.99l72.32,227.78Z"/>
      <path class="cls-3" d="M786.13,643.11c.95,3.74-2.28,6.52-5.35,7.96-38.27,13.42-76.09,28.32-114.49,41.37-8.73,2.97-29.61,11.45-37.41,11.61s-14.04-3.1-21.26-4.8c-72.99-17.15-145.13-37.74-218.02-55.24.12-1.42,1.47-1.57,2.46-2.03,7.16-3.28,14.81-5.91,22.09-8.9,78.81,14.79,156.03,38.26,234.76,53.78,22.55-7.05,45.03-14.68,67.36-22.37,18.23-6.28,39.03-15.91,57.18-20.75,4.11-1.1,8.62-2.57,12.67-.63Z"/>
      <path class="cls-4" d="M780.23,917.85l-1.53,22.95c-58.86,30.81-117.83,62.46-177.24,92.52-9.92,5.02-30.74,17.36-39.98,19.99-1.67.47-3.2,1.08-4.59-.53-1.17-1.72,4.26-25.51,9.22-26.83,56.99-29.31,113.93-58.76,171.14-87.64,14.13-7.13,28.25-14.79,42.98-20.46Z"/>
      <path class="cls-4" d="M779.23,951.82c-.74,4.47,1.85,9.16-.99,12.98l1.99.99c-4.06-.55-.87,5.8-2.15,7.85l-50.52,26.86c-4.26,5.51-10.84,6.28-15.94,9.09-49.8,27.48-99.63,54.91-149.45,82.35l-3.67.74c-1.75-4.12-4.7-24.51-2.4-27.05l223.13-113.82Z"/>
      <path class="cls-3" d="M784.92,768.65c-3.02,3.55-19.46,8.5-24.66,10.8-40.35,17.82-82.33,38.15-123.63,53.21-8.01,2.92-10.81,4.17-19.46,1.95-22.87-5.89-47.57-16.27-70.5-23.42-49.48-15.41-99.28-30.01-149.07-44.26,2.5-6.87,8.74-9.67,15.62-10.9,60.27,16.2,120.45,35.11,180.4,53.17,10.05,3.03,33.56,12.81,42.25,12.79,5.29-.01,11.49-2.71,16.47-4.6,42.53-16.08,84.5-37.37,127.07-53.77,4.64-2.28,9.31.55,5.51,5.02Z"/>
      <path class="cls-3" d="M552.28,1010.95c1.07,1.84-4.21,11.54-5.83,12.38-3.37,1.74-26.76-9.91-31.98-12.02-73.16-29.52-146.39-59.03-219.78-87.95-11.96-4.71-24.49-7.5-35.71-13.75l-1.23-12.76,6.02.49c96.5,37.05,193.08,73.93,288.52,113.61Z"/>
      <path class="cls-4" d="M779.22,983.8l1.87,13.31c-.38,1.57-4.06,3.55-5.55,4.48-64.06,40.1-133.48,74.17-198.09,113.64l-7.3,2.35c-2.77-.8-10.24-15.42-8.7-16.86,5.25,1.43,4.56-1.61,6.56-2.9,1.98-1.27,7.2-2.51,10.07-3.96,65.27-33.08,127.31-73.13,192.5-106.24,1.37-.7,7.91-4.35,8.65-3.82Z"/>
      <path class="cls-3" d="M245.38,975.1c1.95-.22,6.52,1.25,8.63,1.94,13.99,4.59,32.46,14.21,46.37,20.57,82.64,37.78,163.72,79.14,246,117.69,2.85,1.66,12.13,14.94,5.57,15.45-1.66.13-14.01-5.9-16.83-7.19-58.29-26.69-115.45-56.7-173.26-84.52-32.23-15.51-65.06-29.95-97.14-45.73-4.47-2.2-17.63-7.85-20.47-10.5-1.24-1.16-2.9-3.65-2.39-5.36.63-1.28,2.17-2.21,3.53-2.36Z"/>
      <path class="cls-4" d="M780.23,815.91c-1.95,5.99-.97,13.61-1.99,19.49-.19,1.12-.5,1.91-1.59,2.41-28.56,13.4-57.27,26.51-85.69,40.2-18.51,8.91-36.54,19.22-55.23,27.7-2.79,1.26-12.08,6.32-13.84,4.14-2.59-7.17-2.71-15.58-.29-22.79l158.63-71.15Z"/>
      <path class="cls-3" d="M316.64,513.16c1.22,18.16.84,30.37,11.73,45.66,2.23,3.14,16.18,15.69,10.35,19.8-30.26,2.46-60.87,3.78-90.97-.57-3.46-3.91,22.78-20.9,25.22-22.95,3.52-2.96,8.35-8.36,11.16-12.1,7.12-9.48,10.56-20.29,12.58-31.9l19.92,2.06Z"/>
      <path class="cls-4" d="M782.23,692.99v16.49l-142.61,58.3c-1.51.43-2.55.04-3.06-1.52-.88-2.68-1.95-14.23-.69-16.31l146.37-56.95Z"/>
      <path class="cls-4" d="M778.23,847.88c-1.26,4.39,4.14,12.01.29,15.05l-145.14,71.5-1.97-.05c-2.52-2.05-8.76-12.09-6.38-14.65l153.21-71.86Z"/>
      <path class="cls-4" d="M781.19,586.1l1.45,16.06-82.95,27.71c-1.81,1.73-5.01,2.96-7.2,2.39l-.76,1.77c-2.03.21-9.12,1.74-12.13,2.66-4.51,1.37-27.01,11.05-29.14,9.23-.31-3.55-4.83-16.4-2.11-18.42l132.84-41.4Z"/>
      <path class="cls-4" d="M780.98,805.66l-154.3,71.04c-7.22,1.06,1.58-15.31,4.17-17.86,40.38-19.3,81.57-38.2,122.74-56.1,9.33-4.06,18.82-7.75,28.16-11.77,3.42.23.09,12.62-.77,14.69Z"/>
      <path class="cls-3" d="M336.49,843.05c.81,1.34.4,5.17-1.49,5.68l-50.8,15.21c-15.61-1.65-32.68-2.95-47.88-7.11-27.81-7.62-15.6-21.29,2.94-30.02,17.94,8.83,37.97,13.02,57.9,14.13,10.37.58,23.22-1.17,33.03-.07,1.19.13,5.94,1.6,6.3,2.18Z"/>
      <path class="cls-4" d="M781.23,560.08c-.07,2.96.54,16.84-1.66,18.03l-128.91,40.78-2.21-1.49c-.68-2.37,3.59-17.44,7.21-18.56l125.58-38.76Z"/>
      <path class="cls-4" d="M639.6,723.2l144.32-54.05c4.44-.44,2.29,15.52-3.29,15.74l-141.97,54.91c-6.39.99.08-13.41.95-16.59Z"/>
      <path class="cls-3" d="M622.38,796.92c-6.59-2.72-23.54-4.68-27.83-9.63-7.15-8.26-8.35-35.82-7-46.7.53-4.3,4.03-24.55,8.48-25.4,4.29,1.9,23.13,3.47,24.22,7.49.92,3.38-3.13,11.23-3.8,14.84-2.34,12.59-2.26,26.99.22,39.64,1.35,6.87,4.89,13,5.71,19.76Z"/>
      <path class="cls-3" d="M311.69,776.93c.2,6.68,2.38,14.46,4.71,20.77,2.16,5.83,10.83,19.2,10.8,23.74-.02,3.34-3.35,3.28-5.98,3.5-21.91,1.83-47.42-1.02-68.47-7.05-.93-1.2,16.58-8.75,18.5-9.97,12.15-7.72,16.64-18.01,20.4-31.56l20.04.56Z"/>
      <path class="cls-4" d="M777.97,720.15c4.06-2.23,5.64,5.91,5.11,8.13s-5.2,3.85-7.17,4.85c-40.4,20.59-86.59,35.5-127.75,55.12-5.61,2.73-7.17-6.99-8.77-10.89l1.66-2.25,136.92-54.96Z"/>
      <path class="cls-3" d="M560.13,706.09c2.21-.7,21.51,4.4,22.22,6.53-1.56,8.75-4.8,17.08-5.79,25.97-1.6,14.36-.6,29.54,4.71,43.05l-1.45,2.23c-1.74.44-16.98-4.47-18.9-5.92-8.09-6.09-9.39-39.64-8.46-49.48.36-3.81,4.22-21.3,7.66-22.39Z"/>
      <path class="cls-4" d="M785.22,610.04l1.58,9.01-122.19,42.72c-6.55,2.23-9.22-3.44-10.25-8.74l130.87-42.99Z"/>
      <path class="cls-4" d="M349.65,769.94c-.18-.12-1.04-3.53-.86-4.29.74-3.07,8.14-6.12,7.89-14.16-.27-8.92-10.36-10-10.11-16,.14-3.45,4.25-12.04,7.06-14.51,4.37,13.53,15.62,21.06,27.96,26.57l-10.46,22.4h-21.48Z"/>
      <path class="cls-3" d="M342.56,482.21c1.36,4.53-3.2,8.83-7.16,10.13-6.25,2.05-29.03,2.33-36.18,1.75-6.8-.55-15.44-1.38-16.58-9.48-.22-2.42,3.78-2.42,5.53-2.54,7.73-.53,16.2.31,24.06.09,4.22-.12,28.54-2.09,30.33.05Z"/>
      <path class="cls-3" d="M292.45,745.19c6-1.06,31.94-.94,36.59,1.89,1.3.79,2.53,1.71,2.66,3.36-.03,6.44-17.29,6.88-21.51,6.94-4.96.07-22.84.02-23.52-6.99-.25-3.32,2.94-4.7,5.78-5.21Z"/>
      <path class="cls-1" d="M88.91,439.15c-1.66-2.67-1.7-9.12,0-11.99,0,3.99,0,8,0,11.99Z"/>
      <path class="cls-1" d="M88.91,398.18c-1.64-1.01-1.61-5.05,0-6,0,2,0,4,0,6Z"/>
      <path class="cls-1" d="M282.72,171.33c-.66,1.58-4.34,1.58-5,0,1.66-.08,3.34.07,5,0Z"/>
      <path class="cls-1" d="M88.91,416.17c-1.58-.66-1.58-4.34,0-5,0,1.67,0,3.33,0,5Z"/>
      <path class="cls-1" d="M88.91,424.16c-1.58-.66-1.58-4.34,0-5,0,1.67,0,3.33,0,5Z"/>
      <path class="cls-1" d="M264.74,171.33c-.26,0-2.69.96-5,1,.85-1.62,3.39-.94,5-1Z"/>
      <path class="cls-1" d="M790.22,299.24c0-1.67,0-3.33,0-5,1.58.66,1.58,4.34,0,5Z"/>
      <path class="cls-1" d="M88.91,406.17c-1.58-.66-1.58-4.34,0-5,0,1.67,0,3.33,0,5Z"/>
      <path class="cls-1" d="M275.73,171.33c-.15,0-.64.9-1.48.93-.76.03-1.35-.94-1.51-.93h3Z"/>
      <path class="cls-1" d="M257.74,172.33c-1,0-2,0-3,0,.14-1.5,2.86-1.5,3,0Z"/>
      <path class="cls-1" d="M243.76,172.33c-1-.01-2,.01-3,0,.14-1.5,2.86-1.5,3,0Z"/>
      <path class="cls-1" d="M268.73,768.94c-.58.15-.99.78-3,1l3-1Z"/>
      <path class="cls-1" d="M790.22,316.23v-3c0,.16.94.7.94,1.5s-.94,1.33-.94,1.5Z"/>
      <path class="cls-1" d="M87.91,444.15c0-2.33,1-2.84,1-3l-1,3Z"/>
      <path class="cls-1" d="M262.74,769.94c-.99.06-2-.02-3,0,.14-1.5,2.86-1.5,3,0Z"/>
      <path class="cls-1" d="M255.74,769.94c-.67,0-1.33-.01-2,0l.51-.99,1.49.99Z"/>
      <path class="cls-1" d="M220.78,171.33c-.5,0-1.42,0-2,0h2Z"/>
      <path class="cls-1" d="M790.22,100.37c.26.27,2.05-.56,2.01.5l-2.01.5v-1Z"/>
      <path class="cls-1" d="M790.22,107.37v-1c0,.32,0,.71,0,1Z"/>
      <path class="cls-1" d="M202.8,171.33h1c-.44.02-.85,0-1,0Z"/>
      <path class="cls-1" d="M210.79,171.33h1c-.35,0-.69,0-1,0Z"/>
      <path class="cls-1" d="M231.77,171.33h1c-.33,0-.66,0-1,0Z"/>
      <path class="cls-1" d="M267.73,172.33c-1.07.04-.93-1-1-1l1,1Z"/>
      <path class="cls-1" d="M791.22,204.31l-1-1c0,.07,1,.26,1,1Z"/>
      <path class="cls-1" d="M790.22,251.28v-1c.66.47,0,.87,0,1Z"/>
      <path class="cls-1" d="M790.22,260.27v-1c0,.33,0,.67,0,1Z"/>
      <path class="cls-1" d="M790.22,263.27v-1c0,.33,0,.67,0,1Z"/>
      <path class="cls-1" d="M790.22,268.26v-1c0,.33,0,.67,0,1Z"/>
      <path class="cls-1" d="M790.22,281.26v-1c0,.33,0,.67,0,1Z"/>
      <path class="cls-1" d="M790.22,284.25v-1c0,.33,0,.67,0,1Z"/>
      <path class="cls-1" d="M790.22,292.25v-1c0,.33,0,.67,0,1Z"/>
      <path class="cls-1" d="M790.22,311.24v-1c0,.33,0,.67,0,1Z"/>
      <path class="cls-1" d="M790.22,319.23v-1c0,.33,0,.67,0,1Z"/>
      <path class="cls-1" d="M790.22,327.23v-1c0,.33,0,.67,0,1Z"/>
      <path class="cls-1" d="M88.91,338.22c0-.33,0-.66,0-1v1Z"/>
      <path class="cls-1" d="M88.91,344.21c-.67-.48,0-.87,0-1v1Z"/>
      <path class="cls-1" d="M88.91,348.21c0-.12-.67-.52,0-1v1Z"/>
      <path class="cls-1" d="M88.91,367.2c-.66-.48,0-.87,0-1v1Z"/>
      <path class="cls-1" d="M88.91,372.2c0-.13-.67-.53,0-1v1Z"/>
      <path class="cls-1" d="M88.91,375.19c0-.33,0-.66,0-1v1Z"/>
      <path class="cls-1" d="M88.91,390.18c0-.07-1-.12-1-1l1,1Z"/>
      <path class="cls-2" d="M402.86,810.66c-2.6-2.74-1.53-8.94,3.07-8.5l172.51,57.21c2.25.61,4.43,3.47,3.84,5.79-1.28,2.27-3.28,4.34-6.08,3.54l-173.34-58.04Z"/>
      <path class="cls-2" d="M551.28,883.03c1.09,6.93-.63,7.54-6.87,6.38-42.93-17.98-91.44-29.23-134.08-46.75-1.34-.55-5.83-2.35-6.47-3.01-2.82-2.94-1.18-10.15,3.76-8.36l143.66,51.75Z"/>
      <path class="cls-2" d="M608.16,608.28c2.43,2.33.72,8.26-3.22,7.84l-152.62-31.32c-3.52-1.24-7.1-3.74-4.6-7.59,1.1-.7,21,2.4,24.24,2.94,36.73,6.16,74.35,14.53,110.67,22.21,3.61.76,24.4,4.82,25.55,5.92Z"/>
      <path class="cls-2" d="M617.14,637.27c.85.71,1.27,2.94,1.18,4.12-1.17,3.91-14.8,1-18.14.35-49.8-9.7-98.94-24.53-148.86-33.96-6.7-2.14-5.78-8.69,1.62-7.69l164.2,37.17Z"/>
    </g>
  </g>
</svg>