<?xml version="1.0" encoding="UTF-8"?>
<svg id="Layer_2" data-name="Layer 2" xmlns="http://www.w3.org/2000/svg" viewBox="0 0 477.56 790.83">
  <defs>
    <style>
      .cls-1 {
        fill: #402cc3;
      }

      .cls-2 {
        fill: none;
        stroke: #f0e3d0;
        stroke-miterlimit: 10;
      }

      .cls-3 {
        fill: #ab4967;
      }

      .cls-4 {
        fill: #f0e3d0;
      }
    </style>
  </defs>
  <g id="Layer_1-2" data-name="Layer 1">
    <g>
      <path class="cls-4" d="M470.3,208.31c1.99-.83,5.24-.57,6.03-1.07,1.22-.76,1.28-11.88,1.07-13.66-.59-4.98-2.85-2.95-6.75-4.71-10.26-4.62-10.48-20.15.05-24.37,1.52-.62,5.93-1,6.15-1.22.6-.58.17-16.17-.52-16.66-.58-.41-4.38-.79-6.06-1.58-7.85-3.7-9.52-14.99-3.55-21.08.21-.21,2.96-2.46,3.15-2.54.69-.3,5.43-.37,6.32-.83,1.71-.88,1.69-15.56.63-17.03-.85-1.17-5.13-1.53-6.89-2.38-9.43-4.55-8.94-19.82.79-23.98,1.4-.6,5.9-1.02,6.1-1.26.54-.62.09-15.69-.63-16.23-.44-.32-3.84-.68-5.07-1.2-9.54-4.03-11.35-16.54-3.28-22.94,2.67-2.12,8.5-2.84,8.78-3.22.44-.61.5-13.73.22-15.03-.55-2.54-4.48-2.36-6.48-3.35-5.47-2.7-6.01-8.13-7.48-13.35l-17.13.03c1.07,19.69-26.29,20.97-25.66.04l-17.98-.04c3.3,16.29-20.08,21.41-24.39,6.67-.47-1.58-.69-6.6-1.22-6.97-.81-.57-16.88-.45-17.41.39-.56.88.36,6.26-2.26,10.02-5.97,8.6-20.1,6.62-22.54-3.66-.86-3.6,1.12-6.4-3.37-7-1.94-.26-13.9.02-15.04.79-.59.4-.68,5.03-1.09,6.55-1.94,7.09-10.78,10.99-17.46,7.71-5.68-2.78-7-9.52-7.93-15.07l-17.05.11c-1.02,2.07-.39,4.31-.87,6.5-2.54,11.54-19.7,12.83-24.04,1.6-.54-1.41-1.08-7.11-1.35-7.36-.86-.83-14.39-1.21-15.99-.71-2.23.7-1.27,4.4-1.72,6.47-2.09,9.52-14.99,12.86-21.58,5.69-3.31-3.59-3.05-7.35-4.14-11.76l-16.63.27c-.32,6.26-2.29,11.87-8.56,14.36-10.77,4.27-17.6-4.8-18.48-14.63l-16.61.27c-1.05,4.08-.59,7.28-3.5,10.68-6.37,7.43-19.88,4.95-21.86-4.88-.28-1.37-.08-5.78-.28-6-.69-.81-15.59-1.02-16.88.23-.86.83-.07,6.85-3.53,10.66-6.15,6.78-17.95,5.64-21.45-3.13-.65-1.63-1.14-7.34-2.1-7.72L56.25.14c-.59,4.41-.37,7.52-3.32,11.14-5.79,7.11-16.87,5.97-20.19-2.69-.77-2-.86-6.59-1.93-7.35-.88-.64-15.94-1.09-16.57-.55-.37.31-.6,6.4-2.52,9.21-3.17,4.63-6.49,3.42-8.96,5.23-1.62,1.19-1.57,15.88-.29,17.19.76.77,6.46,1.24,9.57,4.62,5.92,6.4,3.58,17.41-4.54,20.58-1.34.52-5.04.86-5.24,1.04-.61.55-.98,15.36-.52,16.51.37.95,4.89,1.36,6.59,2.14,12.54,5.75,7.05,25.52-6.59,25.58l-.1,15.92c3.84,1.4,6.38,1.21,9.58,4.18,9.08,8.41,2.08,23.09-9.56,22.93l.24,16.96c17.75.68,17.08,25.88-.18,26.76l-.09,16.54c12.7.36,18.29,16.36,8.23,24.08-3.01,2.3-5.74,1.92-8.47,4.08l-.31,15.5c9.97.6,16.25,8.48,13.07,18.44-.47,1.48-5.26,6.78-6.65,7.36-1.45.6-5.21.2-5.77,1.61-.43,1.1-.22,15.85.45,16.32.56.39,4.35.87,5.97,1.67,9.22,4.61,9.16,18.24.44,23.26-1.71.98-6.49,1.7-6.98,2.43-.43.65-.63,4.74-.61,8.66l37.34,10.42.16-295.03,1.37-1.37,398.8-.02,1.12,2.7c.07,135.33-.28,270.39-.82,405.53l38,10.6c-.01-4.3-.23-9.17-.65-9.52-1-.85-6.49-1.27-9.31-3.78-5.18-4.61-5.62-13.08-1.5-18.5,3-3.96,10.78-3.07,11.37-7.15.22-1.52.14-12.55-.29-13.41-.57-1.14-5.11-1.87-6.65-2.63-9.93-4.88-9.32-20.64.93-24.36,1.28-.46,5.23-.83,5.51-1.15.85-1.01.71-15.72-.18-16.5-.24-.2-3.52-.61-4.63-1.09-12.19-5.34-12.12-21.38.47-25.39,1.66-.53,4.42.32,4.81-1.73.23-1.18.19-13.96-.07-14.66-.41-1.1-5.11-1.86-6.64-2.63-10.64-5.38-9.02-21.62,2.86-24.76,1.07-.29,3.72-.11,3.86-.24.59-.58.19-15.78-.09-16.56-.65-1.8-2.25-.24-3.37-.35-.41-.03-6.16-3.96-6.72-4.57-5.8-6.37-4.22-18.11,4.18-21.36,4.75-1.84,6.03,1.1,6.57-5.44.12-1.55-.31-10.95-.83-11.78-.42-.67-4.78-1.43-6.11-2.07-9.74-4.63-10.47-20.09-.19-24.38Z"/>
      <path class="cls-1" d="M438.67,43.49l-398.8.02-1.37,1.37-.16,295.03,9.18,2.56c.6-7.19-.93-15.89-.03-22.82.26-2.02,1.24-3.68,2.28-5.37.73-1.19,9.71-12.3,10.52-12.4.64-.09,1.1-.22,1.38.4,1.33,2.89,1,7.22,1.9,10.56.42,1.53,2.58,5.06,2.49,6.19-.02.29-.83.36-1.05.8-2.85,5.81-6.37,12.8-10.44,17.81-1.43,1.75-3.58,4.64-5.9,5.15l7.57,2.11c1.32-1.33,2.41-2.49,2.93-3.2,1.84-2.52,3.86-6.01,5.43-8.76.97-1.7,3.63-8.29,4.12-8.87,1.21-1.43,3.36,1.91,3.64,2.93.57,2.1-4.15,10.22-5.55,12.52-1.29,2.14-2.95,4.61-4.69,7.02l10.08,2.82c1.75-5.37,4.62-16.73,5.9-18.19.98-1.13,3.11-1.09,4.17-.2.97.82.22,3.2-.03,4.33-.87,3.92-2.77,9.57-5.3,15.38l7.84,2.19c1.58-4.7,4.27-9.64,5.9-13.49,2.58-6.08.95-7.72,8.66-9.89,10.98-3.1,3.26,3.89.3,8.21-1.4,2.04-3.5,3.87-4.01,6.64-.57,3.1.55,8.16-.23,10.67-.08.24-.24.47-.46.69l8.41,2.35c8.79-21.88,22.92-40.6,40.99-56.72,1.86.77,2.97,3.09,2.16,4.93-.33.77-10.15,9.84-11.95,11.79-10.96,11.8-19.73,26.06-25.83,41.5l8.32,2.32c.64-1.78,1.27-3.39,1.82-4.67.63-1.49,3.68-8.01,4.85-8.29.74-.18,7.83,2.61,10.28,2.68,4.17.11,11.14-3.75,12.53,1.61,1.02,3.92,1.68,10.43,1.67,17.36l8.18,2.29c.07-9.94-.59-19.86-2.02-29.66-1.96-13.37-2.8-5.54-8.71-1.22-4.14,3.04-9.98,4.83-14.86,2.41-1.87-.93-4.18-3.18-1.07-4.15,3.1-.96,5.73.6,10.01-1.45,1.3-.63,9.74-7.47,10.57-8.54,3.49-4.53-1.06-8.07-.21-12.74.21-1.14,3.14-5.66,4.33-4.67.71.59,3.81,15.7,4.21,17.89,2.43,13.27,3.67,28.25,3.52,43.74l13.78,3.84c10.02.06,20.05-.04,30.08,0,1.41,0,2.77.59,4.32.6,11.06.08,22.29-1.01,33.33-.49,4.11.19,2.66,8.04-.04,8.63-11.74.6-23.41.55-35.08.37l42.68,11.91c1.44-12.62,3.52-24.72,6.05-35.74,7.75-33.82,30.49-95.47,55.65-119.51,2.32-2.22,7.22-4.73,5.43.52-1.19,3.5-11.1,15.57-13.9,19.93-19.75,30.83-34.97,69.62-42.37,105.52-2.09,10.15-3.78,20.49-4.95,30.93l6.87,1.92c2.02-19.12,5.72-37.61,10.63-54.14,11.62-39.13,29.72-76.45,54.62-108.56,1.21-.46,15.58,4.33,16.1,5,1.26,1.62-4.4,8.13-5.32,9.63-14.59,23.75-29.26,47.53-39.19,73.76-9.02,23.82-15.12,51.47-17.7,79.65l7.88,2.2c5.94-51.57,26.73-101.12,53.72-145.99,1.57-2.61,6.5-11.05,8.45-12.55,7.29-5.64-1.65,13.12-2.26,14.38-6.93,14.39-16.68,28.19-23.93,42.64-15.06,30.03-25.7,66.6-29.42,103.35l12.58,3.51c.13-.54.33-1.01.6-1.4.84-1.21,6.24-3.11,7.52-2.7,1.47.48,2.65,5.29,1.93,6.42-.1.15-.34.24-.66.3l11.23,3.14c-9.4-21.63-13.91-45.44-11.58-66.39.33-2.93,3.27-9.04,4.34-3.81,1.16,5.65-.35,16.01.03,22.35,1.12,18.95,5.69,35.03,13.15,49.51l13.85,3.86c-4.02-1.93-7.02-5.32-7.37-10.52,6.96,2.13,12.64,5.63,20.46,5.5,3.3-.05,11.64-3.85,9.44,2.85-.58,1.77-7.63,3.82-9.59,4.05-2.01.23-4.13.24-6.22,0l18.32,5.11c3.5-3.39,10.15-12.91,7.83.09-.14.77-.33,1.39-.58,1.93l8.97,2.51c.29-8.66.73-17.18,1.01-24.5.05-1.38-1.82-5.59.8-5.73,1.28-.07,8.81,3.85,7.79,6.42l-.02,26.48,22.78,6.36c2.12-2.21,5-5.11,5.75-4.33.58,1.74-.01,3.66-1.27,5.58l10.31,2.88c.54-135.14.89-270.2.82-405.53l-1.12-2.7ZM134,331.89c-1.14-1.48-.96-2.1-.1-3.58,1.09-1.9,6.39-6.98,8.21-3.99,3.3,5.39-4.29,12.52-8.11,7.57ZM309.37,386.72c-.14-1.56,1.22-12.78,3.78-11.11l1.67,14.17c-2.26-.07-5.19-.27-5.45-3.06ZM313.99,405.64c-5.32.2-3.67-7.12-2.91-7.6.34-.21,4.45-.2,4.76,0,.7.45,3.04,7.41-1.85,7.6ZM78.89,299.21c-3.39,5.41-.55,10.88,3.3,14.92,4.28,4.47,7.41,4.57,13.32,6.06.6,1.44-3.89,3.24-4.77,3.42-12.87,2.64-25.4-14.35-20.01-26.56,3.73-8.42,10.36-12.04,19.06-7.71,9.71,4.83,6.01,18.86-.86,16.72-3.93-1.23-.99-4.64-1.13-5.93-.45-4.08-6.27-5.15-8.91-.92ZM143.21,285.51c-1.32,3.77-8.13,12.69-10.84,16.16-3.49,4.46-7.56,8.27-11.21,12.54-5.39,6.29-5.36,13.11-14.32,6.23-3.88-2.98-5.8-7.23-5.34-12.25.79-8.7,15.51-11.05,13.63-1.66-.59,2.93-4.88,3.21-6.03,4.89-2.11,3.1,2.78,5.24,5.71,3.53,1.22-.72,9.68-12.35,11.02-14.36,3.12-4.67,8.57-12.35,8.42-18.03-.12-4.73-8.32-20.18-13.33-19.95-.19.01-3.42,1.01-3.53,1.16-1.52,2.02,6.21,9.38,7.25,11.99,2.49,6.25-2.22,15.18-8.56,16.99-2.98.85-10.04,1.21-12.91.13-2.68-1.01-4.86-7.04-7.93-8.99-2.03-1.29-8.42-1.5-7.86-3.98.16-.68,7.09-5.65,8.12-6.11,2.84-1.27,11.28-2.79,12.81.83,2.54,6.03-2.19,3.71-5.57,4.78-5.87,1.85-.89,6.71,2.89,7.18,8.96,1.1,15.35-9.53,7.34-16.07-1.34-1.1-6.18-2.7-6.01-3.8.12-.68,9.73-7.06,11.18-7.93,1.77-1.07,8.13-5.24,9.53-4.65,1.06.44,8.13,10.41,9.19,12.13,2.75,4.5,8.16,14.12,6.35,19.24ZM186.5,367.81c-.07,2.23-6.33,1.3-6.9-.22-1.03-2.78-.77-9.27-1.24-12.4-4.92-32.49-18.11-67.06-35.11-95.05-2.06-3.39-5.53-6.36-6.29-10.62,2.46.18,5.13-4.27,7.37-2.19,9.6,16.24,18.21,33.1,25.18,50.68,6.95,17.53,12.74,36.27,15.39,55,.57,3.99,1.72,11.06,1.6,14.8ZM210.51,368.66c-6.55,3.01-1.88-4.41-5.25-5.56-9.84-3.37-6.17,5.16-7.7,6.25-.72.5-2.39.44-3.05-.31-.77-.88-1.52-15.93-1.94-18.79-4.81-32.55-17.97-62.83-32.4-92.02-1.12-2.27-7.72-13.35-7.84-14.56-.05-.55.08-.63.4-1,.51-.61,13.52-5.56,14.67-5.6,2.13-.09,1.69,1.14,2.54,2.38,18.17,26.5,39.73,90.31,41.21,122.23.07,1.52.49,6.46-.64,6.98ZM179.25,192.75c-.3-.01-1.85-1.23-2.17-1.65-3.67-4.85-.81-14.65,1.43-19.82.26-.62,3.75-8.08,4.82-6.9.58.64-3.5,14.39-3.75,16.71-.16,1.47.46,11.7-.33,11.66ZM188.62,201.11c4.43,3.37.8,13.33-3.41,13.99-3.14.5-4.38-.54-3.09-3.65.59-1.43,6.24-4.47,2.31-6.41-7.74-3.82-13.16,17.09-.35,16.61,6.41-.24,6.87-4.04,9.99-7.49,2.83-3.11,2.45,3.01,1.54,5.34-6.05,15.39-30.4,4.52-22.75-11.3,1.83-3.78,12.82-9.32,15.76-7.09ZM348.48,194.29c-7.71-2.67-8.55.54-13.7-8.12-7.59-12.77-5.19-28.04-7.47-42.19-.74-4.57-3.6-12.01-3.72-15.98-.07-2.37.87-3.09,2.9-1.76,3.3,2.17,5.82,22.86,6.32,27.51.98,8.94-.22,30.14,8.55,35.11,5.34,3.01,10.77-.32,15.47,6.36,3.32,4.73,4.86,16.04-1.09,19.37.81-7.83,1.85-17.16-7.26-20.3ZM343.97,203.16c-.66-1.09-4.32-3.31-1.03-3.87,4.28-.72,7.63,5.47,7.85,9.11.23,3.81-2.11,11.06-5.41,13.28.27-7.1,2.59-11.91-1.41-18.52ZM288.94,227.14c-.78,1.33-19.11,9.47-21.84,10.39-7.12,2.39-14.09,3.43-21.41,4.53-11.39,1.71-17.95,1.91-29.62-1.54-6.63-1.97-15.23-5.93-19.09-11.73,6.33-4.03,6.87,1.52,11.62,4.46,21.28,13.2,54.29-6.28,68.85-22.47,3.29-3.65,7.05-10.48,10.05-13.31,1.53-1.44,3.85,4.19,3.8,5.4-.06,1.78-3.99,6.65-4.29,11.46-.19,3.08,2.26,12.25,1.93,12.81ZM204.39,241.01c23.13,12.51,50.03,10.14,73.53-.85,2.48-1.16,13.84-8.02,14.85-8.12,1.88-.18,4.26,2.95,2.72,4.96-1.58,2.08-18.85,10.86-22.2,12.18-20.27,7.96-62.68,9.91-78.51-7.56-.88-.98-5.81-7.38-2.97-7.93.71-.14,10.74,6.32,12.58,7.32ZM287.55,161.91c-.76-7.36-.36-15.52-1.11-22.9-.49-4.84-2.71-11.5-2.75-15.83-.04-4.67,2.65-3.36,4.13-.28,5,10.4,3.98,35.08,5.81,47.67,1.45,10.01,6.96,32.11,15.55,37.92,1.36.92,6.48,2.57,6.67,2.88,2.41,3.78-4.84,2.48-6.86,1.68-13.14-5.16-20.13-38.45-21.44-51.14ZM314.25,199.6c1.05,1.07,7.41,4.34,4.02,5.63-5.28,2-11.41-8.45-13.19-12.28-7.59-16.3-6.61-36.28-8.88-53.87-.35-2.63-3.75-16.58-3.21-17.27.08-.08,1.96-.33,2.26-.26,2.66.65,3.48,6.51,4.04,8.98,4.1,18.25,1.98,55.86,14.96,69.07ZM302.8,124.83c.39-2.26,3.19-1.75,4.31.05,1.75,2.78,3.8,16.74,4.36,20.75,1.92,13.65,1.23,30.43,7.24,42.97.61,1.28,5.08,7.06,4.84,7.43-.09.12-2.74,1.04-2.92,1.01-.44-.08-2.87-2.6-3.36-3.18-9.88-11.75-8.9-39.6-11.33-54.7-.51-3.14-3.49-12.33-3.14-14.33ZM313.7,219.79c2.4.13,11.63-2.3,10.23-5.62-.05-.12-.86.07-.98-.92-.86-7.11,5.67-4.87,6.03.59.38,5.88-11.49,12.29-16.48,11.54-2.24-.34-5.05-2.16-6.4-3.97-5.46-7.29,4.64-1.77,7.6-1.62ZM316.92,145.09c-.86-5.41-4.06-14.25-4.25-18.72-.11-2.57,1.42-3.3,3.27-1.58,2.07,1.93,4.68,15.3,5.27,18.74,2.7,15.84,1.46,32.25,9.52,46.68.48.87,3.16,2.97,2.09,4.18-.24.28-3.6-1.14-4.2-1.52-9.38-5.91-10-37.11-11.7-47.78ZM331.49,114.74c-1.38.75-15.45-1.13-16.69-1.92-.65-.41-.53-.87-.43-1.52.22-1.48,3.22-7.73,4.07-9.61,3.81-8.33,8.88-16.25,12.86-24.51,3.77.57,22.1-1.11,24.2.39.41.29.81.76.71,1.3l-24.72,35.87ZM304.77,110.93c-2.45,1.51-8.51-.91-11.51-1.11-2.43-.17-15.27.37-16-.09-.99-.62.43-4.81.75-5.92,2.54-8.92,6.68-17.58,9.9-26.25l28.29-.52,3.84,1.09-15.27,32.8ZM267.92,107.37l-40.25.1-8.74-26.45.38-3.18c19.06-.61,38.07-.95,57.04-.23l1.38.83-9.81,28.93ZM252.89,118c4.61.22,18.57,1.16,22.26,2.73.23.1,1.63,1.75,1.77,2.14,4.82,12.99,3.74,29.26,5.24,42.8.48,4.28,3.78,15.18,3.58,18.01-.38,5.32-11.89,21.28-15.92,25.46-12.19,12.59-44.28,31.19-60.05,16.39-9.89-9.3-18.63-50.4-18.82-64.12-.02-1.16.26-8.71.57-9.04.29-.3,4.08.4,4.83-.08.62-.39.35-5.19,1.71-3.74.4.43.68,3.24,2.23,4.6,6.73,5.87,7.6-2.01,9.74-4.26,1.37-1.44,2.06.19,1.87,1.75-1.04,8.22-8.12,23.86-4.83,31.75,1.42,3.4,7.57,4.5,10.85,4.19,1.61-.16,3.07-1.68,5.02-1.96,4.46-.64,9.63,2.7,12.78-2.49,1.34-2.21.98-7.16-1.93-6.8-1.83.22-1.51,2.31-3.26,2.7-2.38.52-5.33-.84-8.13-.5-3.32.4-10.37,7.09-10.14-1.94.26-10.24,8.54-28.07,6.28-36.87-2.37-9.26-17.29-8.27-24.29-6.54v-11.19l.91-.73c18.96-1.42,38.69-3.16,57.73-2.26ZM192.16,140.46c.23-.39,6.34-3.06,7.42-3.22,3.01-.46,11.02.47,13.07,2.72.8.88,1.18,3.1-.21,3.62-.82.31-8.42-1.8-11.39-1.59-1.74.12-8.54,2.64-8.98,2.2-.13-.13-.12-3.37.09-3.73ZM218.56,108.2l-29.76,2.41-18.31-29.16-.79-4.39,38.73.82c1.11.52,6.01,14.35,6.79,16.68.79,2.35,4.46,12.05,3.34,13.64ZM184.56,186.86c-.06-1.94.57-3.71.97-5.56l2.17,12.55c-1.94,1.88-3.1-5.86-3.14-6.99ZM217.7,361.68c-5.58-40.75-15.72-81.43-35.91-117.44-1.11-1.99-6.26-8.04-5.06-9.75,1.93-2.74,4.79-1.67,6.53.64,9.44,12.59,20.32,41.82,25.18,57.22,7.87,24.87,13.82,51.2,15.82,77.23-8.12.89-5.84-2.62-6.56-7.9ZM221.81,316.08c-2.01-7.39-6.17-17.87-7.27-24.93-.48-3.13,1.74.16,2.32.71,2.46,2.33,20.87,20.89,20.95,22.42.06,1.05-11.36,12.56-12.23,12.71-2.15.37-3.28-9.12-3.77-10.91ZM243.19,320.53c1.14-.27,3.76,2.53,4.84,3.45,1.56,1.35,5.64,5.06,5.17,7.02-.07.3-4.03,3.2-4.74,3.85-1.17,1.08-2.76,4.43-4.7,4.08-1.27-.23-8.59-8.04-8.49-8.82.13-1.01,6.87-9.34,7.92-9.58ZM231.07,357.02c-1.85,0-4.63-17.72-3.76-20.25,1.2-.51,2.17-.29,3.29.27,1.46.75,6.7,7.1,6.8,8.81.12,2.09-5.05,11.17-6.33,11.17ZM247.99,369.58c-2.18,0-15.53.58-16.1,0-.17-.18-.03-2.19.29-2.71l9.85-14.73c.77-.13,8.49,9.46,8.74,10.33.45,1.59-.91,7.11-2.78,7.11ZM252.94,352.09c-.28-.05-3.27-3.09-3.52-3.59-2.49-4.96,7.11-10.55,7.57-10.02.12,1.95-2.01,13.96-4.05,13.61ZM260.58,325.35c-.79-.15-10.82-10.52-10.71-11.68.18-1.96,13.25-12.03,15.65-14.14,1.55-1.36,4.72-6.67,6.66-2.92-1.57,2.67-9.85,29.06-11.6,28.74ZM285.92,268.9c-1.91,3.6-11.37,12.65-14.74,15.82-8.68,8.17-18.46,15.3-27.02,23.63-8.37-8.98-17.95-17-26.42-25.82-1.7-1.76-8.84-9.09-8.78-10.9.02-.84-.16-.95.83-.83,25.84,5.16,53.24,6.38,77.2-6,.16,1.54-.37,2.79-1.07,4.1ZM301.85,245.55c-7.72,10.86-35.62,19.92-48.54,21.3-10.58,1.14-42.01-.62-50.14-7.7-1.32-1.15-4.75-6.21-1.48-6.81.81-.15,12.92,5.81,15.33,5.78,24.27,5.05,47.88,2.23,69.91-8.94,3.26-1.66,13.3-8.87,15.74-9.38,3.54-.74.11,4.46-.82,5.75ZM307.91,234.04c-.83-.33-5.78-3.67-6.73-4.44-5.76-4.67-9.35-12.51-7.08-19.92,5.94,1.24,2.62,7.63,5.75,13.06,9.47,16.45,39.46,6.13,35.33-11.33-1.21-5.11-7.03-6.29-7.06-8.01-.1-4.64,10.18-1.09,11.56,5.7,3.3,16.3-17.31,30.71-31.77,24.94ZM340.5,234.45c-1-3.27,10.53-5.61,12.51-6.49,15.36-6.79,18.6-37.42,1.64-43.66-5.47-2.01-9.3.6-12.11-6.44-3.04-7.57-2.13-23.67-3.25-32.77-.57-4.58-4.02-17.01-3.72-20.22.12-1.4,2.2-4.37,3.03-5.74,9.19-15.13,21.77-29.89,30.79-45.06.51-.86,2.65-3.88,2.17-4.64l-219.86-.55c-.17.94.22,1.58.62,2.37,4.46,8.65,14.88,21.14,20.66,30.09,2.4,3.71,12,17.15,12.5,20.24.86,5.24-.86,16.91-2.18,22.3-4.2,17.02-22.91,37.27-9.28,53.99-10.58,7.01-12.16,19.96-4.32,29.81-36.57,11.96-69.6,30.58-99.3,54.85-6.42,5.24-13.79,13.64-20.16,18.04-1.83,1.27-2.39,1.23-2.78-1.09-1.22-7.43.12-21.75.05-30.06-.29-35.16.37-70.66.55-105.83.19-36.82-.19-73.71-.03-110.55l381.36-.27,1.09,232.76c-1.24,1.29-9.52-6.76-10.96-7.86-2-1.52-10.51-6.68-10.85-8.24l-.55-68.77c-.18-2.41,1.76-2.48,2.84-4.23,5.07-8.19-4.46-10.75-4.53-14.3-.03-1.4,2.21-5.15,2.78-7.1,4.52-15.42,3.73-37.88-3.89-52.33-4.55-8.64-12.69.61-16.1,5.59-7.05,10.31-8.74,32.98-5.13,44.57.74,2.35,3.86,7.52,3.87,9.26,0,2.48-4.3,5.87-4.45,9.82-.15,4.2,2.87,5.81,3.34,9.27l-.56,54.31-45.79-21.07ZM419.41,320.9c-.93-2.97-2.13-6.61-3.97-9.13-1.58-2.16-6.98-5.65-7.58-7.14-.42-1.03-.29-4.57.26-4.9,1.06-.65,8.47,5.4,9.53,6.55,5.95,6.45,8.07,16.82,8.49,25.35.07,1.45.28,8.76-.53,9.34-3.76,2.65-9.18-10.3-11.27-12.82-3.49-4.18-7.57-3.85-6.8-10.72.55-4.88,4.79-.21,6.81,1.7l5.77,6.24c.85-.67-.43-3.57-.71-4.47ZM411.02,281.8c.93.06,8.22,5.13,9.4,6.15,2.9,2.5,6.21,5.84,5.73,9.89-.56,4.7-5.86-2.34-7.66-3.85-2.08-1.74-7.91-5.45-8.78-7.59-.59-1.47-.95-4.74,1.31-4.6ZM401.59,330.59c.24,3.66-8.17,1.24-8.74-1.14.15-41.64.83-83.2.53-124.96-.16-3.67,4.37-3.32,7-3.41,4.04-.14,1.76,3.45,1.71,6.12-.71,41.12-.81,82.28-.5,123.39ZM392.09,187.09c.79-.71.68-1.49,2.23-1.86,5.64-1.34,14.85,4.35,9.16,9.17-5.62,4.76-19.34-.1-11.39-7.31ZM402.91,172c-1.4,4.25-3.34,9.94-8.2,4.97-6.07-6.2-4.83-33.03-2.14-40.96.89-2.62,4.81-10.48,8.34-8.62.79.42,2.84,7.26,3.14,8.59,2.31,10.29,2.15,25.94-1.14,36.02ZM380.74,291.37c.66,1.79,7.59,12.49,4.18,13.27-6.82-4.97-12.14-13.36-11.12-22.04.36-2.99,5.79-16.9,8.5-17.72,6.02-1.83-1.09,12.36-1.63,14.22-1.49,5.21-1.82,7.19.07,12.27ZM350.97,281.58c1.87-4.84,6.9-13.31,9.75-17.94.79-1.28,4.83-7.93,5.33-8.3,3.42-2.53,2.3,2.41,1.58,4.16-3.16,7.64-9.11,15.41-10.11,24.27-.62,5.42.72,6.61,3.39,10.79,4.64,7.29,16.37,19.56,19.29,26.81,2.35,5.8-1.54,4.12-4.26.99-4.89-5.62-22.2-28.14-24.5-33.89-1.13-2.84-1.65-3.81-.47-6.89ZM346.19,296.44c1.49.01,10.82,11.96,12.51,13.96,3.1,3.69,6.51,7.21,9.25,11.22,3,4.38,10.79,14.35.02,12.52-4.21-5.64-10-9.88-14.76-14.96-2.62-2.79-10.6-11.08-10.44-14.64.07-1.57,1.68-8.12,3.42-8.1ZM343.18,339.83c.4-5.64.31-11.29,1.07-16.94.11-.81.05-1.36.85-1.87,1.62,1.66,7.29,7.36,7.23,9.45l-10.22,32.02c-.59-7.63.54-15.11,1.07-22.66ZM360.36,413.26c-2.67.1-20.58-5.13-22.44-6.75-2.29-2-6.13-17.27-6.69-20.87-2.05-13.34-2-57.67,3.23-69.27,1.81-4.01,2.89-2.83,2.76,1.11-.69,20.12-3.32,42.04-1.66,62.19.26,3.16,3.8,19.33,5.5,21.24,1.19,1.33,5.12,1.27,5.4.04.09-.37-2.18-5.53-2.18-6.54v-8.46c4.05,6.41,6.96,13.84,11.33,20.05,1.02,1.45,2.72,3.49,3.92,4.82.73.81,4.26,2.33.83,2.44ZM375.97,415.1c-23.97-16.89-32.48-42.93-22.52-71,.72-2.05,2.91-9.18,5.45-8.23.19.07,1.76,2.01,1.75,2.8-.02,1.35-2.62,8.66-3.11,11.16-4.46,22.88-2.4,40.74,15.56,56.82,2.82,2.53,10.25,5.88,9.97,10.14-.28,4.11-5.25-.39-7.1-1.69ZM379.21,393.05c-3.12,2.02,4.45,7.67,4.63,9.81-6.51-.8-17.39-20.41-6.16-20.06,4.7.14,14.65,5.38,19.79,4.79,1.97-.23,3.22-3.21,1.34-4.61-1.76-1.3-17.56-5.89-20.67-6.61-3.5-.81-6.26,1.18-6.08-4.33.12-3.94,4.38-6.3,7.91-6.22,4.52.1,17.69,6.11,20.25,5.73,2.37-.36,2.46-3.75.11-5.37-2.05-1.41-15.94-5.92-18.73-6.37-3.87-.62-12.52,1.46-7.22-6.78,5.91-9.2,26.74,5.3,30.33,1.68,4.83-4.87-7.55-6.39-9.82-7.1-7.13-2.25-6.87-3.23-14.02-2.83-4.77.27-10.53.37-5.18-5.72,5.94-6.77,23.75-1.89,31.21.9,11.52,4.3,14.23,9.05,14.84,21.17.48,9.55-1.58,40.3-12.69,43.5-8.46,2.44-27.81-12.9-29.84-11.58ZM423.11,432.06c-.21.2-.66.57-1.27,1.05-.24.19-.51.4-.79.63-.51.4-1.08.84-1.68,1.29-.15.12-.3.23-.46.35-.82.63-1.69,1.28-2.55,1.91-.38.28-.75.55-1.12.82-.37.27-.73.54-1.08.78-.18.13-.35.26-.52.37-1.57,1.12-2.87,1.99-3.4,2.23-.05.02-.09.04-.13.05-.04,0-.07.02-.09.02-1.76-.03-1.81-6.7-.87-7.9.45-.58,8.1-4.7,9.83-6,2.27-1.72,4.31-3.69,6.35-5.68.79-.76,1.02-3.14,2.29-.69,2.39,4.62-1.55,7.98-4.51,10.77ZM425.56,412.41c-2.27,2.87-13.04,12.27-16.55,11.16-1.25-.4-1.83-6.51-.16-7.95,2.4-2.07,7.49-3.96,10.48-6.72,2-1.85,4.93-6.08,6.26-8.47,1.13-2.03,1.04-6.06,3.57-4.14,4.14,3.15-1.12,12.97-3.6,16.12ZM125.25,364.16l11.87,3.31c-3.46-3.28-8.17-4.69-11.87-3.31Z"/>
      <path class="cls-4" d="M430.48,285.54c-1.24,1.28-9.51-6.77-10.96-7.86-2-1.52-10.51-6.68-10.85-8.25l-.56-68.76c-.18-2.41,1.76-2.49,2.85-4.24,5.07-8.18-4.46-10.74-4.53-14.3-.03-1.4,2.21-5.15,2.78-7.1,4.52-15.42,3.73-37.88-3.89-52.34-4.55-8.63-12.69.61-16.1,5.59-7.05,10.31-8.74,32.98-5.13,44.57.73,2.35,3.86,7.53,3.86,9.26,0,2.49-4.3,5.87-4.44,9.82-.16,4.2,2.87,5.82,3.33,9.27l-.56,54.31-45.79-21.07c-.99-3.28,10.53-5.62,12.52-6.49,15.36-6.79,18.6-37.42,1.63-43.66-5.46-2.01-9.29.59-12.11-6.44-3.03-7.57-2.12-23.67-3.25-32.77-.57-4.58-4.02-17.01-3.72-20.22.13-1.39,2.21-4.36,3.04-5.73,9.19-15.13,21.77-29.89,30.78-45.06.51-.86,2.66-3.88,2.17-4.64l-219.86-.55c-.17.94.22,1.59.62,2.37,4.46,8.65,14.88,21.14,20.66,30.09,2.4,3.72,12,17.16,12.5,20.24.86,5.25-.86,16.92-2.19,22.3-4.2,17.03-22.91,37.27-9.28,53.99-10.58,7.02-12.16,19.97-4.32,29.81-36.57,11.96-69.6,30.58-99.3,54.85-6.42,5.24-13.79,13.64-20.15,18.04-1.83,1.27-2.4,1.23-2.78-1.09-1.22-7.43.12-21.75.05-30.06-.29-35.15.37-70.66.55-105.83.19-36.82-.2-73.71-.03-110.54l381.36-.27,1.09,232.76ZM103.14,67.79l-26.73-.55v8.46c0,2.5,9.1-.02,9.27,2.73-.98,14.8,1.31,31.26.02,45.86-.69,7.86-7.32,16.13-13.94,7.36-4.02-5.33-.83-14.37-2.58-16.25l-9.3-.69c-.38.04-.93,1.27-.93,1.38v10.92c0,23.76,35.19,25.99,37.63-.56,1.29-13.96-.06-31.43.04-45.85.02-2.25-1.68-2.8,1.27-3.64,1.3-.37,5.25.63,5.25-.7v-8.46ZM138.61,113.63c-3.6-12.21-18.94-13.15-26.1-3.45s-1.32,20.63,3.63,29.47c6.67,11.89,15.88,22.31,22.79,34.05,1.74.33,4.4-5.98,5.45-7.63,7.73-12.13,25.36-32.54,24.25-46.73-1.34-17.15-21.99-21.95-28.9-6.05l-1.12.34ZM80.22,163.84c-2.18-2.23-2.32-5.22-5.27-7-4.15-2.5-10.6-1.23-13.51,2.67-9.6,12.9,11.99,32.59,17.27,43.77.51,1.42,1.81,1.18,2.62.15,6-10.7,25.91-31.43,17.35-44.14-4.7-6.97-17.07-3.48-18.47,4.55Z"/>
      <path class="cls-4" d="M194.25,121l.91-.73c18.96-1.42,38.69-3.16,57.73-2.26,4.61.22,18.57,1.16,22.26,2.73.23.1,1.63,1.75,1.78,2.14,4.81,12.99,3.74,29.27,5.24,42.8.47,4.29,3.77,15.18,3.57,18.01-.37,5.31-11.88,21.28-15.92,25.45-12.18,12.59-44.28,31.2-60.04,16.39-9.9-9.3-18.63-50.4-18.82-64.12-.02-1.16.25-8.71.57-9.04.29-.31,4.08.4,4.83-.08.62-.39.35-5.2,1.71-3.74.4.43.68,3.24,2.23,4.59,6.72,5.87,7.6-2,9.73-4.26,1.37-1.45,2.07.19,1.87,1.74-1.04,8.22-8.12,23.86-4.83,31.75,1.42,3.4,7.57,4.51,10.85,4.19,1.61-.16,3.07-1.67,5.02-1.95,4.46-.64,9.64,2.69,12.78-2.49,1.34-2.21.98-7.16-1.93-6.8-1.83.23-1.51,2.32-3.26,2.7-2.38.52-5.33-.83-8.13-.5-3.31.4-10.37,7.09-10.14-1.94.26-10.24,8.55-28.07,6.29-36.88-2.37-9.25-17.29-8.27-24.29-6.53v-11.19ZM271.52,137.29c-6.82-8.51-28.62-8.8-37.82-4.67-1.79.8-7.96,4.37-4.71,6.56s8.24-1.15,11.53-1.93c8.5-2.01,15.26-1.22,23.31,2,2.38.95,5.9,4.65,8.22,2.8,1.64-1.31.54-3.44-.52-4.77ZM265.52,147.66c-3.68-3.82-11.77-6.23-16.99-6.23-2.63,0-13.72,2.15-15.04,4.09-2.81,4.14,3.08,3.4,3.76,4.24.48.58-.47,2.42,1.47,2.67,2.45.31,2.61-2.95,3.05-3.26,1.69-1.21,2.07,2.78,3.41,4.12,4.43,4.47,11.17.64,10.73-5.27.54-.63,7.55,3.44,8.97,3.28,2.43-.26,2-2.24.65-3.64ZM224.23,192.8c-1.19-.78-1.01,1.02-1.4,1.1-.86.17-1.87-.6-2.31-.48-.2.05-.47,2.13-3.5,1.53-.29-.06-.75-1.61-2.86-1.53s-6.36,2.02-6.28,4.49c.18,5.15,4.98,2.63,7.38,2.52,3.02-.15,8.25-.67,10.91-.56,3.6.15,15.39,6.02,17.08.15,1.25-4.33-3.31-3.03-5.5-3.55-3.44-.81-7.25-2.28-10.62-3.03-.89-.2-1.89.57-2.54.47-.45-.07-.29-1.06-.36-1.1ZM216.23,210.61c1.74,1.33,12.41,1.15,14.02-.65,4.16-4.64-10.56-4.36-12.79-4.04-2.81.4-3.19,3.19-1.23,4.69Z"/>
      <path class="cls-3" d="M345.34,245.18c-.52-.67-14.89-5.46-16.1-5-24.9,32.11-43,69.43-54.62,108.56-4.91,16.53-8.61,35.02-10.63,54.14l19.14,5.34c2.58-28.18,8.68-55.83,17.7-79.65,9.93-26.23,24.6-50.01,39.19-73.76.92-1.5,6.58-8.01,5.32-9.63ZM275.82,396.34c-7.7.12-7.51-11.17-.01-11.19,6.35-.03,6.89,11.08.01,11.19ZM285.88,363.27c-.73,4.45-6.35,5.66-9.07,2.31-6.5-8.02,10.87-13.41,9.07-2.31ZM283.79,336.5c-3.14-6.45,5.14-10.56,9.03-6.04,5.42,6.28-5.38,13.51-9.03,6.04ZM294.82,310.74c-1.19-2.29-.3-6.21,1.62-7.57,2.22-1.58,7.23-.59,8.27,2.03,2.92,7.31-6.47,12.15-9.89,5.54ZM308.57,287.15c-4.28-6.77,6.88-10.88,9.37-6.91,4.3,6.86-5.17,13.56-9.37,6.91ZM327.9,266.7c-7.58,3.15-10.28-11.17-1.33-10.4,4.39.38,4.76,8.97,1.33,10.4Z"/>
      <path class="cls-3" d="M169.94,239.46c18.17,26.49,39.73,90.3,41.21,122.22.07,1.52.49,6.46-.65,6.99-6.54,3.01-1.88-4.41-5.25-5.57-9.84-3.36-6.16,5.17-7.7,6.25-.72.51-2.39.45-3.05-.3-.77-.89-1.52-15.93-1.94-18.79-4.81-32.55-17.97-62.83-32.39-92.03-1.12-2.27-7.73-13.34-7.84-14.56-.05-.54.08-.63.4-1,.51-.6,13.52-5.55,14.66-5.6,2.14-.08,1.69,1.14,2.54,2.39ZM169.54,256.19c-4.48,1.35-2.31,8.73,2.12,9.16,7.67.74,6.22-11.66-2.12-9.16ZM187,281.33c-3.24-5.17-14.43.46-7.98,7.17,4.46,4.64,11.72-1.22,7.98-7.17ZM195.72,306.45c-7.8-5.73-12.49,12.16-.79,9.5,4.38-1,3.17-7.74.79-9.5ZM202.26,344.31c5.19-4.59-1.79-12.95-6.89-8.25s2.63,12.02,6.89,8.25Z"/>
      <path class="cls-4" d="M318.34,244.58c-1.19,3.5-11.1,15.57-13.9,19.93-19.75,30.83-34.97,69.62-42.37,105.52-2.09,10.15-3.78,20.49-4.95,30.93l-5.91-1.65c1.44-12.62,3.52-24.72,6.05-35.74,7.75-33.82,30.49-95.47,55.65-119.51,2.32-2.22,7.22-4.73,5.43.52Z"/>
      <path class="cls-3" d="M350.92,266.26c-6.93,14.39-16.68,28.19-23.93,42.64-15.06,30.03-25.7,66.6-29.42,103.35l-6.56-1.83c5.94-51.57,26.73-101.12,53.72-145.99,1.57-2.61,6.5-11.05,8.45-12.55,7.29-5.64-1.65,13.12-2.26,14.38Z"/>
      <path class="cls-3" d="M148.19,370.56l-11.07-3.09c-3.46-3.28-8.17-4.69-11.87-3.31l-8.21-2.29c.64-1.78,1.27-3.39,1.82-4.67.63-1.49,3.68-8.01,4.85-8.29.74-.18,7.83,2.61,10.28,2.68,4.17.11,11.14-3.75,12.53,1.61,1.02,3.92,1.68,10.43,1.67,17.36Z"/>
      <path class="cls-3" d="M227.67,107.48l-8.74-26.46.38-3.17c19.06-.61,38.06-.96,57.04-.23l1.37.83-9.81,28.93-40.25.1Z"/>
      <path class="cls-3" d="M286.99,264.81c.16,1.53-.38,2.79-1.07,4.1-1.91,3.6-11.37,12.65-14.74,15.82-8.68,8.16-18.46,15.3-27.02,23.63-8.37-8.99-17.95-17-26.43-25.82-1.7-1.76-8.84-9.09-8.78-10.9.03-.84-.15-.95.84-.84,25.84,5.16,53.23,6.38,77.2-6Z"/>
      <path class="cls-3" d="M95.63,344.34c-.57,3.1.55,8.16-.23,10.67-.08.24-.24.47-.46.69l-10.16-2.83c1.58-4.7,4.27-9.64,5.9-13.49,2.58-6.08.95-7.72,8.66-9.89,10.98-3.1,3.26,3.89.3,8.21-1.4,2.04-3.5,3.87-4.01,6.64Z"/>
      <path class="cls-3" d="M132.37,301.68c-3.48,4.46-7.55,8.27-11.21,12.53-5.39,6.3-5.36,13.11-14.32,6.23-3.88-2.98-5.8-7.23-5.34-12.25.79-8.69,15.51-11.04,13.63-1.66-.59,2.93-4.87,3.21-6.02,4.9-2.12,3.09,2.78,5.24,5.7,3.52,1.22-.72,9.68-12.34,11.02-14.35,3.12-4.68,8.57-12.35,8.42-18.03-.12-4.73-8.32-20.18-13.33-19.95-.19,0-3.42,1-3.53,1.15-1.52,2.02,6.21,9.38,7.25,12,2.49,6.25-2.22,15.18-8.56,16.99-2.98.85-10.04,1.21-12.91.12-2.67-1.01-4.85-7.03-7.93-8.99-2.03-1.29-8.42-1.5-7.86-3.97.16-.68,7.09-5.66,8.12-6.11,2.84-1.27,11.29-2.79,12.81.83,2.54,6.03-2.19,3.71-5.57,4.78-5.87,1.85-.89,6.71,2.9,7.18,8.95,1.11,15.34-9.53,7.34-16.07-1.35-1.1-6.18-2.7-6.01-3.79.11-.68,9.73-7.06,11.17-7.93,1.77-1.07,8.13-5.24,9.53-4.66,1.06.44,8.13,10.41,9.19,12.13,2.75,4.5,8.16,14.12,6.36,19.24-1.33,3.77-8.14,12.69-10.85,16.16Z"/>
      <path class="cls-4" d="M162.14,374.46l-5.77-1.61c.07-9.94-.59-19.86-2.02-29.66-1.96-13.37-2.8-5.54-8.71-1.22-4.14,3.04-9.98,4.83-14.86,2.41-1.87-.93-4.18-3.18-1.07-4.15,3.1-.96,5.73.6,10.01-1.45,1.3-.63,9.74-7.47,10.57-8.54,3.49-4.53-1.06-8.07-.21-12.74.21-1.14,3.14-5.66,4.33-4.67.71.59,3.81,15.7,4.21,17.89,2.43,13.27,3.67,28.25,3.52,43.74Z"/>
      <path class="cls-3" d="M169.69,77.06l38.74.82c1.11.52,6.01,14.35,6.79,16.68s4.46,12.05,3.34,13.65l-29.76,2.41-18.31-29.16-.8-4.39Z"/>
      <path class="cls-3" d="M146.5,306.26c-.33.77-10.15,9.84-11.95,11.79-10.96,11.8-19.73,26.06-25.83,41.5l-5.37-1.5c8.79-21.88,22.92-40.6,40.99-56.72,1.86.77,2.97,3.09,2.16,4.93Z"/>
      <path class="cls-3" d="M400.38,201.08c4.04-.14,1.76,3.45,1.71,6.12-.71,41.12-.81,82.28-.5,123.39.24,3.66-8.17,1.24-8.74-1.14.15-41.65.82-83.2.52-124.97-.15-3.66,4.38-3.32,7-3.41Z"/>
      <path class="cls-4" d="M245.69,242.06c-11.39,1.71-17.95,1.92-29.62-1.54-6.63-1.97-15.22-5.92-19.09-11.73,6.33-4.03,6.87,1.52,11.62,4.46,21.28,13.2,54.3-6.29,68.85-22.48,3.28-3.65,7.05-10.47,10.05-13.3,1.52-1.44,3.84,4.19,3.8,5.4-.06,1.78-3.99,6.65-4.29,11.46-.19,3.08,2.26,12.25,1.93,12.81-.78,1.33-19.11,9.47-21.84,10.39-7.12,2.39-14.09,3.43-21.41,4.53Z"/>
      <path class="cls-3" d="M277.26,109.73c-.99-.62.43-4.81.75-5.91,2.55-8.92,6.68-17.58,9.91-26.26l28.29-.52,3.83,1.09-15.27,32.81c-2.45,1.51-8.51-.91-11.51-1.12-2.43-.17-15.27.37-16-.09Z"/>
      <path class="cls-3" d="M143.25,260.15c-2.06-3.39-5.53-6.36-6.29-10.62,2.45.18,5.13-4.27,7.37-2.2,9.59,16.25,18.2,33.11,25.17,50.68,6.95,17.53,12.75,36.27,15.4,55,.56,3.99,1.72,11.07,1.6,14.8-.07,2.23-6.33,1.31-6.9-.22-1.03-2.77-.77-9.27-1.24-12.4-4.92-32.49-18.11-67.05-35.11-95.05Z"/>
      <path class="cls-3" d="M331.3,77.19c3.77.57,22.1-1.11,24.2.39.41.29.81.76.7,1.3l-24.71,35.88c-1.38.75-15.46-1.14-16.69-1.92-.66-.42-.53-.87-.44-1.52.22-1.48,3.22-7.73,4.08-9.61,3.81-8.33,8.88-16.26,12.86-24.51Z"/>
      <path class="cls-4" d="M224.26,369.59c-8.12.88-5.84-2.62-6.56-7.9-5.58-40.76-15.71-81.43-35.9-117.44-1.12-1.99-6.27-8.04-5.06-9.76,1.92-2.74,4.79-1.66,6.52.65,9.44,12.59,20.32,41.82,25.19,57.21,7.86,24.88,13.82,51.2,15.81,77.24Z"/>
      <path class="cls-3" d="M336.71,423.18l-5.94-1.66c-9.4-21.63-13.91-45.44-11.58-66.39.33-2.93,3.27-9.04,4.34-3.81,1.16,5.65-.35,16.01.03,22.35,1.12,18.95,5.69,35.03,13.15,49.51Z"/>
      <path class="cls-3" d="M203.17,259.15c-1.31-1.15-4.75-6.21-1.48-6.81.81-.15,12.92,5.81,15.33,5.78,24.27,5.06,47.88,2.24,69.91-8.94,3.26-1.66,13.3-8.86,15.74-9.38,3.55-.75.11,4.45-.81,5.75-7.73,10.86-35.62,19.92-48.54,21.3-10.58,1.13-42.01-.62-50.14-7.7Z"/>
      <path class="cls-3" d="M204.39,241.01c23.13,12.51,50.03,10.15,73.52-.85,2.48-1.16,13.84-8.03,14.85-8.12,1.89-.18,4.26,2.95,2.72,4.96s-18.85,10.86-22.2,12.18c-20.27,7.97-62.68,9.91-78.51-7.56-.89-.98-5.81-7.38-2.97-7.93.71-.14,10.74,6.33,12.58,7.32Z"/>
      <path class="cls-3" d="M344.28,385.96c4.04,6.41,6.96,13.83,11.33,20.05,1.02,1.44,2.72,3.49,3.92,4.81.73.81,4.26,2.33.83,2.45-2.68.09-20.58-5.13-22.44-6.76-2.29-2-6.14-17.27-6.69-20.87-2.05-13.34-2.01-57.67,3.23-69.27,1.81-4.01,2.89-2.83,2.76,1.1-.69,20.12-3.32,42.04-1.66,62.2.26,3.16,3.8,19.33,5.5,21.24,1.19,1.33,5.12,1.27,5.4.04.08-.37-2.18-5.53-2.18-6.53v-8.46Z"/>
      <path class="cls-3" d="M243.61,387.03c-11.74.6-23.41.55-35.08.37l-32.61-9.1c10.02.06,20.05-.04,30.08,0,1.41,0,2.77.59,4.32.6,11.06.08,22.29-1.01,33.33-.49,4.11.19,2.66,8.04-.04,8.63Z"/>
      <path class="cls-3" d="M400.9,127.4c.79.42,2.84,7.25,3.14,8.58,2.32,10.29,2.15,25.95-1.14,36.02-1.39,4.25-3.33,9.95-8.2,4.98-6.06-6.2-4.83-33.04-2.14-40.96.89-2.62,4.81-10.48,8.34-8.61Z"/>
      <path class="cls-3" d="M401.42,414.75l-.02,26.48-9.58-2.67c.29-8.66.73-17.18,1.01-24.5.05-1.38-1.82-5.59.8-5.73,1.28-.07,8.81,3.85,7.79,6.42Z"/>
      <path class="cls-3" d="M82.19,314.13c4.28,4.48,7.41,4.57,13.32,6.07.6,1.43-3.89,3.24-4.77,3.42-12.87,2.64-25.4-14.36-20-26.56,3.72-8.42,10.36-12.04,19.06-7.71,9.71,4.83,6.02,18.86-.85,16.72-3.94-1.23-1-4.64-1.14-5.93-.44-4.08-6.26-5.15-8.91-.92-3.38,5.42-.55,10.88,3.3,14.92Z"/>
      <path class="cls-3" d="M358.9,335.88c.18.07,1.76,2.01,1.75,2.8-.02,1.35-2.62,8.66-3.11,11.16-4.47,22.88-2.4,40.74,15.55,56.82,2.82,2.53,10.25,5.88,9.97,10.14s-5.25-.39-7.09-1.69c-23.97-16.89-32.48-42.94-22.53-71.01.73-2.05,2.92-9.17,5.45-8.22Z"/>
      <path class="cls-4" d="M315.85,211.37c2.41,3.78-4.84,2.48-6.86,1.69-13.14-5.16-20.13-38.46-21.44-51.14-.76-7.37-.37-15.53-1.11-22.9-.49-4.84-2.71-11.5-2.75-15.84-.04-4.67,2.66-3.36,4.13-.28,5,10.4,3.98,35.08,5.81,47.68,1.45,10.01,6.96,32.11,15.56,37.92,1.36.92,6.47,2.57,6.67,2.87Z"/>
      <path class="cls-3" d="M66.06,319.03c-.02.29-.83.36-1.05.8-2.85,5.81-6.37,12.8-10.44,17.81-1.43,1.75-3.58,4.64-5.9,5.15-.39.09-.78.11-1.18.05.01-.12.02-.24.03-.37.6-7.19-.93-15.89-.03-22.82.26-2.02,1.24-3.68,2.28-5.37.73-1.19,9.71-12.3,10.52-12.4.64-.09,1.1-.22,1.38.4,1.33,2.89,1,7.22,1.9,10.56.42,1.53,2.58,5.06,2.49,6.19Z"/>
      <path class="cls-4" d="M355.74,214.59c.81-7.83,1.85-17.16-7.26-20.3-7.72-2.66-8.55.55-13.71-8.12-7.59-12.77-5.19-28.03-7.47-42.19-.74-4.57-3.59-12-3.72-15.98-.07-2.37.87-3.09,2.9-1.76,3.3,2.17,5.82,22.86,6.33,27.51.97,8.94-.22,30.14,8.55,35.11,5.33,3.02,10.76-.32,15.46,6.36,3.32,4.73,4.87,16.04-1.08,19.37Z"/>
      <path class="cls-4" d="M292.99,121.82c.07-.09,1.95-.34,2.26-.26,2.66.65,3.48,6.51,4.04,8.98,4.1,18.25,1.99,55.86,14.96,69.08,1.05,1.06,7.41,4.34,4.02,5.62-5.28,2-11.41-8.45-13.19-12.28-7.59-16.3-6.61-36.28-8.88-53.87-.34-2.63-3.75-16.58-3.2-17.26Z"/>
      <path class="cls-3" d="M358.7,310.41c3.1,3.68,6.51,7.21,9.25,11.22,3,4.38,10.78,14.35.02,12.53-4.21-5.65-10-9.88-14.77-14.97-2.61-2.79-10.6-11.08-10.44-14.64.07-1.57,1.68-8.12,3.42-8.1,1.48.02,10.82,11.96,12.51,13.96Z"/>
      <path class="cls-3" d="M360.91,294.56c4.65,7.29,16.37,19.56,19.3,26.81,2.34,5.8-1.54,4.13-4.27.99-4.89-5.62-22.2-28.14-24.49-33.89-1.13-2.84-1.66-3.8-.47-6.88,1.86-4.85,6.9-13.32,9.75-17.95.78-1.27,4.83-7.93,5.33-8.3,3.41-2.52,2.3,2.41,1.58,4.16-3.16,7.64-9.1,15.41-10.11,24.27-.62,5.42.72,6.61,3.39,10.79Z"/>
      <path class="cls-3" d="M414.35,319.14l5.78,6.24c.85-.67-.44-3.57-.72-4.47-.93-2.97-2.13-6.61-3.97-9.13-1.58-2.16-6.97-5.65-7.58-7.15-.42-1.03-.29-4.57.27-4.9,1.06-.64,8.46,5.4,9.53,6.56,5.94,6.45,8.06,16.82,8.49,25.35.07,1.45.29,8.76-.53,9.34-3.76,2.65-9.18-10.3-11.27-12.82-3.49-4.19-7.57-3.85-6.8-10.72.55-4.89,4.79-.22,6.81,1.7Z"/>
      <path class="cls-4" d="M323.55,196.03c-.09.13-2.74,1.04-2.92,1.01-.43-.07-2.87-2.6-3.36-3.18-9.88-11.74-8.9-39.59-11.33-54.7-.5-3.13-3.48-12.32-3.14-14.32.39-2.26,3.19-1.75,4.31.05,1.74,2.78,3.8,16.74,4.36,20.75,1.91,13.65,1.23,30.43,7.24,42.97.62,1.28,5.09,7.06,4.84,7.43Z"/>
      <path class="cls-3" d="M216.86,291.86c2.46,2.33,20.87,20.89,20.95,22.43.06,1.05-11.36,12.55-12.23,12.7-2.15.38-3.28-9.12-3.76-10.9-2.01-7.39-6.18-17.87-7.27-24.93-.49-3.13,1.74.15,2.32.7Z"/>
      <path class="cls-4" d="M307.91,234.05c-.83-.33-5.79-3.67-6.74-4.44-5.75-4.67-9.35-12.51-7.08-19.92,5.94,1.24,2.63,7.63,5.75,13.06,9.47,16.45,39.46,6.13,35.33-11.33-1.21-5.11-7.03-6.3-7.06-8.01-.1-4.64,10.18-1.1,11.56,5.7,3.31,16.3-17.3,30.71-31.76,24.94Z"/>
      <path class="cls-4" d="M332.82,194.4c-.24.27-3.6-1.14-4.2-1.52-9.38-5.92-10-37.11-11.7-47.78-.86-5.41-4.06-14.25-4.25-18.72-.11-2.57,1.42-3.3,3.27-1.58,2.07,1.93,4.68,15.3,5.27,18.74,2.71,15.84,1.47,32.25,9.53,46.68.48.86,3.16,2.96,2.09,4.18Z"/>
      <path class="cls-3" d="M82.24,335.3c-.87,3.92-2.77,9.57-5.3,15.38l-4.74-1.32c1.75-5.37,4.62-16.73,5.9-18.19.98-1.13,3.11-1.09,4.17-.2.97.82.22,3.2-.03,4.33Z"/>
      <path class="cls-4" d="M188.62,201.12c4.43,3.37.8,13.33-3.42,13.99-3.13.49-4.38-.54-3.09-3.65.59-1.43,6.24-4.48,2.31-6.41-7.74-3.82-13.16,17.09-.35,16.61,6.41-.24,6.87-4.04,10-7.49,2.82-3.12,2.45,3.01,1.53,5.33-6.05,15.39-30.4,4.53-22.75-11.3,1.83-3.78,12.82-9.32,15.77-7.09Z"/>
      <path class="cls-3" d="M265.52,299.53c1.55-1.36,4.72-6.67,6.66-2.92-1.57,2.67-9.86,29.06-11.61,28.74-.79-.15-10.82-10.52-10.71-11.68.18-1.96,13.25-12.03,15.65-14.14Z"/>
      <path class="cls-3" d="M66.81,339.52c-1.29,2.14-2.95,4.61-4.69,7.02l-5.88-1.64c1.32-1.33,2.41-2.49,2.93-3.2,1.84-2.52,3.86-6.01,5.43-8.76.97-1.7,3.63-8.29,4.12-8.87,1.21-1.43,3.36,1.91,3.64,2.93.57,2.1-4.15,10.22-5.55,12.52Z"/>
      <path class="cls-3" d="M408.85,415.62c2.4-2.07,7.49-3.95,10.47-6.71,2-1.85,4.93-6.08,6.26-8.47,1.13-2.03,1.04-6.07,3.57-4.15,4.15,3.15-1.12,12.98-3.6,16.12-2.26,2.87-13.04,12.27-16.55,11.16-1.25-.4-1.83-6.51-.16-7.95Z"/>
      <path class="cls-3" d="M382.3,264.88c6.02-1.83-1.1,12.36-1.63,14.22-1.49,5.21-1.82,7.2.06,12.27.67,1.8,7.6,12.49,4.18,13.27-6.81-4.97-12.13-13.36-11.11-22.04.35-2.99,5.79-16.9,8.5-17.72Z"/>
      <path class="cls-3" d="M231.89,369.59c-.17-.18-.03-2.19.29-2.72l9.85-14.73c.76-.12,8.49,9.46,8.74,10.34.45,1.58-.91,7.11-2.78,7.11-2.18,0-15.53.58-16.09,0Z"/>
      <path class="cls-3" d="M373.09,424.87c-.58,1.77-7.63,3.82-9.59,4.05-2.01.23-4.13.24-6.22,0-2.36-.28-4.67-.89-6.72-1.88-4.02-1.93-7.02-5.32-7.37-10.52,6.96,2.13,12.64,5.63,20.46,5.5,3.3-.05,11.64-3.85,9.44,2.85Z"/>
      <path class="cls-3" d="M248.03,323.99c1.56,1.35,5.64,5.06,5.17,7.02-.07.3-4.04,3.2-4.75,3.85-1.17,1.08-2.75,4.43-4.69,4.08-1.28-.23-8.6-8.04-8.5-8.82.13-1.01,6.88-9.34,7.93-9.59,1.13-.27,3.76,2.53,4.84,3.46Z"/>
      <path class="cls-3" d="M342.1,362.49c-.58-7.63.54-15.11,1.08-22.66.4-5.64.31-11.29,1.07-16.94.11-.81.04-1.36.85-1.87,1.62,1.66,7.29,7.36,7.23,9.44l-10.23,32.02Z"/>
      <path class="cls-3" d="M423.1,432.07c-1.37,1.29-12.28,9.51-13.09,9.5-1.76-.03-1.81-6.69-.87-7.9.45-.58,8.1-4.7,9.82-6,2.28-1.72,4.31-3.69,6.36-5.67.79-.76,1.02-3.15,2.29-.69,2.39,4.62-1.55,7.98-4.51,10.77Z"/>
      <path class="cls-4" d="M323.93,214.17c-.05-.12-.86.07-.98-.92-.86-7.11,5.67-4.87,6.03.59.38,5.88-11.49,12.29-16.48,11.54-2.24-.34-5.05-2.16-6.4-3.97-5.45-7.29,4.64-1.77,7.6-1.61,2.4.13,11.63-2.31,10.23-5.62Z"/>
      <path class="cls-3" d="M383.43,434.12c-.14.77-.33,1.39-.58,1.93l-7.25-2.02c3.5-3.39,10.15-12.91,7.83.09Z"/>
      <path class="cls-3" d="M392.09,187.1c.79-.72.69-1.49,2.23-1.86,5.64-1.35,14.85,4.35,9.16,9.17-5.62,4.76-19.34-.1-11.39-7.31Z"/>
      <path class="cls-3" d="M230.6,337.05c1.46.74,6.7,7.09,6.8,8.8.12,2.1-5.05,11.17-6.32,11.17-1.85,0-4.63-17.72-3.76-20.25,1.2-.51,2.17-.3,3.29.27Z"/>
      <path class="cls-3" d="M320.2,418.08c-.1.15-.34.24-.66.3l-9.39-2.62c.13-.54.33-1.01.6-1.4.84-1.21,6.24-3.11,7.52-2.7,1.47.48,2.65,5.29,1.93,6.42Z"/>
      <path class="cls-3" d="M420.42,287.96c2.89,2.5,6.21,5.83,5.73,9.88-.56,4.7-5.86-2.34-7.66-3.85-2.08-1.73-7.91-5.44-8.77-7.59-.59-1.47-.95-4.74,1.31-4.6.93.06,8.22,5.13,9.4,6.15Z"/>
      <path class="cls-3" d="M428.66,448.84l-4.48-1.25c2.12-2.21,5-5.11,5.75-4.33.58,1.74-.01,3.66-1.27,5.58Z"/>
      <path class="cls-4" d="M212.65,139.97c.8.88,1.18,3.09-.21,3.62-.82.31-8.42-1.8-11.39-1.59-1.74.13-8.54,2.64-8.98,2.2-.13-.13-.12-3.37.09-3.73.23-.39,6.34-3.06,7.42-3.22,3.01-.46,11.02.47,13.07,2.73Z"/>
      <path class="cls-4" d="M183.33,164.39c.58.64-3.5,14.39-3.76,16.7-.16,1.47.46,11.71-.33,11.67-.3-.02-1.85-1.23-2.17-1.65-3.68-4.85-.82-14.65,1.42-19.82.27-.62,3.76-8.08,4.83-6.9Z"/>
      <path class="cls-4" d="M345.38,221.69c.28-7.1,2.6-11.91-1.41-18.52-.66-1.09-4.33-3.31-1.03-3.87,4.29-.73,7.64,5.47,7.85,9.1.23,3.81-2.11,11.06-5.41,13.29Z"/>
      <path class="cls-3" d="M133.9,328.31c1.09-1.9,6.39-6.97,8.22-3.98,3.29,5.39-4.29,12.52-8.11,7.57-1.14-1.48-.96-2.09-.1-3.58Z"/>
      <path class="cls-3" d="M256.98,338.48c.12,1.95-2,13.96-4.05,13.61-.27-.05-3.27-3.09-3.51-3.59-2.5-4.97,7.1-10.55,7.56-10.03Z"/>
      <path class="cls-3" d="M313.14,375.62l1.67,14.16c-2.26-.07-5.19-.27-5.45-3.05-.15-1.56,1.22-12.78,3.77-11.11Z"/>
      <path class="cls-3" d="M315.83,398.04c.71.46,3.04,7.41-1.85,7.6-5.32.21-3.67-7.12-2.9-7.59.33-.21,4.45-.21,4.75,0Z"/>
      <path class="cls-4" d="M187.7,193.86c-1.94,1.88-3.1-5.86-3.14-7-.06-1.94.57-3.7.97-5.55l2.17,12.55Z"/>
      <path class="cls-4" d="M379.2,393.05c-3.12,2.02,4.45,7.67,4.64,9.81-6.51-.8-17.39-20.41-6.16-20.06,4.7.15,14.65,5.39,19.79,4.79,1.97-.23,3.22-3.21,1.34-4.61-1.76-1.31-17.56-5.89-20.67-6.61-3.5-.81-6.26,1.17-6.08-4.34.13-3.93,4.38-6.3,7.91-6.22,4.53.1,17.69,6.11,20.25,5.73,2.37-.35,2.46-3.75.11-5.36-2.05-1.41-15.94-5.93-18.72-6.37-3.87-.62-12.52,1.46-7.22-6.78,5.91-9.2,26.74,5.3,30.33,1.68,4.83-4.87-7.55-6.39-9.82-7.1-7.13-2.25-6.87-3.23-14.02-2.83-4.77.27-10.53.36-5.18-5.73,5.94-6.76,23.75-1.89,31.22.9,11.52,4.3,14.23,9.05,14.84,21.18.48,9.54-1.59,40.3-12.69,43.5-8.46,2.44-27.81-12.9-29.85-11.58Z"/>
      <path class="cls-3" d="M138.61,113.63l1.12-.34c6.91-15.9,27.56-11.1,28.9,6.05,1.1,14.19-16.53,34.6-24.25,46.73-1.05,1.65-3.71,7.96-5.45,7.63-6.91-11.74-16.12-22.16-22.79-34.05-4.95-8.84-10.61-20.01-3.63-29.47s22.51-8.76,26.1,3.45Z"/>
      <path class="cls-3" d="M103.14,67.79v8.46c0,1.33-3.95.33-5.25.7-2.95.84-1.26,1.39-1.27,3.64-.1,14.42,1.25,31.89-.04,45.85-2.44,26.55-37.63,24.32-37.63.56v-10.92c0-.11.55-1.34.93-1.38l9.3.69c1.75,1.88-1.44,10.93,2.58,16.25,6.62,8.77,13.25.5,13.94-7.36,1.29-14.6-1-31.06-.02-45.86-.18-2.75-9.27-.23-9.27-2.73v-8.46l26.73.55Z"/>
      <path class="cls-3" d="M80.22,163.84c1.4-8.03,13.77-11.52,18.47-4.55,8.56,12.71-11.35,33.44-17.35,44.14-.81,1.04-2.12,1.27-2.62-.15-5.29-11.18-26.87-30.87-17.27-43.77,2.9-3.9,9.36-5.18,13.51-2.67,2.95,1.78,3.09,4.77,5.27,7Z"/>
      <path class="cls-1" d="M271.52,137.29c1.07,1.33,2.16,3.46.52,4.77-2.32,1.85-5.84-1.85-8.22-2.8-8.05-3.22-14.81-4.01-23.31-2-3.29.78-8.34,4.07-11.53,1.93s2.92-5.76,4.71-6.56c9.21-4.13,31.01-3.84,37.82,4.67Z"/>
      <path class="cls-1" d="M265.52,147.66c1.35,1.4,1.78,3.38-.65,3.64-1.43.15-8.44-3.91-8.97-3.28.45,5.9-6.29,9.73-10.73,5.27-1.34-1.35-1.72-5.33-3.41-4.12-.43.31-.59,3.58-3.05,3.26-1.94-.25-1-2.09-1.47-2.67-.68-.84-6.58-.1-3.76-4.24,1.32-1.94,12.41-4.09,15.04-4.09,5.22,0,13.31,2.41,16.99,6.23Z"/>
      <path class="cls-1" d="M224.23,192.8c.06.04-.09,1.03.36,1.1.66.1,1.65-.67,2.54-.47,3.37.74,7.18,2.21,10.62,3.03,2.19.52,6.75-.77,5.5,3.55-1.69,5.87-13.47,0-17.08-.15-2.66-.11-7.89.41-10.91.56-2.4.12-7.2,2.63-7.38-2.52-.09-2.47,4.13-4.41,6.28-4.49s2.57,1.48,2.86,1.53c3.03.6,3.3-1.47,3.5-1.53.44-.12,1.45.65,2.31.48.39-.08.21-1.88,1.4-1.1Z"/>
      <path class="cls-1" d="M216.23,210.61c-1.96-1.5-1.57-4.29,1.23-4.69,2.23-.32,16.95-.59,12.79,4.04-1.62,1.8-12.28,1.98-14.02.65Z"/>
      <path class="cls-1" d="M296.44,303.17c2.22-1.58,7.23-.59,8.27,2.03,2.92,7.31-6.47,12.15-9.9,5.54-1.18-2.28-.3-6.2,1.62-7.57Z"/>
      <path class="cls-1" d="M317.94,280.24c4.3,6.86-5.16,13.57-9.37,6.92s6.88-10.89,9.37-6.92Z"/>
      <path class="cls-1" d="M292.82,330.47c5.42,6.28-5.38,13.5-9.03,6.03-3.15-6.45,5.13-10.55,9.03-6.03Z"/>
      <path class="cls-1" d="M275.81,385.15c6.35-.02,6.89,11.09.01,11.2-7.7.12-7.51-11.17-.01-11.2Z"/>
      <path class="cls-1" d="M276.81,365.59c-6.5-8.02,10.87-13.42,9.06-2.31-.72,4.45-6.34,5.66-9.06,2.31Z"/>
      <path class="cls-1" d="M326.56,256.31c4.39.38,4.76,8.97,1.34,10.39-7.58,3.15-10.28-11.17-1.34-10.39Z"/>
      <path class="cls-1" d="M187,281.33c3.74,5.95-3.53,11.8-7.98,7.17-6.45-6.71,4.74-12.33,7.98-7.17Z"/>
      <path class="cls-1" d="M195.72,306.45c2.39,1.75,3.59,8.5-.79,9.5-11.71,2.66-7.02-15.23.79-9.5Z"/>
      <path class="cls-1" d="M202.26,344.31c-4.26,3.77-11.83-3.69-6.89-8.25s12.08,3.66,6.89,8.25Z"/>
      <path class="cls-1" d="M169.54,256.19c8.35-2.51,9.79,9.9,2.12,9.16-4.43-.43-6.6-7.81-2.12-9.16Z"/>
    </g>
    <g>
      <path class="cls-4" d="M7.26,582.52c-1.99.83-5.24.57-6.03,1.07-1.22.76-1.28,11.88-1.07,13.66.59,4.98,2.85,2.95,6.75,4.71,10.26,4.62,10.48,20.15-.05,24.37-1.52.62-5.93,1-6.15,1.22-.6.58-.17,16.17.52,16.66.58.41,4.38.79,6.06,1.58,7.85,3.7,9.52,14.99,3.55,21.08-.21.21-2.96,2.46-3.15,2.54-.69.3-5.43.37-6.32.83-1.71.88-1.69,15.56-.63,17.03.85,1.17,5.13,1.53,6.89,2.38,9.43,4.55,8.94,19.82-.79,23.98-1.4.6-5.9,1.02-6.1,1.26-.54.62-.09,15.69.63,16.23.44.32,3.84.68,5.07,1.2,9.54,4.03,11.35,16.54,3.28,22.94-2.67,2.12-8.5,2.84-8.78,3.22-.44.61-.5,13.73-.22,15.03.55,2.54,4.48,2.36,6.48,3.35,5.47,2.7,6.01,8.13,7.48,13.35l17.13-.03c-1.07-19.69,26.29-20.97,25.66-.04l17.98.04c-3.3-16.29,20.08-21.41,24.39-6.67.47,1.58.69,6.6,1.22,6.97.81.57,16.88.45,17.41-.39.56-.88-.36-6.26,2.26-10.02,5.97-8.6,20.1-6.62,22.54,3.66.86,3.6-1.12,6.4,3.37,7,1.94.26,13.9-.02,15.04-.79.59-.4.68-5.03,1.09-6.55,1.94-7.09,10.78-10.99,17.46-7.71,5.68,2.78,7,9.52,7.93,15.07l17.05-.11c1.02-2.07.39-4.31.87-6.5,2.54-11.54,19.7-12.83,24.04-1.6.54,1.41,1.08,7.11,1.35,7.36.86.83,14.39,1.21,15.99.71,2.23-.7,1.27-4.4,1.72-6.47,2.09-9.52,14.99-12.86,21.58-5.69,3.31,3.59,3.05,7.35,4.14,11.76l16.63-.27c.32-6.26,2.29-11.87,8.56-14.36,10.77-4.27,17.6,4.8,18.48,14.63l16.61-.27c1.05-4.08.59-7.28,3.5-10.68,6.37-7.43,19.88-4.95,21.86,4.88.28,1.37.08,5.78.28,6,.69.81,15.59,1.02,16.88-.23.86-.83.07-6.85,3.53-10.66,6.15-6.78,17.95-5.64,21.45,3.13.65,1.63,1.14,7.34,2.1,7.72l16.53.59c.59-4.41.37-7.52,3.32-11.14,5.79-7.11,16.87-5.97,20.19,2.69.77,2,.86,6.59,1.93,7.35.88.64,15.94,1.09,16.57.55.37-.31.6-6.4,2.52-9.21,3.17-4.63,6.49-3.42,8.96-5.23,1.62-1.19,1.57-15.88.29-17.19-.76-.77-6.46-1.24-9.57-4.62-5.92-6.4-3.58-17.41,4.54-20.58,1.34-.52,5.04-.86,5.24-1.04.61-.55.98-15.36.52-16.51-.37-.95-4.89-1.36-6.59-2.14-12.54-5.75-7.05-25.52,6.59-25.58l.1-15.92c-3.84-1.4-6.38-1.21-9.58-4.18-9.08-8.41-2.08-23.09,9.56-22.93l-.24-16.96c-17.75-.68-17.08-25.88.18-26.76l.09-16.54c-12.7-.36-18.29-16.36-8.23-24.08,3.01-2.3,5.74-1.92,8.47-4.08l.31-15.5c-9.97-.6-16.25-8.48-13.07-18.44.47-1.48,5.26-6.78,6.65-7.36,1.45-.6,5.21-.2,5.77-1.61.43-1.1.22-15.85-.45-16.32-.56-.39-4.35-.87-5.97-1.67-9.22-4.61-9.16-18.24-.44-23.26,1.71-.98,6.49-1.7,6.98-2.43.43-.65.63-4.74.61-8.66l-37.34-10.42-.16,295.03-1.37,1.37-398.8.02-1.12-2.7c-.07-135.33.28-270.39.82-405.53L.59,328.51c.01,4.3.23,9.17.65,9.52,1,.85,6.49,1.27,9.31,3.78,5.18,4.61,5.62,13.08,1.5,18.5-3,3.96-10.78,3.07-11.37,7.15-.22,1.52-.14,12.55.29,13.41.57,1.14,5.11,1.87,6.65,2.63,9.93,4.88,9.32,20.64-.93,24.36-1.28.46-5.23.83-5.51,1.15-.85,1.01-.71,15.72.18,16.5.24.2,3.52.61,4.63,1.09,12.19,5.34,12.12,21.38-.47,25.39-1.66.53-4.42-.32-4.81,1.73-.23,1.18-.19,13.96.07,14.66.41,1.1,5.11,1.86,6.64,2.63,10.64,5.38,9.02,21.62-2.86,24.76-1.07.29-3.72.11-3.86.24-.59.58-.19,15.78.09,16.56.65,1.8,2.25.24,3.37.35.41.03,6.16,3.96,6.72,4.57,5.8,6.37,4.22,18.11-4.18,21.36-4.75,1.84-6.03-1.1-6.57,5.44-.12,1.55.31,10.95.83,11.78.42.67,4.78,1.43,6.11,2.07,9.74,4.63,10.47,20.09.19,24.38Z"/>
      <path class="cls-1" d="M38.89,747.34l398.8-.02,1.37-1.37-.08-295.62-8.94-1.97c-.6,7.19.93,15.89.03,22.82-.26,2.02-1.24,3.68-2.28,5.37-.73,1.19-9.71,12.3-10.52,12.4-.64.09-1.1.22-1.38-.4-1.33-2.89-1-7.22-1.9-10.56-.42-1.53-2.58-5.06-2.49-6.19.02-.29.83-.36,1.05-.8,2.85-5.81,6.37-12.8,10.44-17.81,1.43-1.75,3.58-4.64,5.9-5.15l-7.57-2.11c-1.32,1.33-2.41,2.49-2.93,3.2-1.84,2.52-3.86,6.01-5.43,8.76-.97,1.7-3.63,8.29-4.12,8.87-1.21,1.43-3.36-1.91-3.64-2.93-.57-2.1,4.15-10.22,5.55-12.52,1.29-2.14,2.95-4.61,4.69-7.02l-10.08-2.82c-1.75,5.37-4.62,16.73-5.9,18.19-.98,1.13-3.11,1.09-4.17.2-.97-.82-.22-3.2.03-4.33.87-3.92,2.77-9.57,5.3-15.38l-7.84-2.19c-1.58,4.7-4.27,9.64-5.9,13.49-2.58,6.08-.95,7.72-8.66,9.89-10.98,3.1-3.26-3.89-.3-8.21,1.4-2.04,3.5-3.87,4.01-6.64.57-3.1-.55-8.16.23-10.67.08-.24.24-.47.46-.69l-8.41-2.35c-8.79,21.88-22.92,40.6-40.99,56.72-1.86-.77-2.97-3.09-2.16-4.93.33-.77,10.15-9.84,11.95-11.79,10.96-11.8,19.73-26.06,25.83-41.5l-8.32-2.32c-.64,1.78-1.27,3.39-1.82,4.67-.63,1.49-3.68,8.01-4.85,8.29-.74.18-7.83-2.61-10.28-2.68-4.17-.11-11.14,3.75-12.53-1.61-1.02-3.92-1.68-10.43-1.67-17.36l-8.18-2.29c-.07,9.94.59,19.86,2.02,29.66,1.96,13.37,2.8,5.54,8.71,1.22,4.14-3.04,9.98-4.83,14.86-2.41,1.87.93,4.18,3.18,1.07,4.15-3.1.96-5.73-.6-10.01,1.45-1.3.63-9.74,7.47-10.57,8.54-3.49,4.53,1.06,8.07.21,12.74-.21,1.14-3.14,5.66-4.33,4.67-.71-.59-3.81-15.7-4.21-17.89-2.43-13.27-3.67-28.25-3.52-43.74l-13.78-3.84c-10.02-.06-20.05.04-30.08,0-1.41,0-2.77-.59-4.32-.6-11.06-.08-22.29,1.01-33.33.49-4.11-.19-2.66-8.04.04-8.63,11.74-.6,23.41-.55,35.08-.37l-42.68-11.91c-1.44,12.62-3.52,24.72-6.05,35.74-7.75,33.82-30.49,95.47-55.65,119.51-2.32,2.22-7.22,4.73-5.43-.52,1.19-3.5,11.1-15.57,13.9-19.93,19.75-30.83,34.97-69.62,42.37-105.52,2.09-10.15,3.78-20.49,4.95-30.93l-6.87-1.92c-2.02,19.12-5.72,37.61-10.63,54.14-11.62,39.13-29.72,76.45-54.62,108.56-1.21.46-15.58-4.33-16.1-5-1.26-1.62,4.4-8.13,5.32-9.63,14.59-23.75,29.26-47.53,39.19-73.76,9.02-23.82,15.12-51.47,17.7-79.65l-7.88-2.2c-5.94,51.57-26.73,101.12-53.72,145.99-1.57,2.61-6.5,11.05-8.45,12.55-7.29,5.64,1.65-13.12,2.26-14.38,6.93-14.39,16.68-28.19,23.93-42.64,15.06-30.03,25.7-66.6,29.42-103.35l-12.58-3.51c-.13.54-.33,1.01-.6,1.4-.84,1.21-6.24,3.11-7.52,2.7-1.47-.48-2.65-5.29-1.93-6.42.1-.15.34-.24.66-.3l-11.23-3.14c9.4,21.63,13.91,45.44,11.58,66.39-.33,2.93-3.27,9.04-4.34,3.81-1.16-5.65.35-16.01-.03-22.35-1.12-18.95-5.69-35.03-13.15-49.51l-13.85-3.86c4.02,1.93,7.02,5.32,7.37,10.52-6.96-2.13-12.64-5.63-20.46-5.5-3.3.05-11.64,3.85-9.44-2.85.58-1.77,7.63-3.82,9.59-4.05,2.01-.23,4.13-.24,6.22,0l-18.32-5.11c-3.5,3.39-10.15,12.91-7.83-.09.14-.77.33-1.39.58-1.93l-8.97-2.51c-.29,8.66-.73,17.18-1.01,24.5-.05,1.38,1.82,5.59-.8,5.73-1.28.07-8.81-3.85-7.79-6.42l.02-26.48-22.78-6.36c-2.12,2.21-5,5.11-5.75,4.33-.58-1.74.01-3.66,1.27-5.58l-10.31-2.88c-.54,135.14-.89,270.2-.82,405.53l1.12,2.7ZM343.56,458.94c1.14,1.48.96,2.1.1,3.58-1.09,1.9-6.39,6.98-8.21,3.99-3.3-5.39,4.29-12.52,8.11-7.57ZM168.19,404.11c.14,1.56-1.22,12.78-3.78,11.11l-1.67-14.17c2.26.07,5.19.27,5.45,3.06ZM163.57,385.19c5.32-.2,3.67,7.12,2.91,7.6-.34.21-4.45.2-4.76,0-.7-.45-3.04-7.41,1.85-7.6ZM398.67,491.62c3.39-5.41.55-10.88-3.3-14.92-4.28-4.47-7.41-4.57-13.32-6.06-.6-1.44,3.89-3.24,4.77-3.42,12.87-2.64,25.4,14.35,20.01,26.56-3.73,8.42-10.36,12.04-19.06,7.71-9.71-4.83-6.01-18.86.86-16.72,3.93,1.23.99,4.64,1.13,5.93.45,4.08,6.27,5.15,8.91.92ZM334.35,505.32c1.32-3.77,8.13-12.69,10.84-16.16,3.49-4.46,7.56-8.27,11.21-12.54,5.39-6.29,5.36-13.11,14.32-6.23,3.88,2.98,5.8,7.23,5.34,12.25-.79,8.7-15.51,11.05-13.63,1.66.59-2.93,4.88-3.21,6.03-4.89,2.11-3.1-2.78-5.24-5.71-3.53-1.22.72-9.68,12.35-11.02,14.36-3.12,4.67-8.57,12.35-8.42,18.03.12,4.73,8.32,20.18,13.33,19.95.19-.01,3.42-1.01,3.53-1.16,1.52-2.02-6.21-9.38-7.25-11.99-2.49-6.25,2.22-15.18,8.56-16.99,2.98-.85,10.04-1.21,12.91-.13,2.68,1.01,4.86,7.04,7.93,8.99,2.03,1.29,8.42,1.5,7.86,3.98-.16.68-7.09,5.65-8.12,6.11-2.84,1.27-11.28,2.79-12.81-.83-2.54-6.03,2.19-3.71,5.57-4.78,5.87-1.85.89-6.71-2.89-7.18-8.96-1.1-15.35,9.53-7.34,16.07,1.34,1.1,6.18,2.7,6.01,3.8-.12.68-9.73,7.06-11.18,7.93-1.77,1.07-8.13,5.24-9.53,4.65-1.06-.44-8.13-10.41-9.19-12.13-2.75-4.5-8.16-14.12-6.35-19.24ZM291.06,423.02c.07-2.23,6.33-1.3,6.9.22,1.03,2.78.77,9.27,1.24,12.4,4.92,32.49,18.11,67.06,35.11,95.05,2.06,3.39,5.53,6.36,6.29,10.62-2.46-.18-5.13,4.27-7.37,2.19-9.6-16.24-18.21-33.1-25.18-50.68-6.95-17.53-12.74-36.27-15.39-55-.57-3.99-1.72-11.06-1.6-14.8ZM267.05,422.17c6.55-3.01,1.88,4.41,5.25,5.56,9.84,3.37,6.17-5.16,7.7-6.25.72-.5,2.39-.44,3.05.31.77.88,1.52,15.93,1.94,18.79,4.81,32.55,17.97,62.83,32.4,92.02,1.12,2.27,7.72,13.35,7.84,14.56.05.55-.08.63-.4,1-.51.61-13.52,5.56-14.67,5.6-2.13.09-1.69-1.14-2.54-2.38-18.17-26.5-39.73-90.31-41.21-122.23-.07-1.52-.49-6.46.64-6.98ZM298.31,598.08c.3.01,1.85,1.23,2.17,1.65,3.67,4.85.81,14.65-1.43,19.82-.26.62-3.75,8.08-4.82,6.9-.58-.64,3.5-14.39,3.75-16.71.16-1.47-.46-11.7.33-11.66ZM288.94,589.72c-4.43-3.37-.8-13.33,3.41-13.99,3.14-.5,4.38.54,3.09,3.65-.59,1.43-6.24,4.47-2.31,6.41,7.74,3.82,13.16-17.09.35-16.61-6.41.24-6.87,4.04-9.99,7.49-2.83,3.11-2.45-3.01-1.54-5.34,6.05-15.39,30.4-4.52,22.75,11.3-1.83,3.78-12.82,9.32-15.76,7.09ZM129.08,596.54c7.71,2.67,8.55-.54,13.7,8.12,7.59,12.77,5.19,28.04,7.47,42.19.74,4.57,3.6,12.01,3.72,15.98.07,2.37-.87,3.09-2.9,1.76-3.3-2.17-5.82-22.86-6.32-27.51-.98-8.94.22-30.14-8.55-35.11-5.34-3.01-10.77.32-15.47-6.36-3.32-4.73-4.86-16.04,1.09-19.37-.81,7.83-1.85,17.16,7.26,20.3ZM133.59,587.67c.66,1.09,4.32,3.31,1.03,3.87-4.28.72-7.63-5.47-7.85-9.11-.23-3.81,2.11-11.06,5.41-13.28-.27,7.1-2.59,11.91,1.41,18.52ZM188.62,563.69c.78-1.33,19.11-9.47,21.84-10.39,7.12-2.39,14.09-3.43,21.41-4.53,11.39-1.71,17.95-1.91,29.62,1.54,6.63,1.97,15.23,5.93,19.09,11.73-6.33,4.03-6.87-1.52-11.62-4.46-21.28-13.2-54.29,6.28-68.85,22.47-3.29,3.65-7.05,10.48-10.05,13.31-1.53,1.44-3.85-4.19-3.8-5.4.06-1.78,3.99-6.65,4.29-11.46.19-3.08-2.26-12.25-1.93-12.81ZM273.17,549.82c-23.13-12.51-50.03-10.14-73.53.85-2.48,1.16-13.84,8.02-14.85,8.12-1.88.18-4.26-2.95-2.72-4.96,1.58-2.08,18.85-10.86,22.2-12.18,20.27-7.96,62.68-9.91,78.51,7.56.88.98,5.81,7.38,2.97,7.93-.71.14-10.74-6.32-12.58-7.32ZM190.01,628.92c.76,7.36.36,15.52,1.11,22.9.49,4.84,2.71,11.5,2.75,15.83.04,4.67-2.65,3.36-4.13.28-5-10.4-3.98-35.08-5.81-47.67-1.45-10.01-6.96-32.11-15.55-37.92-1.36-.92-6.48-2.57-6.67-2.88-2.41-3.78,4.84-2.48,6.86-1.68,13.14,5.16,20.13,38.45,21.44,51.14ZM163.31,591.23c-1.05-1.07-7.41-4.34-4.02-5.63,5.28-2,11.41,8.45,13.19,12.28,7.59,16.3,6.61,36.28,8.88,53.87.35,2.63,3.75,16.58,3.21,17.27-.08.08-1.96.33-2.26.26-2.66-.65-3.48-6.51-4.04-8.98-4.1-18.25-1.98-55.86-14.96-69.07ZM174.76,666c-.39,2.26-3.19,1.75-4.31-.05-1.75-2.78-3.8-16.74-4.36-20.75-1.92-13.65-1.23-30.43-7.24-42.97-.61-1.28-5.08-7.06-4.84-7.43.09-.12,2.74-1.04,2.92-1.01.44.08,2.87,2.6,3.36,3.18,9.88,11.75,8.9,39.6,11.33,54.7.51,3.14,3.49,12.33,3.14,14.33ZM163.86,571.04c-2.4-.13-11.63,2.3-10.23,5.62.05.12.86-.07.98.92.86,7.11-5.67,4.87-6.03-.59-.38-5.88,11.49-12.29,16.48-11.54,2.24.34,5.05,2.16,6.4,3.97,5.46,7.29-4.64,1.77-7.6,1.62ZM160.64,645.74c.86,5.41,4.06,14.25,4.25,18.72.11,2.57-1.42,3.3-3.27,1.58-2.07-1.93-4.68-15.3-5.27-18.74-2.7-15.84-1.46-32.25-9.52-46.68-.48-.87-3.16-2.97-2.09-4.18.24-.28,3.6,1.14,4.2,1.52,9.38,5.91,10,37.11,11.7,47.78ZM146.07,676.09c1.38-.75,15.45,1.13,16.69,1.92.65.41.53.87.43,1.52-.22,1.48-3.22,7.73-4.07,9.61-3.81,8.33-8.88,16.25-12.86,24.51-3.77-.57-22.1,1.11-24.2-.39-.41-.29-.81-.76-.71-1.3l24.72-35.87ZM172.79,679.9c2.45-1.51,8.51.91,11.51,1.11,2.43.17,15.27-.37,16,.09.99.62-.43,4.81-.75,5.92-2.54,8.92-6.68,17.58-9.9,26.25l-28.29.52-3.84-1.09,15.27-32.8ZM209.64,683.46l40.25-.1,8.74,26.45-.38,3.18c-19.06.61-38.07.95-57.04.23l-1.38-.83,9.81-28.93ZM224.67,672.83c-4.61-.22-18.57-1.16-22.26-2.73-.23-.1-1.63-1.75-1.77-2.14-4.82-12.99-3.74-29.26-5.24-42.8-.48-4.28-3.78-15.18-3.58-18.01.38-5.32,11.89-21.28,15.92-25.46,12.19-12.59,44.28-31.19,60.05-16.39,9.89,9.3,18.63,50.4,18.82,64.12.02,1.16-.26,8.71-.57,9.04-.29.3-4.08-.4-4.83.08-.62.39-.35,5.19-1.71,3.74-.4-.43-.68-3.24-2.23-4.6-6.73-5.87-7.6,2.01-9.74,4.26-1.37,1.44-2.06-.19-1.87-1.75,1.04-8.22,8.12-23.86,4.83-31.75-1.42-3.4-7.57-4.5-10.85-4.19-1.61.16-3.07,1.68-5.02,1.96-4.46.64-9.63-2.7-12.78,2.49-1.34,2.21-.98,7.16,1.93,6.8,1.83-.22,1.51-2.31,3.26-2.7,2.38-.52,5.33.84,8.13.5,3.32-.4,10.37-7.09,10.14,1.94-.26,10.24-8.54,28.07-6.28,36.87,2.37,9.26,17.29,8.27,24.29,6.54v11.19l-.91.73c-18.96,1.42-38.69,3.16-57.73,2.26ZM285.4,650.37c-.23.39-6.34,3.06-7.42,3.22-3.01.46-11.02-.47-13.07-2.72-.8-.88-1.18-3.1.21-3.62.82-.31,8.42,1.8,11.39,1.59,1.74-.12,8.54-2.64,8.98-2.2.13.13.12,3.37-.09,3.73ZM259,682.63l29.76-2.41,18.31,29.16.79,4.39-38.73-.82c-1.11-.52-6.01-14.35-6.79-16.68-.79-2.35-4.46-12.05-3.34-13.64ZM293,603.97c.06,1.94-.57,3.71-.97,5.56l-2.17-12.55c1.94-1.88,3.1,5.86,3.14,6.99ZM259.86,429.15c5.58,40.75,15.72,81.43,35.91,117.44,1.11,1.99,6.26,8.04,5.06,9.75-1.93,2.74-4.79,1.67-6.53-.64-9.44-12.59-20.32-41.82-25.18-57.22-7.87-24.87-13.82-51.2-15.82-77.23,8.12-.89,5.84,2.62,6.56,7.9ZM255.75,474.75c2.01,7.39,6.17,17.87,7.27,24.93.48,3.13-1.74-.16-2.32-.71-2.46-2.33-20.87-20.89-20.95-22.42-.06-1.05,11.36-12.56,12.23-12.71,2.15-.37,3.28,9.12,3.77,10.91ZM234.37,470.3c-1.14.27-3.76-2.53-4.84-3.45-1.56-1.35-5.64-5.06-5.17-7.02.07-.3,4.03-3.2,4.74-3.85,1.17-1.08,2.76-4.43,4.7-4.08,1.27.23,8.59,8.04,8.49,8.82-.13,1.01-6.87,9.34-7.92,9.58ZM246.49,433.81c1.85,0,4.63,17.72,3.76,20.25-1.2.51-2.17.29-3.29-.27-1.46-.75-6.7-7.1-6.8-8.81-.12-2.09,5.05-11.17,6.33-11.17ZM229.57,421.25c2.18,0,15.53-.58,16.1,0,.17.18.03,2.19-.29,2.71l-9.85,14.73c-.77.13-8.49-9.46-8.74-10.33-.45-1.59.91-7.11,2.78-7.11ZM224.62,438.74c.28.05,3.27,3.09,3.52,3.59,2.49,4.96-7.11,10.55-7.57,10.02-.12-1.95,2.01-13.96,4.05-13.61ZM216.98,465.48c.79.15,10.82,10.52,10.71,11.68-.18,1.96-13.25,12.03-15.65,14.14-1.55,1.36-4.72,6.67-6.66,2.92,1.57-2.67,9.85-29.06,11.6-28.74ZM191.64,521.93c1.91-3.6,11.37-12.65,14.74-15.82,8.68-8.17,18.46-15.3,27.02-23.63,8.37,8.98,17.95,17,26.42,25.82,1.7,1.76,8.84,9.09,8.78,10.9-.02.84.16.95-.83.83-25.84-5.16-53.24-6.38-77.2,6-.16-1.54.37-2.79,1.07-4.1ZM175.71,545.28c7.72-10.86,35.62-19.92,48.54-21.3,10.58-1.14,42.01.62,50.14,7.7,1.32,1.15,4.75,6.21,1.48,6.81-.81.15-12.92-5.81-15.33-5.78-24.27-5.05-47.88-2.23-69.91,8.94-3.26,1.66-13.3,8.87-15.74,9.38-3.54.74-.11-4.46.82-5.75ZM169.65,556.79c.83.33,5.78,3.67,6.73,4.44,5.76,4.67,9.35,12.51,7.08,19.92-5.94-1.24-2.62-7.63-5.75-13.06-9.47-16.45-39.46-6.13-35.33,11.33,1.21,5.11,7.03,6.29,7.06,8.01.1,4.64-10.18,1.09-11.56-5.7-3.3-16.3,17.31-30.71,31.77-24.94ZM137.06,556.38c1,3.27-10.53,5.61-12.51,6.49-15.36,6.79-18.6,37.42-1.64,43.66,5.47,2.01,9.3-.6,12.11,6.44,3.04,7.57,2.13,23.67,3.25,32.77.57,4.58,4.02,17.01,3.72,20.22-.12,1.4-2.2,4.37-3.03,5.74-9.19,15.13-21.77,29.89-30.79,45.06-.51.86-2.65,3.88-2.17,4.64l219.86.55c.17-.94-.22-1.58-.62-2.37-4.46-8.65-14.88-21.14-20.66-30.09-2.4-3.71-12-17.15-12.5-20.24-.86-5.24.86-16.91,2.18-22.3,4.2-17.02,22.91-37.27,9.28-53.99,10.58-7.01,12.16-19.96,4.32-29.81,36.57-11.96,69.6-30.58,99.3-54.85,6.42-5.24,13.79-13.64,20.16-18.04,1.83-1.27,2.39-1.23,2.78,1.09,1.22,7.43-.12,21.75-.05,30.06.29,35.16-.37,70.66-.55,105.83-.19,36.82.19,73.71.03,110.55l-381.36.27-1.09-232.76c1.24-1.29,9.52,6.76,10.96,7.86,2,1.52,10.51,6.68,10.85,8.24l.55,68.77c.18,2.41-1.76,2.48-2.84,4.23-5.07,8.19,4.46,10.75,4.53,14.3.03,1.4-2.21,5.15-2.78,7.1-4.52,15.42-3.73,37.88,3.89,52.33,4.55,8.64,12.69-.61,16.1-5.59,7.05-10.31,8.74-32.98,5.13-44.57-.74-2.35-3.86-7.52-3.87-9.26,0-2.48,4.3-5.87,4.45-9.82.15-4.2-2.87-5.81-3.34-9.27l.56-54.31,45.79,21.07ZM58.15,469.93c.93,2.97,2.13,6.61,3.97,9.13,1.58,2.16,6.98,5.65,7.58,7.14.42,1.03.29,4.57-.26,4.9-1.06.65-8.47-5.4-9.53-6.55-5.95-6.45-8.07-16.82-8.49-25.35-.07-1.45-.28-8.76.53-9.34,3.76-2.65,9.18,10.3,11.27,12.82,3.49,4.18,7.57,3.85,6.8,10.72-.55,4.88-4.79.21-6.81-1.7l-5.77-6.24c-.85.67.43,3.57.71,4.47ZM66.54,509.03c-.93-.06-8.22-5.13-9.4-6.15-2.9-2.5-6.21-5.84-5.73-9.89.56-4.7,5.86,2.34,7.66,3.85,2.08,1.74,7.91,5.45,8.78,7.59.59,1.47.95,4.74-1.31,4.6ZM75.97,460.24c-.24-3.66,8.17-1.24,8.74,1.14-.15,41.64-.83,83.2-.53,124.96.16,3.67-4.37,3.32-7,3.41-4.04.14-1.76-3.45-1.71-6.12.71-41.12.81-82.28.5-123.39ZM85.47,603.74c-.79.71-.68,1.49-2.23,1.86-5.64,1.34-14.85-4.35-9.16-9.17,5.62-4.76,19.34.1,11.39,7.31ZM74.65,618.83c1.4-4.25,3.34-9.94,8.2-4.97,6.07,6.2,4.83,33.03,2.14,40.96-.89,2.62-4.81,10.48-8.34,8.62-.79-.42-2.84-7.26-3.14-8.59-2.31-10.29-2.15-25.94,1.14-36.02ZM96.82,499.46c-.66-1.79-7.59-12.49-4.18-13.27,6.82,4.97,12.14,13.36,11.12,22.04-.36,2.99-5.79,16.9-8.5,17.72-6.02,1.83,1.09-12.36,1.63-14.22,1.49-5.21,1.82-7.19-.07-12.27ZM126.59,509.25c-1.87,4.84-6.9,13.31-9.75,17.94-.79,1.28-4.83,7.93-5.33,8.3-3.42,2.53-2.3-2.41-1.58-4.16,3.16-7.64,9.11-15.41,10.11-24.27.62-5.42-.72-6.61-3.39-10.79-4.64-7.29-16.37-19.56-19.29-26.81-2.35-5.8,1.54-4.12,4.26-.99,4.89,5.62,22.2,28.14,24.5,33.89,1.13,2.84,1.65,3.81.47,6.89ZM131.37,494.39c-1.49-.01-10.82-11.96-12.51-13.96-3.1-3.69-6.51-7.21-9.25-11.22-3-4.38-10.79-14.35-.02-12.52,4.21,5.64,10,9.88,14.76,14.96,2.62,2.79,10.6,11.08,10.44,14.64-.07,1.57-1.68,8.12-3.42,8.1ZM134.38,451c-.4,5.64-.31,11.29-1.07,16.94-.11.81-.05,1.36-.85,1.87-1.62-1.66-7.29-7.36-7.23-9.45l10.22-32.02c.59,7.63-.54,15.11-1.07,22.66ZM117.2,377.57c2.67-.1,20.58,5.13,22.44,6.75,2.29,2,6.13,17.27,6.69,20.87,2.05,13.34,2,57.67-3.23,69.27-1.81,4.01-2.89,2.83-2.76-1.11.69-20.12,3.32-42.04,1.66-62.19-.26-3.16-3.8-19.33-5.5-21.24-1.19-1.33-5.12-1.27-5.4-.04-.09.37,2.18,5.53,2.18,6.54v8.46c-4.05-6.41-6.96-13.84-11.33-20.05-1.02-1.45-2.72-3.49-3.92-4.82-.73-.81-4.26-2.33-.83-2.44ZM101.59,375.73c23.97,16.89,32.48,42.93,22.52,71-.72,2.05-2.91,9.18-5.45,8.23-.19-.07-1.76-2.01-1.75-2.8.02-1.35,2.62-8.66,3.11-11.16,4.46-22.88,2.4-40.74-15.56-56.82-2.82-2.53-10.25-5.88-9.97-10.14.28-4.11,5.25.39,7.1,1.69ZM98.35,397.78c3.12-2.02-4.45-7.67-4.63-9.81,6.51.8,17.39,20.41,6.16,20.06-4.7-.14-14.65-5.38-19.79-4.79-1.97.23-3.22,3.21-1.34,4.61,1.76,1.3,17.56,5.89,20.67,6.61,3.5.81,6.26-1.18,6.08,4.33-.12,3.94-4.38,6.3-7.91,6.22-4.52-.1-17.69-6.11-20.25-5.73-2.37.36-2.46,3.75-.11,5.37,2.05,1.41,15.94,5.92,18.73,6.37,3.87.62,12.52-1.46,7.22,6.78-5.91,9.2-26.74-5.3-30.33-1.68-4.83,4.87,7.55,6.39,9.82,7.1,7.13,2.25,6.87,3.23,14.02,2.83,4.77-.27,10.53-.37,5.18,5.72-5.94,6.77-23.75,1.89-31.21-.9-11.52-4.3-14.23-9.05-14.84-21.17-.48-9.55,1.58-40.3,12.69-43.5,8.46-2.44,27.81,12.9,29.84,11.58ZM54.45,358.77c.21-.2.66-.57,1.27-1.05.24-.19.51-.4.79-.63.51-.4,1.08-.84,1.68-1.29.15-.12.3-.23.46-.35.82-.63,1.69-1.28,2.55-1.91.38-.28.75-.55,1.12-.82.37-.27.73-.54,1.08-.78.18-.13.35-.26.52-.37,1.57-1.12,2.87-1.99,3.4-2.23.05-.02.09-.04.13-.05.04,0,.07-.02.09-.02,1.76.03,1.81,6.7.87,7.9-.45.58-8.1,4.7-9.83,6-2.27,1.72-4.31,3.69-6.35,5.68-.79.76-1.02,3.14-2.29.69-2.39-4.62,1.55-7.98,4.51-10.77ZM52,378.42c2.27-2.87,13.04-12.27,16.55-11.16,1.25.4,1.83,6.51.16,7.95-2.4,2.07-7.49,3.96-10.48,6.72-2,1.85-4.93,6.08-6.26,8.47-1.13,2.03-1.04,6.06-3.57,4.14-4.14-3.15,1.12-12.97,3.6-16.12ZM352.31,426.67l-11.87-3.31c3.46,3.28,8.17,4.69,11.87,3.31Z"/>
      <path class="cls-4" d="M47.08,505.3c1.24-1.28,9.51,6.77,10.96,7.86,2,1.52,10.51,6.68,10.85,8.25l.56,68.76c.18,2.41-1.76,2.49-2.85,4.24-5.07,8.18,4.46,10.74,4.53,14.3.03,1.4-2.21,5.15-2.78,7.1-4.52,15.42-3.73,37.88,3.89,52.34,4.55,8.63,12.69-.61,16.1-5.59,7.05-10.31,8.74-32.98,5.13-44.57-.73-2.35-3.86-7.53-3.86-9.26,0-2.49,4.3-5.87,4.44-9.82.16-4.2-2.87-5.82-3.33-9.27l.56-54.31,45.79,21.07c.99,3.28-10.53,5.62-12.52,6.49-15.36,6.79-18.6,37.42-1.63,43.66,5.46,2.01,9.29-.59,12.11,6.44,3.03,7.57,2.12,23.67,3.25,32.77.57,4.58,4.02,17.01,3.72,20.22-.13,1.39-2.21,4.36-3.04,5.73-9.19,15.13-21.77,29.89-30.78,45.06-.51.86-2.66,3.88-2.17,4.64l219.86.55c.17-.94-.22-1.59-.62-2.37-4.46-8.65-14.88-21.14-20.66-30.09-2.4-3.72-12-17.16-12.5-20.24-.86-5.25.86-16.92,2.19-22.3,4.2-17.03,22.91-37.27,9.28-53.99,10.58-7.02,12.16-19.97,4.32-29.81,36.57-11.96,69.6-30.58,99.3-54.85,6.42-5.24,13.79-13.64,20.15-18.04,1.83-1.27,2.4-1.23,2.78,1.09,1.22,7.43-.12,21.75-.05,30.06.29,35.15-.37,70.66-.55,105.83-.19,36.82.2,73.71.03,110.54l-381.36.27-1.09-232.76ZM374.42,723.05l26.73.55v-8.46c0-2.5-9.1.02-9.27-2.73.98-14.8-1.31-31.26-.02-45.86.69-7.86,7.32-16.13,13.94-7.36,4.02,5.33.83,14.37,2.58,16.25l9.3.69c.38-.04.93-1.27.93-1.38v-10.92c0-23.76-35.19-25.99-37.63.56-1.29,13.96.06,31.43-.04,45.85-.02,2.25,1.68,2.8-1.27,3.64-1.3.37-5.25-.63-5.25.7v8.46ZM338.95,677.21c3.6,12.21,18.94,13.15,26.1,3.45,6.98-9.45,1.32-20.63-3.63-29.47-6.67-11.89-15.88-22.31-22.79-34.05-1.74-.33-4.4,5.98-5.45,7.63-7.73,12.13-25.36,32.54-24.25,46.73,1.34,17.15,21.99,21.95,28.9,6.05l1.12-.34ZM397.34,627c2.18,2.23,2.32,5.22,5.27,7,4.15,2.5,10.6,1.23,13.51-2.67,9.6-12.9-11.99-32.59-17.27-43.77-.51-1.42-1.81-1.18-2.62-.15-6,10.7-25.91,31.43-17.35,44.14,4.7,6.97,17.07,3.48,18.47-4.55Z"/>
      <path class="cls-4" d="M283.31,669.84l-.91.73c-18.96,1.42-38.69,3.16-57.73,2.26-4.61-.22-18.57-1.16-22.26-2.73-.23-.1-1.63-1.75-1.78-2.14-4.81-12.99-3.74-29.27-5.24-42.8-.47-4.29-3.77-15.18-3.57-18.01.37-5.31,11.88-21.28,15.92-25.45,12.18-12.59,44.28-31.2,60.04-16.39,9.9,9.3,18.63,50.4,18.82,64.12.02,1.16-.25,8.71-.57,9.04-.29.31-4.08-.4-4.83.08-.62.39-.35,5.2-1.71,3.74-.4-.43-.68-3.24-2.23-4.59-6.72-5.87-7.6,2-9.73,4.26-1.37,1.45-2.07-.19-1.87-1.74,1.04-8.22,8.12-23.86,4.83-31.75-1.42-3.4-7.57-4.51-10.85-4.19-1.61.16-3.07,1.67-5.02,1.95-4.46.64-9.64-2.69-12.78,2.49-1.34,2.21-.98,7.16,1.93,6.8,1.83-.23,1.51-2.32,3.26-2.7,2.38-.52,5.33.83,8.13.5,3.31-.4,10.37-7.09,10.14,1.94-.26,10.24-8.55,28.07-6.29,36.88,2.37,9.25,17.29,8.27,24.29,6.53v11.19ZM206.03,653.54c6.82,8.51,28.62,8.8,37.82,4.67,1.79-.8,7.96-4.37,4.71-6.56s-8.24,1.15-11.53,1.93c-8.5,2.01-15.26,1.22-23.31-2-2.38-.95-5.9-4.65-8.22-2.8-1.64,1.31-.54,3.44.52,4.77ZM212.03,643.18c3.68,3.82,11.77,6.23,16.99,6.23,2.63,0,13.72-2.15,15.04-4.09,2.81-4.14-3.08-3.4-3.76-4.24-.48-.58.47-2.42-1.47-2.67-2.45-.31-2.61,2.95-3.05,3.26-1.69,1.21-2.07-2.78-3.41-4.12-4.43-4.47-11.17-.64-10.73,5.27-.54.63-7.55-3.44-8.97-3.28-2.43.26-2,2.24-.65,3.64ZM253.33,598.04c1.19.78,1.01-1.02,1.4-1.1.86-.17,1.87.6,2.31.48.2-.05.47-2.13,3.5-1.53.29.06.75,1.61,2.86,1.53s6.36-2.02,6.28-4.49c-.18-5.15-4.98-2.63-7.38-2.52-3.02.15-8.25.67-10.91.56-3.6-.15-15.39-6.02-17.08-.15-1.25,4.33,3.31,3.03,5.5,3.55,3.44.81,7.25,2.28,10.62,3.03.89.2,1.89-.57,2.54-.47.45.07.29,1.06.36,1.1ZM261.32,580.23c-1.74-1.33-12.41-1.15-14.02.65-4.16,4.64,10.56,4.36,12.79,4.04,2.81-.4,3.19-3.19,1.23-4.69Z"/>
      <path class="cls-3" d="M132.22,545.65c.52.67,14.89,5.46,16.1,5,24.9-32.11,43-69.43,54.62-108.56,4.91-16.53,8.61-35.02,10.63-54.14l-19.14-5.34c-2.58,28.18-8.68,55.83-17.7,79.65-9.93,26.23-24.6,50.01-39.19,73.76-.92,1.5-6.58,8.01-5.32,9.63ZM201.74,394.49c7.7-.12,7.51,11.17.01,11.19-6.35.03-6.89-11.08-.01-11.19ZM191.68,427.56c.73-4.45,6.35-5.66,9.07-2.31,6.5,8.02-10.87,13.41-9.07,2.31ZM193.77,454.33c3.14,6.45-5.14,10.56-9.03,6.04-5.42-6.28,5.38-13.51,9.03-6.04ZM182.74,480.09c1.19,2.29.3,6.21-1.62,7.57-2.22,1.58-7.23.59-8.27-2.03-2.92-7.31,6.47-12.15,9.89-5.54ZM168.99,503.68c4.28,6.77-6.88,10.88-9.37,6.91-4.3-6.86,5.17-13.56,9.37-6.91ZM149.66,524.13c7.58-3.15,10.28,11.17,1.33,10.4-4.39-.38-4.76-8.97-1.33-10.4Z"/>
      <path class="cls-3" d="M307.62,551.38c-18.17-26.49-39.73-90.3-41.21-122.22-.07-1.52-.49-6.46.65-6.99,6.54-3.01,1.88,4.41,5.25,5.57,9.84,3.36,6.16-5.17,7.7-6.25.72-.51,2.39-.45,3.05.3.77.89,1.52,15.93,1.94,18.79,4.81,32.55,17.97,62.83,32.39,92.03,1.12,2.27,7.73,13.34,7.84,14.56.05.54-.08.63-.4,1-.51.6-13.52,5.55-14.66,5.6-2.14.08-1.69-1.14-2.54-2.39ZM308.02,534.64c4.48-1.35,2.31-8.73-2.12-9.16-7.67-.74-6.22,11.66,2.12,9.16ZM290.55,509.51c3.24,5.17,14.43-.46,7.98-7.17-4.46-4.64-11.72,1.22-7.98,7.17ZM281.84,484.38c7.8,5.73,12.49-12.16.79-9.5-4.38,1-3.17,7.74-.79,9.5ZM275.3,446.53c-5.19,4.59,1.79,12.95,6.89,8.25s-2.63-12.02-6.89-8.25Z"/>
      <path class="cls-4" d="M159.22,546.25c1.19-3.5,11.1-15.57,13.9-19.93,19.75-30.83,34.97-69.62,42.37-105.52,2.09-10.15,3.78-20.49,4.95-30.93l5.91,1.65c-1.44,12.62-3.52,24.72-6.05,35.74-7.75,33.82-30.49,95.47-55.65,119.51-2.32,2.22-7.22,4.73-5.43-.52Z"/>
      <path class="cls-3" d="M126.64,524.57c6.93-14.39,16.68-28.19,23.93-42.64,15.06-30.03,25.7-66.6,29.42-103.35l6.56,1.83c-5.94,51.57-26.73,101.12-53.72,145.99-1.57,2.61-6.5,11.05-8.45,12.55-7.29,5.64,1.65-13.12,2.26-14.38Z"/>
      <path class="cls-3" d="M329.37,420.27l11.07,3.09c3.46,3.28,8.17,4.69,11.87,3.31l8.21,2.29c-.64,1.78-1.27,3.39-1.82,4.67-.63,1.49-3.68,8.01-4.85,8.29-.74.18-7.83-2.61-10.28-2.68-4.17-.11-11.14,3.75-12.53-1.61-1.02-3.92-1.68-10.43-1.67-17.36Z"/>
      <path class="cls-3" d="M249.89,683.36l8.74,26.46-.38,3.17c-19.06.61-38.06.96-57.04.23l-1.37-.83,9.81-28.93,40.25-.1Z"/>
      <path class="cls-3" d="M190.56,526.03c-.16-1.53.38-2.79,1.07-4.1,1.91-3.6,11.37-12.65,14.74-15.82,8.68-8.16,18.46-15.3,27.02-23.63,8.37,8.99,17.95,17,26.43,25.82,1.7,1.76,8.84,9.09,8.78,10.9-.03.84.15.95-.84.84-25.84-5.16-53.23-6.38-77.2,6Z"/>
      <path class="cls-3" d="M381.93,446.49c.57-3.1-.55-8.16.23-10.67.08-.24.24-.47.46-.69l10.16,2.83c-1.58,4.7-4.27,9.64-5.9,13.49-2.58,6.08-.95,7.72-8.66,9.89-10.98,3.1-3.26-3.89-.3-8.21,1.4-2.04,3.5-3.87,4.01-6.64Z"/>
      <path class="cls-3" d="M345.19,489.16c3.48-4.46,7.55-8.27,11.21-12.53,5.39-6.3,5.36-13.11,14.32-6.23,3.88,2.98,5.8,7.23,5.34,12.25-.79,8.69-15.51,11.04-13.63,1.66.59-2.93,4.87-3.21,6.02-4.9,2.12-3.09-2.78-5.24-5.7-3.52-1.22.72-9.68,12.34-11.02,14.35-3.12,4.68-8.57,12.35-8.42,18.03.12,4.73,8.32,20.18,13.33,19.95.19,0,3.42-1,3.53-1.15,1.52-2.02-6.21-9.38-7.25-12-2.49-6.25,2.22-15.18,8.56-16.99,2.98-.85,10.04-1.21,12.91-.12,2.67,1.01,4.85,7.03,7.93,8.99,2.03,1.29,8.42,1.5,7.86,3.97-.16.68-7.09,5.66-8.12,6.11-2.84,1.27-11.29,2.79-12.81-.83-2.54-6.03,2.19-3.71,5.57-4.78,5.87-1.85.89-6.71-2.9-7.18-8.95-1.11-15.34,9.53-7.34,16.07,1.35,1.1,6.18,2.7,6.01,3.79-.11.68-9.73,7.06-11.17,7.93-1.77,1.07-8.13,5.24-9.53,4.66-1.06-.44-8.13-10.41-9.19-12.13-2.75-4.5-8.16-14.12-6.36-19.24,1.33-3.77,8.14-12.69,10.85-16.16Z"/>
      <path class="cls-4" d="M315.42,416.37l5.77,1.61c-.07,9.94.59,19.86,2.02,29.66,1.96,13.37,2.8,5.54,8.71,1.22,4.14-3.04,9.98-4.83,14.86-2.41,1.87.93,4.18,3.18,1.07,4.15-3.1.96-5.73-.6-10.01,1.45-1.3.63-9.74,7.47-10.57,8.54-3.49,4.53,1.06,8.07.21,12.74-.21,1.14-3.14,5.66-4.33,4.67-.71-.59-3.81-15.7-4.21-17.89-2.43-13.27-3.67-28.25-3.52-43.74Z"/>
      <path class="cls-3" d="M307.86,713.77l-38.74-.82c-1.11-.52-6.01-14.35-6.79-16.68s-4.46-12.05-3.34-13.65l29.76-2.41,18.31,29.16.8,4.39Z"/>
      <path class="cls-3" d="M331.06,484.57c.33-.77,10.15-9.84,11.95-11.79,10.96-11.8,19.73-26.06,25.83-41.5l5.37,1.5c-8.79,21.88-22.92,40.6-40.99,56.72-1.86-.77-2.97-3.09-2.16-4.93Z"/>
      <path class="cls-3" d="M77.18,589.75c-4.04.14-1.76-3.45-1.71-6.12.71-41.12.81-82.28.5-123.39-.24-3.66,8.17-1.24,8.74,1.14-.15,41.65-.82,83.2-.52,124.97.15,3.66-4.38,3.32-7,3.41Z"/>
      <path class="cls-4" d="M231.87,548.77c11.39-1.71,17.95-1.92,29.62,1.54,6.63,1.97,15.22,5.92,19.09,11.73-6.33,4.03-6.87-1.52-11.62-4.46-21.28-13.2-54.3,6.29-68.85,22.48-3.28,3.65-7.05,10.47-10.05,13.3-1.52,1.44-3.84-4.19-3.8-5.4.06-1.78,3.99-6.65,4.29-11.46.19-3.08-2.26-12.25-1.93-12.81.78-1.33,19.11-9.47,21.84-10.39,7.12-2.39,14.09-3.43,21.41-4.53Z"/>
      <path class="cls-3" d="M200.3,681.1c.99.62-.43,4.81-.75,5.91-2.55,8.92-6.68,17.58-9.91,26.26l-28.29.52-3.83-1.09,15.27-32.81c2.45-1.51,8.51.91,11.51,1.12,2.43.17,15.27-.37,16,.09Z"/>
      <path class="cls-3" d="M334.31,530.69c2.06,3.39,5.53,6.36,6.29,10.62-2.45-.18-5.13,4.27-7.37,2.2-9.59-16.25-18.2-33.11-25.17-50.68-6.95-17.53-12.75-36.27-15.4-55-.56-3.99-1.72-11.07-1.6-14.8.07-2.23,6.33-1.31,6.9.22,1.03,2.77.77,9.27,1.24,12.4,4.92,32.49,18.11,67.05,35.11,95.05Z"/>
      <path class="cls-3" d="M146.25,713.65c-3.77-.57-22.1,1.11-24.2-.39-.41-.29-.81-.76-.7-1.3l24.71-35.88c1.38-.75,15.46,1.14,16.69,1.92.66.42.53.87.44,1.52-.22,1.48-3.22,7.73-4.08,9.61-3.81,8.33-8.88,16.26-12.86,24.51Z"/>
      <path class="cls-4" d="M253.3,421.25c8.12-.88,5.84,2.62,6.56,7.9,5.58,40.76,15.71,81.43,35.9,117.44,1.12,1.99,6.27,8.04,5.06,9.76-1.92,2.74-4.79,1.66-6.52-.65-9.44-12.59-20.32-41.82-25.19-57.21-7.86-24.88-13.82-51.2-15.81-77.24Z"/>
      <path class="cls-3" d="M140.85,367.65l5.94,1.66c9.4,21.63,13.91,45.44,11.58,66.39-.33,2.93-3.27,9.04-4.34,3.81-1.16-5.65.35-16.01-.03-22.35-1.12-18.95-5.69-35.03-13.15-49.51Z"/>
      <path class="cls-3" d="M274.39,531.68c1.31,1.15,4.75,6.21,1.48,6.81-.81.15-12.92-5.81-15.33-5.78-24.27-5.06-47.88-2.24-69.91,8.94-3.26,1.66-13.3,8.86-15.74,9.38-3.55.75-.11-4.45.81-5.75,7.73-10.86,35.62-19.92,48.54-21.3,10.58-1.13,42.01.62,50.14,7.7Z"/>
      <path class="cls-3" d="M273.16,549.82c-23.13-12.51-50.03-10.15-73.52.85-2.48,1.16-13.84,8.03-14.85,8.12-1.89.18-4.26-2.95-2.72-4.96s18.85-10.86,22.2-12.18c20.27-7.97,62.68-9.91,78.51,7.56.89.98,5.81,7.38,2.97,7.93-.71.14-10.74-6.33-12.58-7.32Z"/>
      <path class="cls-3" d="M133.28,404.88c-4.04-6.41-6.96-13.83-11.33-20.05-1.02-1.44-2.72-3.49-3.92-4.81-.73-.81-4.26-2.33-.83-2.45,2.68-.09,20.58,5.13,22.44,6.76,2.29,2,6.14,17.27,6.69,20.87,2.05,13.34,2.01,57.67-3.23,69.27-1.81,4.01-2.89,2.83-2.76-1.1.69-20.12,3.32-42.04,1.66-62.2-.26-3.16-3.8-19.33-5.5-21.24-1.19-1.33-5.12-1.27-5.4-.04-.08.37,2.18,5.53,2.18,6.53v8.46Z"/>
      <path class="cls-3" d="M233.95,403.8c11.74-.6,23.41-.55,35.08-.37l32.61,9.1c-10.02-.06-20.05.04-30.08,0-1.41,0-2.77-.59-4.32-.6-11.06-.08-22.29,1.01-33.33.49-4.11-.19-2.66-8.04.04-8.63Z"/>
      <path class="cls-3" d="M76.65,663.44c-.79-.42-2.84-7.25-3.14-8.58-2.32-10.29-2.15-25.95,1.14-36.02,1.39-4.25,3.33-9.95,8.2-4.98,6.06,6.2,4.83,33.04,2.14,40.96-.89,2.62-4.81,10.48-8.34,8.61Z"/>
      <path class="cls-3" d="M76.14,376.08l.02-26.48,9.58,2.67c-.29,8.66-.73,17.18-1.01,24.5-.05,1.38,1.82,5.59-.8,5.73-1.28.07-8.81-3.85-7.79-6.42Z"/>
      <path class="cls-3" d="M395.37,476.7c-4.28-4.48-7.41-4.57-13.32-6.07-.6-1.43,3.89-3.24,4.77-3.42,12.87-2.64,25.4,14.36,20,26.56-3.72,8.42-10.36,12.04-19.06,7.71-9.71-4.83-6.02-18.86.85-16.72,3.94,1.23,1,4.64,1.14,5.93.44,4.08,6.26,5.15,8.91.92,3.38-5.42.55-10.88-3.3-14.92Z"/>
      <path class="cls-3" d="M118.65,454.96c-.18-.07-1.76-2.01-1.75-2.8.02-1.35,2.62-8.66,3.11-11.16,4.47-22.88,2.4-40.74-15.55-56.82-2.82-2.53-10.25-5.88-9.97-10.14s5.25.39,7.09,1.69c23.97,16.89,32.48,42.94,22.53,71.01-.73,2.05-2.92,9.17-5.45,8.22Z"/>
      <path class="cls-4" d="M161.7,579.46c-2.41-3.78,4.84-2.48,6.86-1.69,13.14,5.16,20.13,38.46,21.44,51.14.76,7.37.37,15.53,1.11,22.9.49,4.84,2.71,11.5,2.75,15.84.04,4.67-2.66,3.36-4.13.28-5-10.4-3.98-35.08-5.81-47.68-1.45-10.01-6.96-32.11-15.56-37.92-1.36-.92-6.47-2.57-6.67-2.87Z"/>
      <path class="cls-3" d="M411.5,471.8c.02-.29.83-.36,1.05-.8,2.85-5.81,6.37-12.8,10.44-17.81,1.43-1.75,3.58-4.64,5.9-5.15.39-.09.78-.11,1.18-.05-.01.12-.02.24-.03.37-.6,7.19.93,15.89.03,22.82-.26,2.02-1.24,3.68-2.28,5.37-.73,1.19-9.71,12.3-10.52,12.4-.64.09-1.1.22-1.38-.4-1.33-2.89-1-7.22-1.9-10.56-.42-1.53-2.58-5.06-2.49-6.19Z"/>
      <path class="cls-4" d="M121.81,576.24c-.81,7.83-1.85,17.16,7.26,20.3,7.72,2.66,8.55-.55,13.71,8.12,7.59,12.77,5.19,28.03,7.47,42.19.74,4.57,3.59,12,3.72,15.98.07,2.37-.87,3.09-2.9,1.76-3.3-2.17-5.82-22.86-6.33-27.51-.97-8.94.22-30.14-8.55-35.11-5.33-3.02-10.76.32-15.46-6.36-3.32-4.73-4.87-16.04,1.08-19.37Z"/>
      <path class="cls-4" d="M184.56,669.02c-.07.09-1.95.34-2.26.26-2.66-.65-3.48-6.51-4.04-8.98-4.1-18.25-1.99-55.86-14.96-69.08-1.05-1.06-7.41-4.34-4.02-5.62,5.28-2,11.41,8.45,13.19,12.28,7.59,16.3,6.61,36.28,8.88,53.87.34,2.63,3.75,16.58,3.2,17.26Z"/>
      <path class="cls-3" d="M118.86,480.43c-3.1-3.68-6.51-7.21-9.25-11.22-3-4.38-10.78-14.35-.02-12.53,4.21,5.65,10,9.88,14.77,14.97,2.61,2.79,10.6,11.08,10.44,14.64-.07,1.57-1.68,8.12-3.42,8.1-1.48-.02-10.82-11.96-12.51-13.96Z"/>
      <path class="cls-3" d="M116.65,496.27c-4.65-7.29-16.37-19.56-19.3-26.81-2.34-5.8,1.54-4.13,4.27-.99,4.89,5.62,22.2,28.14,24.49,33.89,1.13,2.84,1.66,3.8.47,6.88-1.86,4.85-6.9,13.32-9.75,17.95-.78,1.27-4.83,7.93-5.33,8.3-3.41,2.52-2.3-2.41-1.58-4.16,3.16-7.64,9.1-15.41,10.11-24.27.62-5.42-.72-6.61-3.39-10.79Z"/>
      <path class="cls-3" d="M63.21,471.7l-5.78-6.24c-.85.67.44,3.57.72,4.47.93,2.97,2.13,6.61,3.97,9.13,1.58,2.16,6.97,5.65,7.58,7.15.42,1.03.29,4.57-.27,4.9-1.06.64-8.46-5.4-9.53-6.56-5.94-6.45-8.06-16.82-8.49-25.35-.07-1.45-.29-8.76.53-9.34,3.76-2.65,9.18,10.3,11.27,12.82,3.49,4.19,7.57,3.85,6.8,10.72-.55,4.89-4.79.22-6.81-1.7Z"/>
      <path class="cls-4" d="M154.01,594.81c.09-.13,2.74-1.04,2.92-1.01.43.07,2.87,2.6,3.36,3.18,9.88,11.74,8.9,39.59,11.33,54.7.5,3.13,3.48,12.32,3.14,14.32-.39,2.26-3.19,1.75-4.31-.05-1.74-2.78-3.8-16.74-4.36-20.75-1.91-13.65-1.23-30.43-7.24-42.97-.62-1.28-5.09-7.06-4.84-7.43Z"/>
      <path class="cls-3" d="M260.7,498.97c-2.46-2.33-20.87-20.89-20.95-22.43-.06-1.05,11.36-12.55,12.23-12.7,2.15-.38,3.28,9.12,3.76,10.9,2.01,7.39,6.18,17.87,7.27,24.93.49,3.13-1.74-.15-2.32-.7Z"/>
      <path class="cls-4" d="M169.64,556.79c.83.33,5.79,3.67,6.74,4.44,5.75,4.67,9.35,12.51,7.08,19.92-5.94-1.24-2.63-7.63-5.75-13.06-9.47-16.45-39.46-6.13-35.33,11.33,1.21,5.11,7.03,6.3,7.06,8.01.1,4.64-10.18,1.1-11.56-5.7-3.31-16.3,17.3-30.71,31.76-24.94Z"/>
      <path class="cls-4" d="M144.74,596.44c.24-.27,3.6,1.14,4.2,1.52,9.38,5.92,10,37.11,11.7,47.78.86,5.41,4.06,14.25,4.25,18.72.11,2.57-1.42,3.3-3.27,1.58-2.07-1.93-4.68-15.3-5.27-18.74-2.71-15.84-1.47-32.25-9.53-46.68-.48-.86-3.16-2.96-2.09-4.18Z"/>
      <path class="cls-3" d="M395.32,455.53c.87-3.92,2.77-9.57,5.3-15.38l4.74,1.32c-1.75,5.37-4.62,16.73-5.9,18.19-.98,1.13-3.11,1.09-4.17.2-.97-.82-.22-3.2.03-4.33Z"/>
      <path class="cls-4" d="M288.93,589.72c-4.43-3.37-.8-13.33,3.42-13.99,3.13-.49,4.38.54,3.09,3.65-.59,1.43-6.24,4.48-2.31,6.41,7.74,3.82,13.16-17.09.35-16.61-6.41.24-6.87,4.04-10,7.49-2.82,3.12-2.45-3.01-1.53-5.33,6.05-15.39,30.4-4.53,22.75,11.3-1.83,3.78-12.82,9.32-15.77,7.09Z"/>
      <path class="cls-3" d="M212.03,491.3c-1.55,1.36-4.72,6.67-6.66,2.92,1.57-2.67,9.86-29.06,11.61-28.74.79.15,10.82,10.52,10.71,11.68-.18,1.96-13.25,12.03-15.65,14.14Z"/>
      <path class="cls-3" d="M410.75,451.31c1.29-2.14,2.95-4.61,4.69-7.02l5.88,1.64c-1.32,1.33-2.41,2.49-2.93,3.2-1.84,2.52-3.86,6.01-5.43,8.76-.97,1.7-3.63,8.29-4.12,8.87-1.21,1.43-3.36-1.91-3.64-2.93-.57-2.1,4.15-10.22,5.55-12.52Z"/>
      <path class="cls-3" d="M68.7,375.21c-2.4,2.07-7.49,3.95-10.47,6.71-2,1.85-4.93,6.08-6.26,8.47-1.13,2.03-1.04,6.07-3.57,4.15-4.15-3.15,1.12-12.98,3.6-16.12,2.26-2.87,13.04-12.27,16.55-11.16,1.25.4,1.83,6.51.16,7.95Z"/>
      <path class="cls-3" d="M95.25,525.95c-6.02,1.83,1.1-12.36,1.63-14.22,1.49-5.21,1.82-7.2-.06-12.27-.67-1.8-7.6-12.49-4.18-13.27,6.81,4.97,12.13,13.36,11.11,22.04-.35,2.99-5.79,16.9-8.5,17.72Z"/>
      <path class="cls-3" d="M245.66,421.25c.17.18.03,2.19-.29,2.72l-9.85,14.73c-.76.12-8.49-9.46-8.74-10.34-.45-1.58.91-7.11,2.78-7.11,2.18,0,15.53-.58,16.09,0Z"/>
      <path class="cls-3" d="M104.47,365.96c.58-1.77,7.63-3.82,9.59-4.05,2.01-.23,4.13-.24,6.22,0,2.36.28,4.67.89,6.72,1.88,4.02,1.93,7.02,5.32,7.37,10.52-6.96-2.13-12.64-5.63-20.46-5.5-3.3.05-11.64,3.85-9.44-2.85Z"/>
      <path class="cls-3" d="M229.53,466.85c-1.56-1.35-5.64-5.06-5.17-7.02.07-.3,4.04-3.2,4.75-3.85,1.17-1.08,2.75-4.43,4.69-4.08,1.28.23,8.6,8.04,8.5,8.82-.13,1.01-6.88,9.34-7.93,9.59-1.13.27-3.76-2.53-4.84-3.46Z"/>
      <path class="cls-3" d="M135.45,428.34c.58,7.63-.54,15.11-1.08,22.66-.4,5.64-.31,11.29-1.07,16.94-.11.81-.04,1.36-.85,1.87-1.62-1.66-7.29-7.36-7.23-9.44l10.23-32.02Z"/>
      <path class="cls-3" d="M54.45,358.77c1.37-1.29,12.28-9.51,13.09-9.5,1.76.03,1.81,6.69.87,7.9-.45.58-8.1,4.7-9.82,6-2.28,1.72-4.31,3.69-6.36,5.67-.79.76-1.02,3.15-2.29.69-2.39-4.62,1.55-7.98,4.51-10.77Z"/>
      <path class="cls-4" d="M153.62,576.66c.05.12.86-.07.98.92.86,7.11-5.67,4.87-6.03-.59-.38-5.88,11.49-12.29,16.48-11.54,2.24.34,5.05,2.16,6.4,3.97,5.45,7.29-4.64,1.77-7.6,1.61-2.4-.13-11.63,2.31-10.23,5.62Z"/>
      <path class="cls-3" d="M94.13,356.71c.14-.77.33-1.39.58-1.93l7.25,2.02c-3.5,3.39-10.15,12.91-7.83-.09Z"/>
      <path class="cls-3" d="M85.47,603.74c-.79.72-.69,1.49-2.23,1.86-5.64,1.35-14.85-4.35-9.16-9.17,5.62-4.76,19.34.1,11.39,7.31Z"/>
      <path class="cls-3" d="M246.96,453.79c-1.46-.74-6.7-7.09-6.8-8.8-.12-2.1,5.05-11.17,6.32-11.17,1.85,0,4.63,17.72,3.76,20.25-1.2.51-2.17.3-3.29-.27Z"/>
      <path class="cls-3" d="M157.36,372.75c.1-.15.34-.24.66-.3l9.39,2.62c-.13.54-.33,1.01-.6,1.4-.84,1.21-6.24,3.11-7.52,2.7-1.47-.48-2.65-5.29-1.93-6.42Z"/>
      <path class="cls-3" d="M57.14,502.88c-2.89-2.5-6.21-5.83-5.73-9.88.56-4.7,5.86,2.34,7.66,3.85,2.08,1.73,7.91,5.44,8.77,7.59.59,1.47.95,4.74-1.31,4.6-.93-.06-8.22-5.13-9.4-6.15Z"/>
      <path class="cls-3" d="M48.9,341.99l4.48,1.25c-2.12,2.21-5,5.11-5.75,4.33-.58-1.74.01-3.66,1.27-5.58Z"/>
      <path class="cls-4" d="M264.91,650.87c-.8-.88-1.18-3.09.21-3.62.82-.31,8.42,1.8,11.39,1.59,1.74-.13,8.54-2.64,8.98-2.2.13.13.12,3.37-.09,3.73-.23.39-6.34,3.06-7.42,3.22-3.01.46-11.02-.47-13.07-2.73Z"/>
      <path class="cls-4" d="M294.22,626.45c-.58-.64,3.5-14.39,3.76-16.7.16-1.47-.46-11.71.33-11.67.3.02,1.85,1.23,2.17,1.65,3.68,4.85.82,14.65-1.42,19.82-.27.62-3.76,8.08-4.83,6.9Z"/>
      <path class="cls-4" d="M132.18,569.15c-.28,7.1-2.6,11.91,1.41,18.52.66,1.09,4.33,3.31,1.03,3.87-4.29.73-7.64-5.47-7.85-9.1-.23-3.81,2.11-11.06,5.41-13.29Z"/>
      <path class="cls-3" d="M343.66,462.53c-1.09,1.9-6.39,6.97-8.22,3.98-3.29-5.39,4.29-12.52,8.11-7.57,1.14,1.48.96,2.09.1,3.58Z"/>
      <path class="cls-3" d="M220.57,452.35c-.12-1.95,2-13.96,4.05-13.61.27.05,3.27,3.09,3.51,3.59,2.5,4.97-7.1,10.55-7.56,10.03Z"/>
      <path class="cls-3" d="M164.41,415.22l-1.67-14.16c2.26.07,5.19.27,5.45,3.05.15,1.56-1.22,12.78-3.77,11.11Z"/>
      <path class="cls-3" d="M161.72,392.8c-.71-.46-3.04-7.41,1.85-7.6,5.32-.21,3.67,7.12,2.9,7.59-.33.21-4.45.21-4.75,0Z"/>
      <path class="cls-4" d="M289.86,596.98c1.94-1.88,3.1,5.86,3.14,7,.06,1.94-.57,3.7-.97,5.55l-2.17-12.55Z"/>
      <path class="cls-4" d="M98.35,397.78c3.12-2.02-4.45-7.67-4.64-9.81,6.51.8,17.39,20.41,6.16,20.06-4.7-.15-14.65-5.39-19.79-4.79-1.97.23-3.22,3.21-1.34,4.61,1.76,1.31,17.56,5.89,20.67,6.61,3.5.81,6.26-1.17,6.08,4.34-.13,3.93-4.38,6.3-7.91,6.22-4.53-.1-17.69-6.11-20.25-5.73-2.37.35-2.46,3.75-.11,5.36,2.05,1.41,15.94,5.93,18.72,6.37,3.87.62,12.52-1.46,7.22,6.78-5.91,9.2-26.74-5.3-30.33-1.68-4.83,4.87,7.55,6.39,9.82,7.1,7.13,2.25,6.87,3.23,14.02,2.83,4.77-.27,10.53-.36,5.18,5.73-5.94,6.76-23.75,1.89-31.22-.9-11.52-4.3-14.23-9.05-14.84-21.18-.48-9.54,1.59-40.3,12.69-43.5,8.46-2.44,27.81,12.9,29.85,11.58Z"/>
      <path class="cls-3" d="M338.95,677.21l-1.12.34c-6.91,15.9-27.56,11.1-28.9-6.05-1.1-14.19,16.53-34.6,24.25-46.73,1.05-1.65,3.71-7.96,5.45-7.63,6.91,11.74,16.12,22.16,22.79,34.05,4.95,8.84,10.61,20.01,3.63,29.47-7.16,9.7-22.51,8.76-26.1-3.45Z"/>
      <path class="cls-3" d="M374.42,723.05v-8.46c0-1.33,3.95-.33,5.25-.7,2.95-.84,1.26-1.39,1.27-3.64.1-14.42-1.25-31.89.04-45.85,2.44-26.55,37.63-24.32,37.63-.56v10.92c0,.11-.55,1.34-.93,1.38l-9.3-.69c-1.75-1.88,1.44-10.93-2.58-16.25-6.62-8.77-13.25-.5-13.94,7.36-1.29,14.6,1,31.06.02,45.86.18,2.75,9.27.23,9.27,2.73v8.46l-26.73-.55Z"/>
      <path class="cls-3" d="M397.34,627c-1.4,8.03-13.77,11.52-18.47,4.55-8.56-12.71,11.35-33.44,17.35-44.14.81-1.04,2.12-1.27,2.62.15,5.29,11.18,26.87,30.87,17.27,43.77-2.9,3.9-9.36,5.18-13.51,2.67-2.95-1.78-3.09-4.77-5.27-7Z"/>
      <path class="cls-1" d="M206.03,653.54c-1.07-1.33-2.16-3.46-.52-4.77,2.32-1.85,5.84,1.85,8.22,2.8,8.05,3.22,14.81,4.01,23.31,2,3.29-.78,8.34-4.07,11.53-1.93s-2.92,5.76-4.71,6.56c-9.21,4.13-31.01,3.84-37.82-4.67Z"/>
      <path class="cls-1" d="M212.03,643.18c-1.35-1.4-1.78-3.38.65-3.64,1.43-.15,8.44,3.91,8.97,3.28-.45-5.9,6.29-9.73,10.73-5.27,1.34,1.35,1.72,5.33,3.41,4.12.43-.31.59-3.58,3.05-3.26,1.94.25,1,2.09,1.47,2.67.68.84,6.58.1,3.76,4.24-1.32,1.94-12.41,4.09-15.04,4.09-5.22,0-13.31-2.41-16.99-6.23Z"/>
      <path class="cls-1" d="M253.33,598.04c-.06-.04.09-1.03-.36-1.1-.66-.1-1.65.67-2.54.47-3.37-.74-7.18-2.21-10.62-3.03-2.19-.52-6.75.77-5.5-3.55,1.69-5.87,13.47,0,17.08.15,2.66.11,7.89-.41,10.91-.56,2.4-.12,7.2-2.63,7.38,2.52.09,2.47-4.13,4.41-6.28,4.49s-2.57-1.48-2.86-1.53c-3.03-.6-3.3,1.47-3.5,1.53-.44.12-1.45-.65-2.31-.48-.39.08-.21,1.88-1.4,1.1Z"/>
      <path class="cls-1" d="M261.32,580.23c1.96,1.5,1.57,4.29-1.23,4.69-2.23.32-16.95.59-12.79-4.04,1.62-1.8,12.28-1.98,14.02-.65Z"/>
      <path class="cls-1" d="M181.12,487.66c-2.22,1.58-7.23.59-8.27-2.03-2.92-7.31,6.47-12.15,9.9-5.54,1.18,2.28.3,6.2-1.62,7.57Z"/>
      <path class="cls-1" d="M159.62,510.59c-4.3-6.86,5.16-13.57,9.37-6.92,4.28,6.77-6.88,10.89-9.37,6.92Z"/>
      <path class="cls-1" d="M184.73,460.37c-5.42-6.28,5.38-13.5,9.03-6.03,3.15,6.45-5.13,10.55-9.03,6.03Z"/>
      <path class="cls-1" d="M201.75,405.68c-6.35.02-6.89-11.09-.01-11.2,7.7-.12,7.51,11.17.01,11.2Z"/>
      <path class="cls-1" d="M200.74,425.25c6.5,8.02-10.87,13.42-9.06,2.31.72-4.45,6.34-5.66,9.06-2.31Z"/>
      <path class="cls-1" d="M150.99,534.53c-4.39-.38-4.76-8.97-1.34-10.39,7.58-3.15,10.28,11.17,1.34,10.39Z"/>
      <path class="cls-1" d="M290.55,509.51c-3.74-5.95,3.53-11.8,7.98-7.17,6.45,6.71-4.74,12.33-7.98,7.17Z"/>
      <path class="cls-1" d="M281.84,484.38c-2.39-1.75-3.59-8.5.79-9.5,11.71-2.66,7.02,15.23-.79,9.5Z"/>
      <path class="cls-1" d="M275.3,446.53c4.26-3.77,11.83,3.69,6.89,8.25s-12.08-3.66-6.89-8.25Z"/>
      <path class="cls-1" d="M308.02,534.64c-8.35,2.51-9.79-9.9-2.12-9.16,4.43.43,6.6,7.81,2.12,9.16Z"/>
      <line class="cls-2" x1="120.28" y1="361.91" x2="127" y2="363.79"/>
      <line class="cls-2" x1="428.89" y1="448.04" x2="430.04" y2="448.36"/>
    </g>
  </g>
</svg>