<?xml version="1.0" encoding="UTF-8"?>
<svg id="Layer_2" data-name="Layer 2" xmlns="http://www.w3.org/2000/svg" viewBox="0 0 558.73 558.73">
  <defs>
    <style>
      .cls-1 {
        fill: #fff;
      }

      .cls-2 {
        fill: #fefefe;
      }

      .cls-3 {
        fill: #161616;
        stroke: #231f20;
        stroke-miterlimit: 10;
      }
    </style>
  </defs>
  <g id="Layer_11" data-name="Layer 11">
    <g>
      <rect class="cls-2" width="558.73" height="558.73" rx="85.12" ry="85.12"/>
      <circle class="cls-3" cx="279.36" cy="279.36" r="224.81"/>
      <g>
        <path class="cls-2" d="M257.36,259.36v-81h26v200h0v2h-49c.66-2.92,3.34-4.33,5-6.5,2.3-3.02,4.64-6.94,7-10,3.76-4.87,8.03-9.12,11-14v-49l-93.5-93.5h-53.5v-29h65.5l81.5,81Z"/>
        <path class="cls-1" d="M289.36,378.36v-200h159v28c-1.11.15-2.52-.23-3.5,0-3.53.83-9.19,4.47-13,6-21.76,8.72-43.98,17.19-66,26-1.08.43-3.61,3.11-4.5,1.5,1.89-1.76,3.59-3.76,5.5-5.5,8.99-8.16,19.9-16.36,29-24,1.23-1.03,2.81-2.55,3.5-4h-83v144.5c1.65,2.61,4.07,4.52,6,7,4.74,6.08,9.43,12.43,14.5,18.5.85,1.01,1.34,2.09,2.54,4h-50.04"/>
      </g>
    </g>
  </g>
</svg>