<svg xmlns="http://www.w3.org/2000/svg" viewBox="0 0 480 300" role="img" aria-labelledby="mqttStickerTitle">
  <title id="mqttStickerTitle">MQTT survey: 57 responses funneled into four roadmap candidate clusters (A 15, B 17, C 12, D 13).</title>

  <!-- Paper background -->
  <rect width="480" height="300" fill="#F4ECDB"/>

  <!-- Faint paper rules -->
  <g stroke="#CFC4A8" stroke-width="0.6" opacity="0.30">
    <line x1="0" y1="60" x2="480" y2="60"/>
    <line x1="0" y1="252" x2="480" y2="252"/>
  </g>

  <!-- Header -->
  <text x="240" y="34" font-family="JetBrains Mono, monospace" font-size="11" font-weight="700" fill="#7A3A08" letter-spacing="0.16em" text-anchor="middle">
    57 RESPONSES  →  4 ROADMAP CANDIDATES
  </text>

  <!-- Source pinch + funnel -->
  <g>
    <circle cx="240" cy="76" r="5" fill="#7A3A08"/>
    <text x="252" y="80" font-family="JetBrains Mono, monospace" font-size="9.5" font-weight="700" fill="#7A3A08">n=57</text>
  </g>
  <g stroke="#B45309" stroke-width="1" stroke-dasharray="2 3" opacity="0.55" fill="none">
    <line x1="240" y1="82" x2="84"  y2="134"/>
    <line x1="240" y1="82" x2="188" y2="134"/>
    <line x1="240" y1="82" x2="294" y2="134"/>
    <line x1="240" y1="82" x2="398" y2="134"/>
  </g>

  <!-- ── Cluster A (15 dots) ─────────────────── -->
  <g fill="#B45309">
    <circle cx="62" cy="156" r="5"/>
    <circle cx="78" cy="156" r="5"/>
    <circle cx="94" cy="156" r="5"/>
    <circle cx="110" cy="156" r="5"/>
    <circle cx="66" cy="170" r="5"/>
    <circle cx="82" cy="170" r="5"/>
    <circle cx="98" cy="170" r="5"/>
    <circle cx="114" cy="170" r="5"/>
    <circle cx="60" cy="184" r="5"/>
    <circle cx="76" cy="184" r="5"/>
    <circle cx="92" cy="184" r="5"/>
    <circle cx="108" cy="184" r="5"/>
    <circle cx="72" cy="198" r="5"/>
    <circle cx="88" cy="198" r="5"/>
    <circle cx="104" cy="198" r="5"/>
  </g>
  <g transform="translate(84 224)">
    <rect x="-26" y="-10" width="52" height="20" rx="10" fill="#B45309"/>
    <text font-family="JetBrains Mono, monospace" font-size="10" font-weight="700" fill="white" text-anchor="middle" y="3.5">A · 15</text>
  </g>

  <!-- ── Cluster B (17 dots) ─────────────────── -->
  <g fill="#C26A1B">
    <circle cx="164" cy="152" r="5"/>
    <circle cx="180" cy="152" r="5"/>
    <circle cx="196" cy="152" r="5"/>
    <circle cx="212" cy="152" r="5"/>
    <circle cx="168" cy="166" r="5"/>
    <circle cx="184" cy="166" r="5"/>
    <circle cx="200" cy="166" r="5"/>
    <circle cx="216" cy="166" r="5"/>
    <circle cx="166" cy="180" r="5"/>
    <circle cx="182" cy="180" r="5"/>
    <circle cx="198" cy="180" r="5"/>
    <circle cx="214" cy="180" r="5"/>
    <circle cx="172" cy="194" r="5"/>
    <circle cx="188" cy="194" r="5"/>
    <circle cx="204" cy="194" r="5"/>
    <circle cx="180" cy="208" r="5"/>
    <circle cx="196" cy="208" r="5"/>
  </g>
  <g transform="translate(188 224)">
    <rect x="-26" y="-10" width="52" height="20" rx="10" fill="#C26A1B"/>
    <text font-family="JetBrains Mono, monospace" font-size="10" font-weight="700" fill="white" text-anchor="middle" y="3.5">B · 17</text>
  </g>

  <!-- ── Cluster C (12 dots) ─────────────────── -->
  <g fill="#D38B41">
    <circle cx="274" cy="160" r="5"/>
    <circle cx="290" cy="160" r="5"/>
    <circle cx="306" cy="160" r="5"/>
    <circle cx="278" cy="174" r="5"/>
    <circle cx="294" cy="174" r="5"/>
    <circle cx="310" cy="174" r="5"/>
    <circle cx="276" cy="188" r="5"/>
    <circle cx="292" cy="188" r="5"/>
    <circle cx="308" cy="188" r="5"/>
    <circle cx="282" cy="202" r="5"/>
    <circle cx="298" cy="202" r="5"/>
    <circle cx="314" cy="202" r="5"/>
  </g>
  <g transform="translate(294 224)">
    <rect x="-26" y="-10" width="52" height="20" rx="10" fill="#D38B41"/>
    <text font-family="JetBrains Mono, monospace" font-size="10" font-weight="700" fill="white" text-anchor="middle" y="3.5">C · 12</text>
  </g>

  <!-- ── Cluster D (13 dots) ─────────────────── -->
  <g fill="#E2A864">
    <circle cx="378" cy="156" r="5"/>
    <circle cx="394" cy="156" r="5"/>
    <circle cx="410" cy="156" r="5"/>
    <circle cx="382" cy="170" r="5"/>
    <circle cx="398" cy="170" r="5"/>
    <circle cx="414" cy="170" r="5"/>
    <circle cx="380" cy="184" r="5"/>
    <circle cx="396" cy="184" r="5"/>
    <circle cx="412" cy="184" r="5"/>
    <circle cx="384" cy="198" r="5"/>
    <circle cx="400" cy="198" r="5"/>
    <circle cx="416" cy="198" r="5"/>
    <circle cx="398" cy="212" r="5"/>
  </g>
  <g transform="translate(398 224)">
    <rect x="-26" y="-10" width="52" height="20" rx="10" fill="#E2A864"/>
    <text font-family="JetBrains Mono, monospace" font-size="10" font-weight="700" fill="white" text-anchor="middle" y="3.5">D · 13</text>
  </g>

  <!-- Footer note -->
  <text x="240" y="278" font-family="Inter, sans-serif" font-style="italic" font-size="11" fill="#7A3A08" text-anchor="middle" opacity="0.75">
    four candidates · ranked for roadmap fit
  </text>
</svg>
